<svg width="56" height="56" viewBox="0 0 56 56" fill="none" xmlns="http://www.w3.org/2000/svg">
<g clip-path="url(#clip0_9121_14273)">
<path d="M42.8221 36.19C42.8221 41.3175 39.5846 46.1649 34.8946 48.3874C33.1271 49.2274 31.0446 49.2274 29.2771 48.3874C24.5871 46.1474 21.3496 41.3 21.3496 36.19V35.4025C21.3496 31.9375 23.9746 28.0175 27.1946 26.705C30.3271 25.4275 33.8621 25.4275 36.9946 26.705C40.1971 28.0175 42.8396 31.9375 42.8396 35.4025V36.19H42.8221Z" fill="#FFCB09"/>
<path d="M28.0003 51.625C27.5278 51.625 27.0553 51.555 26.6003 51.4325C15.1553 48.265 6.84277 37.5725 6.84277 25.9875V16.0125C6.84277 13.7725 8.47027 11.3575 10.5353 10.5L23.2053 5.31998C26.2853 4.04248 29.6978 4.05998 32.7778 5.31998L45.4478 10.5C47.5128 11.3575 49.1403 13.7725 49.1403 16.0125V25.9875C49.1403 37.5725 40.8278 48.265 29.3828 51.4325C28.9278 51.555 28.4553 51.625 27.9828 51.625H28.0003ZM28.0003 6.12498C26.6003 6.12498 25.2003 6.40498 23.8878 6.94748L11.2003 12.1275C9.78277 12.705 8.59277 14.49 8.59277 16.0125V25.9875C8.59277 36.8025 16.3628 46.795 27.0728 49.7525C27.6853 49.9275 28.3328 49.9275 28.9453 49.7525C39.6553 46.795 47.4253 36.8025 47.4253 25.9875V16.0125C47.4253 14.49 46.2353 12.705 44.8178 12.1275L32.1478 6.94748C30.8178 6.40498 29.4178 6.12498 28.0353 6.12498H28.0003Z" fill="black"/>
<path d="M33.4951 38.675C32.9351 38.675 32.2176 38.5 31.3426 37.975L28.4376 36.26C28.2451 36.1375 27.7901 36.1375 27.5976 36.26L24.6926 37.975C22.8201 39.0775 21.6826 38.6225 21.1576 38.2375C20.6501 37.87 19.8451 36.9075 20.3351 34.79L21.0176 31.815C21.0701 31.605 20.9476 31.185 20.7901 31.045L18.3751 28.63C17.4126 27.6675 17.0451 26.5475 17.3601 25.5675C17.6751 24.5875 18.6201 23.8875 19.9676 23.6775L23.0651 23.17C23.2576 23.135 23.5901 22.89 23.6776 22.715L25.3926 19.3025C26.2501 17.5875 27.4051 17.3425 28.0176 17.3425C28.6301 17.3425 29.7851 17.605 30.6426 19.3025L32.3576 22.715C32.4451 22.89 32.7776 23.135 32.9701 23.17L36.0676 23.6775C37.4151 23.905 38.3601 24.5875 38.6751 25.5675C38.9901 26.5475 38.6226 27.6675 37.6601 28.63L35.2451 31.045C35.0876 31.2025 34.9826 31.6225 35.0176 31.815L35.7001 34.79C36.1901 36.9075 35.4026 37.8525 34.8776 38.2375C34.5976 38.43 34.1426 38.6575 33.5126 38.6575L33.4951 38.675ZM28.0001 34.0725C28.5426 34.0725 29.0676 34.195 29.4876 34.4575L32.3926 36.1725C33.1976 36.645 33.5651 36.5925 33.6176 36.5575C33.6526 36.5225 33.8276 36.1725 33.6176 35.28L32.9351 32.305C32.7251 31.395 33.0576 30.24 33.7226 29.575L36.1376 27.16C36.5576 26.74 36.6976 26.3725 36.6451 26.215C36.5926 26.0575 36.2776 25.8475 35.6826 25.7425L32.5851 25.235C31.7276 25.095 30.8351 24.43 30.4501 23.66L28.7351 20.2475C28.4376 19.6525 28.1226 19.4425 28.0001 19.4425C27.8776 19.4425 27.5451 19.6525 27.2651 20.2475L25.5501 23.66C25.1651 24.43 24.2551 25.095 23.4151 25.235L20.3351 25.7425C19.7401 25.8475 19.4251 26.0575 19.3726 26.215C19.3201 26.3725 19.4601 26.74 19.8801 27.16L22.2951 29.575C22.9601 30.24 23.2926 31.395 23.0826 32.305L22.4001 35.28C22.1901 36.1725 22.3651 36.5225 22.4001 36.5575C22.4351 36.5925 22.8201 36.645 23.6251 36.1725L26.5301 34.4575C26.9501 34.2125 27.4926 34.0725 28.0176 34.0725H28.0001Z" fill="black"/>
</g>
<defs>
<clipPath id="clip0_9121_14273">
<rect width="56" height="56" fill="white"/>
</clipPath>
</defs>
</svg>
