<svg width="33" height="32" viewBox="0 0 33 32" fill="none" xmlns="http://www.w3.org/2000/svg">
<g id="Frame" clip-path="url(#clip0_1615_137)">
<path id="Vector" d="M14.5 11.46C14.5 11.46 20.42 7.36001 20.99 12.05L14.5 11.46Z" fill="#FFCB09"/>
<path id="Vector_2" d="M7.25945 25.16C8.67883 25.16 9.82945 24.0094 9.82945 22.59C9.82945 21.1706 8.67883 20.02 7.25945 20.02C5.84008 20.02 4.68945 21.1706 4.68945 22.59C4.68945 24.0094 5.84008 25.16 7.25945 25.16Z" fill="#FFCB09"/>
<path id="Vector_3" d="M27.4196 25.16C28.839 25.16 29.9896 24.0094 29.9896 22.59C29.9896 21.1706 28.839 20.02 27.4196 20.02C26.0002 20.02 24.8496 21.1706 24.8496 22.59C24.8496 24.0094 26.0002 25.16 27.4196 25.16Z" fill="#FFCB09"/>
<g id="Group">
<path id="Vector_4" d="M26.5801 22.67C26.4301 22.67 26.2901 22.6 26.1901 22.48L21.7701 16.9C21.6001 16.68 21.6401 16.37 21.8501 16.2C22.0701 16.03 22.3801 16.07 22.5501 16.28L26.9701 21.86C27.1401 22.08 27.1001 22.39 26.8901 22.56C26.8001 22.63 26.6901 22.67 26.5801 22.67Z" fill="black"/>
<path id="Vector_5" d="M21.3696 12.0199C21.1196 12.0199 20.8996 11.8299 20.8696 11.5799C20.6996 10.0599 20.1696 9.08991 19.2796 8.70991C17.2196 7.80991 13.4896 10.0599 12.2196 10.9999C11.9996 11.1599 11.6796 11.1199 11.5196 10.8999C11.3496 10.6799 11.3996 10.3599 11.6196 10.1999C11.8296 10.0499 16.6596 6.48991 19.6696 7.78991C20.9096 8.32991 21.6396 9.55991 21.8596 11.4699C21.8896 11.7399 21.6896 11.9899 21.4196 12.0199C21.3996 12.0199 21.3796 12.0199 21.3596 12.0199H21.3696Z" fill="black"/>
<path id="Vector_6" d="M15.4398 22.7299H6.41977C6.24977 22.7299 6.08977 22.6399 5.99977 22.4999C5.90977 22.3499 5.89977 22.1699 5.96977 22.0199L9.20977 15.3499C9.32977 15.0999 9.62977 14.9999 9.87977 15.1199C10.1298 15.2399 10.2298 15.5399 10.1098 15.7899L7.21977 21.7399H15.4398C15.7198 21.7399 15.9398 21.9599 15.9398 22.2399C15.9398 22.5199 15.7198 22.7399 15.4398 22.7399V22.7299Z" fill="black"/>
<path id="Vector_7" d="M19.6194 22.73H15.8794C14.0194 22.66 11.9694 20.79 11.9694 18.38C11.9694 18.18 11.9794 17.99 12.0094 17.79L2.51943 11.21C2.37943 11.11 2.29943 10.95 2.30943 10.77L2.57943 5.87995C2.57943 5.69995 2.68943 5.54995 2.84943 5.45995C3.00943 5.37995 3.18943 5.37995 3.33943 5.47995C14.6494 12.44 19.1294 12.09 20.7994 11.27C22.0994 10.62 22.2394 9.46995 22.2394 9.41995V9.34995C22.2494 8.73995 22.2694 7.86995 22.2594 6.96995C22.2594 6.51995 22.4294 6.07995 22.7494 5.77995C23.0294 5.50995 23.3994 5.37995 23.7694 5.39995C27.4194 5.65995 29.4194 8.90995 29.4994 9.04995C30.5694 10.58 30.7994 12.48 30.0794 13.86C29.5994 14.78 28.7894 15.3 27.8494 15.3C25.3494 15.3 23.3994 15.99 22.0694 17.34C20.0994 19.34 20.1194 22.17 20.1194 22.2C20.1194 22.33 20.0694 22.46 19.9794 22.56C19.8894 22.65 19.7594 22.71 19.6194 22.71V22.73ZM13.4394 15.18C13.5594 15.18 13.6694 15.22 13.7694 15.3C13.9794 15.48 13.9994 15.8 13.8194 16.01C13.2694 16.64 12.9694 17.49 12.9694 18.38C12.9694 20.18 14.5694 21.69 15.8994 21.73H19.1494C19.2294 20.73 19.6094 18.45 21.3494 16.67C22.8794 15.11 25.0694 14.32 27.8494 14.32C28.3994 14.32 28.8894 13.99 29.1894 13.41C29.6094 12.61 29.7194 11.13 28.6594 9.59995C28.6294 9.53995 26.8194 6.62995 23.6894 6.40995C23.5794 6.40995 23.4794 6.45995 23.4294 6.50995C23.3194 6.61995 23.2494 6.77995 23.2594 6.94995C23.2694 7.86995 23.2594 8.74995 23.2394 9.36995V9.47995C23.2294 9.57995 23.0694 11.24 21.2694 12.15C18.0794 13.76 12.1194 11.95 3.52943 6.76995L3.31943 10.54L12.2394 16.73C12.4294 16.22 12.6994 15.74 13.0594 15.33C13.1594 15.22 13.2994 15.16 13.4394 15.16V15.18Z" fill="black"/>
<path id="Vector_8" d="M26.6109 11.46C26.4409 11.46 26.2709 11.37 26.1809 11.21C25.9209 10.75 25.4009 10.73 25.3709 10.73C25.1009 10.73 24.8809 10.5 24.8809 10.22C24.8809 9.94998 25.1009 9.72998 25.3809 9.72998C25.7909 9.72998 26.6009 9.93998 27.0509 10.71C27.1909 10.95 27.1009 11.25 26.8609 11.39C26.7809 11.43 26.7009 11.46 26.6109 11.46Z" fill="black"/>
<path id="Vector_9" d="M26.5802 26.59C24.1402 26.59 22.1602 24.61 22.1602 22.17C22.1602 19.73 24.1402 17.75 26.5802 17.75C29.0202 17.75 31.0002 19.73 31.0002 22.17C31.0002 24.61 29.0202 26.59 26.5802 26.59ZM26.5802 18.75C24.6902 18.75 23.1602 20.28 23.1602 22.17C23.1602 24.06 24.6902 25.59 26.5802 25.59C28.4702 25.59 30.0002 24.06 30.0002 22.17C30.0002 20.28 28.4702 18.75 26.5802 18.75Z" fill="black"/>
<path id="Vector_10" d="M6.42 26.59C3.98 26.59 2 24.61 2 22.17C2 19.73 3.98 17.75 6.42 17.75C8.86 17.75 10.84 19.73 10.84 22.17C10.84 24.61 8.86 26.59 6.42 26.59ZM6.42 18.75C4.53 18.75 3 20.28 3 22.17C3 24.06 4.53 25.59 6.42 25.59C8.31 25.59 9.84 24.06 9.84 22.17C9.84 20.28 8.31 18.75 6.42 18.75Z" fill="black"/>
<path id="Vector_11" d="M26.5805 23.4499C25.8805 23.4499 25.3105 22.8799 25.3105 22.1799C25.3105 21.4799 25.8805 20.9099 26.5805 20.9099C27.2805 20.9099 27.8505 21.4799 27.8505 22.1799C27.8505 22.8799 27.2805 23.4499 26.5805 23.4499ZM26.5805 21.8999C26.4305 21.8999 26.3105 22.0199 26.3105 22.1699C26.3105 22.4699 26.8605 22.4699 26.8605 22.1699C26.8605 22.0199 26.7405 21.8999 26.5905 21.8999H26.5805Z" fill="black"/>
<path id="Vector_12" d="M6.42039 23.4499C5.72039 23.4499 5.15039 22.8799 5.15039 22.1799C5.15039 21.4799 5.72039 20.9099 6.42039 20.9099C7.12039 20.9099 7.69039 21.4799 7.69039 22.1799C7.69039 22.8799 7.12039 23.4499 6.42039 23.4499ZM6.42039 21.8999C6.27039 21.8999 6.15039 22.0199 6.15039 22.1699C6.15039 22.4699 6.70039 22.4699 6.70039 22.1699C6.70039 22.0199 6.58039 21.8999 6.43039 21.8999H6.42039Z" fill="black"/>
</g>
</g>
<defs>
<clipPath id="clip0_1615_137">
<rect width="32" height="32" fill="white" transform="translate(0.5)"/>
</clipPath>
</defs>
</svg>
