<svg width="32" height="32" viewBox="0 0 32 32" fill="none" xmlns="http://www.w3.org/2000/svg">
<g id="Frame" clip-path="url(#clip0_1615_478)">
<g id="Group">
<path id="Vector" d="M8.97992 9.1499H19.0199V14.5999H7.66992V10.4599C7.66992 9.7399 8.24992 9.1499 8.97992 9.1499Z" fill="#FFCB09"/>
<path id="Vector_2" d="M8.97922 25.3399C9.82421 25.3399 10.5092 24.6191 10.5092 23.7299C10.5092 22.8407 9.82421 22.1199 8.97922 22.1199C8.13422 22.1199 7.44922 22.8407 7.44922 23.7299C7.44922 24.6191 8.13422 25.3399 8.97922 25.3399Z" fill="#FFCB09"/>
<path id="Vector_3" d="M24.3503 25.3399C25.1953 25.3399 25.8803 24.6191 25.8803 23.7299C25.8803 22.8407 25.1953 22.1199 24.3503 22.1199C23.5053 22.1199 22.8203 22.8407 22.8203 23.7299C22.8203 24.6191 23.5053 25.3399 24.3503 25.3399Z" fill="#FFCB09"/>
<path id="Vector_4" d="M27.0598 23.3999H25.7298C25.4498 23.3999 25.2298 23.1799 25.2298 22.8999C25.2298 22.6199 25.4498 22.3999 25.7298 22.3999H27.0598C28.4098 22.3999 29.4998 21.2299 29.4998 19.7999V14.8199C29.4998 14.4799 29.4098 14.1599 29.2498 13.8799L26.4998 8.21993C26.2298 7.74993 25.7098 7.43993 25.1598 7.43993H19.5098V22.4099H21.4298C21.7098 22.4099 21.9298 22.6299 21.9298 22.9099C21.9298 23.1899 21.7098 23.4099 21.4298 23.4099H19.1198C18.7798 23.4099 18.5098 23.1299 18.5098 22.7899V7.05993C18.5098 6.70993 18.7798 6.42993 19.1198 6.42993H25.1498C26.0598 6.42993 26.9198 6.92993 27.3798 7.74993L30.1298 13.4099C30.3698 13.8099 30.4998 14.3099 30.4998 14.8299V19.8099C30.4998 21.7999 28.9598 23.4099 27.0598 23.4099V23.3999Z" fill="black"/>
<path id="Vector_5" d="M10.37 23.4199C10.09 23.4199 9.87 23.1999 9.87 22.9199C9.87 22.6399 10.09 22.4199 10.37 22.4199L18.51 22.3999V7.42993H4.76C3.51 7.42993 2.5 8.50993 2.5 9.83993V20.1399C2.5 21.3899 3.45 22.3999 4.62 22.3999H6.06C6.34 22.3999 6.56 22.6199 6.56 22.8999C6.56 23.1799 6.34 23.3999 6.06 23.3999H4.62C2.9 23.3999 1.5 21.9399 1.5 20.1399V9.83993C1.5 7.95993 2.96 6.42993 4.76 6.42993H19.01C19.29 6.42993 19.51 6.64993 19.51 6.92993V22.8999C19.51 23.1799 19.29 23.3999 19.01 23.3999L10.37 23.4199Z" fill="black"/>
<path id="Vector_6" d="M29.99 15.0999H2C1.72 15.0999 1.5 14.8799 1.5 14.5999C1.5 14.3199 1.72 14.0999 2 14.0999H29.99C30.27 14.0999 30.49 14.3199 30.49 14.5999C30.49 14.8799 30.27 15.0999 29.99 15.0999Z" fill="black"/>
<path id="Vector_7" d="M5.59961 15.0999C5.31961 15.0999 5.09961 14.8799 5.09961 14.5999V6.92993C5.09961 6.64993 5.31961 6.42993 5.59961 6.42993C5.87961 6.42993 6.09961 6.64993 6.09961 6.92993V14.5999C6.09961 14.8799 5.87961 15.0999 5.59961 15.0999Z" fill="black"/>
<path id="Vector_8" d="M10.2695 15.0999C9.98953 15.0999 9.76953 14.8799 9.76953 14.5999V6.92993C9.76953 6.64993 9.98953 6.42993 10.2695 6.42993C10.5495 6.42993 10.7695 6.64993 10.7695 6.92993V14.5999C10.7695 14.8799 10.5495 15.0999 10.2695 15.0999Z" fill="black"/>
<path id="Vector_9" d="M14.9297 15.0999C14.6497 15.0999 14.4297 14.8799 14.4297 14.5999V6.92993C14.4297 6.64993 14.6497 6.42993 14.9297 6.42993C15.2097 6.42993 15.4297 6.64993 15.4297 6.92993V14.5999C15.4297 14.8799 15.2097 15.0999 14.9297 15.0999Z" fill="black"/>
<path id="Vector_10" d="M8.22031 25.57C6.76031 25.57 5.57031 24.38 5.57031 22.92C5.57031 21.46 6.76031 20.27 8.22031 20.27C9.68031 20.27 10.8703 21.46 10.8703 22.92C10.8703 24.38 9.68031 25.57 8.22031 25.57ZM8.22031 21.27C7.31031 21.27 6.57031 22.01 6.57031 22.92C6.57031 23.83 7.31031 24.57 8.22031 24.57C9.13031 24.57 9.87031 23.83 9.87031 22.92C9.87031 22.01 9.13031 21.27 8.22031 21.27Z" fill="black"/>
<path id="Vector_11" d="M23.5797 25.57C22.1197 25.57 20.9297 24.38 20.9297 22.92C20.9297 21.46 22.1197 20.27 23.5797 20.27C25.0397 20.27 26.2297 21.46 26.2297 22.92C26.2297 24.38 25.0397 25.57 23.5797 25.57ZM23.5797 21.27C22.6697 21.27 21.9297 22.01 21.9297 22.92C21.9297 23.83 22.6697 24.57 23.5797 24.57C24.4897 24.57 25.2297 23.83 25.2297 22.92C25.2297 22.01 24.4897 21.27 23.5797 21.27Z" fill="black"/>
</g>
</g>
<defs>
<clipPath id="clip0_1615_478">
<rect width="32" height="32" fill="white"/>
</clipPath>
</defs>
</svg>
