<svg width="40" height="40" viewBox="0 0 40 40" fill="none" xmlns="http://www.w3.org/2000/svg">
<g clip-path="url(#clip0_7780_40756)">
<g clip-path="url(#clip1_7780_40756)">
<path d="M25.55 17.1891H20V12.6191H22.33C23.02 12.6191 23.65 13.0191 23.94 13.6491L25.56 17.1891H25.55Z" fill="#FFCB09"/>
<path d="M13.2998 17.1891H19.9998V12.6191H16.9798C16.2698 12.6191 15.6198 13.0091 15.2698 13.6291L13.2998 17.1891Z" fill="#FFCB09"/>
<path d="M31.3298 27.2997H29.6998C29.4198 27.2997 29.1998 27.0797 29.1998 26.7997C29.1998 26.5197 29.4198 26.2997 29.6998 26.2997H31.3298C32.6198 26.2997 33.6598 25.2497 33.6598 23.9497V21.4297C33.6598 19.3597 31.9798 17.6797 29.9098 17.6797H10.0898C8.01984 17.6797 6.33984 19.3597 6.33984 21.4297V23.9497C6.33984 25.2397 7.38984 26.2997 8.66984 26.2997H10.3398C10.6198 26.2997 10.8398 26.5197 10.8398 26.7997C10.8398 27.0797 10.6198 27.2997 10.3398 27.2997H8.66984C6.82984 27.2997 5.33984 25.7997 5.33984 23.9497V21.4297C5.33984 18.8097 7.46984 16.6797 10.0898 16.6797H29.9198C32.5398 16.6797 34.6698 18.8097 34.6698 21.4297V23.9497C34.6698 25.7997 33.1798 27.2997 31.3398 27.2997H31.3298Z" fill="#121212"/>
<path d="M24.7398 27.3008H15.2998C15.0198 27.3008 14.7998 27.0808 14.7998 26.8008C14.7998 26.5208 15.0198 26.3008 15.2998 26.3008H24.7398C25.0198 26.3008 25.2398 26.5208 25.2398 26.8008C25.2398 27.0808 25.0198 27.3008 24.7398 27.3008Z" fill="#121212"/>
<path d="M28.33 17.6898H20C19.72 17.6898 19.5 17.4698 19.5 17.1898V10.3398C19.5 10.0598 19.72 9.83984 20 9.83984H23.49C24.72 9.83984 25.84 10.5598 26.36 11.6798L28.79 16.9798C28.86 17.1298 28.85 17.3098 28.76 17.4598C28.67 17.5998 28.51 17.6898 28.34 17.6898H28.33ZM20.5 16.6898H27.55L25.44 12.0898C25.09 11.3298 24.32 10.8398 23.48 10.8398H20.49V16.6898H20.5Z" fill="#121212"/>
<path d="M19.9996 17.6901H9.94965C9.76965 17.6901 9.60965 17.6001 9.51965 17.4401C9.42965 17.2801 9.42965 17.1001 9.51965 16.9401L12.4696 11.6001C13.0696 10.5101 14.2196 9.83008 15.4696 9.83008H20.0096C20.2896 9.83008 20.5096 10.0501 20.5096 10.3301V17.1801C20.5096 17.4601 20.2896 17.6801 20.0096 17.6801L19.9996 17.6901ZM10.7996 16.6901H19.4996V10.8401H15.4596C14.5796 10.8401 13.7696 11.3201 13.3396 12.0901L10.7996 16.6901Z" fill="#121212"/>
<path d="M20 27.3002C19.72 27.3002 19.5 27.0802 19.5 26.8002V16.2402C19.5 15.9602 19.72 15.7402 20 15.7402C20.28 15.7402 20.5 15.9602 20.5 16.2402V26.8002C20.5 27.0802 20.28 27.3002 20 27.3002Z" fill="#121212"/>
<path d="M13.65 29.2707C14.5613 29.2707 15.3 28.532 15.3 27.6207C15.3 26.7094 14.5613 25.9707 13.65 25.9707C12.7387 25.9707 12 26.7094 12 27.6207C12 28.532 12.7387 29.2707 13.65 29.2707Z" fill="#FFCB09"/>
<path d="M12.8198 29.7705C11.1798 29.7705 9.83984 28.4305 9.83984 26.7905C9.83984 25.1505 11.1798 23.8105 12.8198 23.8105C14.4598 23.8105 15.7998 25.1505 15.7998 26.7905C15.7998 28.4305 14.4598 29.7705 12.8198 29.7705ZM12.8198 24.8105C11.7298 24.8105 10.8398 25.7005 10.8398 26.7905C10.8398 27.8805 11.7298 28.7705 12.8198 28.7705C13.9098 28.7705 14.7998 27.8805 14.7998 26.7905C14.7998 25.7005 13.9098 24.8105 12.8198 24.8105Z" fill="#121212"/>
<path d="M28.0504 29.2707C28.9617 29.2707 29.7004 28.532 29.7004 27.6207C29.7004 26.7094 28.9617 25.9707 28.0504 25.9707C27.1391 25.9707 26.4004 26.7094 26.4004 27.6207C26.4004 28.532 27.1391 29.2707 28.0504 29.2707Z" fill="#FFCB09"/>
<path d="M27.2202 29.7705C25.5802 29.7705 24.2402 28.4305 24.2402 26.7905C24.2402 25.1505 25.5802 23.8105 27.2202 23.8105C28.8602 23.8105 30.2002 25.1505 30.2002 26.7905C30.2002 28.4305 28.8602 29.7705 27.2202 29.7705ZM27.2202 24.8105C26.1302 24.8105 25.2402 25.7005 25.2402 26.7905C25.2402 27.8805 26.1302 28.7705 27.2202 28.7705C28.3102 28.7705 29.2002 27.8805 29.2002 26.7905C29.2002 25.7005 28.3102 24.8105 27.2202 24.8105Z" fill="#121212"/>
</g>
</g>
<defs>
<clipPath id="clip0_7780_40756">
<rect width="40" height="40" fill="white"/>
</clipPath>
<clipPath id="clip1_7780_40756">
<rect width="40" height="40" fill="white"/>
</clipPath>
</defs>
</svg>
