<svg width="32" height="32" viewBox="0 0 32 32" fill="none" xmlns="http://www.w3.org/2000/svg">
<g id="Frame">
<g id="Group">
<path id="Vector" d="M27.6911 18.7598V23.3498C27.6911 26.3598 25.2511 28.7998 22.2411 28.7998H17.5711C14.5611 28.7998 12.1211 26.3598 12.1211 23.3498V22.0498C12.1211 20.2398 13.5911 18.7598 15.4111 18.7598H27.7011H27.6911Z" fill="#FFCB09"/>
<g id="Group_2">
<path id="Vector_2" d="M19.5416 29.5005H12.5316C6.45156 29.5005 3.85156 26.9005 3.85156 20.8205V14.9805C3.85156 14.7005 4.07156 14.4805 4.35156 14.4805C4.63156 14.4805 4.85156 14.7005 4.85156 14.9805V20.8205C4.85156 26.4205 6.93156 28.5005 12.5316 28.5005H19.5416C25.1416 28.5005 27.2216 26.4205 27.2216 20.8205V14.9805C27.2216 14.7005 27.4416 14.4805 27.7216 14.4805C28.0016 14.4805 28.2216 14.7005 28.2216 14.9805V20.8205C28.2216 26.9005 25.6316 29.5005 19.5416 29.5005Z" fill="black"/>
<path id="Vector_3" d="M16.0434 16.5C14.7434 16.5 13.5734 15.99 12.7434 15.07C11.9134 14.15 11.5234 12.93 11.6534 11.64L12.5234 2.95C12.5534 2.69 12.7634 2.5 13.0234 2.5H19.0934C19.3534 2.5 19.5634 2.69 19.5934 2.95L20.4634 11.64C20.5934 12.93 20.2034 14.15 19.3734 15.07C18.5434 15.99 17.3634 16.5 16.0734 16.5H16.0434ZM13.4634 3.5L12.6434 11.74C12.5434 12.74 12.8434 13.69 13.4834 14.4C14.1234 15.11 15.0334 15.5 16.0434 15.5C17.0534 15.5 17.9634 15.11 18.6034 14.4C19.2434 13.69 19.5434 12.74 19.4434 11.74L18.6234 3.5H13.4634Z" fill="black"/>
<path id="Vector_4" d="M24.2406 16.5C21.8406 16.5 19.6906 14.56 19.4506 12.17L18.5406 3.05C18.5306 2.91 18.5706 2.77 18.6706 2.66C18.7606 2.56 18.9006 2.5 19.0406 2.5H23.0006C26.5706 2.5 28.1606 3.93 28.6706 7.61L29.0306 11.21C29.1706 12.61 28.7506 13.94 27.8406 14.94C26.9306 15.94 25.6506 16.5 24.2406 16.5ZM19.5906 3.5L20.4506 12.07C20.6406 13.96 22.3406 15.5 24.2406 15.5C25.3606 15.5 26.3806 15.06 27.1006 14.27C27.8206 13.48 28.1506 12.43 28.0406 11.31L27.6806 7.73C27.2406 4.53 26.1006 3.5 23.0006 3.5H19.5906Z" fill="black"/>
<path id="Vector_5" d="M7.7617 16.5C6.3517 16.5 5.0717 15.95 4.1617 14.94C3.2517 13.94 2.8317 12.61 2.9717 11.21L3.3317 7.63C3.8417 3.93 5.4317 2.5 9.0017 2.5H12.9617C13.1017 2.5 13.2417 2.56 13.3317 2.66C13.4217 2.76 13.4717 2.9 13.4617 3.05L12.5517 12.17C12.3117 14.56 10.1617 16.5 7.7617 16.5ZM9.0017 3.5C5.9017 3.5 4.7717 4.53 4.3217 7.75L3.9617 11.31C3.8517 12.43 4.1817 13.48 4.9017 14.27C5.6217 15.06 6.6317 15.5 7.7617 15.5C9.6617 15.5 11.3617 13.96 11.5517 12.07L12.4117 3.5H9.0017Z" fill="black"/>
<path id="Vector_6" d="M19.2813 29.5H12.7812C12.5012 29.5 12.2812 29.28 12.2812 29V25.75C12.2812 23.3 13.5813 22 16.0313 22C18.4813 22 19.7813 23.3 19.7813 25.75V29C19.7813 29.28 19.5613 29.5 19.2813 29.5ZM13.2812 28.5H18.7813V25.75C18.7813 23.85 17.9313 23 16.0313 23C14.1313 23 13.2812 23.85 13.2812 25.75V28.5Z" fill="black"/>
</g>
</g>
</g>
</svg>
