<svg width="48" height="48" viewBox="0 0 48 48" fill="none" xmlns="http://www.w3.org/2000/svg">
<g clip-path="url(#clip0_7997_15465)">
<g clip-path="url(#clip1_7997_15465)">
<path d="M30.66 20.6285H24V15.1445H26.796C27.624 15.1445 28.38 15.6245 28.728 16.3805L30.672 20.6285H30.66Z" fill="#FFCB09"/>
<path d="M15.957 20.6285H23.997V15.1445H20.373C19.521 15.1445 18.741 15.6125 18.321 16.3565L15.957 20.6285Z" fill="#FFCB09"/>
<path d="M37.5943 32.7616H35.6383C35.3023 32.7616 35.0383 32.4976 35.0383 32.1616C35.0383 31.8256 35.3023 31.5616 35.6383 31.5616H37.5943C39.1423 31.5616 40.3903 30.3016 40.3903 28.7416V25.7176C40.3903 23.2336 38.3743 21.2176 35.8903 21.2176H12.1063C9.62225 21.2176 7.60625 23.2336 7.60625 25.7176V28.7416C7.60625 30.2896 8.86625 31.5616 10.4023 31.5616H12.4062C12.7423 31.5616 13.0063 31.8256 13.0063 32.1616C13.0063 32.4976 12.7423 32.7616 12.4062 32.7616H10.4023C8.19425 32.7616 6.40625 30.9616 6.40625 28.7416V25.7176C6.40625 22.5736 8.96225 20.0176 12.1063 20.0176H35.9023C39.0462 20.0176 41.6022 22.5736 41.6022 25.7176V28.7416C41.6022 30.9616 39.8143 32.7616 37.6063 32.7616H37.5943Z" fill="#121212"/>
<path d="M29.6858 32.7605H18.3578C18.0218 32.7605 17.7578 32.4965 17.7578 32.1605C17.7578 31.8245 18.0218 31.5605 18.3578 31.5605H29.6858C30.0218 31.5605 30.2858 31.8245 30.2858 32.1605C30.2858 32.4965 30.0218 32.7605 29.6858 32.7605Z" fill="#121212"/>
<path d="M33.9944 21.2286H23.9984C23.6624 21.2286 23.3984 20.9646 23.3984 20.6286V12.4086C23.3984 12.0726 23.6624 11.8086 23.9984 11.8086H28.1864C29.6624 11.8086 31.0064 12.6726 31.6304 14.0166L34.5464 20.3766C34.6304 20.5566 34.6184 20.7726 34.5104 20.9526C34.4024 21.1206 34.2104 21.2286 34.0064 21.2286H33.9944ZM24.5984 20.0286H33.0584L30.5264 14.5086C30.1064 13.5966 29.1824 13.0086 28.1744 13.0086H24.5864V20.0286H24.5984Z" fill="#121212"/>
<path d="M23.9968 21.2289H11.9368C11.7208 21.2289 11.5288 21.1209 11.4208 20.9289C11.3128 20.7369 11.3128 20.5209 11.4208 20.3289L14.9608 13.9209C15.6808 12.6129 17.0608 11.7969 18.5608 11.7969H24.0088C24.3448 11.7969 24.6088 12.0609 24.6088 12.3969V20.6169C24.6088 20.9529 24.3448 21.2169 24.0088 21.2169L23.9968 21.2289ZM12.9568 20.0289H23.3968V13.0089H18.5488C17.4928 13.0089 16.5208 13.5849 16.0048 14.5089L12.9568 20.0289Z" fill="#121212"/>
<path d="M23.9984 32.7607C23.6624 32.7607 23.3984 32.4967 23.3984 32.1607V19.4887C23.3984 19.1527 23.6624 18.8887 23.9984 18.8887C24.3344 18.8887 24.5984 19.1527 24.5984 19.4887V32.1607C24.5984 32.4967 24.3344 32.7607 23.9984 32.7607Z" fill="#121212"/>
<path d="M16.3784 35.1241C17.472 35.1241 18.3584 34.2376 18.3584 33.1441C18.3584 32.0505 17.472 31.1641 16.3784 31.1641C15.2849 31.1641 14.3984 32.0505 14.3984 33.1441C14.3984 34.2376 15.2849 35.1241 16.3784 35.1241Z" fill="#FFCB09"/>
<path d="M15.3807 35.7243C13.4127 35.7243 11.8047 34.1163 11.8047 32.1483C11.8047 30.1803 13.4127 28.5723 15.3807 28.5723C17.3487 28.5723 18.9567 30.1803 18.9567 32.1483C18.9567 34.1163 17.3487 35.7243 15.3807 35.7243ZM15.3807 29.7723C14.0727 29.7723 13.0047 30.8403 13.0047 32.1483C13.0047 33.4563 14.0727 34.5243 15.3807 34.5243C16.6887 34.5243 17.7567 33.4563 17.7567 32.1483C17.7567 30.8403 16.6887 29.7723 15.3807 29.7723Z" fill="#121212"/>
<path d="M33.6597 35.1241C34.7532 35.1241 35.6397 34.2376 35.6397 33.1441C35.6397 32.0505 34.7532 31.1641 33.6597 31.1641C32.5662 31.1641 31.6797 32.0505 31.6797 33.1441C31.6797 34.2376 32.5662 35.1241 33.6597 35.1241Z" fill="#FFCB09"/>
<path d="M32.6619 35.7243C30.6939 35.7243 29.0859 34.1163 29.0859 32.1483C29.0859 30.1803 30.6939 28.5723 32.6619 28.5723C34.6299 28.5723 36.2379 30.1803 36.2379 32.1483C36.2379 34.1163 34.6299 35.7243 32.6619 35.7243ZM32.6619 29.7723C31.3539 29.7723 30.2859 30.8403 30.2859 32.1483C30.2859 33.4563 31.3539 34.5243 32.6619 34.5243C33.9699 34.5243 35.0379 33.4563 35.0379 32.1483C35.0379 30.8403 33.9699 29.7723 32.6619 29.7723Z" fill="#121212"/>
</g>
</g>
<defs>
<clipPath id="clip0_7997_15465">
<rect width="48" height="48" fill="white"/>
</clipPath>
<clipPath id="clip1_7997_15465">
<rect width="48" height="48" fill="white"/>
</clipPath>
</defs>
</svg>
