<svg width="33" height="32" viewBox="0 0 33 32" fill="none" xmlns="http://www.w3.org/2000/svg">
<g id="Frame" clip-path="url(#clip0_1615_333)">
<g id="Group">
<path id="Vector" d="M7.16992 13.44H16.4999V8.95996H10.5699C9.78992 8.95996 9.07992 9.40996 8.74992 10.1L7.16992 13.43V13.44Z" fill="#FFCB09"/>
<path id="Vector_2" d="M10.2198 25.28C11.1201 25.28 11.8498 24.5547 11.8498 23.66C11.8498 22.7653 11.1201 22.04 10.2198 22.04C9.31962 22.04 8.58984 22.7653 8.58984 23.66C8.58984 24.5547 9.31962 25.28 10.2198 25.28Z" fill="#FFCB09"/>
<path id="Vector_3" d="M24.4503 25.28C25.3505 25.28 26.0803 24.5547 26.0803 23.66C26.0803 22.7653 25.3505 22.04 24.4503 22.04C23.5501 22.04 22.8203 22.7653 22.8203 23.66C22.8203 24.5547 23.5501 25.28 24.4503 25.28Z" fill="#FFCB09"/>
<path id="Vector_4" d="M27.7 23.3599H26.09C25.81 23.3599 25.59 23.1399 25.59 22.8599C25.59 22.5799 25.81 22.3599 26.09 22.3599H27.7C28.97 22.3599 30 21.3299 30 20.0699V17.5999C30 15.5799 28.34 13.9399 26.3 13.9399H3V20.0699C3 21.3299 4.03 22.3599 5.3 22.3599H6.95C7.23 22.3599 7.45 22.5799 7.45 22.8599C7.45 23.1399 7.23 23.3599 6.95 23.3599H5.3C3.48 23.3599 2 21.8799 2 20.0699V13.4399C2 13.1599 2.22 12.9399 2.5 12.9399H26.3C28.89 12.9399 31 15.0299 31 17.5999V20.0699C31 21.8799 29.52 23.3599 27.7 23.3599Z" fill="black"/>
<path id="Vector_5" d="M21.1896 23.3599H11.8496C11.5696 23.3599 11.3496 23.1399 11.3496 22.8599C11.3496 22.5799 11.5696 22.3599 11.8496 22.3599H21.1896C21.4696 22.3599 21.6896 22.5799 21.6896 22.8599C21.6896 23.1399 21.4696 23.3599 21.1896 23.3599Z" fill="black"/>
<path id="Vector_6" d="M24.74 13.94H16.5C16.22 13.94 16 13.72 16 13.44V6.71997C16 6.43997 16.22 6.21997 16.5 6.21997H19.95C21.17 6.21997 22.28 6.92997 22.79 8.02997L25.19 13.23C25.26 13.39 25.25 13.57 25.16 13.71C25.07 13.85 24.91 13.94 24.74 13.94ZM17 12.94H23.96L21.88 8.44997C21.54 7.69997 20.78 7.21997 19.95 7.21997H17V12.94Z" fill="black"/>
<path id="Vector_7" d="M16.4998 13.94H2.49984C2.32984 13.94 2.16984 13.85 2.07984 13.71C1.98984 13.57 1.97984 13.38 2.04984 13.23L4.42984 8.22998C5.00984 7.01998 6.25984 6.22998 7.60984 6.22998H16.5098C16.7898 6.22998 17.0098 6.44998 17.0098 6.72998V13.44C17.0098 13.72 16.7898 13.94 16.5098 13.94H16.4998ZM3.28984 12.94H15.9998V7.21998H7.59984C6.62984 7.21998 5.73984 7.77998 5.31984 8.64998L3.27984 12.94H3.28984Z" fill="black"/>
<path id="Vector_8" d="M16.5 23.35C16.22 23.35 16 23.13 16 22.85V12.5C16 12.22 16.22 12 16.5 12C16.78 12 17 12.22 17 12.5V22.85C17 23.13 16.78 23.35 16.5 23.35Z" fill="black"/>
<path id="Vector_9" d="M9.4007 25.7799C7.7907 25.7799 6.4707 24.4699 6.4707 22.8499C6.4707 21.2299 7.7807 19.9199 9.4007 19.9199C11.0207 19.9199 12.3307 21.2299 12.3307 22.8499C12.3307 24.4699 11.0207 25.7799 9.4007 25.7799ZM9.4007 20.9199C8.3407 20.9199 7.4707 21.7899 7.4707 22.8499C7.4707 23.9099 8.3407 24.7799 9.4007 24.7799C10.4607 24.7799 11.3307 23.9099 11.3307 22.8499C11.3307 21.7899 10.4607 20.9199 9.4007 20.9199Z" fill="black"/>
<path id="Vector_10" d="M23.6409 25.7799C22.0309 25.7799 20.7109 24.4699 20.7109 22.8499C20.7109 21.2299 22.0209 19.9199 23.6409 19.9199C25.2609 19.9199 26.5709 21.2299 26.5709 22.8499C26.5709 24.4699 25.2609 25.7799 23.6409 25.7799ZM23.6409 20.9199C22.5809 20.9199 21.7109 21.7899 21.7109 22.8499C21.7109 23.9099 22.5809 24.7799 23.6409 24.7799C24.7009 24.7799 25.5709 23.9099 25.5709 22.8499C25.5709 21.7899 24.7009 20.9199 23.6409 20.9199Z" fill="black"/>
</g>
</g>
<defs>
<clipPath id="clip0_1615_333">
<rect width="32" height="32" fill="white" transform="translate(0.5)"/>
</clipPath>
</defs>
</svg>
