<svg width="40" height="40" viewBox="0 0 40 40" fill="none" xmlns="http://www.w3.org/2000/svg">
<g clip-path="url(#clip0_9623_32284)">
<g clip-path="url(#clip1_9623_32284)">
<path d="M17.9754 22.9375C17.9754 22.9375 17.9754 22.9 17.9754 22.875C17.9754 22.85 17.9754 22.825 17.9754 22.8125C17.9754 22.7875 17.9754 22.7625 17.9504 22.7375C17.9504 22.6875 17.9254 22.6375 17.9004 22.5875C17.9004 22.5875 17.9004 22.575 17.9004 22.5625V22.55C17.9004 22.5375 17.9004 22.5125 17.9004 22.5125C17.9004 22.475 17.8754 22.45 17.8629 22.425C17.8629 22.4125 17.8629 22.3875 17.8379 22.3875V22.35C17.8379 22.3375 17.8379 22.325 17.8379 22.325C17.8379 22.3 17.8129 22.275 17.7879 22.25C17.7379 22.1375 17.6754 22.05 17.6129 21.95C17.5504 21.875 17.5004 21.7875 17.4379 21.7125C17.3004 21.5625 17.1504 21.425 16.9879 21.2875C16.9004 21.2125 16.8004 21.1375 16.6879 21.0625C15.8129 20.4875 14.6379 20.15 13.3129 20.15C13.2504 20.15 13.1879 20.15 13.1254 20.15C13.0754 20.15 13.0504 20.15 13.0004 20.15C12.9754 20.15 12.9504 20.15 12.9379 20.15C12.7879 20.15 12.6379 20.1625 12.5004 20.1875C12.4504 20.1875 12.4004 20.1875 12.3504 20.1875C12.2879 20.1875 12.2129 20.2 12.1504 20.225C12.0754 20.225 11.9879 20.2375 11.9129 20.2625C11.8004 20.275 11.7004 20.3 11.6004 20.3375C11.5504 20.3375 11.5254 20.3375 11.4754 20.3625C11.3629 20.4 11.2504 20.425 11.1379 20.475C11.1129 20.475 11.0879 20.475 11.0754 20.4875C11.0379 20.4875 11.0129 20.5125 10.9879 20.525C10.8879 20.5625 10.7879 20.6125 10.6879 20.65C10.6254 20.675 10.5504 20.7125 10.4879 20.7375C10.4879 20.7375 10.4504 20.75 10.4379 20.7625C10.3879 20.775 10.3629 20.8 10.3254 20.8125C10.3254 20.8125 10.2879 20.825 10.2629 20.85C10.2629 20.85 10.2254 20.8625 10.2129 20.8875C10.2129 20.8875 10.2046 20.8875 10.1879 20.8875C10.1879 20.8875 10.1504 20.9125 10.1254 20.925C10.0129 20.9875 9.91289 21.0625 9.81289 21.1375C9.75039 21.175 9.71289 21.2 9.66289 21.25C9.52539 21.35 9.40039 21.4625 9.30039 21.575H9.27539C9.27539 21.575 9.22539 21.65 9.21289 21.675C9.13789 21.7625 9.06289 21.85 9.01289 21.925C8.95039 22 8.91289 22.075 8.87539 22.15C8.83789 22.2 8.81289 22.2625 8.78789 22.325C8.78789 22.3375 8.76289 22.3625 8.76289 22.375C8.70039 22.4875 8.67539 22.6 8.65039 22.725C8.65039 22.725 8.61289 22.825 8.61289 22.875C8.61289 22.9 8.61289 22.9125 8.61289 22.9375C8.61289 23.025 8.58789 23.1125 8.58789 23.2125V33.15C8.58789 34.8625 10.7129 36.25 13.3379 36.25C15.9629 36.25 18.0879 34.8625 18.0879 33.15V23.2125C18.0879 23.1125 18.0879 23.0125 18.0629 22.9375H17.9754Z" fill="#FFCB09"/>
<path d="M36.1121 17.4375C36.1121 17.4375 36.1121 17.4 36.1121 17.375C36.1121 17.35 36.1121 17.325 36.1121 17.3125C36.1121 17.2875 36.1121 17.2625 36.0871 17.2375C36.0871 17.1875 36.0621 17.1375 36.0371 17.0875C36.0371 17.0875 36.0371 17.075 36.0371 17.0625V17.05C36.0371 17.0375 36.0371 17.0125 36.0371 17.0125C36.0371 16.975 36.0121 16.95 35.9996 16.925C35.9996 16.9125 35.9996 16.8875 35.9746 16.8875V16.85C35.9746 16.8375 35.9746 16.825 35.9746 16.825C35.9746 16.8 35.9496 16.775 35.9246 16.75C35.8746 16.6375 35.8121 16.55 35.7496 16.45C35.6871 16.375 35.6371 16.2875 35.5746 16.2125C35.4371 16.0625 35.2871 15.925 35.1246 15.7875C35.0371 15.7125 34.9371 15.6375 34.8246 15.5625C33.9496 14.9875 32.7746 14.65 31.4496 14.65C31.3871 14.65 31.3246 14.65 31.2621 14.65C31.2121 14.65 31.1871 14.65 31.1371 14.65C31.1121 14.65 31.0871 14.65 31.0746 14.65C30.9246 14.65 30.7746 14.6625 30.6371 14.6875C30.5871 14.6875 30.5371 14.6875 30.4871 14.6875C30.4246 14.6875 30.3496 14.7 30.2871 14.725C30.2121 14.725 30.1246 14.7375 30.0496 14.7625C29.9371 14.775 29.8371 14.8 29.7371 14.8375C29.6871 14.8375 29.6621 14.8375 29.6121 14.8625C29.4996 14.9 29.3871 14.925 29.2746 14.975C29.2496 14.975 29.2246 14.975 29.2121 14.9875C29.1746 14.9875 29.1496 15.0125 29.1246 15.025C29.0246 15.0625 28.9246 15.1125 28.8246 15.15C28.7621 15.175 28.6871 15.2125 28.6246 15.2375C28.6246 15.2375 28.5871 15.25 28.5746 15.2625C28.5246 15.275 28.4996 15.3 28.4621 15.3125C28.4621 15.3125 28.4246 15.325 28.3996 15.35C28.3996 15.35 28.3621 15.3625 28.3496 15.3875C28.3496 15.3875 28.3413 15.3875 28.3246 15.3875C28.3246 15.3875 28.2871 15.4125 28.2621 15.425C28.1496 15.4875 28.0496 15.5625 27.9496 15.6375C27.8871 15.675 27.8496 15.7 27.7996 15.75C27.6621 15.85 27.5371 15.9625 27.4371 16.075H27.4121C27.4121 16.075 27.3621 16.15 27.3496 16.175C27.2746 16.2625 27.1996 16.35 27.1496 16.425C27.0871 16.5 27.0496 16.575 27.0121 16.65C26.9746 16.7 26.9496 16.7625 26.9246 16.825C26.9246 16.8375 26.8996 16.8625 26.8996 16.875C26.8371 16.9875 26.8121 17.1 26.7871 17.225C26.7871 17.225 26.7496 17.325 26.7496 17.375C26.7496 17.4 26.7496 17.4125 26.7496 17.4375C26.7496 17.525 26.7246 17.6125 26.7246 17.7125V33.15C26.7246 34.8625 28.8496 36.25 31.4746 36.25C34.0996 36.25 36.2246 34.8625 36.2246 33.15V17.7125C36.2246 17.6125 36.2246 17.5125 36.1996 17.4375H36.1121Z" fill="#FFCB09"/>
<path d="M10.9875 36.875C6.65 36.875 3.125 33.7875 3.125 30V24.4625C3.125 24.1125 3.4 23.8375 3.75 23.8375C4.1 23.8375 4.375 24.1125 4.375 24.4625V30C4.375 33.1 7.3375 35.625 10.9875 35.625C14.6375 35.625 17.6 33.1 17.6 30V24.4625C17.6 24.1125 17.875 23.8375 18.225 23.8375C18.575 23.8375 18.85 24.1125 18.85 24.4625V30C18.85 33.7875 15.325 36.875 10.9875 36.875Z" fill="black"/>
<path d="M10.9875 24.3875C7.9875 24.3875 5.3 23.05 3.9875 20.9C3.425 19.9875 3.125 18.925 3.125 17.85C3.125 16 3.95 14.2625 5.4625 12.9625C6.9375 11.675 8.9 10.975 10.9875 10.975C13.075 10.975 15.0375 11.675 16.5125 12.95C18.0125 14.2625 18.85 16 18.85 17.85C18.85 18.9375 18.55 19.9875 17.9875 20.9125C16.675 23.0625 13.9875 24.4 10.9875 24.4V24.3875ZM10.9875 12.225C9.2 12.225 7.525 12.825 6.275 13.9125C5.05 14.975 4.375 16.375 4.375 17.85C4.375 18.7125 4.6 19.525 5.05 20.25C6.1375 22.025 8.4125 23.1375 10.9875 23.1375C13.5625 23.1375 15.8375 22.0375 16.925 20.25C17.375 19.525 17.6 18.7125 17.6 17.85C17.6 16.375 16.925 14.975 15.7 13.9C14.45 12.825 12.775 12.2375 10.9875 12.2375V12.225Z" fill="black"/>
<path d="M10.9875 30.6125C6.5125 30.6125 3.125 27.85 3.125 24.2V17.725C3.125 14.0125 6.65 10.9875 10.9875 10.9875C13.0625 10.9875 15.025 11.675 16.5125 12.925C18.025 14.2125 18.85 15.925 18.85 17.7375V24.2126C18.85 27.875 15.475 30.625 10.9875 30.625V30.6125ZM10.9875 12.225C7.3375 12.225 4.375 14.6875 4.375 17.7125V24.1875C4.375 27.1375 7.2125 29.35 10.9875 29.35C14.7625 29.35 17.6 27.125 17.6 24.1875V17.7125C17.6 16.275 16.925 14.9 15.7 13.8625C14.45 12.8125 12.775 12.225 10.9875 12.225Z" fill="black"/>
<path d="M29.0129 36.875C24.6754 36.875 21.1504 33.7875 21.1504 30V23.2C21.1504 22.85 21.4254 22.575 21.7754 22.575C22.1254 22.575 22.4004 22.85 22.4004 23.2C22.4004 26.2125 25.2379 28.4875 29.0129 28.4875C32.7879 28.4875 35.6254 26.2125 35.6254 23.2C35.6254 22.85 35.9004 22.575 36.2504 22.575C36.6004 22.575 36.8754 22.85 36.8754 23.2V30C36.8754 33.7875 33.3504 36.875 29.0129 36.875ZM22.4004 26.85V30.0125C22.4004 33.1125 25.3629 35.6375 29.0129 35.6375C32.6629 35.6375 35.6254 33.1125 35.6254 30.0125V26.85C34.2504 28.625 31.8504 29.75 29.0129 29.75C26.1754 29.75 23.7754 28.625 22.4004 26.85Z" fill="black"/>
<path d="M29.0129 16.55C26.0129 16.55 23.3254 15.2125 22.0129 13.0625C21.4504 12.15 21.1504 11.0875 21.1504 10C21.1504 8.15 21.9754 6.4125 23.4879 5.1125C24.9629 3.825 26.9254 3.125 29.0129 3.125C31.1004 3.125 33.0504 3.825 34.5379 5.1C36.0504 6.4125 36.8754 8.15 36.8754 10C36.8754 11.0875 36.5754 12.1375 36.0129 13.0625C34.7004 15.2125 32.0129 16.55 29.0129 16.55ZM29.0129 4.3875C27.2254 4.3875 25.5504 4.9875 24.3004 6.075C23.0754 7.1375 22.4004 8.5375 22.4004 10.0125C22.4004 10.8625 22.6379 11.7 23.0754 12.4125C24.1629 14.1875 26.4379 15.3 29.0129 15.3C31.5879 15.3 33.8629 14.2 34.9504 12.4125C35.3879 11.6875 35.6254 10.8625 35.6254 10.0125C35.6254 8.5375 34.9504 7.1375 33.7254 6.0625C32.4754 4.9875 30.8004 4.4 29.0129 4.4V4.3875Z" fill="black"/>
<path d="M29.0129 29.7375C24.5254 29.7375 21.1504 26.925 21.1504 23.2V10C21.1504 6.2125 24.6754 3.125 29.0129 3.125C31.0879 3.125 33.0504 3.825 34.5379 5.1C36.0504 6.4125 36.8754 8.15 36.8754 10V23.2C36.8754 26.925 33.5004 29.7375 29.0129 29.7375ZM29.0129 4.375C25.3629 4.375 22.4004 6.9 22.4004 10V23.2C22.4004 26.2125 25.2379 28.4875 29.0129 28.4875C32.7879 28.4875 35.6254 26.2125 35.6254 23.2V10C35.6254 8.525 34.9504 7.125 33.7254 6.05C32.4754 4.975 30.8004 4.3875 29.0129 4.3875V4.375Z" fill="black"/>
<path d="M29.0129 23.5625C24.5254 23.5625 21.1504 20.75 21.1504 17.025V10C21.1504 6.2125 24.6754 3.125 29.0129 3.125C31.0879 3.125 33.0504 3.825 34.5379 5.1C36.0504 6.4125 36.8754 8.15 36.8754 10V17.025C36.8754 20.75 33.5004 23.5625 29.0129 23.5625ZM29.0129 4.375C25.3629 4.375 22.4004 6.9 22.4004 10V17.025C22.4004 20.0375 25.2379 22.3125 29.0129 22.3125C32.7879 22.3125 35.6254 20.0375 35.6254 17.025V10C35.6254 8.525 34.9504 7.125 33.7254 6.05C32.4754 4.975 30.8004 4.3875 29.0129 4.3875V4.375Z" fill="black"/>
</g>
</g>
<defs>
<clipPath id="clip0_9623_32284">
<rect width="40" height="40" fill="white"/>
</clipPath>
<clipPath id="clip1_9623_32284">
<rect width="40" height="40" fill="white"/>
</clipPath>
</defs>
</svg>
