<svg width="201" height="163" viewBox="0 0 201 163" fill="none" xmlns="http://www.w3.org/2000/svg">
<g clip-path="url(#clip0_7742_4951)">
<path d="M100.5 162.672C155.62 162.672 200.304 161.089 200.304 159.136C200.304 157.183 155.62 155.6 100.5 155.6C45.3799 155.6 0.696289 157.183 0.696289 159.136C0.696289 161.089 45.3799 162.672 100.5 162.672Z" fill="#F5F5F5"/>
<path d="M121.398 161.42C113.819 157.85 110.796 149.363 109.726 141.459C109.544 140.14 109.167 138.78 109.598 137.521C110.029 136.261 111.362 135.23 112.634 135.585C113.691 135.88 114.31 136.938 115.017 137.789C115.959 138.914 117.218 139.765 118.612 140.207C119.527 140.501 120.611 140.588 121.358 139.992C122.388 139.175 122.26 137.588 122.025 136.288C121.594 133.857 121.17 131.432 120.739 129.001C120.51 127.694 120.281 126.368 120.476 125.055C120.671 123.749 121.378 122.443 122.57 121.887C123.761 121.331 125.424 121.787 125.902 123.019C126.104 123.535 126.084 124.104 126.218 124.64C126.346 125.176 126.703 125.732 127.248 125.799C127.8 125.866 128.258 125.404 128.588 124.955C129.719 123.408 130.345 121.559 130.917 119.724C131.489 117.888 132.028 116.019 133.01 114.378C133.993 112.737 135.501 111.311 137.359 110.889C139.217 110.467 141.418 111.284 142.206 113.039C142.993 114.8 142.232 116.843 141.31 118.531C139.944 121.036 138.214 123.334 136.201 125.337C135.838 125.698 135.44 126.087 135.366 126.596C135.232 127.514 136.208 128.237 137.117 128.378C138.146 128.538 139.19 128.257 140.233 128.203C141.277 128.15 142.461 128.411 143.013 129.309C143.774 130.554 142.892 132.142 141.95 133.24C140.051 135.444 137.776 137.32 135.252 138.753C134.35 139.269 133.387 139.744 132.721 140.548C132.054 141.352 131.785 142.605 132.411 143.449C133.037 144.292 134.296 144.38 135.272 144.025C136.248 143.67 137.063 142.973 137.965 142.444C139.654 141.466 142.004 141.198 143.417 142.551C144.346 143.442 144.656 144.848 144.481 146.128C144.306 147.407 143.7 148.586 143.04 149.685C140.725 153.543 137.487 156.878 133.556 159.028C129.618 161.172 125.814 162.217 121.398 161.406" fill="#F5F5F5"/>
<path d="M122.597 156.148C123.088 151.989 124.004 147.467 125.121 142.772C125.404 141.6 125.686 140.441 125.962 139.302C126.238 138.164 126.521 137.032 126.858 135.946C127.524 133.77 128.339 131.72 129.167 129.804C129.995 127.889 130.856 126.093 131.671 124.426C132.492 122.758 133.28 121.217 134.06 119.844C135.615 117.091 137.13 115.028 138.234 113.648C138.779 112.958 139.224 112.436 139.526 112.088C139.675 111.92 139.789 111.793 139.876 111.692C139.957 111.605 139.998 111.558 140.004 111.565C140.004 111.565 139.971 111.619 139.897 111.712C139.816 111.813 139.708 111.954 139.567 112.121C139.277 112.483 138.847 113.012 138.308 113.709C137.231 115.102 135.743 117.178 134.215 119.931C133.448 121.304 132.667 122.845 131.853 124.513C131.045 126.181 130.197 127.976 129.375 129.891C128.554 131.807 127.753 133.843 127.087 136.013C126.75 137.099 126.481 138.217 126.198 139.356C125.922 140.495 125.639 141.653 125.357 142.826C124.239 147.514 123.317 152.022 122.819 156.168" fill="#E1E1E1"/>
<path d="M126.925 135.927C126.925 135.927 126.831 135.74 126.703 135.391C126.575 135.043 126.4 134.534 126.198 133.898C125.794 132.632 125.289 130.857 124.744 128.908C124.199 126.952 123.674 125.197 123.25 123.937C123.041 123.308 122.866 122.799 122.738 122.45C122.617 122.102 122.55 121.901 122.57 121.895C122.583 121.895 122.678 122.075 122.826 122.417C122.981 122.759 123.183 123.254 123.411 123.884C123.883 125.13 124.435 126.891 124.98 128.847C125.512 130.776 125.996 132.525 126.36 133.857C126.528 134.46 126.676 134.963 126.791 135.371C126.892 135.726 126.939 135.927 126.925 135.934V135.927Z" fill="#E1E1E1"/>
<path d="M143.256 129.952C143.256 129.952 143.027 130.039 142.596 130.146C142.172 130.26 141.553 130.414 140.799 130.635C139.284 131.064 137.211 131.72 134.956 132.551C132.701 133.382 130.695 134.226 129.261 134.875C128.541 135.197 127.968 135.471 127.565 135.659C127.167 135.846 126.945 135.947 126.932 135.934C126.925 135.92 127.134 135.793 127.517 135.579C127.901 135.364 128.467 135.063 129.18 134.721C130.6 134.031 132.606 133.161 134.868 132.323C137.13 131.493 139.224 130.856 140.752 130.468C141.519 130.267 142.145 130.14 142.576 130.053C143.013 129.972 143.249 129.939 143.256 129.952Z" fill="#E1E1E1"/>
<path d="M122.752 155.806C122.752 155.806 122.691 155.746 122.604 155.619C122.496 155.465 122.368 155.284 122.213 155.063C121.877 154.574 121.406 153.857 120.834 152.966C119.696 151.178 118.195 148.666 116.579 145.866C114.964 143.066 113.489 140.541 112.392 138.733C111.854 137.855 111.409 137.132 111.08 136.596C110.938 136.361 110.824 136.174 110.723 136.013C110.642 135.879 110.608 135.806 110.615 135.799C110.622 135.799 110.676 135.859 110.763 135.986C110.871 136.14 110.999 136.321 111.154 136.542C111.49 137.031 111.961 137.748 112.534 138.639C113.671 140.427 115.172 142.939 116.788 145.739C118.403 148.539 119.871 151.064 120.975 152.866C121.513 153.743 121.958 154.467 122.288 155.003C122.429 155.237 122.543 155.431 122.644 155.585C122.725 155.719 122.759 155.793 122.752 155.8V155.806Z" fill="#E1E1E1"/>
<path d="M143.936 144.849C143.936 144.849 143.869 144.902 143.727 144.976C143.559 145.063 143.357 145.17 143.115 145.304C142.549 145.599 141.782 146.001 140.846 146.483C138.935 147.481 136.302 148.881 133.401 150.435C130.5 151.989 127.854 153.375 125.916 154.326C124.946 154.802 124.159 155.184 123.614 155.432C123.358 155.546 123.149 155.639 122.981 155.72C122.833 155.78 122.759 155.813 122.752 155.807C122.752 155.8 122.819 155.753 122.961 155.679C123.129 155.592 123.331 155.485 123.573 155.351C124.139 155.057 124.906 154.661 125.842 154.172C127.753 153.181 130.385 151.774 133.287 150.22C136.188 148.666 138.834 147.287 140.772 146.329C141.742 145.853 142.529 145.471 143.074 145.224C143.33 145.11 143.539 145.016 143.707 144.936C143.855 144.875 143.929 144.842 143.936 144.849Z" fill="#E1E1E1"/>
<path d="M66.4146 67.5117C66.4146 67.5117 61.191 68.2351 64.1259 79.622C67.0608 91.0089 69.5448 96.8765 69.5448 96.8765C69.5448 96.8765 69.9419 99.4553 67.8484 99.375C65.7617 99.2946 61.5006 97.6066 60.0533 99.8505C58.5522 102.175 59.8648 104.981 63.1431 107.915C66.4213 110.849 73.3615 117.54 73.9876 118.15C74.6001 118.746 75.0646 120.012 73.6375 120.18C72.2037 120.354 62.0391 119.161 61.7564 123.997C61.4804 128.834 71.9546 135.512 73.0923 136.269C74.2232 137.019 74.4049 137.608 74.1491 138.265C73.8933 138.921 70.5141 138.198 67.6061 137.977C64.6981 137.756 61.2919 138.01 61.366 140.81C61.44 143.61 66.9397 150.696 82.9943 155.961L90.5942 157.917L96.2083 152.411C107.51 139.906 108.742 131.037 107.41 128.566C106.077 126.094 102.994 127.561 100.577 129.189C98.1671 130.816 95.589 133.114 95.0437 132.672C94.4985 132.23 94.3571 131.633 94.9629 130.421C95.5688 129.209 101.324 118.23 98.672 114.171C96.0198 110.112 87.7872 116.174 86.4543 116.73C85.1282 117.286 84.8993 115.96 85.1349 115.142C85.3773 114.305 88.0564 105.068 89.4364 100.902C90.8163 96.7359 90.5538 93.6547 88.0901 92.3754C85.7138 91.1429 82.8597 94.713 81.0893 95.8182C79.3189 96.9234 78.3698 94.4853 78.3698 94.4853C78.3698 94.4853 77.5957 88.1622 74.4588 76.8355C71.3152 65.5022 66.3136 67.5318 66.3136 67.5318" fill="#ECECEC"/>
<path d="M90.5874 159.799C88.3121 151.467 84.5223 136.597 81.2037 123.843C77.885 111.097 74.8693 99.5557 72.6345 91.2164C71.517 87.0569 70.6083 83.681 69.9822 81.3433C69.6726 80.1845 69.4303 79.2803 69.262 78.6573C69.1812 78.3559 69.1273 78.1215 69.0802 77.954C69.0398 77.7933 69.0264 77.7129 69.0264 77.7129C69.0264 77.7129 69.06 77.7933 69.1071 77.9473C69.1543 78.1148 69.2216 78.3425 69.3091 78.6439C69.4841 79.2669 69.7466 80.1644 70.0697 81.3165C70.7294 83.6408 71.6651 87.01 72.796 91.1696C75.0713 99.5021 78.1139 111.036 81.4325 123.783C84.7512 136.536 88.5208 151.413 90.749 159.759" fill="#E1E1E1"/>
<path d="M65.9171 102.442C65.9171 102.442 66.1056 102.523 66.4152 102.71C66.7316 102.891 67.1759 103.172 67.7279 103.527C68.8251 104.231 70.3128 105.242 71.9351 106.381C73.5304 107.513 74.9777 108.538 76.0817 109.321C76.5798 109.67 77.0039 109.964 77.3405 110.205C77.6367 110.413 77.7982 110.534 77.7915 110.547C77.7847 110.56 77.603 110.467 77.2866 110.286C76.9702 110.098 76.526 109.824 75.9807 109.462C74.8902 108.745 73.416 107.72 71.7937 106.575C70.1916 105.456 68.7376 104.438 67.6269 103.661C67.122 103.313 66.7047 103.018 66.3614 102.784C66.0652 102.576 65.9036 102.449 65.9104 102.436L65.9171 102.442Z" fill="#E1E1E1"/>
<path d="M78.4308 110.18C78.3769 110.146 80.3291 106.998 82.7995 103.153C85.27 99.3086 87.3164 96.2207 87.3702 96.2542C87.4241 96.2877 85.4719 99.4358 83.0015 103.281C80.531 107.125 78.4846 110.213 78.4308 110.18Z" fill="#E1E1E1"/>
<path d="M82.6367 129.993C82.6367 129.993 82.7781 129.839 83.0541 129.591C83.3705 129.316 83.7676 128.968 84.2388 128.559C85.2351 127.689 86.615 126.476 88.0825 125.083C89.5567 123.697 90.8424 122.39 91.7647 121.439C92.2022 120.991 92.5657 120.615 92.8619 120.314C93.1244 120.053 93.2725 119.905 93.286 119.919C93.2994 119.932 93.1715 120.093 92.9359 120.374C92.6936 120.656 92.3436 121.064 91.8926 121.553C90.9973 122.538 89.725 123.864 88.2508 125.251C86.7766 126.644 85.3832 127.843 84.3533 128.68C83.8349 129.095 83.4176 129.43 83.1147 129.651C82.8185 129.872 82.6502 129.993 82.6367 129.979V129.993Z" fill="#E1E1E1"/>
<path d="M69.7795 125.471C69.7795 125.471 69.968 125.497 70.2978 125.598C70.6748 125.712 71.1393 125.859 71.6912 126.027C72.8625 126.395 74.4781 126.924 76.2552 127.527C78.0323 128.124 79.6344 128.68 80.7922 129.095C81.3308 129.289 81.7885 129.457 82.1587 129.597C82.4818 129.718 82.6569 129.798 82.6501 129.812C82.6501 129.825 82.4616 129.785 82.1318 129.684C81.7548 129.571 81.2904 129.423 80.7384 129.256C79.5671 128.887 77.9515 128.358 76.1744 127.755C74.3973 127.159 72.7952 126.603 71.6374 126.188C71.0989 125.993 70.6411 125.826 70.2709 125.685C69.9478 125.564 69.7728 125.484 69.7795 125.471Z" fill="#E1E1E1"/>
<path d="M71.2609 143.43C71.2609 143.43 71.5032 143.477 71.9273 143.597C72.3918 143.738 72.9909 143.919 73.7112 144.14C75.2123 144.609 77.2856 145.272 79.5743 146.016C81.8563 146.759 83.9229 147.449 85.4105 147.958C86.1241 148.206 86.7097 148.414 87.1742 148.575C87.5915 148.722 87.8137 148.816 87.8069 148.829C87.8002 148.843 87.5646 148.782 87.1405 148.662C86.6761 148.521 86.0769 148.34 85.3567 148.119C83.8555 147.65 81.7822 146.987 79.4935 146.243C77.2115 145.5 75.145 144.81 73.6573 144.301C72.9438 144.053 72.3581 143.845 71.8936 143.684C71.4763 143.537 71.2542 143.443 71.2609 143.43Z" fill="#E1E1E1"/>
<path d="M87.4502 148.592C87.4502 148.592 87.6252 148.398 87.9685 148.07C88.3455 147.722 88.8369 147.259 89.4225 146.71C90.6477 145.558 92.3373 143.964 94.1548 142.149C95.9723 140.333 97.5744 138.652 98.7255 137.426C99.2775 136.837 99.7352 136.348 100.092 135.973C100.415 135.631 100.604 135.451 100.61 135.457C100.624 135.471 100.462 135.672 100.159 136.033C99.8564 136.395 99.4121 136.911 98.8534 137.54C97.7359 138.8 96.1473 140.501 94.3298 142.323C92.5123 144.138 90.8025 145.719 89.5437 146.844C88.9109 147.4 88.3993 147.849 88.0358 148.15C87.6723 148.452 87.4704 148.612 87.4569 148.599L87.4502 148.592Z" fill="#E1E1E1"/>
<path d="M39.698 150.808C40.1153 149.201 39.0518 147.587 37.867 146.414C36.6755 145.249 35.2552 144.204 34.6359 142.657C33.6329 140.158 34.9792 136.916 33.2694 134.833C32.2664 133.607 30.4623 133.192 29.5671 131.886C29.0959 131.196 28.9478 130.352 28.766 129.542C27.8303 125.409 25.7503 121.537 22.8154 118.463C22.6134 122.14 23.4279 125.878 25.1512 129.14C25.8445 130.453 26.6927 131.732 26.9216 133.192C27.2918 135.57 25.959 138.022 26.5446 140.353C27.2178 143.025 30.2267 144.807 30.3748 147.56C30.496 149.884 28.4631 151.92 28.6112 154.245C28.6785 155.236 29.1362 156.154 29.6478 156.998C31.4519 159.985 34.1041 162.041 38.1228 161.974L43.0435 162.148L39.6845 150.808H39.698Z" fill="#799F3F"/>
<path d="M44.0534 162.276C44.0534 162.276 44.5246 162.383 45.4065 162.249C45.8507 162.182 46.3893 162.069 47.0086 161.848C47.6211 161.627 48.3145 161.305 48.9876 160.769C49.3107 160.488 49.6271 160.146 49.8021 159.691C49.9704 159.235 50.0041 158.74 50.031 158.224C50.0579 157.715 50.0579 157.179 50.1454 156.636C50.2262 156.094 50.4416 155.565 50.7446 155.062C51.3235 154.051 52.2861 153.086 52.6025 151.707C52.939 150.353 52.6967 148.887 52.4678 147.413C52.2389 145.946 52.0168 144.339 52.5823 142.811C53.1073 141.277 54.1911 139.898 54.7296 138.169C55.2681 136.428 55.0191 134.546 55.1268 132.697C55.1806 131.766 55.3624 130.835 55.7663 129.978C56.1634 129.114 56.7154 128.29 57.1462 127.379C58.0213 125.53 58.1761 123.44 58.4117 121.391C58.5262 120.359 58.6474 119.314 58.7618 118.262C58.8762 117.204 58.9705 116.146 59.307 115.128C59.61 114.103 60.0475 113.105 60.4851 112.093C60.7005 111.584 60.9226 111.075 61.0572 110.513C61.1515 109.937 61.1784 109.394 61.2188 108.825C61.2726 107.699 61.2255 106.561 61.0909 105.435C60.9563 104.303 60.7543 103.185 60.6331 102.053C60.6264 101.986 60.6197 101.919 60.613 101.859L60.586 101.631L60.3841 101.731C59.3272 102.254 58.4252 103.037 57.7319 103.955C57.0251 104.866 56.5135 105.898 56.1028 106.943C55.2816 109.046 54.9854 111.256 54.5681 113.359C54.1642 115.463 53.6324 117.532 52.5419 119.287C52.0033 120.158 51.3504 120.955 50.7782 121.806C50.206 122.65 49.7079 123.581 49.5598 124.599C49.2704 126.669 50.4147 128.491 50.1791 130.326C50.0916 131.237 49.7281 132.088 49.2838 132.871C48.8395 133.655 48.3145 134.378 47.8096 135.108C47.3115 135.839 46.8403 136.575 46.4902 137.366C46.1335 138.156 45.9383 139 45.8844 139.824C45.7632 141.478 45.9988 143.046 45.8844 144.526C45.7834 146.006 45.2584 147.353 44.6727 148.552C44.0804 149.757 43.4139 150.849 42.862 151.901C42.586 152.43 42.3234 152.946 42.1148 153.461C41.8926 153.977 41.7849 154.506 41.6839 155.009C41.5224 156.027 41.5358 156.971 41.6503 157.802C41.8657 159.483 42.4917 160.689 43.0572 161.365C43.1851 161.546 43.3399 161.673 43.4543 161.794C43.5688 161.915 43.6832 162.002 43.7774 162.069C43.9592 162.203 44.0602 162.263 44.0602 162.263C44.0804 162.236 43.6563 162.015 43.1043 161.325C42.559 160.642 41.9599 159.443 41.7647 157.782C41.6637 156.958 41.657 156.02 41.8253 155.029C41.9263 154.533 42.0407 154.017 42.2629 153.515C42.4715 153.013 42.7341 152.497 43.0168 151.974C43.5755 150.93 44.2486 149.844 44.8545 148.625C45.4603 147.42 45.9988 146.047 46.1133 144.526C46.2412 143.012 46.0123 141.445 46.1402 139.831C46.1941 139.027 46.3893 138.223 46.7326 137.459C47.0759 136.696 47.5404 135.966 48.0385 135.242C48.5366 134.519 49.0684 133.789 49.5262 132.992C49.9839 132.201 50.3743 131.311 50.4686 130.346C50.7042 128.39 49.5665 126.562 49.8627 124.632C50.0041 123.681 50.482 122.79 51.0407 121.96C51.6062 121.123 52.2591 120.326 52.8179 119.435C53.9353 117.633 54.4805 115.523 54.8912 113.413C55.3085 111.296 55.6047 109.113 56.4125 107.05C56.8164 106.025 57.3145 105.02 58.0011 104.143C58.6743 103.259 59.5359 102.508 60.5389 102.006L60.31 101.879C60.3168 101.939 60.3235 102.006 60.3302 102.073C60.4514 103.218 60.6601 104.344 60.7947 105.462C60.9361 106.581 60.9765 107.693 60.9226 108.805C60.8889 109.354 60.8553 109.923 60.7745 110.439C60.6533 110.955 60.4312 111.464 60.2225 111.966C59.7917 112.971 59.3474 113.982 59.0378 115.034C58.6945 116.079 58.6002 117.171 58.4858 118.216C58.3714 119.267 58.2502 120.312 58.1358 121.35C57.9002 123.407 57.7453 125.47 56.9039 127.251C56.4865 128.136 55.9345 128.959 55.5239 129.857C55.0998 130.748 54.9114 131.733 54.8642 132.677C54.7565 134.566 55.0056 136.415 54.4873 138.089C53.9757 139.757 52.9054 141.143 52.3601 142.724C51.7812 144.318 52.0168 145.973 52.2524 147.44C52.488 148.913 52.7304 150.353 52.414 151.653C52.1312 152.966 51.1956 153.924 50.6032 154.962C50.2935 155.478 50.0714 156.04 49.9906 156.603C49.9031 157.159 49.9098 157.701 49.8897 158.204C49.8627 158.706 49.8358 159.202 49.681 159.63C49.5261 160.052 49.2232 160.387 48.9203 160.662C48.2741 161.191 47.5942 161.513 46.9951 161.747C46.3893 161.975 45.8507 162.102 45.4199 162.176C44.9824 162.256 44.6458 162.263 44.4169 162.27C44.1881 162.263 44.0736 162.27 44.0736 162.27L44.0534 162.276Z" fill="#1A2E35"/>
<path d="M59.6098 104.559C59.6098 104.559 59.5896 104.605 59.5627 104.706C59.5358 104.827 59.4954 104.967 59.455 105.148C59.3608 105.537 59.2396 106.119 59.0578 106.843C58.8626 107.566 58.4184 108.39 58.0347 109.401C57.6375 110.406 57.2336 111.572 56.8634 112.878C56.4864 114.184 56.1566 115.637 55.8065 117.191C55.4498 118.745 55.0863 120.407 54.2314 121.974C53.8275 122.771 53.3765 123.575 53.0129 124.459C52.6427 125.343 52.4408 126.301 52.3061 127.272C52.0705 129.215 51.7138 131.184 51.2426 133.2C50.253 137.212 49.3173 141.037 48.4557 144.52C47.5806 147.99 46.7863 151.118 46.1199 153.75C45.4737 156.362 44.9419 158.486 44.5716 159.979C44.4033 160.696 44.262 161.265 44.1677 161.681C44.1274 161.862 44.0937 162.009 44.0735 162.123C44.0533 162.223 44.0466 162.277 44.0533 162.277C44.0533 162.277 44.0802 162.23 44.1072 162.13C44.1408 162.016 44.1812 161.868 44.2351 161.694C44.3495 161.286 44.5043 160.723 44.6995 160.013C45.0967 158.519 45.6554 156.409 46.342 153.804C47.0286 151.171 47.8364 148.05 48.7384 144.587C49.6001 141.104 50.5492 137.279 51.5455 133.267C52.01 131.251 52.3735 129.248 52.6023 127.319C52.737 126.361 52.9322 125.43 53.2822 124.573C53.6322 123.715 54.0765 122.912 54.4804 122.108C55.3488 120.507 55.7056 118.792 56.0556 117.252C56.3922 115.691 56.7085 114.244 57.0721 112.945C57.4288 111.639 57.8125 110.48 58.1895 109.475C58.553 108.464 58.9838 107.633 59.1656 106.883C59.3338 106.139 59.4281 105.563 59.5089 105.168C59.5425 104.987 59.5627 104.84 59.5896 104.719C59.6031 104.619 59.6098 104.565 59.6031 104.565L59.6098 104.559Z" fill="#1A2E35"/>
<path d="M44.9211 162.29C48.1388 160.388 49.061 154.614 47.7215 151.137C46.3819 147.661 44.0326 144.486 43.6691 140.782C43.3931 137.935 44.3288 135.008 43.6624 132.228C42.7603 128.471 39.0782 125.564 39.1186 121.699C39.1455 119.535 40.3841 117.492 40.2831 115.329C40.162 112.676 38.1156 110.566 36.8433 108.229C34.9047 104.645 34.7768 100.419 34.1103 96.3997C33.4439 92.3875 31.9091 88.0873 28.3347 86.1113C27.8096 89.5207 26.9076 91.8517 27.1903 96.4734C27.2913 98.1346 29.23 101.303 29.4925 104.94C29.6473 107.11 29.7618 109.287 29.8897 111.464C30.0176 113.581 30.1589 115.731 30.9196 117.713C31.5052 119.227 32.4409 120.607 32.8785 122.174C33.693 125.122 32.6227 128.31 33.2824 131.297C33.8411 133.823 35.598 135.999 35.9548 138.565C36.4596 142.168 34.1171 145.906 35.3153 149.342C35.9077 151.05 37.3213 152.417 37.7184 154.178C38.0281 155.545 37.6915 156.992 37.9742 158.365C38.4252 160.575 42.6661 162.29 44.9279 162.156" fill="#A5D060"/>
<path d="M29.2227 89.5C29.2227 89.5 29.2227 89.567 29.2361 89.6943C29.2563 89.8349 29.2765 90.0225 29.3102 90.2569C29.3842 90.7459 29.465 91.4693 29.6333 92.407C29.815 93.3448 30.2997 94.4031 30.6901 95.6824C31.1007 96.9551 31.5114 98.422 31.8681 100.063C32.2384 101.704 32.5413 103.519 32.8644 105.475C33.1942 107.418 33.5376 109.561 34.5136 111.597C34.9646 112.622 35.4695 113.647 35.8532 114.732C36.2436 115.817 36.4186 116.989 36.5331 118.188C36.7014 120.6 37.0245 123.112 37.4755 125.643C38.4583 130.694 39.4007 135.503 40.2556 139.884C41.1576 144.244 41.9654 148.176 42.652 151.478C43.3386 154.76 43.8973 157.426 44.2945 159.288C44.4897 160.193 44.6445 160.903 44.759 161.412C44.8128 161.639 44.8532 161.82 44.8869 161.961C44.9205 162.082 44.934 162.149 44.9407 162.149C44.9407 162.149 44.9407 162.082 44.9205 161.954C44.8936 161.814 44.8667 161.626 44.8263 161.398C44.7321 160.889 44.5974 160.173 44.4224 159.268C44.0522 157.4 43.5271 154.727 42.8809 151.438C42.2145 148.129 41.4269 144.191 40.5518 139.83C39.7036 135.456 38.7747 130.647 37.7986 125.597C37.3476 123.065 37.0245 120.593 36.8495 118.168C36.735 116.963 36.5533 115.757 36.1494 114.638C35.759 113.526 35.2474 112.495 34.7963 111.483C33.827 109.481 33.4837 107.384 33.1404 105.435C32.8106 103.486 32.4874 101.657 32.1037 100.016C31.7268 98.3684 31.3027 96.9015 30.8719 95.6288C30.4613 94.3495 29.9631 93.2979 29.7679 92.3869C29.5862 91.4693 29.4785 90.7392 29.3842 90.2502C29.3438 90.0225 29.3102 89.8349 29.2832 89.6943C29.2563 89.567 29.2429 89.5067 29.2361 89.5067L29.2227 89.5Z" fill="#1A2E35"/>
<path d="M62.7534 47.3696H88.1447C88.1447 47.3696 88.1447 26.1564 110.305 25.7746C121.809 25.5804 127.78 33.0756 130.203 38.8227C133.017 45.4941 132.169 53.1032 128.392 59.2857C124.084 66.3522 114.808 73.4523 97.6967 70.4515L97.5351 126.743H122.644V93.3727C122.644 93.3727 157.863 84.3168 157.863 45.695C157.863 7.07327 127.834 0.770278 111.692 0.261216C102.712 -0.0268064 99.4536 -0.408603 88.3466 1.15877C74.1903 3.15483 62.4505 19.5118 62.7467 47.3696H62.7534Z" fill="#EA9310"/>
<path d="M122.953 138.492H97.4678V162.177H122.953V138.492Z" fill="#EA9310"/>
<path d="M52.2314 47.3693H77.6227C77.6227 47.3693 77.6227 26.1561 99.7828 25.7743C111.287 25.5801 117.258 33.0753 119.681 38.8224C122.495 45.4938 121.647 53.1029 117.87 59.2854C113.562 66.3519 104.125 72.7755 87.0132 69.7747V126.75H112.122V93.3791C112.122 93.3791 147.341 84.3232 147.341 45.7014C147.341 7.07966 114.04 0.173828 99.7896 0.173828C88.8913 0.173828 51.7602 2.79282 52.2382 47.376L52.2314 47.3693Z" fill="#FFBE0A"/>
<path d="M112.432 138.492H86.9463V162.177H112.432V138.492Z" fill="#FFBE0A"/>
<path d="M140.227 57.5912C139.837 58.3682 141.291 58.9978 142.126 59.2523C142.967 59.5069 143.862 59.4801 144.737 59.4332C145.895 59.3729 147.1 59.2657 148.11 58.6897C149.005 58.1806 149.672 57.3367 150.143 56.4257C150.607 55.5081 150.89 54.5167 151.173 53.5254C151.173 53.5254 141.984 54.1215 140.234 57.5912H140.227Z" fill="#FF4F5B"/>
<g opacity="0.4">
<path d="M140.227 57.5912C139.837 58.3682 141.291 58.9978 142.126 59.2523C142.967 59.5069 143.862 59.4801 144.737 59.4332C145.895 59.3729 147.1 59.2657 148.11 58.6897C149.005 58.1806 149.672 57.3367 150.143 56.4257C150.607 55.5081 150.89 54.5167 151.173 53.5254C151.173 53.5254 141.984 54.1215 140.234 57.5912H140.227Z" fill="black"/>
</g>
<path d="M166.198 55.1119C167.699 56.1771 169.543 56.7532 171.388 56.7331C172.27 56.7197 173.205 56.5523 173.858 55.9627C174.161 55.6881 174.383 55.3397 174.693 55.0784C174.902 54.8976 175.151 54.7636 175.346 54.576C175.541 54.3884 175.689 54.1071 175.635 53.8391C175.575 53.5644 175.346 53.1223 175.097 52.9816C174.04 52.3854 172.781 52.4055 171.57 52.4323C170.358 52.4591 169.16 52.7404 168.009 53.129C167.066 53.4438 166.083 53.886 165.605 54.7569" fill="#FF4F5B"/>
<g opacity="0.4">
<path d="M175.629 53.8332C175.568 53.5586 175.184 53.1968 174.942 53.0561C173.885 52.4599 172.781 52.4063 171.563 52.4331C170.351 52.4599 169.153 52.7413 168.002 53.1298C167.059 53.4447 166.077 53.8868 165.599 54.7577L166.198 55.1128C167.699 56.1779 169.543 56.7541 171.388 56.734C172.27 56.7206 173.205 56.5531 173.858 55.9636C174.161 55.6889 174.383 55.3406 174.693 55.0793C174.902 54.8984 175.151 54.7644 175.346 54.5768C175.541 54.3893 175.689 54.1079 175.635 53.8399L175.629 53.8332Z" fill="black"/>
</g>
<path d="M148.251 69.0041L167.644 69.2587C167.812 69.2587 167.934 69.0979 167.886 68.9371L165.611 61.8773C165.611 61.8773 165.948 58.3473 166.412 54.1007C167.112 47.657 168.048 39.5522 168.061 39.579C166.735 35.8816 158.907 35.252 158.907 35.252L149.987 35.7811L149.671 35.2587L147.106 36.4442C146.548 36.7055 146.009 37.0069 145.497 37.3485C143.801 38.4805 139.715 41.066 138.968 43.9529C137.245 50.631 140.166 58.0794 140.166 58.0794L142.037 56.6259C142.529 56.2575 142.993 55.936 143.525 55.6345L147.281 65.655C147.281 65.655 146.5 66.1306 146.467 66.9411C146.433 67.7516 146.871 68.7295 148.251 69.0108" fill="#9A99FB"/>
<g opacity="0.3">
<path d="M156.565 57.1879C157.177 53.8991 156.854 50.5165 156.524 47.1875C155.447 49.9137 155.488 52.9814 154.35 55.6808C154.229 55.9688 154.088 56.2635 154.047 56.5784C154.007 56.8932 154.074 57.2415 154.303 57.4491C154.613 57.7304 155.077 57.5764 155.494 57.5295C155.939 57.4759 156.168 57.3286 156.565 57.1879Z" fill="black"/>
</g>
<g opacity="0.4">
<path d="M149.422 64.8054C150.99 65.348 152.633 64.3432 154.282 64.1623C155.373 64.0417 156.463 64.2963 157.54 64.4705C159.721 64.8255 161.956 64.8791 164.157 64.6312C164.494 64.591 164.837 64.5442 165.133 64.3834C165.429 64.2226 165.665 63.7603 165.645 63.4254C161.983 63.0502 158.321 62.8292 154.659 62.454C153.744 62.3602 152.794 62.2664 151.913 62.5411C150.809 62.8828 149.954 63.747 149.173 64.5977" fill="black"/>
</g>
<path d="M175.069 52.5602C173.48 49.0101 167.9 39.1973 167.9 39.1973L163.578 44.5893L164.588 55.1791C164.588 55.1791 166.87 52.6405 173.251 52.5936C174.739 52.5802 175.628 53.8395 175.628 53.8395L175.069 52.5669V52.5602Z" fill="#9A99FB"/>
<path d="M149.112 50.6856C149.058 50.699 148.735 49.6607 148.385 48.3677C148.035 47.0748 147.8 46.0163 147.853 45.9962C147.907 45.9828 148.23 47.0212 148.58 48.3141C148.93 49.6071 149.166 50.6655 149.112 50.6789V50.6856Z" fill="#1A2E35"/>
<path d="M163.248 43.865C163.248 43.865 163.396 43.9721 163.645 44.1999C163.887 44.4343 164.231 44.7826 164.608 45.2515C165.362 46.1825 166.284 47.636 166.674 49.4579C166.87 50.3622 166.896 51.2531 166.796 52.0501C166.695 52.8405 166.54 53.5371 166.445 54.1266C166.344 54.716 166.284 55.1916 166.25 55.5265C166.217 55.8614 166.21 56.0423 166.196 56.0423C166.183 56.0423 166.163 55.8547 166.169 55.5198C166.176 55.1849 166.217 54.6959 166.304 54.0998C166.385 53.5036 166.52 52.8003 166.614 52.0234C166.701 51.2464 166.668 50.3756 166.479 49.4914C166.102 47.7164 165.22 46.2763 164.5 45.3319C163.78 44.3807 163.221 43.8851 163.248 43.8516V43.865Z" fill="#1A2E35"/>
<path d="M159.291 68.1614C159.291 68.1614 159.143 68.215 158.867 68.282C158.732 68.3155 158.557 68.3557 158.362 68.3825C158.16 68.4093 157.938 68.4562 157.682 68.4629C157.177 68.5098 156.571 68.5098 155.898 68.4562C155.232 68.3892 154.498 68.2552 153.757 68.0274C153.017 67.793 152.337 67.4915 151.751 67.17C151.166 66.8417 150.668 66.5 150.277 66.1718C150.075 66.0177 149.914 65.8569 149.766 65.7229C149.618 65.589 149.496 65.4617 149.402 65.3545C149.214 65.1468 149.113 65.0262 149.126 65.0128C149.153 64.986 149.57 65.4483 150.365 66.0579C150.762 66.3661 151.26 66.6876 151.839 67.0025C152.425 67.3106 153.091 67.5987 153.818 67.8265C154.545 68.0475 155.259 68.1815 155.918 68.2619C156.578 68.3289 157.17 68.3423 157.668 68.3155C158.671 68.2619 159.277 68.1145 159.284 68.1547L159.291 68.1614Z" fill="#1A2E35"/>
<path d="M165.282 65.957C165.282 65.957 165.383 66.1647 165.43 66.5198C165.477 66.8748 165.484 67.3906 165.323 67.9333C165.168 68.4759 164.845 68.9047 164.562 69.1324C164.279 69.3669 164.057 69.4406 164.05 69.4205C164.03 69.3937 164.225 69.2731 164.468 69.0252C164.71 68.7774 164.986 68.3821 165.134 67.873C165.43 66.848 165.208 65.957 165.282 65.957Z" fill="#1A2E35"/>
<path d="M164.225 67.3166C164.278 67.3032 164.379 67.8727 164.124 68.5091C163.874 69.1522 163.417 69.5006 163.39 69.4537C163.349 69.4135 163.713 69.0249 163.935 68.4354C164.171 67.8459 164.164 67.3166 164.225 67.3166Z" fill="#1A2E35"/>
<path d="M160.752 54.5832C160.792 54.6234 160.436 55.032 160.059 55.5746C159.682 56.1173 159.433 56.5996 159.379 56.5728C159.332 56.5527 159.5 56.0235 159.89 55.4608C160.281 54.898 160.712 54.543 160.752 54.5832Z" fill="#1A2E35"/>
<path d="M147.443 45.2049C147.443 45.2049 147.114 44.9838 146.582 44.6355C146.05 44.2871 145.283 43.8651 144.381 43.5234C143.472 43.1885 142.617 43.0076 141.984 42.9272C141.358 42.8401 140.961 42.8267 140.961 42.7932C140.961 42.7731 141.358 42.7329 141.998 42.7865C142.637 42.8334 143.526 42.9942 144.448 43.3358C145.37 43.6775 146.144 44.1397 146.663 44.5149C147.181 44.8967 147.457 45.1848 147.443 45.1982V45.2049Z" fill="#1A2E35"/>
<path d="M167.9 39.0634C167.94 39.1169 166.89 39.7534 165.934 40.8922C164.972 42.0244 164.514 43.1565 164.46 43.1297C164.44 43.123 164.521 42.8283 164.729 42.3794C164.938 41.9306 165.295 41.3411 165.779 40.7582C166.271 40.1821 166.796 39.7333 167.2 39.4519C167.604 39.1705 167.886 39.0366 167.9 39.0567V39.0634Z" fill="#1A2E35"/>
<path d="M159.889 35.875C159.889 35.875 159.923 35.9353 159.977 36.0559C160.037 36.1764 160.091 36.3573 160.158 36.5984C160.28 37.0807 160.347 37.8175 160.152 38.6949C159.95 39.559 159.465 40.5704 158.563 41.3608C157.674 42.1579 156.362 42.6335 154.982 42.6268C153.602 42.6201 152.309 42.1512 151.367 41.4278C150.411 40.7111 149.778 39.8202 149.381 39.0298C148.984 38.2261 148.802 37.5228 148.722 37.0405C148.681 36.7927 148.654 36.6051 148.654 36.4711C148.648 36.3439 148.641 36.2702 148.654 36.2702C148.674 36.2702 148.701 36.5381 148.802 37.0204C148.91 37.496 149.112 38.1859 149.516 38.9629C149.927 39.7332 150.559 40.5905 151.488 41.2804C152.41 41.9771 153.656 42.4191 154.989 42.4325C156.321 42.4325 157.58 41.9837 158.442 41.2269C159.31 40.47 159.802 39.5054 160.01 38.6681C160.219 37.8175 160.179 37.1008 160.078 36.6185C159.983 36.1362 159.862 35.8884 159.889 35.8817V35.875Z" fill="#1A2E35"/>
<g opacity="0.3">
<path d="M161.257 55.2671C161.257 55.0729 161.223 54.8451 161.055 54.7513C160.947 54.691 160.813 54.7044 160.705 54.7513C160.597 54.8049 160.51 54.892 160.422 54.9858C159.951 55.4949 159.621 55.9906 159.386 56.6405L161.291 56.4797C161.277 56.0777 161.271 55.6691 161.257 55.2738V55.2671Z" fill="black"/>
</g>
<g opacity="0.3">
<path d="M167.584 51.2745C167.436 50.1894 166.884 49.1981 166.204 48.334C167.025 51.0133 166.749 52.5271 166.292 54.3624L166.393 54.1078C166.924 53.0361 167.739 52.3663 167.591 51.2812L167.584 51.2745Z" fill="black"/>
</g>
<path d="M163.774 141.265L162.61 158.634L155.024 158.54L153.832 140.488L163.774 141.265Z" fill="#FFBF9D"/>
<path d="M162.826 156.349V156.851C162.826 156.851 171.381 160.274 171.469 161.888L154.485 161.788L154.748 156.168C157.265 157.347 159.911 157.494 162.826 156.349Z" fill="#B97A5B"/>
<path d="M156.458 157.977C156.128 158.064 155.899 158.432 155.973 158.761C156.047 159.089 156.417 159.33 156.754 159.243C157.084 159.162 157.373 158.727 157.265 158.412C157.151 158.091 156.7 157.836 156.404 157.997" fill="white"/>
<path d="M154.485 161.789L154.546 160.436L170.803 161.025C170.803 161.025 171.556 161.36 171.469 161.889L154.485 161.789Z" fill="#1A2E35"/>
<path d="M162.886 156.899C162.886 156.979 162.468 157.02 162.058 157.281C161.64 157.535 161.432 157.89 161.351 157.857C161.277 157.844 161.398 157.348 161.903 157.04C162.401 156.725 162.906 156.825 162.886 156.906V156.899Z" fill="#1A2E35"/>
<path d="M164.663 157.641C164.684 157.721 164.32 157.862 164.037 158.204C163.741 158.545 163.667 158.921 163.586 158.914C163.506 158.927 163.452 158.445 163.815 158.016C164.172 157.587 164.663 157.554 164.663 157.634V157.641Z" fill="#1A2E35"/>
<path d="M165.666 159.764C165.592 159.785 165.477 159.369 165.693 158.92C165.908 158.465 166.299 158.291 166.332 158.358C166.379 158.425 166.124 158.666 165.955 159.041C165.773 159.409 165.747 159.758 165.666 159.764Z" fill="#1A2E35"/>
<path d="M162.394 14.2875C162.832 13.2024 162.3 11.8895 161.358 11.1929C160.409 10.503 159.15 10.349 157.985 10.5365C156.828 10.7174 155.737 11.1996 154.66 11.6819C153.684 10.7107 152.149 10.3423 150.836 10.7642C149.524 11.1929 148.501 12.3919 148.292 13.7516C147.457 13.5373 146.515 13.8253 145.936 14.4616C145.357 15.098 145.169 16.0625 145.465 16.8663L150.722 18.7016L156.464 28.7556C158.14 30.1823 160.887 30.1421 162.529 28.6685C164.165 27.1949 164.481 24.4821 163.229 22.6736C163.552 22.3923 163.822 22.0507 164.037 21.6823C164.946 21.1196 165.659 20.2489 165.895 19.204C166.393 16.9936 164.656 14.5487 162.394 14.2875Z" fill="#141414"/>
<path d="M158.907 35.2469C158.577 33.6125 158.355 32.4872 158.355 32.5006C158.355 32.5006 161.458 31.3016 161.243 26.988C161.135 24.8446 160.314 21.4687 159.553 18.7224C158.867 16.2508 156.551 13.5313 154.101 14.315L146.69 17.9186C145.942 18.1598 145.814 18.8564 145.989 19.6133L146.003 19.9817L148.884 31.8509L150.102 37.1558C150.641 39.4131 152.822 40.8867 155.131 40.5518C157.682 40.1834 159.405 37.7587 158.901 35.2402L158.907 35.2469Z" fill="#FFBF9D"/>
<path d="M158.362 32.5012C158.362 32.5012 155.582 33.2717 152.432 32.1797C152.432 32.1797 154.471 34.8259 158.584 33.5597L158.362 32.4945V32.5012Z" fill="#FF9A6C"/>
<path d="M148.52 15.1515C148.688 15.9887 149.254 16.7389 150.008 17.1408C150.761 17.5427 151.697 17.5963 152.491 17.2748C153.111 17.027 153.744 16.5581 154.37 16.7858C155.029 17.0203 155.231 17.891 155.844 18.2326C156.719 18.7216 157.769 17.8776 158.765 17.958C159.533 18.025 160.132 18.6211 160.731 19.0967C161.33 19.579 162.171 19.9809 162.851 19.6192C162.67 18.9828 162.488 18.3331 162.165 17.7571C161.842 17.1743 161.364 16.6586 160.738 16.4174C160.394 16.2835 160.024 16.2366 159.701 16.0691C159.001 15.7074 158.684 14.8969 158.173 14.3008C157.513 13.5305 156.463 13.1085 155.447 13.2157C154.605 13.3028 153.804 13.7248 152.956 13.6913C152.33 13.6645 151.731 13.3898 151.105 13.3965C149.886 13.4166 148.971 14.4816 148.291 15.4864" fill="#141414"/>
<path d="M152.62 16.0361C152.061 15.996 150.917 15.8754 150.54 15.4802C149.725 14.6228 148.5 14.174 147.409 14.4621C146.319 14.7501 145.444 15.8352 145.457 17.0409C144.124 17.3289 142.994 18.4274 142.617 19.8139C142.24 21.2004 142.623 22.8147 143.586 23.8797C143.842 24.161 144.225 24.7974 144.225 24.7974C144.225 24.7974 143.727 25.4203 143.532 25.8423C142.644 27.7982 145.053 28.5484 145.053 28.5484C145.053 29.8679 146.279 29.8612 147.059 29.8545C147.813 29.8545 148.278 31.9242 148.884 31.8439L148.264 25.4337C148.338 25.4605 148.433 25.4806 148.547 25.4873C150.021 25.5141 149.638 22.7343 149.16 22.0176C149.577 21.4617 149.994 20.899 150.264 20.2493C150.533 19.5996 150.553 17.9652 150.324 17.282C150.836 17.2083 152.855 16.0495 152.606 16.0294L152.62 16.0361Z" fill="#141414"/>
<path d="M148.494 25.7815C148.265 24.9039 147.168 24.5086 146.488 25.1182C146.111 25.4532 145.889 26.0092 146.124 26.9404C146.75 29.4325 149.14 28.2936 149.127 28.22C149.12 28.1731 148.763 26.8131 148.494 25.7815Z" fill="#FFBF9D"/>
<path d="M148.124 27.4631C148.124 27.4631 148.09 27.5033 148.023 27.5569C147.962 27.6105 147.841 27.6641 147.7 27.644C147.41 27.6105 147.08 27.2487 146.959 26.8066C146.899 26.5788 146.892 26.351 146.926 26.1568C146.959 25.9558 147.04 25.8017 147.168 25.7414C147.296 25.6811 147.41 25.7347 147.457 25.795C147.511 25.8553 147.505 25.9089 147.518 25.9089C147.525 25.9089 147.558 25.8553 147.518 25.7548C147.498 25.7079 147.451 25.6543 147.383 25.6208C147.309 25.5873 147.215 25.5873 147.128 25.6208C146.939 25.6811 146.811 25.9022 146.771 26.1233C146.724 26.3443 146.724 26.6056 146.798 26.8535C146.939 27.3492 147.316 27.7579 147.706 27.7713C147.895 27.7713 148.03 27.6842 148.09 27.6038C148.151 27.5234 148.151 27.4631 148.144 27.4631H148.124Z" fill="#FF9A6C"/>
<path d="M161.93 22.2983C161.93 22.2983 162.159 22.1242 162.476 21.7357C162.785 21.3472 163.169 20.6908 163.256 19.7999C163.297 19.3578 163.277 18.8622 163.115 18.3665C162.954 17.8708 162.671 17.3752 162.227 16.9934C161.365 16.2097 159.931 15.848 158.652 16.3035C158.538 16.3437 158.423 16.3972 158.316 16.4441C158.208 16.4977 158.107 16.5647 158.013 16.6183L157.858 16.7054V16.5379C157.858 16.2365 157.737 15.9485 157.541 15.7274C157.346 15.5064 157.09 15.3322 156.821 15.2184C156.276 14.9772 155.69 14.9772 155.152 15.0978C154.075 15.3389 153.166 15.8279 152.304 15.9284C151.449 16.0355 150.743 15.8279 150.366 15.5399C150.17 15.4059 150.056 15.2519 149.982 15.1514C149.921 15.0442 149.888 14.9906 149.894 14.9839C149.915 14.9705 150.022 15.2184 150.406 15.4796C150.783 15.7341 151.463 15.915 152.284 15.7944C152.695 15.7341 153.126 15.5868 153.59 15.4193C154.054 15.2519 154.553 15.0509 155.111 14.9236C155.387 14.8634 155.684 14.8232 155.993 14.8366C156.296 14.85 156.606 14.9236 156.902 15.0442C157.191 15.1715 157.474 15.3523 157.696 15.6069C157.918 15.8547 158.06 16.1963 158.06 16.5513L157.905 16.4642C158.013 16.4039 158.12 16.337 158.228 16.2767C158.349 16.2298 158.464 16.1628 158.585 16.1226C159.951 15.647 161.446 16.0355 162.354 16.8661C162.819 17.2747 163.122 17.8106 163.277 18.333C163.438 18.8555 163.452 19.3779 163.398 19.8334C163.29 20.7578 162.873 21.4276 162.536 21.8027C162.368 21.9969 162.213 22.1242 162.105 22.2046C161.998 22.285 161.937 22.3251 161.93 22.3184V22.2983Z" fill="#222526"/>
<path d="M161.419 13.551C161.419 13.551 161.149 13.3567 160.611 13.2763C160.342 13.2428 160.005 13.2428 159.655 13.3634C159.298 13.4706 158.928 13.705 158.672 14.0802L158.578 14.2142L158.517 14.0601C158.201 13.2227 157.285 12.4322 156.141 12.3049C155.286 12.2044 154.505 12.593 153.859 12.9614C153.206 13.3433 152.614 13.7117 152.048 13.8926C151.496 14.0869 151.005 14.107 150.682 14.0534C150.52 14.0266 150.399 13.9864 150.318 13.9529C150.238 13.9194 150.197 13.8993 150.204 13.8926C150.204 13.8725 150.379 13.9462 150.695 13.973C151.012 13.9998 151.476 13.9596 152.008 13.7586C152.546 13.5711 153.112 13.1959 153.772 12.8007C154.101 12.6064 154.458 12.4121 154.862 12.2714C155.259 12.1307 155.717 12.057 156.168 12.1039C157.393 12.2379 158.362 13.0954 158.686 13.9931L158.531 13.973C158.827 13.5644 159.238 13.3299 159.621 13.2227C160.005 13.1088 160.362 13.1222 160.638 13.1691C160.914 13.2227 161.122 13.3232 161.25 13.4036C161.378 13.484 161.432 13.5443 161.432 13.5443L161.419 13.551Z" fill="#222526"/>
<path d="M156.491 28.1202C156.491 28.1202 156.423 28.0063 156.316 27.8455C156.215 27.6847 156.033 27.4837 155.777 27.3632C155.515 27.2493 155.245 27.2426 155.057 27.2761C154.868 27.3029 154.747 27.3565 154.734 27.3297C154.72 27.3096 154.814 27.2091 155.023 27.1354C155.225 27.0617 155.548 27.0416 155.865 27.1823C156.174 27.323 156.369 27.5842 156.45 27.7852C156.531 27.9862 156.518 28.1269 156.497 28.1269L156.491 28.1202Z" fill="#1A2E35"/>
<path d="M148.555 28.6008C148.555 28.6008 148.669 28.7951 148.521 29.0898C148.447 29.2305 148.312 29.3846 148.104 29.465C147.895 29.5454 147.633 29.5186 147.417 29.3846C147.202 29.2506 147.06 29.0295 147.047 28.8018C147.027 28.5807 147.114 28.3931 147.208 28.2658C147.41 28.0113 147.639 28.0046 147.633 28.0247C147.646 28.0582 147.464 28.1117 147.323 28.3462C147.256 28.4601 147.208 28.6142 147.229 28.7817C147.249 28.9424 147.357 29.1099 147.518 29.2104C147.686 29.3109 147.882 29.3377 148.036 29.2841C148.198 29.2305 148.312 29.1233 148.393 29.0161C148.548 28.7951 148.521 28.6008 148.548 28.6008H148.555Z" fill="#4CCBD4"/>
<path d="M147.242 28.4537C147.242 28.4537 147.228 28.5877 147.06 28.6681C146.979 28.7083 146.865 28.7284 146.737 28.7016C146.609 28.6748 146.488 28.581 146.421 28.447C146.353 28.3197 146.34 28.1656 146.38 28.0451C146.421 27.9245 146.508 27.8441 146.582 27.7905C146.744 27.6967 146.865 27.7302 146.858 27.757C146.858 27.7838 146.764 27.8039 146.663 27.9044C146.562 27.9982 146.488 28.179 146.589 28.3532C146.683 28.5274 146.872 28.5676 147.006 28.5341C147.141 28.5073 147.208 28.4336 147.235 28.4537H147.242Z" fill="#4CCBD4"/>
<path d="M151.517 62.8353C151.517 62.8353 161.15 63.3912 166.845 63.4448C171.254 63.485 173.22 62.3195 174.101 59.4996C174.842 57.1351 173.253 52.5938 173.253 52.5938C170.271 52.6071 168.433 53.0157 166.508 53.9133L167.02 55.9897L151.49 57.3227L151.517 62.842V62.8353Z" fill="#FFBF9D"/>
<path d="M170.257 58.2014C170.203 58.2349 169.752 57.3975 168.803 56.7678C167.867 56.1179 166.911 56.0108 166.925 55.9438C166.925 55.917 167.167 55.917 167.544 55.9974C167.921 56.0777 168.426 56.272 168.917 56.6003C169.402 56.9352 169.766 57.3305 169.981 57.652C170.196 57.9669 170.277 58.1947 170.257 58.2081V58.2014Z" fill="#FF9A6C"/>
<path d="M147.989 53.895C147.989 53.895 145.007 54.605 142.819 56.0585L145.148 62.3548C145.923 64.4178 148.306 65.4359 150.19 64.3642C153.119 62.6964 154.155 57.8335 154.155 57.8335L157.373 43.9414L152.042 40.6191L147.989 53.8883" fill="#FFBF9D"/>
<path d="M152.042 40.6245L152.258 36.0563L151.066 31.4279C150.999 31.1733 150.965 30.8518 151.174 30.6978C151.389 30.537 151.719 30.5437 151.894 30.7179C152.217 31.0528 153.772 35.1119 153.772 35.1119C153.772 35.1119 156.135 33.6986 156.552 33.6316C156.976 33.5646 157.502 34.8239 157.535 34.9243C157.569 35.0248 157.535 35.775 157.535 35.775C157.535 35.775 158.996 35.8152 159.124 36.0161C159.252 36.2171 159.292 37.2486 159.292 37.2486C159.292 37.2486 159.911 37.4429 160.006 37.9117C160.107 38.3806 160.302 39.1442 160.012 39.3116C159.723 39.4791 159.104 39.814 159.104 39.814C159.104 39.814 158.855 42.1852 158.794 42.3995C158.733 42.6139 157.36 43.9401 157.36 43.9401L152.029 40.6178L152.042 40.6245Z" fill="#FFBF9D"/>
<path d="M147.082 64.4638C147.082 64.4638 147.23 64.5442 147.526 64.6446C147.822 64.7451 148.3 64.8322 148.899 64.7518C149.498 64.6714 150.232 64.4102 150.892 63.8408C151.538 63.2581 152.198 62.4811 152.743 61.5099C153.012 61.0209 153.261 60.4851 153.463 59.909C153.672 59.333 153.813 58.7033 153.961 58.0536C154.264 56.7475 154.594 55.3475 154.944 53.8538C155.644 50.8665 156.432 47.5308 157.28 43.9338V43.907L157.307 43.8869C157.576 43.6257 157.846 43.3578 158.108 43.0832C158.243 42.9425 158.371 42.8018 158.498 42.6612C158.559 42.5875 158.626 42.5138 158.673 42.4401C158.721 42.3932 158.721 42.2995 158.741 42.199C158.849 41.422 158.929 40.6249 159.017 39.8144V39.7609L159.071 39.7341C159.313 39.6001 159.562 39.4594 159.811 39.3188C159.865 39.2853 159.952 39.2451 159.986 39.2183C160.02 39.1915 160.047 39.1513 160.053 39.091C160.08 38.9705 160.074 38.8298 160.053 38.6891C160.02 38.4145 159.952 38.0997 159.878 37.8452C159.784 37.6107 159.515 37.4433 159.259 37.3495L159.192 37.3227V37.2557C159.178 37.0347 159.165 36.8003 159.138 36.5725C159.124 36.4587 159.111 36.3448 159.084 36.2309C159.071 36.1773 159.057 36.117 159.037 36.0903C159.024 36.0635 159.037 36.0903 159.01 36.0702C158.99 36.0635 158.97 36.0501 158.943 36.0434C158.512 35.9228 158 35.9094 157.516 35.8826H157.415V35.7754C157.421 35.5343 157.435 35.2731 157.415 35.0185C157.415 34.9516 157.361 34.8511 157.327 34.7573C157.287 34.6635 157.24 34.5698 157.193 34.4827C157.098 34.3018 156.997 34.1277 156.876 33.9736C156.816 33.8999 156.748 33.8263 156.681 33.7794C156.6 33.7325 156.567 33.7191 156.472 33.7526C156.291 33.8129 156.102 33.9133 155.927 34.0004C155.2 34.3755 154.493 34.7841 153.807 35.1927L153.706 35.253L153.665 35.1458C153.295 34.2282 152.932 33.3239 152.575 32.433C152.393 31.9843 152.218 31.5422 152.043 31.1068C151.976 30.8858 151.821 30.7585 151.612 30.7116C151.403 30.658 151.202 30.725 151.107 30.8992C151.06 30.9795 151.04 31.08 151.047 31.1738C151.06 31.2609 151.101 31.3881 151.127 31.4953C151.188 31.7163 151.242 31.9441 151.302 32.1651C151.417 32.6072 151.538 33.0493 151.653 33.478C151.881 34.3487 152.104 35.1994 152.326 36.0367V36.0501V36.0635C152.252 37.6509 152.171 39.1781 152.104 40.6316V40.645V40.6517C150.636 45.4141 149.411 49.3594 148.556 52.1257C148.125 53.4988 147.789 54.5772 147.553 55.3207C147.439 55.6825 147.344 55.9638 147.284 56.158C147.223 56.3456 147.183 56.4394 147.183 56.4394C147.183 56.4394 147.203 56.3389 147.257 56.1446C147.317 55.9437 147.398 55.6624 147.499 55.3007C147.721 54.5505 148.044 53.472 148.455 52.0922C149.296 49.3192 150.488 45.3672 151.929 40.5981V40.6182C151.989 39.1647 152.063 37.6375 152.13 36.0501V36.0769C151.908 35.2463 151.686 34.3889 151.451 33.5248C151.336 33.0895 151.215 32.6541 151.101 32.212C151.04 31.991 150.979 31.7699 150.926 31.5489C150.899 31.4283 150.865 31.3412 150.838 31.2006C150.825 31.0666 150.851 30.9259 150.926 30.8054C150.993 30.6848 151.107 30.591 151.242 30.5442C151.377 30.4973 151.518 30.504 151.646 30.5308C151.774 30.5642 151.902 30.6178 152.003 30.7116C152.104 30.7987 152.178 30.946 152.211 31.0465C152.386 31.4886 152.568 31.9307 152.743 32.3728C153.1 33.2636 153.463 34.1679 153.834 35.0855L153.685 35.0386C154.379 34.63 155.086 34.2148 155.819 33.833C156.008 33.7392 156.19 33.6454 156.398 33.5717C156.452 33.5583 156.513 33.5315 156.593 33.5449C156.667 33.5583 156.728 33.5851 156.775 33.6186C156.883 33.6856 156.95 33.7727 157.024 33.8531C157.159 34.0272 157.267 34.2081 157.361 34.3956C157.408 34.4894 157.455 34.5832 157.502 34.6836C157.536 34.7841 157.603 34.8645 157.61 35.0118C157.623 35.2865 157.61 35.541 157.61 35.7888L157.509 35.6817C158.007 35.7085 158.492 35.7152 158.997 35.8558C159.03 35.8625 159.064 35.8826 159.098 35.896C159.125 35.9094 159.192 35.963 159.199 35.9965C159.239 36.0702 159.246 36.1304 159.266 36.1907C159.293 36.3113 159.306 36.4319 159.32 36.5524C159.347 36.7869 159.36 37.0213 159.374 37.249L159.306 37.1553C159.609 37.2691 159.905 37.4433 160.047 37.7648C160.141 38.0863 160.188 38.3542 160.235 38.6624C160.249 38.8164 160.262 38.9638 160.228 39.1312C160.215 39.2116 160.168 39.3054 160.087 39.3724C160.006 39.4326 159.952 39.446 159.892 39.4929C159.643 39.6336 159.394 39.7743 159.145 39.9082L159.199 39.8345C159.111 40.645 159.03 41.4421 158.923 42.2258L158.896 42.3732C158.896 42.42 158.855 42.5071 158.822 42.5406C158.761 42.6277 158.694 42.7014 158.633 42.775C158.505 42.9224 158.371 43.0631 158.236 43.2037C157.967 43.4851 157.697 43.753 157.428 44.0142L157.455 43.9673C156.6 47.5576 155.806 50.8999 155.092 53.8806C154.736 55.3743 154.399 56.7743 154.089 58.0804C153.935 58.7301 153.793 59.3665 153.578 59.9492C153.369 60.5319 153.113 61.0745 152.837 61.5635C152.279 62.5481 151.605 63.3251 150.946 63.9078C150.266 64.4906 149.512 64.7451 148.899 64.8121C148.28 64.8858 147.802 64.7853 147.506 64.6714C147.358 64.6178 147.243 64.5643 147.176 64.5241C147.102 64.4839 147.068 64.4638 147.068 64.4638H147.082Z" fill="#FF9A6C"/>
<path d="M157.543 35.7691C157.543 35.7691 157.408 35.8093 157.206 35.8227C157.004 35.8361 156.722 35.8428 156.432 35.9165C156.143 35.9902 155.914 36.1309 155.772 36.2649C155.631 36.3988 155.57 36.506 155.537 36.4993C155.517 36.4926 155.53 36.352 155.665 36.1711C155.793 35.9902 156.055 35.8026 156.378 35.7222C156.701 35.6418 157.004 35.6619 157.213 35.682C157.422 35.7088 157.55 35.7423 157.543 35.7691Z" fill="#FF9A6C"/>
<path d="M156.405 35.8147C156.351 35.7946 156.351 35.6741 156.398 35.5468C156.445 35.4195 156.526 35.3324 156.58 35.3525C156.633 35.3726 156.633 35.4932 156.586 35.6205C156.539 35.7477 156.458 35.8348 156.405 35.8147Z" fill="#FF9A6C"/>
<path d="M159.366 37.2217C159.366 37.282 158.848 37.3422 158.208 37.3824C157.892 37.4092 157.656 37.5231 157.569 37.6906C157.468 37.8514 157.502 37.9787 157.468 37.9854C157.448 38.0055 157.347 37.8514 157.441 37.6236C157.481 37.5164 157.582 37.3958 157.717 37.3154C157.852 37.2351 158.02 37.2016 158.188 37.1815C158.841 37.1413 159.366 37.1681 159.366 37.2217Z" fill="#FF9A6C"/>
<path d="M159.111 38.6094C159.165 38.6094 159.199 38.8974 159.185 39.2458C159.172 39.5942 159.111 39.8755 159.057 39.8755C159.004 39.8755 158.97 39.5875 158.983 39.2391C158.997 38.8907 159.057 38.6094 159.111 38.6094Z" fill="#FF9A6C"/>
<path d="M160.724 49.0388L161.067 47.8531C161.134 47.6119 161.437 47.5382 161.612 47.7191L162.063 48.1746L162.346 47.0559C162.42 46.7611 162.824 46.7209 162.958 46.9956L163.598 48.3153L160.724 49.0388Z" fill="white"/>
<path d="M163.598 48.8238C163.612 48.8774 162.999 49.0784 162.225 49.266C161.451 49.4535 160.818 49.5674 160.805 49.5138C160.791 49.4602 161.404 49.2593 162.178 49.0717C162.952 48.8841 163.585 48.7702 163.598 48.8238Z" fill="white"/>
<path d="M140.463 42.2051C140.463 42.2051 140.314 42.3524 140.119 42.6673C139.917 42.9754 139.702 43.4777 139.594 44.1275C139.48 44.7772 139.473 45.5743 139.527 46.445C139.567 47.3225 139.641 48.2803 139.749 49.2918C139.964 51.3079 140.288 53.1097 140.57 54.4092C140.712 55.0589 140.833 55.5814 140.92 55.9431C140.961 56.1038 140.994 56.2378 141.021 56.3584C141.041 56.4521 141.048 56.5057 141.048 56.5057C141.048 56.5057 141.028 56.4588 141.001 56.3651C140.967 56.2445 140.934 56.1105 140.887 55.9498C140.792 55.5881 140.658 55.0723 140.51 54.4226C140.213 53.1298 139.877 51.3213 139.662 49.2985C139.554 48.287 139.486 47.3292 139.446 46.4517C139.399 45.5743 139.412 44.7772 139.534 44.1208C139.648 43.4643 139.884 42.962 140.092 42.6539C140.301 42.3457 140.463 42.2118 140.463 42.2118V42.2051Z" fill="white"/>
<path d="M148.647 36.9473C148.647 36.9473 148.621 36.9674 148.56 36.9942C148.479 37.0344 148.398 37.0745 148.304 37.1147C148.082 37.2219 147.759 37.376 147.375 37.5904C146.601 38.0057 145.564 38.6489 144.454 39.4059C143.343 40.1629 142.36 40.8864 141.64 41.3955C141.31 41.63 141.027 41.831 140.785 41.9984C140.698 42.0587 140.623 42.1056 140.549 42.1592C140.496 42.1927 140.469 42.2128 140.462 42.2128C140.462 42.2128 140.489 42.186 140.536 42.1458C140.603 42.0922 140.677 42.0386 140.765 41.9716C141 41.7975 141.276 41.5898 141.606 41.3486C142.32 40.8261 143.296 40.1026 144.407 39.3389C145.517 38.5752 146.561 37.9387 147.348 37.5368C147.739 37.3291 148.069 37.1817 148.291 37.0879C148.385 37.0478 148.472 37.0143 148.553 36.9808C148.614 36.954 148.647 36.9473 148.647 36.9473Z" fill="white"/>
<path d="M167.206 39.467C167.206 39.467 167.18 39.4536 167.139 39.4201C167.085 39.3732 167.025 39.3196 166.964 39.266C166.809 39.1387 166.58 38.9578 166.284 38.7636C165.692 38.3616 164.803 37.9128 163.78 37.5041C162.764 37.0955 161.808 36.8074 161.114 36.6198C160.764 36.526 160.482 36.4523 160.286 36.4054C160.206 36.3853 160.132 36.3653 160.064 36.3452C160.01 36.3318 159.984 36.3251 159.99 36.3184C159.99 36.3184 160.017 36.3184 160.071 36.3251C160.145 36.3385 160.219 36.3519 160.3 36.3653C160.495 36.4054 160.785 36.4657 161.135 36.5528C161.835 36.727 162.791 37.0084 163.814 37.417C164.837 37.8257 165.726 38.2879 166.318 38.7033C166.917 39.1119 167.206 39.4536 167.206 39.4536V39.467Z" fill="white"/>
<path d="M148.762 69.0125C148.762 69.0125 148.708 68.9991 148.607 68.9589C148.513 68.9187 148.378 68.8517 148.223 68.7512C147.92 68.557 147.503 68.1818 147.375 67.6124C147.247 67.0564 147.368 66.5271 147.523 66.1989C147.604 66.0314 147.685 65.9041 147.745 65.8237C147.806 65.7433 147.853 65.7031 147.853 65.7031C147.866 65.7098 147.712 65.884 147.57 66.219C147.429 66.5472 147.321 67.0564 147.449 67.5923C147.57 68.1349 147.954 68.5034 148.25 68.7044C148.546 68.912 148.762 68.9924 148.755 69.0058L148.762 69.0125Z" fill="white"/>
<path d="M147.523 64.8262C147.523 64.8262 147.631 65.0405 147.705 65.3152C147.786 65.5899 147.833 65.8176 147.813 65.8243C147.792 65.8243 147.705 65.61 147.631 65.3353C147.55 65.0606 147.503 64.8329 147.523 64.8262Z" fill="white"/>
<path d="M152.782 151.621L164.65 151.561L164.434 110.736L164.327 69.2068L148.252 69.0059L145.364 74.4247C144.199 76.615 143.405 78.9862 143.143 81.4511C142.941 83.3266 144.354 89.442 144.846 91.0027L149.268 104.962L152.782 151.615V151.621Z" fill="#222526"/>
<path d="M167.806 69.2606L180.845 104.634C182.373 109.376 181.862 114.072 179.237 118.452L164.097 147.857L155.582 137.261L168.251 110.917L157.083 92.9119L158.961 69.2941L164.219 69.207L167.8 69.2539L167.806 69.2606Z" fill="#222526"/>
<path d="M163.242 81.1152C163.242 81.1152 163.249 81.1755 163.262 81.2961C163.269 81.4234 163.282 81.6042 163.296 81.8319C163.323 82.3075 163.356 82.9974 163.404 83.8816C163.491 85.67 163.619 88.2488 163.767 91.4238C163.915 94.6121 164.09 98.4033 164.285 102.616C164.38 104.72 164.481 106.93 164.582 109.228C164.656 110.373 164.622 111.538 164.635 112.724C164.635 113.91 164.642 115.109 164.649 116.328C164.662 126.06 164.683 134.862 164.689 141.245C164.689 144.427 164.683 147.005 164.676 148.794C164.676 149.678 164.669 150.368 164.662 150.85C164.662 151.078 164.662 151.252 164.656 151.386C164.656 151.507 164.649 151.567 164.649 151.567C164.649 151.567 164.642 151.507 164.635 151.386C164.635 151.259 164.635 151.078 164.622 150.85C164.622 150.375 164.608 149.678 164.595 148.8C164.582 147.005 164.561 144.433 164.541 141.252C164.514 134.868 164.481 126.06 164.44 116.334C164.44 115.115 164.44 113.916 164.433 112.731C164.42 111.545 164.454 110.38 164.38 109.234C164.279 106.943 164.184 104.733 164.09 102.63C163.915 98.4234 163.754 94.6255 163.619 91.4371C163.491 88.2555 163.39 85.6834 163.316 83.8883C163.282 83.0041 163.262 82.3142 163.242 81.8386C163.242 81.6109 163.229 81.4367 163.229 81.3028C163.229 81.1822 163.229 81.1219 163.229 81.1219L163.242 81.1152Z" fill="#375A64"/>
<path d="M162.946 69.9637C162.946 69.9637 162.986 70.0977 163.027 70.3455C163.067 70.5934 163.114 70.9551 163.168 71.4038C163.269 72.3014 163.383 73.5406 163.444 74.9137C163.505 76.2868 163.511 77.5327 163.484 78.4369C163.471 78.8857 163.457 79.2541 163.437 79.502C163.417 79.7565 163.404 79.8904 163.39 79.8904C163.363 79.8904 163.35 79.3345 163.336 78.4302C163.323 77.5327 163.296 76.2868 163.235 74.9204C163.175 73.5473 163.087 72.3081 163.02 71.4105C162.953 70.513 162.912 69.957 162.939 69.957L162.946 69.9637Z" fill="#375A64"/>
<path d="M160.328 70.7607C160.328 70.7607 160.126 70.888 160.066 71.2029C160.039 71.3503 160.066 71.5445 160.214 71.6718C160.355 71.7991 160.597 71.8661 160.799 71.779C160.995 71.6852 161.109 71.4574 161.102 71.2699C161.102 71.0756 160.974 70.9215 160.84 70.8478C160.557 70.687 160.335 70.7875 160.335 70.7607C160.335 70.7473 160.375 70.7071 160.47 70.6803C160.571 70.6535 160.732 70.6468 160.907 70.7272C161.075 70.8009 161.271 70.9952 161.291 71.2632C161.311 71.5244 161.176 71.8259 160.887 71.9666C160.591 72.0939 160.274 71.9934 160.093 71.8125C159.897 71.6249 159.877 71.3503 159.931 71.1761C159.985 70.9885 160.099 70.8746 160.18 70.821C160.268 70.7674 160.328 70.7607 160.328 70.7674V70.7607Z" fill="#375A64"/>
<path d="M154.101 70.0586C154.101 70.0586 154.162 70.1859 154.209 70.427C154.256 70.6682 154.289 71.0367 154.242 71.4788C154.202 71.921 154.067 72.4502 153.791 72.9794C153.522 73.5087 153.105 74.0379 152.546 74.4398C151.981 74.8418 151.341 75.0629 150.755 75.15C150.163 75.237 149.618 75.1969 149.18 75.0964C148.743 74.9959 148.406 74.8485 148.191 74.7279C147.975 74.6073 147.868 74.5202 147.874 74.5068C147.895 74.4666 148.352 74.7949 149.214 74.9557C150.055 75.1232 151.348 75.0495 152.432 74.2791C153.509 73.502 153.993 72.3028 154.108 71.4654C154.229 70.6012 154.067 70.0653 154.108 70.0586H154.101Z" fill="#375A64"/>
<path d="M169.368 73.4467C169.368 73.4467 169.072 73.4869 168.621 73.3596C168.17 73.2323 167.578 72.9175 167.086 72.3882C166.602 71.8523 166.339 71.236 166.258 70.7737C166.171 70.3115 166.225 70.0234 166.245 70.0234C166.279 70.0234 166.285 70.3048 166.4 70.7402C166.514 71.169 166.777 71.7451 167.234 72.2476C167.699 72.75 168.244 73.0649 168.662 73.2256C169.079 73.3864 169.368 73.4132 169.362 73.4467H169.368Z" fill="#375A64"/>
<path d="M174.006 111.579C174.006 111.579 173.784 111.833 173.319 112.121C173.084 112.262 172.794 112.416 172.431 112.503C172.074 112.597 171.643 112.61 171.239 112.47C170.411 112.195 169.893 111.579 169.577 111.157C169.26 110.715 169.099 110.427 169.119 110.413C169.146 110.393 169.348 110.661 169.684 111.07C170.028 111.465 170.539 112.034 171.293 112.282C172.054 112.537 172.781 112.235 173.239 111.994C173.71 111.746 173.979 111.545 173.999 111.572L174.006 111.579Z" fill="#375A64"/>
<path d="M171.031 113.837C170.984 113.871 170.439 113.181 169.806 112.29C169.173 111.405 168.695 110.662 168.742 110.628C168.79 110.595 169.335 111.285 169.968 112.176C170.6 113.06 171.078 113.804 171.031 113.837Z" fill="#375A64"/>
</g>
<defs>
<clipPath id="clip0_7742_4951">
<rect width="200" height="162.672" fill="white" transform="translate(0.5)"/>
</clipPath>
</defs>
</svg>
