<svg width="32" height="32" viewBox="0 0 32 32" fill="none" xmlns="http://www.w3.org/2000/svg">
<g id="Frame" clip-path="url(#clip0_1863_2115)">
<g id="Group">
<path id="Vector" d="M29.8889 6.90039H19.1289C18.8489 6.90039 18.6289 6.68039 18.6289 6.40039C18.6289 6.12039 18.8489 5.90039 19.1289 5.90039H29.8889C30.1689 5.90039 30.3889 6.12039 30.3889 6.40039C30.3889 6.68039 30.1689 6.90039 29.8889 6.90039Z" fill="black"/>
<path id="Vector_2" d="M24.7186 28.4995H18.0586C17.7786 28.4995 17.5586 28.2795 17.5586 27.9995C17.5586 27.7195 17.7786 27.4995 18.0586 27.4995H24.7186C28.1286 27.4995 29.3886 25.8995 29.3886 21.5995V6.51953C29.3886 6.23953 29.6086 6.01953 29.8886 6.01953C30.1686 6.01953 30.3886 6.23953 30.3886 6.51953V21.5995C30.3886 26.4295 28.6886 28.4995 24.7186 28.4995Z" fill="black"/>
<path id="Vector_3" d="M24.9086 14.5004H20.1086C16.5086 14.5004 15.3086 13.3004 15.3086 9.70039V4.90039L24.9086 14.5004Z" fill="#FFCB09"/>
<path id="Vector_4" d="M17.7094 28.5H10.5094C4.26938 28.5 1.60938 25.84 1.60938 19.6V12.4C1.60937 6.16 4.26938 3.5 10.5094 3.5H16.5094C16.7894 3.5 17.0094 3.72 17.0094 4C17.0094 4.28 16.7894 4.5 16.5094 4.5H10.5094C4.74938 4.5 2.60937 6.64 2.60937 12.4V19.6C2.60937 25.36 4.74938 27.5 10.5094 27.5H17.7094C23.4694 27.5 25.6094 25.36 25.6094 19.6V13.6C25.6094 13.32 25.8294 13.1 26.1094 13.1C26.3894 13.1 26.6094 13.32 26.6094 13.6V19.6C26.6094 25.84 23.9494 28.5 17.7094 28.5Z" fill="black"/>
<path id="Vector_5" d="M26.1078 14.1001H21.3078C17.4478 14.1001 16.0078 12.6601 16.0078 8.80013V4.00013C16.0078 3.80013 16.1278 3.62013 16.3178 3.54013C16.5078 3.46013 16.7178 3.51013 16.8578 3.65013L26.4578 13.2501C26.5978 13.3901 26.6478 13.6101 26.5678 13.7901C26.4878 13.9801 26.3078 14.1001 26.1078 14.1001ZM17.0078 5.21013V8.80013C17.0078 12.1301 17.9678 13.1001 21.3078 13.1001H24.8978L17.0078 5.21013Z" fill="black"/>
<path id="Vector_6" d="M15.3094 18.9004H8.10937C7.82937 18.9004 7.60938 18.6804 7.60938 18.4004C7.60938 18.1204 7.82937 17.9004 8.10937 17.9004H15.3094C15.5894 17.9004 15.8094 18.1204 15.8094 18.4004C15.8094 18.6804 15.5894 18.9004 15.3094 18.9004Z" fill="black"/>
<path id="Vector_7" d="M19.1286 18.9004H17.3086C17.0286 18.9004 16.8086 18.6804 16.8086 18.4004C16.8086 18.1204 17.0286 17.9004 17.3086 17.9004H19.1286C19.4086 17.9004 19.6286 18.1204 19.6286 18.4004C19.6286 18.6804 19.4086 18.9004 19.1286 18.9004Z" fill="black"/>
<path id="Vector_8" d="M12.9094 22.5H8.10937C7.82937 22.5 7.60938 22.28 7.60938 22C7.60938 21.72 7.82937 21.5 8.10937 21.5H12.9094C13.1894 21.5 13.4094 21.72 13.4094 22C13.4094 22.28 13.1894 22.5 12.9094 22.5Z" fill="black"/>
<path id="Vector_9" d="M20.1086 22.5H15.3086C15.0286 22.5 14.8086 22.28 14.8086 22C14.8086 21.72 15.0286 21.5 15.3086 21.5H20.1086C20.3886 21.5 20.6086 21.72 20.6086 22C20.6086 22.28 20.3886 22.5 20.1086 22.5Z" fill="black"/>
<path id="Vector_10" d="M13.4998 16.2004H7.58984C7.30984 16.2004 7.08984 15.9804 7.08984 15.7004V10.4004C7.08984 10.1204 7.30984 9.90039 7.58984 9.90039H13.5098C13.7898 9.90039 14.0098 10.1204 14.0098 10.4004V15.7004C14.0098 15.9804 13.7898 16.2004 13.5098 16.2004H13.4998ZM8.07984 15.2004H12.9998V10.9004H8.07984V15.2004Z" fill="black"/>
<path id="Vector_11" d="M9.39812 8.23047H7.57812C7.29812 8.23047 7.07812 8.01047 7.07812 7.73047C7.07812 7.45047 7.29812 7.23047 7.57812 7.23047H9.39812C9.67812 7.23047 9.89812 7.45047 9.89812 7.73047C9.89812 8.01047 9.67812 8.23047 9.39812 8.23047Z" fill="black"/>
</g>
</g>
<defs>
<clipPath id="clip0_1863_2115">
<rect width="32" height="32" fill="white"/>
</clipPath>
</defs>
</svg>
