<svg width="20" height="20" viewBox="0 0 20 20" fill="none" xmlns="http://www.w3.org/2000/svg">
<g clip-path="url(#clip0_8823_30958)">
<path d="M18.3327 10.0013C18.3327 5.39893 14.6017 1.66797 9.99935 1.66797C5.39698 1.66797 1.66602 5.39893 1.66602 10.0013C1.66602 14.6037 5.39698 18.3346 9.99935 18.3346C14.6017 18.3346 18.3327 14.6037 18.3327 10.0013Z" fill="#E31B22"/>
<path d="M9.99935 18.8346C5.13268 18.8346 1.16602 14.8763 1.16602 10.0013C1.16602 5.1263 5.13268 1.16797 9.99935 1.16797C14.866 1.16797 18.8327 5.1263 18.8327 10.0013C18.8327 14.8763 14.866 18.8346 9.99935 18.8346ZM9.99935 2.16797C5.68268 2.16797 2.16602 5.68464 2.16602 10.0013C2.16602 14.318 5.68268 17.8346 9.99935 17.8346C14.316 17.8346 17.8327 14.318 17.8327 10.0013C17.8327 5.68464 14.316 2.16797 9.99935 2.16797Z" fill="#E31B22"/>
<path d="M7.64023 12.8594C7.51523 12.8594 7.3819 12.8094 7.29023 12.7094C7.09857 12.5177 7.09857 12.201 7.29023 12.001L12.0069 7.28437C12.1986 7.09271 12.5152 7.09271 12.7152 7.28437C12.9069 7.47604 12.9069 7.79271 12.7152 7.99271L7.99857 12.7094C7.89857 12.8094 7.77357 12.8594 7.64857 12.8594H7.64023Z" fill="white"/>
<path d="M12.3569 12.8586C12.2319 12.8586 12.0986 12.8086 12.0069 12.7086L7.29023 7.99194C7.09857 7.80028 7.09857 7.48361 7.29023 7.28361C7.4819 7.08361 7.79857 7.09194 7.99857 7.28361L12.7152 12.0003C12.9069 12.1919 12.9069 12.5086 12.7152 12.7086C12.6152 12.8086 12.4902 12.8586 12.3652 12.8586H12.3569Z" fill="white"/>
</g>
<defs>
<clipPath id="clip0_8823_30958">
<rect width="20" height="20" fill="white"/>
</clipPath>
</defs>
</svg>
