
<svg width="18" height="18" viewBox="0 0 18 18" fill="none" xmlns="http://www.w3.org/2000/svg">
<path d="M1.93281 17.0667C1.68281 17.0667 1.41615 16.9667 1.23281 16.7667C0.849479 16.3833 0.849479 15.75 1.23281 15.35L15.3661 1.21667C15.7495 0.833335 16.3828 0.833335 16.7828 1.21667C17.1661 1.6 17.1661 2.23334 16.7828 2.63334L2.63281 16.7833C2.43281 16.9833 2.18281 17.0833 1.93281 17.0833V17.0667Z" fill="white"/>
<path d="M16.0672 17.0667C15.8172 17.0667 15.5505 16.9667 15.3672 16.7667L1.21719 2.63334C0.833854 2.25 0.833854 1.61667 1.21719 1.21667C1.60052 0.833335 2.23385 0.833335 2.63385 1.21667L16.7839 15.3667C17.1672 15.75 17.1672 16.3833 16.7839 16.7833C16.5839 16.9833 16.3339 17.0833 16.0839 17.0833L16.0672 17.0667Z" fill="white"/>
</svg>
