<svg width="40" height="40" viewBox="0 0 40 40" fill="none" xmlns="http://www.w3.org/2000/svg">
<g clip-path="url(#clip0_2778_9383)">
<path d="M12.9348 28.0667C12.6848 28.0667 12.4181 27.9667 12.2348 27.7667C11.8514 27.3834 11.8514 26.75 12.2348 26.35L26.3681 12.2167C26.7514 11.8334 27.3848 11.8334 27.7848 12.2167C28.1681 12.6 28.1681 13.2334 27.7848 13.6334L13.6348 27.7834C13.4348 27.9834 13.1848 28.0834 12.9348 28.0834V28.0667Z" fill="#121212"/>
<path d="M27.0672 28.0667C26.8172 28.0667 26.5505 27.9667 26.3672 27.7667L12.2172 13.6334C11.8339 13.25 11.8339 12.6167 12.2172 12.2167C12.6005 11.8334 13.2339 11.8334 13.6339 12.2167L27.7839 26.3667C28.1672 26.75 28.1672 27.3834 27.7839 27.7834C27.5839 27.9834 27.3339 28.0834 27.0839 28.0834L27.0672 28.0667Z" fill="#121212"/>
</g>
<defs>
<clipPath id="clip0_2778_9383">
<rect width="40" height="40" fill="white"/>
</clipPath>
</defs>
</svg>
