<svg width="40" height="40" viewBox="0 0 40 40" fill="none" xmlns="http://www.w3.org/2000/svg">
<path d="M10.2124 14.1875H19.6374C20.4624 14.1875 21.1374 14.8625 21.1374 15.6875V20.4875H8.7124V15.6875C8.7124 14.8625 9.3874 14.1875 10.2124 14.1875Z" fill="#FFCB09"/>
<path d="M8.77505 31.875C9.83129 31.875 10.6875 31.0468 10.6875 30.025C10.6875 29.0033 9.83129 28.175 8.77505 28.175C7.7188 28.175 6.86255 29.0033 6.86255 30.025C6.86255 31.0468 7.7188 31.875 8.77505 31.875Z" fill="#FFCB09"/>
<path d="M16.9501 31.875C18.0063 31.875 18.8626 31.0468 18.8626 30.025C18.8626 29.0033 18.0063 28.175 16.9501 28.175C15.8939 28.175 15.0376 29.0033 15.0376 30.025C15.0376 31.0468 15.8939 31.875 16.9501 31.875Z" fill="#FFCB09"/>
<path d="M30.4374 31.875C31.4936 31.875 32.3499 31.0468 32.3499 30.025C32.3499 29.0033 31.4936 28.175 30.4374 28.175C29.3812 28.175 28.5249 29.0033 28.5249 30.025C28.5249 31.0468 29.3812 31.875 30.4374 31.875Z" fill="#FFCB09"/>
<path d="M33.825 29.7H32.3375C31.9875 29.7 31.7125 29.425 31.7125 29.075C31.7125 28.725 31.9875 28.45 32.3375 28.45H33.825C35.5125 28.45 36.875 27.125 36.875 25.5125V18.525C36.875 17.8875 36.725 15.375 36.55 14.9625L33.1625 9.6625C32.8 9.1 32.15 8.75 31.45 8.75H24.3875V28.45H26.6125C26.9625 28.45 27.2375 28.725 27.2375 29.075C27.2375 29.425 26.9625 29.7 26.6125 29.7H23.9C23.4875 29.7 23.1375 29.35 23.1375 28.9375V8.2625C23.1375 7.85 23.4875 7.5 23.9 7.5H31.4375C32.5625 7.5 33.625 8.075 34.2 9L37.6125 14.325C38.0375 14.9875 38.1125 18.4875 38.1125 18.525V25.5125C38.1125 27.825 36.1874 29.7 33.8125 29.7H33.825Z" fill="black"/>
<path d="M13.1375 29.7H10.6875C10.3375 29.7 10.0625 29.425 10.0625 29.075C10.0625 28.725 10.3375 28.45 10.6875 28.45H13.1375C13.4875 28.45 13.7625 28.725 13.7625 29.075C13.7625 29.425 13.4875 29.7 13.1375 29.7Z" fill="black"/>
<path d="M4.9625 29.7C3.2625 29.675 1.875 28.3125 1.875 26.6625V22.9875C1.875 22.6375 2.15 22.3625 2.5 22.3625H23.7625C24.1125 22.3625 24.3875 22.6375 24.3875 22.9875V29.075C24.3875 29.425 24.1125 29.7 23.7625 29.7H18.8625C18.5125 29.7 18.2375 29.425 18.2375 29.075C18.2375 28.725 18.5125 28.45 18.8625 28.45H23.1375V23.6125H3.125V26.6625C3.125 27.6375 3.95 28.4376 4.975 28.45C5.325 28.45 5.6 28.7376 5.5875 29.0876C5.5875 29.4251 5.3 29.7 4.9625 29.7Z" fill="black"/>
<path d="M37.4875 18.9125H23.7625C23.4125 18.9125 23.1375 18.6375 23.1375 18.2875C23.1375 17.9375 23.4125 17.6625 23.7625 17.6625H37.4875C37.8375 17.6625 38.1125 17.9375 38.1125 18.2875C38.1125 18.6375 37.8375 18.9125 37.4875 18.9125Z" fill="black"/>
<path d="M21.1375 21.1125H2.5C2.15 21.1125 1.875 20.8375 1.875 20.4875V14.525C1.875 12.9375 3.1625 11.65 4.75 11.65H18.8875C20.475 11.65 21.7625 12.9375 21.7625 14.525V20.4875C21.7625 20.8375 21.4875 21.1125 21.1375 21.1125ZM3.125 19.8625H20.5125V14.525C20.5125 13.625 19.7875 12.9 18.8875 12.9H4.75C3.85 12.9 3.125 13.625 3.125 14.525V19.8625Z" fill="black"/>
<path d="M7.82505 32.5C5.95005 32.5 4.42505 30.975 4.42505 29.1C4.42505 27.225 5.95005 25.7 7.82505 25.7C9.70005 25.7 11.225 27.225 11.225 29.1C11.225 30.975 9.70005 32.5 7.82505 32.5ZM7.82505 26.9375C6.63755 26.9375 5.67505 27.9 5.67505 29.0875C5.67505 30.275 6.63755 31.2375 7.82505 31.2375C9.01255 31.2375 9.97505 30.275 9.97505 29.0875C9.97505 27.9 9.01255 26.9375 7.82505 26.9375Z" fill="black"/>
<path d="M16.0001 32.5C14.1251 32.5 12.6001 30.975 12.6001 29.1C12.6001 27.225 14.1251 25.7 16.0001 25.7C17.8751 25.7 19.4001 27.225 19.4001 29.1C19.4001 30.975 17.8751 32.5 16.0001 32.5ZM16.0001 26.9375C14.8126 26.9375 13.8501 27.9 13.8501 29.0875C13.8501 30.275 14.8126 31.2375 16.0001 31.2375C17.1876 31.2375 18.1501 30.275 18.1501 29.0875C18.1501 27.9 17.1876 26.9375 16.0001 26.9375Z" fill="black"/>
<path d="M29.475 32.5C27.6 32.5 26.075 30.975 26.075 29.1C26.075 27.225 27.6 25.7 29.475 25.7C31.35 25.7 32.8749 27.225 32.8749 29.1C32.8749 30.975 31.35 32.5 29.475 32.5ZM29.475 26.9375C28.2875 26.9375 27.325 27.9 27.325 29.0875C27.325 30.275 28.2875 31.2375 29.475 31.2375C30.6625 31.2375 31.6249 30.275 31.6249 29.0875C31.6249 27.9 30.6625 26.9375 29.475 26.9375Z" fill="black"/>
</svg>
