<svg width="41" height="41" viewBox="0 0 41 41" fill="none" xmlns="http://www.w3.org/2000/svg">
<g clip-path="url(#clip0_8258_11266)">
<g clip-path="url(#clip1_8258_11266)">
<path d="M31.4934 30.44C31.2134 30.44 30.9934 30.22 30.9934 29.94C30.9934 29.66 31.2134 29.44 31.4934 29.44C32.6834 29.44 33.6534 28.22 33.6534 26.72V20.43C33.6534 19.86 33.5334 18.54 33.4134 18.3L30.9434 13.5C30.6834 12.98 30.2334 12.67 29.7634 12.67H24.7134V29.44H26.1634C26.4434 29.44 26.6634 29.66 26.6634 29.94C26.6634 30.22 26.4434 30.44 26.1634 30.44H24.2134C23.9334 30.44 23.7134 30.22 23.7134 29.94V12.31C23.7134 11.96 23.9834 11.67 24.3134 11.67H29.7634C30.6134 11.67 31.4134 12.2 31.8334 13.05L34.2934 17.84C34.5934 18.42 34.6434 20.41 34.6434 20.43V26.72C34.6434 28.77 33.2234 30.44 31.4834 30.44H31.4934Z" fill="#121212"/>
<path d="M19.2633 13.41H11.3033C10.1159 13.41 9.15332 14.3726 9.15332 15.56V19.8C9.15332 20.9874 10.1159 21.95 11.3033 21.95H19.2633C20.4507 21.95 21.4133 20.9874 21.4133 19.8V15.56C21.4133 14.3726 20.4507 13.41 19.2633 13.41Z" fill="#FFCB09"/>
<path d="M18.9134 22.41H9.62343C7.63343 22.41 6.01343 20.79 6.01343 18.8V11.52C6.01343 9.52997 7.63343 7.90997 9.62343 7.90997H18.9134C20.9034 7.90997 22.5234 9.52997 22.5234 11.52V18.8C22.5234 20.79 20.9034 22.41 18.9134 22.41ZM9.62343 8.90997C8.18343 8.90997 7.01343 10.08 7.01343 11.52V18.8C7.01343 20.24 8.18343 21.41 9.62343 21.41H18.9134C20.3534 21.41 21.5234 20.24 21.5234 18.8V11.52C21.5234 10.08 20.3534 8.90997 18.9134 8.90997H9.62343Z" fill="#121212"/>
<path d="M24.2134 30.44H15.4934C15.2134 30.44 14.9934 30.22 14.9934 29.94C14.9934 29.66 15.2134 29.44 15.4934 29.44H23.7134V24.9H7.01343V27.18C7.01343 28.43 7.71343 29.44 8.58343 29.44C8.86343 29.44 9.08343 29.66 9.08343 29.94C9.08343 30.22 8.86343 30.44 8.58343 30.44C7.16343 30.44 6.01343 28.98 6.01343 27.18V24.4C6.01343 24.12 6.23343 23.9 6.51343 23.9H24.2134C24.4934 23.9 24.7134 24.12 24.7134 24.4V29.94C24.7134 30.22 24.4934 30.44 24.2134 30.44Z" fill="#121212"/>
<path d="M33.6434 20.72H24.2234C23.9434 20.72 23.7234 20.5 23.7234 20.22C23.7234 19.94 23.9434 19.72 24.2234 19.72H33.6434C33.9234 19.72 34.1434 19.94 34.1434 20.22C34.1434 20.5 33.9234 20.72 33.6434 20.72Z" fill="#121212"/>
<path d="M13.6735 32.59C14.5516 32.59 15.2635 31.8781 15.2635 31C15.2635 30.1218 14.5516 29.41 13.6735 29.41C12.7954 29.41 12.0835 30.1218 12.0835 31C12.0835 31.8781 12.7954 32.59 13.6735 32.59Z" fill="#FFCB09"/>
<path d="M29.6735 32.59C30.5516 32.59 31.2635 31.8781 31.2635 31C31.2635 30.1218 30.5516 29.41 29.6735 29.41C28.7954 29.41 28.0835 30.1218 28.0835 31C28.0835 31.8781 28.7954 32.59 29.6735 32.59Z" fill="#FFCB09"/>
<path d="M12.9834 32.98C11.3234 32.98 9.97339 31.63 9.97339 29.97C9.97339 28.31 11.3234 26.96 12.9834 26.96C14.6434 26.96 15.9934 28.31 15.9934 29.97C15.9934 31.63 14.6434 32.98 12.9834 32.98ZM12.9834 27.96C11.8734 27.96 10.9734 28.86 10.9734 29.97C10.9734 31.08 11.8734 31.98 12.9834 31.98C14.0934 31.98 14.9934 31.08 14.9934 29.97C14.9934 28.86 14.0934 27.96 12.9834 27.96Z" fill="#121212"/>
<path d="M28.9734 32.9799C28.9134 32.9799 28.8634 32.9799 28.8034 32.9799C28.0034 32.9399 27.2634 32.5799 26.7234 31.9799C26.1834 31.3799 25.9134 30.6099 25.9634 29.8099C26.0034 29.0099 26.3634 28.2699 26.9634 27.7399C27.5634 27.1999 28.3234 26.9299 29.1334 26.9799C29.9334 27.0199 30.6734 27.3799 31.2134 27.9799C31.7534 28.5799 32.0234 29.3499 31.9734 30.1499C31.8834 31.7499 30.5534 32.9899 28.9734 32.9899V32.9799ZM28.9734 27.9599C28.4834 27.9599 28.0134 28.1399 27.6334 28.4699C27.2334 28.8299 26.9934 29.3199 26.9634 29.8599C26.9334 30.3999 27.1134 30.9099 27.4734 31.3099C27.8334 31.7099 28.3234 31.9499 28.8634 31.9799C29.9934 32.0299 30.9234 31.1899 30.9834 30.0899C31.0134 29.5499 30.8334 29.0399 30.4734 28.6399C30.1134 28.2399 29.6234 27.9999 29.0834 27.9699C29.0434 27.9699 29.0034 27.9699 28.9634 27.9699L28.9734 27.9599Z" fill="#121212"/>
<path d="M10.9734 21.91C10.6934 21.91 10.4734 21.69 10.4734 21.41V8.40997C10.4734 8.12997 10.6934 7.90997 10.9734 7.90997C11.2534 7.90997 11.4734 8.12997 11.4734 8.40997V21.41C11.4734 21.69 11.2534 21.91 10.9734 21.91Z" fill="#121212"/>
<path d="M17.9434 21.91C17.6634 21.91 17.4434 21.69 17.4434 21.41V8.40997C17.4434 8.12997 17.6634 7.90997 17.9434 7.90997C18.2234 7.90997 18.4434 8.12997 18.4434 8.40997V21.41C18.4434 21.69 18.2234 21.91 17.9434 21.91Z" fill="#121212"/>
<path d="M10.2535 30.4699L8.77353 30.45C8.49353 30.45 8.27353 30.22 8.28353 29.94C8.28353 29.66 8.50353 29.48 8.79353 29.45L10.2735 29.4699C10.5535 29.4699 10.7735 29.6999 10.7635 29.9799C10.7635 30.2499 10.5335 30.4699 10.2635 30.4699H10.2535Z" fill="#121212"/>
</g>
</g>
<defs>
<clipPath id="clip0_8258_11266">
<rect width="40" height="40" fill="white" transform="translate(0.333496 0.5)"/>
</clipPath>
<clipPath id="clip1_8258_11266">
<rect width="40" height="40" fill="white" transform="translate(0.333496 0.5)"/>
</clipPath>
</defs>
</svg>
