<svg width="32" height="32" viewBox="0 0 32 32" fill="none" xmlns="http://www.w3.org/2000/svg">
<g id="Frame" clip-path="url(#clip0_1793_26048)">
<path id="Vector" d="M28.0004 19.5998C28.0004 23.3537 24.9543 26.3998 21.2004 26.3998C17.4464 26.3998 14.4004 23.3537 14.4004 19.5998C14.4004 15.8459 17.4464 12.7998 21.2004 12.7998C24.9543 12.7998 28.0004 15.8459 28.0004 19.5998Z" fill="#FFCB09"/>
<path id="Vector_2" d="M15.9999 29.8299C8.36992 29.8299 2.16992 23.6199 2.16992 15.9999C2.16992 8.37992 8.36992 2.16992 15.9999 2.16992C23.6299 2.16992 29.8299 8.37992 29.8299 15.9999C29.8299 23.6199 23.6199 29.8299 15.9999 29.8299ZM15.9999 3.15992C8.91992 3.16992 3.16992 8.91992 3.16992 15.9999C3.16992 23.0799 8.92992 28.8299 15.9999 28.8299C23.0699 28.8299 28.8299 23.0699 28.8299 15.9999C28.8299 8.92992 23.0799 3.16992 15.9999 3.16992V3.15992Z" fill="#010101"/>
<path id="Vector_3" d="M20.2692 24.3202C19.3992 24.3202 18.4792 24.1102 17.5292 23.7102C16.5892 23.3102 15.6492 22.7702 14.7392 22.1102C13.8292 21.4402 12.9392 20.6902 12.1192 19.8702C11.2992 19.0402 10.5492 18.1602 9.88922 17.2502C9.21922 16.3102 8.67922 15.3802 8.29922 14.4902C7.89922 13.5402 7.69922 12.6102 7.69922 11.7402C7.69922 11.1402 7.80922 10.5702 8.01922 10.0502C8.22922 9.5002 8.57922 9.0002 9.03922 8.5702C9.62922 7.9902 10.2892 7.7002 11.0092 7.7002C11.3092 7.7002 11.5992 7.7702 11.8592 7.8902C12.1492 8.0202 12.3892 8.2302 12.5792 8.4902L14.3892 11.0402C14.5492 11.2602 14.6692 11.4702 14.7592 11.6902C14.8592 11.9102 14.9092 12.1402 14.9092 12.3602C14.9092 12.6402 14.8292 12.9202 14.6692 13.1802C14.5492 13.3802 14.3792 13.6102 14.1592 13.8302L13.5692 14.4402L13.6392 14.5802C13.6892 14.6702 13.8792 14.9602 14.2792 15.4202C14.6192 15.8102 14.9892 16.2202 15.3892 16.6302C15.7992 17.0302 16.1892 17.4002 16.5992 17.7502C17.0492 18.1302 17.3492 18.3202 17.5192 18.4102L17.6192 18.4502L18.1792 17.8802C18.4192 17.6402 18.6392 17.4702 18.8592 17.3502C19.2692 17.1002 19.7892 17.0502 20.3092 17.2702C20.5092 17.3502 20.7192 17.4702 20.9492 17.6202L23.5492 19.4602C23.8192 19.6502 24.0192 19.8902 24.1492 20.1702C24.2592 20.4602 24.3192 20.7202 24.3192 20.9802C24.3192 21.3502 24.2392 21.7002 24.0792 22.0502C23.9192 22.3902 23.7192 22.6902 23.4692 22.9702C23.0292 23.4502 22.5492 23.7902 22.0092 24.0202C21.4792 24.2402 20.8992 24.3502 20.2992 24.3502L20.2692 24.3202ZM10.9992 8.6802C10.5492 8.6802 10.1292 8.8702 9.71922 9.2702C9.35922 9.6102 9.09922 9.9902 8.93922 10.4002C8.77922 10.8102 8.68922 11.2602 8.68922 11.7302C8.68922 12.4702 8.86922 13.2702 9.20922 14.0902C9.55922 14.9202 10.0592 15.7802 10.6892 16.6602C11.3192 17.5202 12.0392 18.3602 12.8192 19.1602C13.6092 19.9402 14.4492 20.6602 15.3192 21.3002C16.1692 21.9202 17.0392 22.4202 17.9092 22.7902C19.2692 23.3702 20.5492 23.5002 21.5892 23.0602C21.9992 22.8902 22.3592 22.6302 22.6992 22.2602C22.8792 22.0602 23.0292 21.8402 23.1492 21.5902C23.2492 21.3802 23.2992 21.1702 23.2992 20.9502C23.2992 20.8102 23.2692 20.6802 23.2092 20.5302C23.1692 20.4302 23.0892 20.3402 22.9592 20.2502L20.3692 18.4102C20.1992 18.3002 20.0592 18.2202 19.9192 18.1602C19.6892 18.0702 19.5292 18.0702 19.3392 18.1902C19.1792 18.2702 19.0292 18.3902 18.8692 18.5602L18.2692 19.1502C17.9892 19.4302 17.5592 19.4902 17.2292 19.3602C17.2192 19.3602 17.1392 19.3202 17.1292 19.3202C17.1292 19.3202 17.0392 19.2802 17.0292 19.2802C16.7192 19.1102 16.3492 18.8502 15.9292 18.5002C15.5092 18.1402 15.0892 17.7502 14.6592 17.3302C14.2392 16.9002 13.8592 16.4802 13.4992 16.0702C13.1392 15.6402 12.8692 15.2802 12.7092 14.9802C12.7092 14.9702 12.6692 14.8802 12.6592 14.8702L12.6192 14.7602C12.5792 14.6002 12.5692 14.5102 12.5692 14.4102C12.5692 14.1502 12.6592 13.9202 12.8392 13.7402L13.4192 13.1302C13.5792 12.9702 13.7092 12.8102 13.7792 12.6802C13.8492 12.5702 13.8792 12.4702 13.8792 12.3702C13.8792 12.2902 13.8592 12.1902 13.8092 12.0902C13.7492 11.9402 13.6692 11.8002 13.5492 11.6402L11.7292 9.0802C11.6492 8.9602 11.5392 8.8702 11.3992 8.8102C11.2692 8.7502 11.1192 8.7202 10.9792 8.7202L10.9992 8.6802Z" fill="#010101"/>
</g>
<defs>
<clipPath id="clip0_1793_26048">
<rect width="32" height="32" fill="white"/>
</clipPath>
</defs>
</svg>
