<?xml version="1.0" encoding="utf-8"?>
<!-- Generator: Adobe Illustrator 28.0.0, SVG Export Plug-In . SVG Version: 6.00 Build 0)  -->
<svg version="1.1" id="Layer_1" xmlns="http://www.w3.org/2000/svg" xmlns:xlink="http://www.w3.org/1999/xlink" x="0px" y="0px"
	 viewBox="0 0 40 40" enable-background="new 0 0 40 40" xml:space="preserve">
<g>
	<defs>
		<rect id="SVGID_1_" width="40" height="40"/>
	</defs>
	<clipPath id="SVGID_00000068641048525725825610000011154968744012800914_">
		<use xlink:href="#SVGID_1_"  overflow="visible"/>
	</clipPath>
	<g clip-path="url(#SVGID_00000068641048525725825610000011154968744012800914_)">
		<path fill="#121212" d="M31.63,31.29c-0.28,0-0.5-0.22-0.5-0.5s0.22-0.5,0.5-0.5c1.22,0,2.22-1.2,2.22-2.69v-5.11
			c0-0.36-0.08-0.7-0.24-0.99l-2.53-4.75c-0.26-0.51-0.73-0.83-1.22-0.83h-5.19v14.37h0.65c0.28,0,0.5,0.22,0.5,0.5
			s-0.22,0.5-0.5,0.5h-1.15c-0.28,0-0.5-0.22-0.5-0.5V15.56c0-0.35,0.27-0.64,0.6-0.64h5.58c0.87,0,1.67,0.52,2.1,1.36l2.52,4.74
			c0.23,0.44,0.36,0.94,0.36,1.46v5.11c0,2.03-1.44,3.69-3.22,3.69L31.63,31.29z"/>
		<path fill="#121212" d="M24.18,31.29h-8.96c-0.28,0-0.5-0.22-0.5-0.5c0-0.28,0.22-0.5,0.5-0.5h8.46v-5.32H6.85v3.67
			c0,0.91,0.71,1.65,1.58,1.65h1.08c0.28,0,0.5,0.22,0.5,0.5c0,0.28-0.22,0.5-0.5,0.5H8.43c-1.43,0-2.58-1.19-2.58-2.65v-4.17
			c0-0.28,0.22-0.5,0.5-0.5h17.83c0.28,0,0.5,0.22,0.5,0.5v6.32C24.68,31.07,24.46,31.29,24.18,31.29z"/>
		<path fill="#FFCB09" d="M12.7,32.76c0.83,0,1.5-0.71,1.5-1.58s-0.67-1.58-1.5-1.58s-1.5,0.71-1.5,1.58S11.87,32.76,12.7,32.76z"/>
		<path fill="#121212" d="M34.31,22.78H24.18c-0.28,0-0.5-0.22-0.5-0.5c0-0.28,0.22-0.5,0.5-0.5h10.13c0.28,0,0.5,0.22,0.5,0.5
			C34.81,22.56,34.59,22.78,34.31,22.78z"/>
		<path fill="#121212" d="M12.25,33.8c-1.64,0-2.98-1.34-2.98-2.98c0-1.64,1.34-2.98,2.98-2.98s2.98,1.34,2.98,2.98
			C15.23,32.46,13.89,33.8,12.25,33.8z M12.25,28.84c-1.09,0-1.98,0.89-1.98,1.98s0.89,1.98,1.98,1.98s1.98-0.89,1.98-1.98
			S13.34,28.84,12.25,28.84z"/>
		<path fill="#FFCB09" d="M28.73,33.01c0.83,0,1.5-0.71,1.5-1.58s-0.67-1.58-1.5-1.58s-1.5,0.71-1.5,1.58S27.9,33.01,28.73,33.01z"
			/>
		<path fill="#FFCB09" d="M21.4,22.22L9.35,19.58v-5.25c0-1.17,0.74-2.12,1.66-2.12H21.4v10V22.22z"/>
		<path fill="#121212" d="M28.23,33.8c-1.64,0-2.98-1.34-2.98-2.98c0-1.64,1.34-2.98,2.98-2.98c1.64,0,2.98,1.34,2.98,2.98
			C31.21,32.46,29.87,33.8,28.23,33.8z M28.23,28.84c-1.09,0-1.98,0.89-1.98,1.98s0.89,1.98,1.98,1.98s1.98-0.89,1.98-1.98
			S29.32,28.84,28.23,28.84z"/>
		<path fill="#121212" d="M21.86,23.42c0,0-0.07,0-0.11-0.01L6.24,20.06c-0.23-0.05-0.39-0.25-0.39-0.49V9.22
			c0-0.28,0.22-0.5,0.5-0.5h15.51c0.28,0,0.5,0.22,0.5,0.5v13.7c0,0.15-0.07,0.29-0.19,0.39C22.08,23.38,21.97,23.42,21.86,23.42z
			 M6.85,19.17l14.51,3.13V9.72H6.85V19.17z"/>
		<path fill="#121212" d="M30.71,31.31c-0.27,0-0.49-0.21-0.5-0.49c0-0.28,0.21-0.51,0.49-0.51l0.84-0.02h0.01
			c0.27,0,0.49,0.21,0.5,0.49c0,0.28-0.21,0.51-0.49,0.51l-0.84,0.02H30.71z"/>
	</g>
</g>
</svg>
