<?xml version="1.0" encoding="utf-8"?>
<!-- Generator: Adobe Illustrator 28.0.0, SVG Export Plug-In . SVG Version: 6.00 Build 0)  -->
<svg version="1.1" id="Layer_1" xmlns="http://www.w3.org/2000/svg" xmlns:xlink="http://www.w3.org/1999/xlink" x="0px" y="0px"
	 viewBox="0 0 40 40" enable-background="new 0 0 40 40" xml:space="preserve">
<g>
	<defs>
		<rect id="SVGID_1_" width="40" height="40"/>
	</defs>
	<clipPath id="SVGID_00000160191899095557589680000004396040981037921928_">
		<use xlink:href="#SVGID_1_"  overflow="visible"/>
	</clipPath>
	<g clip-path="url(#SVGID_00000160191899095557589680000004396040981037921928_)">
		<g>
			<defs>
				<rect id="SVGID_00000155837266016976414140000001046694783352681911_" width="40" height="40"/>
			</defs>
			<clipPath id="SVGID_00000110438025851123547290000006201987509898063764_">
				<use xlink:href="#SVGID_00000155837266016976414140000001046694783352681911_"  overflow="visible"/>
			</clipPath>
			<g clip-path="url(#SVGID_00000110438025851123547290000006201987509898063764_)">
				<path fill="#FFCB09" d="M30.51,27.41l-4.32,4.7v-2.35c0-1.57,0.72-2.35,2.16-2.35H30.51z"/>
				<path fill="#FFCB09" d="M11.98,18.68c1.86,0,3.36-1.57,3.36-3.5s-1.51-3.5-3.36-3.5s-3.36,1.57-3.36,3.5
					S10.13,18.68,11.98,18.68z"/>
				<path fill="#121212" d="M22.41,24.98h-5.06c-0.28,0-0.5-0.22-0.5-0.5s0.22-0.5,0.5-0.5h5.06c0.28,0,0.5,0.22,0.5,0.5
					S22.69,24.98,22.41,24.98z"/>
				<path fill="#121212" d="M25.45,20.94h-8.09c-0.28,0-0.5-0.22-0.5-0.5c0-0.28,0.22-0.5,0.5-0.5h8.09c0.28,0,0.5,0.22,0.5,0.5
					C25.95,20.72,25.73,20.94,25.45,20.94z"/>
				<path fill="#121212" d="M31.51,27c-0.28,0-0.5-0.22-0.5-0.5v-8.1c0-4.47-1.61-5.4-4.58-5.56h-6.04c-0.28,0-0.5-0.22-0.5-0.5
					s0.22-0.5,0.5-0.5h6.07c4.01,0.21,5.56,2.05,5.56,6.56v8.1c0,0.28-0.22,0.5-0.5,0.5H31.51z"/>
				<path fill="#121212" d="M25.45,33.07h-6.07c-5.49,0-6.57-2.42-6.57-6.59v-7.05c0-0.28,0.22-0.5,0.5-0.5s0.5,0.22,0.5,0.5v7.05
					c0,3.79,0.83,5.59,5.57,5.59h6.07c0.28,0,0.5,0.22,0.5,0.5C25.95,32.85,25.73,33.07,25.45,33.07z"/>
				<path fill="#121212" d="M25.45,33.07c-0.06,0-0.13-0.01-0.19-0.04c-0.19-0.08-0.31-0.26-0.31-0.46v-3.03
					c0-2.31,1.22-3.53,3.53-3.53h3.03c0.2,0,0.38,0.12,0.46,0.31c0.08,0.19,0.03,0.4-0.11,0.54l-6.07,6.07
					c-0.1,0.1-0.22,0.15-0.35,0.15L25.45,33.07z M28.48,27c-1.75,0-2.53,0.78-2.53,2.53v1.83L30.31,27H28.48z"/>
				<path fill="#121212" d="M13.84,19.56c-3.55,0-6.43-2.88-6.43-6.43s2.88-6.43,6.43-6.43s6.43,2.88,6.43,6.43
					S17.39,19.56,13.84,19.56z M13.84,7.7c-2.99,0-5.43,2.44-5.43,5.43s2.44,5.43,5.43,5.43s5.43-2.44,5.43-5.43
					S16.83,7.7,13.84,7.7z"/>
				<path fill="#121212" d="M15.97,11.46h-3.62c-0.28,0-0.5-0.22-0.5-0.5s0.22-0.5,0.5-0.5h3.62c0.28,0,0.5,0.22,0.5,0.5
					S16.25,11.46,15.97,11.46z"/>
				<path fill="#121212" d="M15.97,13.28h-4.26c-0.28,0-0.5-0.22-0.5-0.5s0.22-0.5,0.5-0.5h4.26c0.28,0,0.5,0.22,0.5,0.5
					S16.25,13.28,15.97,13.28z"/>
				<path fill="#121212" d="M14.57,17.37c-0.12,0-0.24-0.04-0.33-0.12l-2.85-2.51c-0.21-0.18-0.23-0.5-0.04-0.71
					c0.18-0.21,0.5-0.23,0.71-0.04l2.85,2.51c0.21,0.18,0.23,0.5,0.04,0.71c-0.1,0.11-0.24,0.17-0.38,0.17V17.37z"/>
				<path fill="#121212" d="M12.35,14.86h-0.64c-0.28,0-0.5-0.22-0.5-0.5c0-0.28,0.22-0.5,0.5-0.5h0.64c0.66,0,1.2-0.54,1.2-1.2
					s-0.54-1.2-1.2-1.2h-0.64c-0.28,0-0.5-0.22-0.5-0.5s0.22-0.5,0.5-0.5h0.64c1.21,0,2.2,0.99,2.2,2.2S13.56,14.86,12.35,14.86z"/>
			</g>
		</g>
	</g>
</g>
</svg>
