<svg width="41" height="40" viewBox="0 0 41 40" fill="none" xmlns="http://www.w3.org/2000/svg">
<g id="Layer_1" clip-path="url(#clip0_2201_1790)">
<path id="Vector" d="M24.4019 28.7002C27.4319 28.7002 29.8819 26.2502 29.8819 23.2202C29.8819 20.1902 27.4319 17.7402 24.4019 17.7402C21.3719 17.7402 18.9219 20.1902 18.9219 23.2202C18.9219 26.2502 21.3719 28.7002 24.4019 28.7002Z" fill="#FFCB09"/>
<path id="Vector_2" d="M20.7137 31.31C20.1337 31.31 19.5437 31.09 19.1038 30.64L17.4137 28.94C17.2238 28.75 16.7838 28.57 16.5138 28.57H14.1137C12.8537 28.57 11.8337 27.55 11.8337 26.29V23.89C11.8337 23.62 11.6537 23.18 11.4537 22.99L9.76375 21.3C9.33375 20.87 9.09375 20.3 9.09375 19.69C9.09375 19.08 9.33375 18.51 9.76375 18.08L11.4537 16.39C11.6437 16.2 11.8237 15.76 11.8237 15.48V13.08C11.8237 11.82 12.8438 10.8 14.1038 10.8H16.5037C16.7737 10.8 17.2137 10.62 17.4037 10.42L19.1038 8.73C19.9938 7.84 21.4337 7.84 22.3237 8.73L24.0138 10.42C24.2037 10.61 24.6437 10.8 24.9137 10.8H27.3137C28.5737 10.8 29.5938 11.82 29.5938 13.08V15.48C29.5938 15.75 29.7737 16.19 29.9737 16.39L31.6637 18.08C32.0938 18.51 32.3337 19.08 32.3337 19.69C32.3337 20.3 32.0938 20.87 31.6637 21.3L29.9737 22.99C29.7837 23.18 29.6038 23.62 29.6038 23.89V26.29C29.6038 27.55 28.5837 28.57 27.3237 28.57H24.9237C24.6537 28.57 24.2137 28.75 24.0238 28.94L22.3337 30.64C21.8938 31.08 21.3037 31.31 20.7237 31.31H20.7137ZM14.1038 11.8C13.3938 11.8 12.8237 12.37 12.8237 13.08V15.48C12.8237 16.02 12.5337 16.71 12.1537 17.09L10.4537 18.78C10.2137 19.02 10.0837 19.34 10.0837 19.68C10.0837 20.02 10.2137 20.34 10.4537 20.58L12.1438 22.27C12.5238 22.65 12.8138 23.34 12.8138 23.88V26.28C12.8138 26.99 13.3837 27.56 14.0938 27.56H16.4937C17.0337 27.56 17.7238 27.85 18.1038 28.23L19.8037 29.93C20.3037 30.43 21.1138 30.43 21.6138 29.93L23.3037 28.23C23.6837 27.85 24.3737 27.56 24.9137 27.56H27.3137C28.0237 27.56 28.5938 26.99 28.5938 26.28V23.88C28.5938 23.34 28.8838 22.65 29.2638 22.27L30.9637 20.58C31.2037 20.34 31.3337 20.02 31.3337 19.68C31.3337 19.34 31.2037 19.02 30.9637 18.78L29.2738 17.09C28.8938 16.71 28.6038 16.02 28.6038 15.48V13.08C28.6038 12.37 28.0337 11.8 27.3237 11.8H24.9237C24.3837 11.8 23.6937 11.51 23.3137 11.13L21.6238 9.44C21.1238 8.94 20.3137 8.94 19.8137 9.44L18.1238 11.13C17.7438 11.51 17.0538 11.8 16.5138 11.8H14.1137H14.1038Z" fill="#121212"/>
<g id="Group">
<path id="Vector_3" d="M20.7031 20.1802C19.0531 20.1802 17.7031 18.8302 17.7031 17.1802C17.7031 15.5302 19.0531 14.1802 20.7031 14.1802C22.3531 14.1802 23.7031 15.5302 23.7031 17.1802C23.7031 18.8302 22.3531 20.1802 20.7031 20.1802ZM20.7031 15.1802C19.6031 15.1802 18.7031 16.0802 18.7031 17.1802C18.7031 18.2802 19.6031 19.1802 20.7031 19.1802C21.8031 19.1802 22.7031 18.2802 22.7031 17.1802C22.7031 16.0802 21.8031 15.1802 20.7031 15.1802Z" fill="#121212"/>
<path id="Vector_4" d="M24.9963 25.1802H16.4062C16.1262 25.1802 15.9062 24.9602 15.9062 24.6802C15.9062 22.4702 18.0563 20.6802 20.6963 20.6802C23.3363 20.6802 25.4862 22.4702 25.4862 24.6802C25.4862 24.9602 25.2662 25.1802 24.9862 25.1802H24.9963ZM16.9562 24.1802H24.4363C24.1363 22.7602 22.5663 21.6802 20.6963 21.6802C18.8263 21.6802 17.2562 22.7602 16.9562 24.1802Z" fill="#121212"/>
</g>
</g>
<defs>
<clipPath id="clip0_2201_1790">
<rect width="40" height="40" fill="white" transform="translate(0.5)"/>
</clipPath>
</defs>
</svg>
