<svg width="41" height="40" viewBox="0 0 41 40" fill="none" xmlns="http://www.w3.org/2000/svg">
<g id="Layer_1" clip-path="url(#clip0_2201_5486)">
<g id="Group">
<path id="Vector" d="M21.5681 18.38C21.3981 18.44 21.1281 18.44 20.9581 18.38C19.5281 17.85 16.3281 15.67 16.3281 11.96C16.3281 10.32 17.5581 9 19.0681 9C19.9681 9 20.7581 9.47 21.2581 10.18C21.7581 9.46 22.5581 9 23.4481 9C24.9581 9 26.1881 10.33 26.1881 11.96C26.1881 15.67 22.9981 17.85 21.5581 18.38H21.5681Z" fill="#FFCB09"/>
<path id="Vector_2" d="M12.4 34.2001C12.27 34.2001 12.14 34.1501 12.05 34.0501L6.15 28.1501C6.06 28.0601 6 27.9301 6 27.8001C6 27.6701 6.05 27.5401 6.15 27.4501L12.05 21.5501C12.05 21.5501 12.07 21.5301 12.08 21.5201C12.94 20.7901 14.2 20.3701 15.52 20.3701C16.75 20.3701 17.91 20.7201 18.78 21.3701C19.37 21.8001 20.01 22.0301 20.65 22.0301H23.51C24.57 22.0301 25.43 22.8901 25.43 23.9501V24.0801C25.43 25.1401 24.57 26.0001 23.51 26.0001H20.03C19.67 26.0001 19.38 26.2901 19.38 26.6501C19.38 27.0101 19.67 27.3001 20.03 27.3001H25.59L31.65 22.7601C32.1 22.4201 32.68 22.2801 33.24 22.3801C33.81 22.4801 34.29 22.7901 34.61 23.2701C34.74 23.4701 34.71 23.7401 34.54 23.9101L27.1 30.9301C26.35 31.6401 25.36 32.0301 24.33 32.0301H15.7C15.12 32.0301 14.55 32.2701 14.13 32.6801L12.76 34.0501C12.66 34.1501 12.53 34.2001 12.41 34.2001H12.4ZM7.2 27.8001L12.4 33.0001L13.42 31.9801C14.02 31.3801 14.85 31.0401 15.69 31.0401H24.32C25.1 31.0401 25.84 30.7501 26.41 30.2101L33.49 23.5301C33.37 23.4501 33.23 23.3901 33.08 23.3601C32.79 23.3101 32.5 23.3801 32.26 23.5601L26.06 28.2001C25.97 28.2601 25.87 28.3001 25.76 28.3001H20.03C19.12 28.3001 18.38 27.5601 18.38 26.6501C18.38 25.7401 19.12 25.0001 20.03 25.0001H23.51C24.02 25.0001 24.43 24.5901 24.43 24.0801V23.9501C24.43 23.4401 24.02 23.0301 23.51 23.0301H20.65C19.8 23.0301 18.95 22.7401 18.19 22.1801C17.5 21.6701 16.53 21.3801 15.53 21.3801C14.45 21.3801 13.43 21.7101 12.75 22.2801L7.22 27.8101L7.2 27.8001Z" fill="#121212"/>
<path id="Vector_3" d="M20.3489 18.45C20.1389 18.45 19.9389 18.42 19.7689 18.36C17.1989 17.48 13.1289 14.36 13.1289 9.75C13.1289 7.4 15.0289 5.5 17.3589 5.5C18.4989 5.5 19.5589 5.94 20.3389 6.74C21.1289 5.95 22.1889 5.5 23.3189 5.5C25.6489 5.5 27.5489 7.41 27.5489 9.75C27.5489 14.37 23.4789 17.48 20.9089 18.36C20.7389 18.42 20.5389 18.45 20.3289 18.45H20.3489ZM17.3689 6.5C15.5889 6.5 14.1389 7.96 14.1389 9.75C14.1389 14.34 18.5589 16.89 20.0989 17.42C20.2189 17.46 20.4789 17.46 20.6089 17.42C22.1589 16.89 26.5689 14.34 26.5689 9.75C26.5689 7.96 25.1189 6.5 23.3389 6.5C22.3189 6.5 21.3689 6.97 20.7589 7.8C20.5689 8.05 20.1489 8.05 19.9589 7.8C19.3389 6.97 18.3989 6.5 17.3789 6.5H17.3689Z" fill="#121212"/>
</g>
</g>
<defs>
<clipPath id="clip0_2201_5486">
<rect width="40" height="40" fill="white" transform="translate(0.5)"/>
</clipPath>
</defs>
</svg>
