<?xml version="1.0" encoding="utf-8"?>
<!-- Generator: Adobe Illustrator 28.0.0, SVG Export Plug-In . SVG Version: 6.00 Build 0)  -->
<svg version="1.1" id="Layer_1" xmlns="http://www.w3.org/2000/svg" xmlns:xlink="http://www.w3.org/1999/xlink" x="0px" y="0px"
	 viewBox="0 0 40 40" enable-background="new 0 0 40 40" xml:space="preserve">
<g>
	<defs>
		<rect id="SVGID_1_" width="40" height="40"/>
	</defs>
	<clipPath id="SVGID_00000103232008803588915310000007559007472378910339_">
		<use xlink:href="#SVGID_1_"  overflow="visible"/>
	</clipPath>
	<g clip-path="url(#SVGID_00000103232008803588915310000007559007472378910339_)">
		<g>
			<defs>
				<rect id="SVGID_00000054968398014947795460000010692732084187500937_" width="40" height="40"/>
			</defs>
			<clipPath id="SVGID_00000010298090288102179950000009213193833691059595_">
				<use xlink:href="#SVGID_00000054968398014947795460000010692732084187500937_"  overflow="visible"/>
			</clipPath>
			<g clip-path="url(#SVGID_00000010298090288102179950000009213193833691059595_)">
				<path fill="#FFCB09" d="M16.63,14.94c0-4.51,3.64-7.59,8.15-7.59s8.17,3.66,8.17,8.17l-3-0.66l-3.23,1.01l-3-1.19l-3.45,1.19
					l-3.65-0.92L16.63,14.94z"/>
				<path d="M13.35,17.76c-0.28,0-0.5-0.22-0.5-0.5c0-1.28-1.27-2.32-2.82-2.32c-1.55,0-2.82,1.04-2.82,2.32
					c0,0.28-0.22,0.5-0.5,0.5s-0.5-0.22-0.5-0.5c0-1.83,1.72-3.32,3.82-3.32c2.1,0,3.82,1.49,3.82,3.32
					C13.85,17.54,13.63,17.76,13.35,17.76z"/>
				<path d="M20,17.76c-0.28,0-0.5-0.22-0.5-0.5c0-1.28-1.27-2.32-2.82-2.32c-1.55,0-2.82,1.04-2.82,2.32c0,0.28-0.22,0.5-0.5,0.5
					c-0.28,0-0.5-0.22-0.5-0.5c0-1.83,1.72-3.32,3.82-3.32s3.82,1.49,3.82,3.32C20.5,17.54,20.28,17.76,20,17.76z"/>
				<path d="M26.65,17.76c-0.28,0-0.5-0.22-0.5-0.5c0-1.28-1.27-2.32-2.82-2.32s-2.82,1.04-2.82,2.32c0,0.28-0.22,0.5-0.5,0.5
					s-0.5-0.22-0.5-0.5c0-1.83,1.72-3.32,3.82-3.32s3.82,1.49,3.82,3.32C27.15,17.54,26.93,17.76,26.65,17.76z"/>
				<path d="M33.29,17.76c-0.28,0-0.5-0.22-0.5-0.5c0-1.28-1.27-2.32-2.82-2.32s-2.82,1.04-2.82,2.32c0,0.28-0.22,0.5-0.5,0.5
					c-0.28,0-0.5-0.22-0.5-0.5c0-1.83,1.72-3.32,3.82-3.32s3.82,1.49,3.82,3.32C33.79,17.54,33.57,17.76,33.29,17.76z"/>
				<path d="M33.29,17.74c-0.28,0-0.5-0.22-0.5-0.5c0-5.94-5.74-10.77-12.79-10.77S7.21,11.3,7.21,17.24c0,0.28-0.22,0.5-0.5,0.5
					s-0.5-0.22-0.5-0.5C6.21,10.75,12.4,5.47,20,5.47s13.79,5.28,13.79,11.77C33.79,17.52,33.57,17.74,33.29,17.74z"/>
				<path d="M20,34.84c-0.2,0-0.4-0.03-0.57-0.08c-2.51-0.86-6.49-3.91-6.49-8.42c0-2.3,1.86-4.17,4.14-4.17
					c1.11,0,2.14,0.43,2.91,1.2c0.77-0.77,1.8-1.2,2.91-1.2c2.28,0,4.14,1.87,4.14,4.17c0,4.51-3.98,7.56-6.49,8.42
					c-0.16,0.06-0.37,0.08-0.57,0.08H20z M17.09,23.17c-1.73,0-3.14,1.42-3.14,3.17c0,4.47,4.3,6.96,5.81,7.48
					c0.12,0.04,0.37,0.04,0.49,0c1.51-0.52,5.81-3,5.81-7.48c0-1.75-1.41-3.17-3.14-3.17c-1,0-1.91,0.46-2.51,1.27
					c-0.09,0.13-0.24,0.2-0.4,0.2c-0.16,0-0.31-0.07-0.4-0.2c-0.6-0.8-1.52-1.26-2.51-1.26L17.09,23.17z"/>
			</g>
		</g>
	</g>
</g>
</svg>
