<svg width="41" height="40" viewBox="0 0 41 40" fill="none" xmlns="http://www.w3.org/2000/svg">
<g id="Layer_1" clip-path="url(#clip0_2201_170)">
<path id="Vector" d="M32.8313 28.8098C32.8313 31.0898 31.1812 33.2198 28.9212 33.8398C28.7712 33.8798 28.6012 33.8798 28.4412 33.8398C26.1812 33.2198 24.5312 31.0798 24.5312 28.8098V26.7698C24.5312 26.3898 24.8212 25.9498 25.1712 25.8098L27.7612 24.7498C28.3412 24.5098 29.0012 24.5098 29.5812 24.7498L32.1712 25.8098C32.5212 25.9598 32.8113 26.3898 32.8113 26.7698V28.8098H32.8313Z" fill="#FFCB09"/>
<g id="Group">
<path id="Vector_2" d="M27.1922 33.8901H6.24219C5.96219 33.8901 5.74219 33.6701 5.74219 33.3901C5.74219 33.1101 5.96219 32.8901 6.24219 32.8901H27.1922C27.4722 32.8901 27.6922 33.1101 27.6922 33.3901C27.6922 33.6701 27.4722 33.8901 27.1922 33.8901Z" fill="#121212"/>
<path id="Vector_3" d="M7.57031 33.8901C7.29031 33.8901 7.07031 33.6601 7.07031 33.3901L7.13031 16.6001C7.13031 15.5801 7.60031 14.6401 8.40031 14.0101L18.1803 6.40014C19.3703 5.47014 21.0303 5.47014 22.2203 6.40014L32.0003 14.0001C32.8103 14.6301 33.2703 15.5801 33.2703 16.6001V20.7801C33.2703 21.0601 33.0503 21.2801 32.7703 21.2801C32.4903 21.2801 32.2703 21.0601 32.2703 20.7801V16.6001C32.2703 15.8901 31.9503 15.2301 31.3803 14.7901L21.6103 7.19014C20.7803 6.55014 19.6203 6.55014 18.7903 7.19014L9.01031 14.8001C8.45031 15.2401 8.13031 15.8901 8.13031 16.6001L8.07031 33.3901C8.07031 33.6701 7.85031 33.8901 7.57031 33.8901Z" fill="#121212"/>
<path id="Vector_4" d="M27.1944 33.8901H13.2344C12.9544 33.8901 12.7344 33.6701 12.7344 33.3901V21.2101C12.7344 19.7801 13.8944 18.6201 15.3244 18.6201H28.0244C28.3044 18.6201 28.5244 18.8401 28.5244 19.1201C28.5244 19.4001 28.3044 19.6201 28.0244 19.6201H15.3244C14.4444 19.6201 13.7344 20.3401 13.7344 21.2101V32.8901H27.1944C27.4744 32.8901 27.6944 33.1101 27.6944 33.3901C27.6944 33.6701 27.4744 33.8901 27.1944 33.8901Z" fill="#121212"/>
<path id="Vector_5" d="M17.4141 27.9601C17.1341 27.9601 16.9141 27.7401 16.9141 27.4601V25.3701C16.9141 25.0901 17.1341 24.8701 17.4141 24.8701C17.6941 24.8701 17.9141 25.0901 17.9141 25.3701V27.4601C17.9141 27.7401 17.6941 27.9601 17.4141 27.9601Z" fill="#121212"/>
<path id="Vector_6" d="M22.2994 13.6499H18.1094C17.8294 13.6499 17.6094 13.4299 17.6094 13.1499C17.6094 12.8699 17.8294 12.6499 18.1094 12.6499H22.2994C22.5794 12.6499 22.7994 12.8699 22.7994 13.1499C22.7994 13.4299 22.5794 13.6499 22.2994 13.6499Z" fill="#121212"/>
<path id="Vector_7" d="M28.0216 34.1003C27.8516 34.1003 27.6816 34.0803 27.5216 34.0303C23.8016 33.0003 21.1016 29.5303 21.1016 25.7603V22.6003C21.1016 21.8103 21.6716 20.9503 22.4116 20.6503L26.4216 19.0103C27.4516 18.5903 28.5916 18.5903 29.6216 19.0103L33.6316 20.6503C34.3616 20.9503 34.9416 21.8103 34.9416 22.6003V25.7603C34.9416 29.5203 32.2416 33.0003 28.5216 34.0303C28.3616 34.0703 28.1916 34.1003 28.0216 34.1003ZM28.0216 19.7003C27.6116 19.7003 27.1916 19.7803 26.8016 19.9403L22.7916 21.5803C22.4316 21.7303 22.1016 22.2103 22.1016 22.6003V25.7603C22.1016 29.0803 24.4916 32.1503 27.7816 33.0603C27.9316 33.1003 28.1016 33.1003 28.2516 33.0603C31.5416 32.1503 33.9316 29.0803 33.9316 25.7603V22.6003C33.9316 22.2103 33.6016 21.7203 33.2416 21.5803L29.2316 19.9403C28.8416 19.7803 28.4216 19.7003 28.0116 19.7003H28.0216Z" fill="#121212"/>
<path id="Vector_8" d="M27.3128 28.33C27.1828 28.33 27.0528 28.28 26.9628 28.18L25.5328 26.75C25.3328 26.55 25.3328 26.24 25.5328 26.04C25.7328 25.84 26.0428 25.84 26.2428 26.04L27.3228 27.12L29.8328 24.61C30.0328 24.41 30.3428 24.41 30.5428 24.61C30.7428 24.81 30.7428 25.12 30.5428 25.32L27.6828 28.18C27.5928 28.27 27.4628 28.33 27.3328 28.33H27.3128Z" fill="#121212"/>
</g>
</g>
<defs>
<clipPath id="clip0_2201_170">
<rect width="40" height="40" fill="white" transform="translate(0.5)"/>
</clipPath>
</defs>
</svg>
