<?xml version="1.0" encoding="utf-8"?>
<!-- Generator: Adobe Illustrator 28.0.0, SVG Export Plug-In . SVG Version: 6.00 Build 0)  -->
<svg version="1.1" id="Layer_1" xmlns="http://www.w3.org/2000/svg" xmlns:xlink="http://www.w3.org/1999/xlink" x="0px" y="0px"
	 viewBox="0 0 40 40" enable-background="new 0 0 40 40" xml:space="preserve">
<g>
	<defs>
		<rect id="SVGID_1_" width="40" height="40"/>
	</defs>
	<clipPath id="SVGID_00000141447579388119266060000011250128481223991459_">
		<use xlink:href="#SVGID_1_"  overflow="visible"/>
	</clipPath>
	<g clip-path="url(#SVGID_00000141447579388119266060000011250128481223991459_)">
		<g>
			<defs>
				<rect id="SVGID_00000077283886219430693250000018247585760336544142_" width="40" height="40"/>
			</defs>
			<clipPath id="SVGID_00000154400765127268346430000007596636483270306699_">
				<use xlink:href="#SVGID_00000077283886219430693250000018247585760336544142_"  overflow="visible"/>
			</clipPath>
			<g clip-path="url(#SVGID_00000154400765127268346430000007596636483270306699_)">
				<path fill="#FFCB09" d="M30.29,24c0,4.3-3.49,7.79-7.79,7.79S14.71,28.3,14.71,24s3.49-7.79,7.79-7.79S30.29,19.7,30.29,24z"/>
				<path d="M19.12,31c-5.71,0-10.35-4.64-10.35-10.35S13.41,10.3,19.12,10.3s10.35,4.64,10.35,10.35c0,0.28-0.22,0.5-0.5,0.5
					c-0.28,0-0.5-0.22-0.5-0.5c0-5.15-4.19-9.35-9.35-9.35s-9.35,4.19-9.35,9.35S13.96,30,19.12,30c0.28,0,0.5,0.22,0.5,0.5
					C19.62,30.78,19.4,31,19.12,31z"/>
				<path d="M19.12,20.87c-0.28,0-0.5-0.22-0.5-0.5v-5.63c0-0.28,0.22-0.5,0.5-0.5s0.5,0.22,0.5,0.5v5.63
					C19.62,20.65,19.4,20.87,19.12,20.87z"/>
				<path d="M22.5,8.49h-6.75c-0.28,0-0.5-0.22-0.5-0.5s0.22-0.5,0.5-0.5h6.75c0.28,0,0.5,0.22,0.5,0.5S22.78,8.49,22.5,8.49z"/>
				<path d="M25.52,32.51c-3.15,0-5.71-2.56-5.71-5.71s2.56-5.71,5.71-5.71s5.71,2.56,5.71,5.71S28.67,32.51,25.52,32.51z
					 M25.52,22.09c-2.6,0-4.71,2.11-4.71,4.71s2.11,4.71,4.71,4.71s4.71-2.11,4.71-4.71S28.12,22.09,25.52,22.09z"/>
				<path d="M27.54,24.5h-3.42c-0.28,0-0.5-0.22-0.5-0.5s0.22-0.5,0.5-0.5h3.42c0.28,0,0.5,0.22,0.5,0.5S27.82,24.5,27.54,24.5z"/>
				<path d="M27.54,26.22h-4.03c-0.28,0-0.5-0.22-0.5-0.5s0.22-0.5,0.5-0.5h4.03c0.28,0,0.5,0.22,0.5,0.5S27.82,26.22,27.54,26.22z"
					/>
				<path d="M26.21,30.09c-0.12,0-0.24-0.04-0.33-0.12l-2.7-2.38c-0.21-0.18-0.23-0.5-0.04-0.71c0.18-0.21,0.5-0.23,0.71-0.04
					l2.7,2.38c0.21,0.18,0.23,0.5,0.04,0.71c-0.1,0.11-0.24,0.17-0.38,0.17V30.09z"/>
				<path d="M24.11,27.72h-0.6c-0.28,0-0.5-0.22-0.5-0.5c0-0.28,0.22-0.5,0.5-0.5h0.6c0.61,0,1.11-0.5,1.11-1.11
					c0-0.61-0.5-1.11-1.11-1.11h-0.6c-0.28,0-0.5-0.22-0.5-0.5s0.22-0.5,0.5-0.5h0.6c1.16,0,2.11,0.95,2.11,2.11
					S25.27,27.72,24.11,27.72z"/>
			</g>
		</g>
	</g>
</g>
</svg>
