<?xml version="1.0" encoding="utf-8"?>
<!-- Generator: Adobe Illustrator 28.0.0, SVG Export Plug-In . SVG Version: 6.00 Build 0)  -->
<svg version="1.1" id="Layer_1" xmlns="http://www.w3.org/2000/svg" xmlns:xlink="http://www.w3.org/1999/xlink" x="0px" y="0px"
	 viewBox="0 0 40 40" enable-background="new 0 0 40 40" xml:space="preserve">
<g>
	<defs>
		<rect id="SVGID_1_" width="40" height="40"/>
	</defs>
	<clipPath id="SVGID_00000166641097239464619410000004933809851325790395_">
		<use xlink:href="#SVGID_1_"  overflow="visible"/>
	</clipPath>
	<g clip-path="url(#SVGID_00000166641097239464619410000004933809851325790395_)">
		<g>
			<defs>
				<rect id="SVGID_00000115480431498575143200000001199594945740228268_" width="40" height="40"/>
			</defs>
			<clipPath id="SVGID_00000016046718835958383890000003054007445866019467_">
				<use xlink:href="#SVGID_00000115480431498575143200000001199594945740228268_"  overflow="visible"/>
			</clipPath>
			<g clip-path="url(#SVGID_00000016046718835958383890000003054007445866019467_)">
				<path fill="#FFCB09" d="M25.5,26.46c0.65,0,1.17-0.52,1.17-1.17s-0.52-1.17-1.17-1.17c-0.65,0-1.17,0.52-1.17,1.17
					S24.85,26.46,25.5,26.46z"/>
				<path fill="#FFCB09" d="M15.5,26.46c0.65,0,1.17-0.52,1.17-1.17s-0.52-1.17-1.17-1.17c-0.65,0-1.17,0.52-1.17,1.17
					S14.85,26.46,15.5,26.46z"/>
				<path fill="#FFCB09" d="M24.36,18.36h-4.3v-3.54h1.8c0.54,0,1.02,0.31,1.24,0.8l1.25,2.74H24.36z"/>
				<path fill="#FFCB09" d="M14.87,18.36h5.19v-3.54h-2.34c-0.55,0-1.06,0.3-1.32,0.78l-1.52,2.76H14.87z"/>
				<path d="M28.05,25.27h-1.16c-0.28,0-0.5-0.22-0.5-0.5c0-0.28,0.22-0.5,0.5-0.5h1.16c0.83,0,1.51-0.68,1.51-1.52v-1.79
					c0-1.39-1.13-2.52-2.52-2.52H12.96c-1.39,0-2.52,1.13-2.52,2.52v1.79c0,0.84,0.68,1.52,1.51,1.52h1.19c0.28,0,0.5,0.22,0.5,0.5
					c0,0.28-0.22,0.5-0.5,0.5h-1.19c-1.38,0-2.51-1.13-2.51-2.52v-1.79c0-1.94,1.58-3.52,3.52-3.52h14.08
					c1.94,0,3.52,1.58,3.52,3.52v1.79C30.56,24.14,29.43,25.27,28.05,25.27z"/>
				<path d="M23.37,25.27h-6.71c-0.28,0-0.5-0.22-0.5-0.5s0.22-0.5,0.5-0.5h6.71c0.28,0,0.5,0.22,0.5,0.5S23.65,25.27,23.37,25.27z"
					/>
				<path d="M25.92,18.45H20c-0.28,0-0.5-0.22-0.5-0.5v-4.87c0-0.28,0.22-0.5,0.5-0.5h2.48c0.93,0,1.78,0.55,2.17,1.39l1.73,3.77
					c0.07,0.15,0.06,0.33-0.03,0.48c-0.09,0.14-0.25,0.23-0.42,0.23H25.92z M20.5,17.45h4.64l-1.4-3.06
					c-0.23-0.49-0.72-0.81-1.26-0.81H20.5V17.45z"/>
				<path d="M20,18.45h-7.14c-0.18,0-0.34-0.09-0.43-0.25s-0.09-0.34,0-0.5l2.1-3.79c0.45-0.82,1.32-1.33,2.25-1.33H20
					c0.28,0,0.5,0.22,0.5,0.5v4.87C20.5,18.23,20.28,18.45,20,18.45z M13.71,17.45h5.79v-3.87h-2.72c-0.57,0-1.1,0.31-1.38,0.81
					l-1.69,3.05V17.45z"/>
				<path d="M20,25.27c-0.28,0-0.5-0.22-0.5-0.5v-7.5c0-0.28,0.22-0.5,0.5-0.5s0.5,0.22,0.5,0.5v7.5
					C20.5,25.05,20.28,25.27,20,25.27z"/>
				<path d="M14.9,27.03c-1.25,0-2.26-1.01-2.26-2.26s1.01-2.26,2.26-2.26s2.26,1.01,2.26,2.26S16.15,27.03,14.9,27.03z M14.9,23.51
					c-0.7,0-1.26,0.57-1.26,1.26s0.57,1.26,1.26,1.26c0.69,0,1.26-0.57,1.26-1.26S15.59,23.51,14.9,23.51z"/>
				<path d="M25.13,27.03c-1.25,0-2.26-1.01-2.26-2.26s1.01-2.26,2.26-2.26s2.26,1.01,2.26,2.26S26.38,27.03,25.13,27.03z
					 M25.13,23.51c-0.69,0-1.26,0.57-1.26,1.26s0.57,1.26,1.26,1.26s1.26-0.57,1.26-1.26S25.82,23.51,25.13,23.51z"/>
				<path d="M27.34,15.8c-0.28,0-0.5-0.22-0.5-0.5s0.22-0.5,0.5-0.5c1.93,0,3.5-1.57,3.5-3.5s-1.57-3.5-3.5-3.5s-3.5,1.57-3.5,3.5
					c0,0.28-0.22,0.5-0.5,0.5c-0.28,0-0.5-0.22-0.5-0.5c0-2.48,2.02-4.5,4.5-4.5s4.5,2.02,4.5,4.5S29.82,15.8,27.34,15.8z"/>
				<path d="M28.75,10.02h-2.39c-0.28,0-0.5-0.22-0.5-0.5c0-0.28,0.22-0.5,0.5-0.5h2.39c0.28,0,0.5,0.22,0.5,0.5
					C29.25,9.8,29.03,10.02,28.75,10.02z"/>
				<path d="M28.75,11.33h-2.82c-0.28,0-0.5-0.22-0.5-0.5c0-0.28,0.22-0.5,0.5-0.5h2.82c0.28,0,0.5,0.22,0.5,0.5
					C29.25,11.11,29.03,11.33,28.75,11.33z"/>
				<path d="M27.83,14.29c-0.12,0-0.24-0.04-0.33-0.12l-1.88-1.66c-0.21-0.18-0.23-0.5-0.04-0.71c0.18-0.21,0.5-0.23,0.71-0.04
					l1.88,1.66c0.21,0.18,0.23,0.5,0.04,0.71c-0.1,0.11-0.24,0.17-0.38,0.17V14.29z"/>
				<path d="M26.36,12.63h-0.42c-0.28,0-0.5-0.22-0.5-0.5s0.22-0.5,0.5-0.5h0.42c0.34,0,0.62-0.37,0.62-0.8s-0.29-0.8-0.62-0.8
					h-0.42c-0.28,0-0.5-0.22-0.5-0.5c0-0.28,0.22-0.5,0.5-0.5h0.42c0.9,0,1.62,0.81,1.62,1.8S27.25,12.63,26.36,12.63z"/>
			</g>
		</g>
	</g>
</g>
</svg>
