<?xml version="1.0" encoding="utf-8"?>
<!-- Generator: Adobe Illustrator 28.0.0, SVG Export Plug-In . SVG Version: 6.00 Build 0)  -->
<svg version="1.1" id="Layer_1" xmlns="http://www.w3.org/2000/svg" xmlns:xlink="http://www.w3.org/1999/xlink" x="0px" y="0px"
	 viewBox="0 0 40 40" enable-background="new 0 0 40 40" xml:space="preserve">
<g>
	<defs>
		<rect id="SVGID_1_" width="40" height="40"/>
	</defs>
	<clipPath id="SVGID_00000097487195847808534250000009283393349498399651_">
		<use xlink:href="#SVGID_1_"  overflow="visible"/>
	</clipPath>
	<g clip-path="url(#SVGID_00000097487195847808534250000009283393349498399651_)">
		<g>
			<defs>
				<rect id="SVGID_00000160874278615052966210000004034600056179111308_" width="40" height="40"/>
			</defs>
			<clipPath id="SVGID_00000067947473865147724370000008467269655483599035_">
				<use xlink:href="#SVGID_00000160874278615052966210000004034600056179111308_"  overflow="visible"/>
			</clipPath>
			<g clip-path="url(#SVGID_00000067947473865147724370000008467269655483599035_)">
				<path fill="#FFCB09" d="M14.07,31.5c1.08,0,1.96-0.88,1.96-1.96c0-1.08-0.88-1.96-1.96-1.96c-1.08,0-1.96,0.88-1.96,1.96
					C12.11,30.62,12.99,31.5,14.07,31.5z"/>
				<path fill="#FFCB09" d="M18.7,15.02h-6.3c-0.47,0-0.85,0.38-0.85,0.85v1.06c0,0.47,0.38,0.85,0.85,0.85h6.3
					c0.47,0,0.85-0.38,0.85-0.85v-1.06C19.55,15.4,19.17,15.02,18.7,15.02z"/>
				<path fill="#FFCB09" d="M31.07,31.5c1.08,0,1.96-0.88,1.96-1.96c0-1.08-0.88-1.96-1.96-1.96c-1.08,0-1.96,0.88-1.96,1.96
					C29.11,30.62,29.99,31.5,31.07,31.5z"/>
				<path fill="#121212" d="M26.17,28.15H5.19c-0.28,0-0.5-0.22-0.5-0.5c0-5.77,4.69-10.46,10.46-10.46h2.62
					c0.28,0,0.5,0.22,0.5,0.5v5.38h2.92c2.16,0,3.91-1.75,3.91-3.91v-7.69c0-0.28,0.22-0.5,0.5-0.5c0.28,0,0.5,0.22,0.5,0.5v7.69
					c0,2.71-2.2,4.91-4.91,4.91h-3.42c-0.28,0-0.5-0.22-0.5-0.5c0-0.02,0-0.03,0-0.05v-5.33h-2.12c-5.05,0-9.19,3.98-9.45,8.96
					h20.47c0.28,0,0.5,0.22,0.5,0.5S26.45,28.15,26.17,28.15z"/>
				<path fill="#121212" d="M34.25,28.16h-8.07c-0.28,0-0.5-0.23-0.5-0.51s0.22-0.5,0.5-0.5h7.54c-0.23-2.08-1.86-3.75-3.97-3.97
					c-0.27-0.03-0.47-0.27-0.44-0.55c0.03-0.27,0.26-0.48,0.55-0.44c2.79,0.29,4.9,2.64,4.9,5.47c0,0.13-0.05,0.26-0.15,0.35
					C34.51,28.1,34.39,28.16,34.25,28.16L34.25,28.16z"/>
				<path fill="#121212" d="M29.82,11.97h-4.21c-0.28,0-0.5-0.22-0.5-0.5V9.24c0-1.23,1-2.22,2.22-2.22h2.49
					c0.28,0,0.5,0.22,0.5,0.5v3.96c0,0.28-0.22,0.5-0.5,0.5V11.97z M26.11,10.97h3.21V8.01h-1.99c-0.68,0-1.22,0.55-1.22,1.22V10.97
					L26.11,10.97z"/>
				<path fill="#121212" d="M18.23,18.19h-7.42c-0.92,0-1.66-0.75-1.66-1.66v-1.04c0-0.92,0.75-1.66,1.66-1.66h7.42
					c0.92,0,1.66,0.75,1.66,1.66v1.04C19.89,17.45,19.14,18.19,18.23,18.19z M10.81,14.82c-0.36,0-0.66,0.3-0.66,0.66v1.04
					c0,0.36,0.3,0.66,0.66,0.66h7.42c0.36,0,0.66-0.3,0.66-0.66v-1.04c0-0.36-0.3-0.66-0.66-0.66H10.81z"/>
				<path fill="#121212" d="M12.28,32.51c-0.98,0-1.93-0.35-2.68-0.99c-0.91-0.78-1.43-1.92-1.43-3.12c0-0.3,0.03-0.58,0.1-0.87
					c0.06-0.27,0.33-0.44,0.6-0.37c0.27,0.06,0.44,0.33,0.37,0.6c-0.05,0.21-0.07,0.42-0.07,0.64c0,0.91,0.4,1.77,1.08,2.36
					c0.7,0.6,1.59,0.85,2.52,0.71c1.27-0.2,2.32-1.23,2.56-2.52c0.07-0.39,0.07-0.75-0.01-1.22c-0.05-0.27,0.13-0.53,0.41-0.58
					c0.27-0.05,0.53,0.13,0.58,0.41c0.07,0.39,0.13,0.92,0.01,1.57c-0.31,1.7-1.7,3.07-3.39,3.33c-0.21,0.03-0.43,0.05-0.64,0.05
					H12.28z"/>
				<path fill="#121212" d="M25.35,28.15c-0.2,0-0.39-0.12-0.47-0.32c-0.1-0.26,0.03-0.55,0.29-0.65c0,0,0.69-0.3,2.18-1.67
					c1.32-1.22,2.05-2.62,2.37-4.56c0.55-4.87-4.37-9.02-4.42-9.06c-0.21-0.18-0.24-0.49-0.07-0.7c0.18-0.21,0.49-0.24,0.7-0.07
					c0.22,0.18,5.38,4.54,4.77,9.97c-0.37,2.2-1.19,3.78-2.69,5.16c-1.64,1.51-2.41,1.84-2.49,1.87c-0.06,0.02-0.12,0.03-0.18,0.03
					H25.35z"/>
				<path fill="#121212" d="M25.6,11.18h-2.51c-0.28,0-0.5-0.22-0.5-0.5s0.22-0.5,0.5-0.5h2.51c0.28,0,0.5,0.22,0.5,0.5
					S25.88,11.18,25.6,11.18z"/>
				<path fill="#121212" d="M28.96,32.51c-0.98,0-1.93-0.35-2.68-0.99c-0.91-0.78-1.43-1.92-1.43-3.12c0-0.3,0.03-0.58,0.1-0.87
					c0.06-0.27,0.34-0.43,0.6-0.37c0.27,0.06,0.44,0.33,0.37,0.6c-0.05,0.21-0.07,0.42-0.07,0.64c0,0.91,0.4,1.77,1.08,2.36
					c0.7,0.6,1.59,0.85,2.52,0.71c1.27-0.2,2.32-1.23,2.56-2.52c0.07-0.39,0.07-0.75-0.02-1.22c-0.05-0.27,0.13-0.53,0.41-0.58
					c0.27-0.05,0.53,0.13,0.58,0.41c0.07,0.39,0.13,0.92,0.01,1.57c-0.31,1.7-1.7,3.07-3.39,3.33
					C29.39,32.49,29.17,32.51,28.96,32.51z"/>
			</g>
		</g>
	</g>
</g>
</svg>
