<svg width="33" height="32" viewBox="0 0 33 32" fill="none" xmlns="http://www.w3.org/2000/svg">
<g id="Frame">
<g id="Group">
<path id="Vector" d="M19.3202 15.2501H13.2402L14.1302 12.7601C14.3302 12.2101 14.8602 11.8301 15.4502 11.8301H17.4902L19.3202 15.2501Z" fill="#FFCB09"/>
<path id="Vector_2" d="M20.87 24.9502H10.41C9.76935 24.9502 9.25 25.4695 9.25 26.1102V27.0102C9.25 27.6508 9.76935 28.1702 10.41 28.1702H20.87C21.5107 28.1702 22.03 27.6508 22.03 27.0102V26.1102C22.03 25.4695 21.5107 24.9502 20.87 24.9502Z" fill="#FFCB09"/>
<path id="Vector_3" d="M21.07 21.53H3.82C2.82 21.53 2 20.71 2 19.71V16.56C2 15.56 2.82 14.74 3.82 14.74H21.07C22.07 14.74 22.89 15.56 22.89 16.56V19.71C22.89 20.71 22.07 21.53 21.07 21.53ZM3.82 15.75C3.37 15.75 3 16.12 3 16.57V19.72C3 20.17 3.37 20.54 3.82 20.54H21.07C21.52 20.54 21.89 20.17 21.89 19.72V16.57C21.89 16.12 21.52 15.75 21.07 15.75H3.82Z" fill="black"/>
<path id="Vector_4" d="M20.2894 28.6601H4.58938C3.35938 28.6601 2.35938 27.6601 2.35938 26.4301V25.0701C2.35938 23.8401 3.35938 22.8401 4.58938 22.8401H20.2894C21.5194 22.8401 22.5194 23.8401 22.5194 25.0701V26.4301C22.5194 27.6601 21.5194 28.6601 20.2894 28.6601ZM4.58938 23.8301C3.90937 23.8301 3.35937 24.3801 3.35937 25.0601V26.4201C3.35937 27.1001 3.90937 27.6501 4.58938 27.6501H20.2894C20.9694 27.6501 21.5194 27.1001 21.5194 26.4201V25.0601C21.5194 24.3801 20.9694 23.8301 20.2894 23.8301H4.58938Z" fill="black"/>
<path id="Vector_5" d="M19.3207 15.7501H10.1907C10.0307 15.7501 9.87067 15.6701 9.78067 15.5401C9.69067 15.4101 9.66067 15.2401 9.72067 15.0801L11.5507 9.96013C11.6207 9.76013 11.8107 9.63013 12.0207 9.63013H16.5707C16.7507 9.63013 16.9207 9.73013 17.0107 9.89013L19.7607 15.0101C19.8407 15.1601 19.8407 15.3501 19.7507 15.5001C19.6607 15.6501 19.5007 15.7401 19.3207 15.7401V15.7501ZM10.9007 14.7501H18.4807L16.2707 10.6301H12.3707L10.9007 14.7501Z" fill="black"/>
<path id="Vector_6" d="M19.0305 15.2202C18.8905 15.2202 18.7405 15.1602 18.6505 15.0402C18.4705 14.8302 18.5005 14.5102 18.7205 14.3402L27.8505 6.78018C28.0605 6.60018 28.3805 6.63018 28.5505 6.85018C28.7305 7.06018 28.7005 7.38018 28.4805 7.55018L19.3505 15.1102C19.2605 15.1902 19.1405 15.2202 19.0305 15.2202Z" fill="black"/>
<path id="Vector_7" d="M16.9597 11.3601C16.7897 11.3601 16.6297 11.2801 16.5397 11.1301C16.3897 10.9001 16.4597 10.5901 16.6997 10.4401L26.3997 4.35012C26.7097 4.15012 27.1697 4.40012 27.1697 4.77012C27.1697 4.98012 27.0497 5.16012 26.8697 5.23012L17.2297 11.2801C17.1497 11.3301 17.0597 11.3601 16.9597 11.3601Z" fill="black"/>
<path id="Vector_8" d="M28.17 7.66009C26.97 7.66009 26 6.69009 26 5.50009C26 4.31009 26.97 3.34009 28.17 3.34009C29.37 3.34009 30.34 4.31009 30.34 5.50009C30.34 6.69009 29.37 7.66009 28.17 7.66009ZM28.17 4.34009C27.53 4.34009 27 4.86009 27 5.50009C27 6.14009 27.52 6.66009 28.17 6.66009C28.82 6.66009 29.34 6.14009 29.34 5.50009C29.34 4.86009 28.82 4.34009 28.17 4.34009Z" fill="black"/>
<path id="Vector_9" d="M28.5508 23.6301C28.2708 23.6301 28.0508 23.4101 28.0508 23.1301V20.3701C28.0508 20.0901 28.2708 19.8701 28.5508 19.8701C28.8308 19.8701 29.0508 20.0901 29.0508 20.3701V23.1301C29.0508 23.4101 28.8308 23.6301 28.5508 23.6301Z" fill="black"/>
<path id="Vector_10" d="M28.5494 26.0001C27.6194 26.0001 26.8594 25.2501 26.8594 24.3201C26.8594 23.3901 27.6194 22.6401 28.5494 22.6401C28.8294 22.6401 29.0494 22.8601 29.0494 23.1401C29.0494 23.4201 28.8294 23.6401 28.5494 23.6401C28.1694 23.6401 27.8594 23.9401 27.8594 24.3201C27.8594 24.7001 28.1694 25.0001 28.5494 25.0001C28.9294 25.0001 29.2394 24.7001 29.2394 24.3201C29.2394 24.0401 29.4594 23.8201 29.7394 23.8201C30.0194 23.8201 30.2394 24.0401 30.2394 24.3201C30.2394 25.2501 29.4794 26.0001 28.5494 26.0001Z" fill="black"/>
<path id="Vector_11" d="M29.9001 20.8701H27.2101C27.0201 20.8701 26.8501 20.7701 26.7701 20.6001L26.0701 19.2601C26.0101 19.1501 26.0001 19.0201 26.0301 18.9001L26.7301 16.1901C26.7901 15.9701 26.9901 15.8201 27.2101 15.8201H29.9001C30.1301 15.8201 30.3401 15.9801 30.3901 16.2101L30.9901 18.9201C31.0101 19.0201 31.0001 19.1401 30.9601 19.2301L30.3601 20.5701C30.2801 20.7501 30.1001 20.8601 29.9001 20.8601V20.8701ZM27.5101 19.8701H29.5801L29.9801 18.9801L29.5001 16.8301H27.5901L27.0301 18.9801L27.5001 19.8801L27.5101 19.8701Z" fill="black"/>
<path id="Vector_12" d="M28.5508 16.8302C28.2708 16.8302 28.0508 16.6102 28.0508 16.3302V7.16016C28.0508 6.88016 28.2708 6.66016 28.5508 6.66016C28.8308 6.66016 29.0508 6.88016 29.0508 7.16016V16.3302C29.0508 16.6102 28.8308 16.8302 28.5508 16.8302Z" fill="black"/>
<g id="Group_2">
<path id="Vector_13" d="M6.31023 26.3202C6.62504 26.3202 6.88023 26.065 6.88023 25.7502C6.88023 25.4354 6.62504 25.1802 6.31023 25.1802C5.99543 25.1802 5.74023 25.4354 5.74023 25.7502C5.74023 26.065 5.99543 26.3202 6.31023 26.3202Z" fill="white"/>
<path id="Vector_14" d="M6.31023 26.8102C5.72023 26.8102 5.24023 26.3302 5.24023 25.7502C5.24023 25.1702 5.72023 24.6902 6.31023 24.6902C6.90023 24.6902 7.38023 25.1702 7.38023 25.7502C7.38023 26.3302 6.90023 26.8102 6.31023 26.8102Z" fill="black"/>
</g>
<g id="Group_3">
<path id="Vector_15" d="M12.4391 26.8102C11.8491 26.8102 11.3691 26.3302 11.3691 25.7502C11.3691 25.1702 11.8491 24.6902 12.4391 24.6902C13.0291 24.6902 13.5091 25.1702 13.5091 25.7502C13.5091 26.3302 13.0291 26.8102 12.4391 26.8102Z" fill="black"/>
</g>
<g id="Group_4">
<path id="Vector_16" d="M18.5798 26.3202C18.8946 26.3202 19.1498 26.065 19.1498 25.7502C19.1498 25.4354 18.8946 25.1802 18.5798 25.1802C18.265 25.1802 18.0098 25.4354 18.0098 25.7502C18.0098 26.065 18.265 26.3202 18.5798 26.3202Z" fill="white"/>
<path id="Vector_17" d="M18.5798 26.8102C17.9898 26.8102 17.5098 26.3302 17.5098 25.7502C17.5098 25.1702 17.9898 24.6902 18.5798 24.6902C19.1698 24.6902 19.6498 25.1702 19.6498 25.7502C19.6498 26.3302 19.1698 26.8102 18.5798 26.8102Z" fill="black"/>
</g>
<path id="Vector_18" d="M6.17969 23.84C5.89969 23.84 5.67969 23.62 5.67969 23.34V21.04C5.67969 20.76 5.89969 20.54 6.17969 20.54C6.45969 20.54 6.67969 20.76 6.67969 21.04V23.34C6.67969 23.62 6.45969 23.84 6.17969 23.84Z" fill="black"/>
<path id="Vector_19" d="M18.5605 23.84C18.2805 23.84 18.0605 23.62 18.0605 23.34V21.04C18.0605 20.76 18.2805 20.54 18.5605 20.54C18.8405 20.54 19.0605 20.76 19.0605 21.04V23.34C19.0605 23.62 18.8405 23.84 18.5605 23.84Z" fill="black"/>
</g>
</g>
</svg>
