<svg width="40" height="40" viewBox="0 0 40 40" fill="none" xmlns="http://www.w3.org/2000/svg">
<g clip-path="url(#clip0_9745_31960)">
<path d="M27.8194 23.2603C27.8194 25.7303 25.8194 27.7403 23.3394 27.7403C20.8594 27.7403 18.8594 25.7403 18.8594 23.2603C18.8594 20.7803 20.8594 18.7803 23.3394 18.7803C25.8194 18.7803 27.8194 20.7803 27.8194 23.2603Z" fill="#FFCB09"/>
<path d="M6.65039 28.2302C6.37039 28.2302 6.15039 28.0102 6.15039 27.7302C6.15039 27.4502 6.37039 27.2302 6.65039 27.2302L33.3504 27.1602C33.6304 27.1602 33.8504 27.3802 33.8504 27.6602C33.8504 27.9402 33.6304 28.1602 33.3504 28.1602L6.65039 28.2302Z" fill="#121212"/>
<path d="M23.1409 28.0204H16.6309V27.5204C16.6309 25.6904 18.0909 24.1904 19.8909 24.1904C21.6909 24.1904 23.1509 25.6804 23.1509 27.5204V28.0204H23.1409ZM19.8809 27.0204H22.0809C21.8609 25.9804 20.9509 25.1904 19.8809 25.1904C18.8109 25.1904 17.9009 25.9704 17.6809 27.0204H19.8809Z" fill="#121212"/>
<path d="M20.0098 18.2603C19.7298 18.2603 19.5098 18.0403 19.5098 17.7603V12.8203C19.5098 12.5403 19.7298 12.3203 20.0098 12.3203C20.2898 12.3203 20.5098 12.5403 20.5098 12.8203V17.7603C20.5098 18.0403 20.2898 18.2603 20.0098 18.2603Z" fill="#121212"/>
<path d="M26.3202 20.7205C26.2202 20.7205 26.1302 20.6905 26.0402 20.6305C25.8102 20.4805 25.7502 20.1605 25.9102 19.9405L28.6802 15.8605C28.8402 15.6305 29.1502 15.5705 29.3702 15.7305C29.6002 15.8905 29.6602 16.2005 29.5002 16.4205L26.7302 20.5005C26.6302 20.6405 26.4802 20.7205 26.3202 20.7205Z" fill="#121212"/>
<path d="M13.7907 20.4296C13.6407 20.4296 13.5007 20.3696 13.4007 20.2496L10.3307 16.4896C10.1607 16.2796 10.1907 15.9596 10.4007 15.7896C10.6107 15.6196 10.9307 15.6496 11.1007 15.8596L14.1707 19.6196C14.3407 19.8296 14.3107 20.1496 14.1007 20.3196C14.0107 20.3996 13.9007 20.4296 13.7807 20.4296H13.7907Z" fill="#121212"/>
<path d="M20.1706 25.1502C20.0906 25.1502 20.0206 25.1302 19.9406 25.1002C19.6906 24.9702 19.6006 24.6702 19.7206 24.4302L21.2306 21.4802C21.3506 21.2302 21.6506 21.1302 21.9006 21.2602C22.1506 21.3902 22.2406 21.6902 22.1206 21.9302L20.6106 24.8802C20.5206 25.0502 20.3506 25.1502 20.1606 25.1502H20.1706Z" fill="#121212"/>
<path d="M33.3504 28.09C33.0704 28.09 32.8504 27.87 32.8504 27.59V25.64C32.8504 24.08 32.6204 22.66 32.1604 21.43C30.2504 16.25 25.3604 12.76 20.0004 12.76C14.3104 12.76 9.19039 16.69 7.55039 22.32C7.28039 23.25 7.15039 24.3 7.15039 25.55V27.58C7.15039 27.86 6.93039 28.08 6.65039 28.08C6.37039 28.08 6.15039 27.86 6.15039 27.58V25.55C6.15039 24.21 6.29039 23.06 6.59039 22.04C8.36039 15.98 13.8704 11.75 20.0004 11.75C25.7704 11.75 31.0404 15.5 33.1004 21.07C33.6004 22.41 33.8504 23.95 33.8504 25.62V27.57C33.8504 27.85 33.6304 28.07 33.3504 28.07V28.09Z" fill="#121212"/>
<path d="M28.6309 28.16C28.3509 28.16 28.1309 27.94 28.1309 27.66V26.4C28.1309 25.41 27.9809 24.52 27.7009 23.74C26.4909 20.46 23.4009 18.25 20.0109 18.25C16.4109 18.25 13.1709 20.74 12.1309 24.3C11.9609 24.88 11.8809 25.55 11.8809 26.34V27.65C11.8809 27.93 11.6609 28.15 11.3809 28.15C11.1009 28.15 10.8809 27.93 10.8809 27.65V26.34C10.8809 25.46 10.9809 24.7 11.1709 24.02C12.3309 20.03 15.9709 17.25 20.0109 17.25C23.8109 17.25 27.2809 19.72 28.6409 23.39C28.9709 24.28 29.1309 25.29 29.1309 26.39V27.65C29.1309 27.93 28.9109 28.15 28.6309 28.15V28.16Z" fill="#121212"/>
</g>
<defs>
<clipPath id="clip0_9745_31960">
<rect width="40" height="40" fill="white"/>
</clipPath>
</defs>
</svg>
