<svg width="40" height="40" viewBox="0 0 40 40" fill="none" xmlns="http://www.w3.org/2000/svg">
<rect width="40" height="40" rx="20" fill="white"/>
<g clip-path="url(#clip0_5222_22642)">
<path d="M10.4996 21.61C10.8296 21.61 11.0996 21.88 11.0996 22.21V25.43C11.0996 26.62 12.0796 27.59 13.2896 27.59H26.7096C27.9196 27.59 28.8996 26.62 28.8996 25.43V22.21C28.8996 21.88 29.1696 21.61 29.4996 21.61C29.8296 21.61 30.0996 21.88 30.0996 22.21V25.43C30.0996 27.28 28.5796 28.79 26.7096 28.79H13.2896C11.4196 28.79 9.89961 27.28 9.89961 25.43V22.21C9.89961 21.88 10.1696 21.61 10.4996 21.61ZM20.4196 23.91C20.2996 24.03 20.1496 24.09 19.9996 24.09C19.8496 24.09 19.6896 24.03 19.5796 23.91L17.0196 21.35C16.7896 21.12 16.7896 20.74 17.0196 20.5C17.2496 20.27 17.6296 20.27 17.8696 20.5L19.4096 22.04V11.81C19.4096 11.48 19.6796 11.21 20.0096 11.21C20.3396 11.21 20.6096 11.48 20.6096 11.81V22.04L22.1496 20.5C22.3796 20.27 22.7596 20.27 22.9996 20.5C23.2296 20.73 23.2296 21.11 22.9996 21.35L20.4396 23.91H20.4196Z" fill="#121212"/>
</g>
<defs>
<clipPath id="clip0_5222_22642">
<rect width="24" height="24" fill="white" transform="matrix(-1 0 0 1 32 8)"/>
</clipPath>
</defs>
</svg>
