<svg width="32" height="32" viewBox="0 0 32 32" fill="none" xmlns="http://www.w3.org/2000/svg">
<g clip-path="url(#clip0_5452_9633)">
<path d="M26 19.5138V25.4862C26 27.5965 24.9158 29 22.3895 29H16.6105C14.0842 29 13 27.5965 13 25.4862V19.5138C13 17.4035 14.0842 16 16.6105 16H22.3895C24.9158 16 26 17.4035 26 19.5138Z" fill="#FFCB09"/>
<path d="M28.3499 7.87012H3.6499C3.3699 7.87012 3.1499 7.65012 3.1499 7.37012C3.1499 7.09012 3.3699 6.87012 3.6499 6.87012H28.3499C28.6299 6.87012 28.8499 7.09012 28.8499 7.37012C28.8499 7.65012 28.6299 7.87012 28.3499 7.87012Z" fill="black"/>
<path d="M23.3201 29.8301H9.60011C8.73011 29.8301 7.92011 29.4901 7.31011 28.8801C6.70011 28.2701 6.36011 27.4501 6.36011 26.5901V7.37014C6.36011 7.09014 6.58011 6.87014 6.86011 6.87014C7.14011 6.87014 7.36011 7.09014 7.36011 7.37014V26.5801C7.36011 27.1801 7.59011 27.7401 8.02011 28.1701C8.44011 28.5901 9.01011 28.8301 9.61011 28.8301H23.3301C23.9301 28.8301 24.4901 28.6001 24.9201 28.1701C25.3501 27.7401 25.5801 27.1801 25.5801 26.5801V7.37014C25.5801 7.09014 25.8001 6.87014 26.0801 6.87014C26.3601 6.87014 26.5801 7.09014 26.5801 7.37014V26.5801C26.5801 27.4501 26.2401 28.2601 25.6301 28.8701C25.0201 29.4801 24.2001 29.8201 23.3401 29.8201L23.3201 29.8301ZM21.9501 7.87014C21.6701 7.87014 21.4501 7.65014 21.4501 7.37014V4.63014C21.4501 4.03014 21.2201 3.47014 20.7901 3.04014C20.3701 2.62014 19.8001 2.38014 19.2001 2.38014H13.7101C13.1101 2.38014 12.5501 2.61014 12.1201 3.04014C11.7001 3.46014 11.4601 4.04014 11.4601 4.63014V7.37014C11.4601 7.65014 11.2401 7.87014 10.9601 7.87014C10.6801 7.87014 10.4601 7.65014 10.4601 7.37014V4.63014C10.4601 3.76014 10.8001 2.95014 11.4101 2.34014C12.0201 1.73014 12.8401 1.39014 13.7001 1.39014H19.1901C20.0601 1.39014 20.8701 1.73014 21.4801 2.34014C22.0901 2.95014 22.4301 3.77014 22.4301 4.63014V7.37014C22.4301 7.65014 22.2101 7.87014 21.9301 7.87014H21.9501Z" fill="black"/>
<path d="M12.0501 26.2698C11.7501 26.2698 11.5001 26.0398 11.4901 25.7398L10.6801 11.3998C10.6601 11.0898 10.9001 10.8198 11.2101 10.7998C11.5301 10.7998 11.7901 11.0198 11.8101 11.3298L12.6201 25.6698C12.6401 25.9798 12.4001 26.2498 12.0901 26.2698C12.0801 26.2698 12.0701 26.2698 12.0601 26.2698H12.0501Z" fill="black"/>
<path d="M20.8602 26.2701C20.8602 26.2701 20.8402 26.2701 20.8302 26.2701C20.5202 26.2501 20.2802 25.9901 20.3002 25.6701L21.1102 11.3301C21.1302 11.0201 21.4102 10.7901 21.7102 10.8001C22.0202 10.8201 22.2602 11.0801 22.2402 11.4001L21.4302 25.7401C21.4102 26.0401 21.1602 26.2701 20.8702 26.2701H20.8602Z" fill="black"/>
<path d="M16.4601 26.31C16.1501 26.31 15.9001 26.06 15.9001 25.75V11.33C15.9001 11.02 16.1501 10.77 16.4601 10.77C16.7701 10.77 17.0201 11.02 17.0201 11.33V25.75C17.0201 26.06 16.7701 26.31 16.4601 26.31Z" fill="black"/>
</g>
<defs>
<clipPath id="clip0_5452_9633">
<rect width="32" height="32" fill="white"/>
</clipPath>
</defs>
</svg>
