<svg width="168" height="163" viewBox="0 0 168 163" fill="none" xmlns="http://www.w3.org/2000/svg">
<path d="M84.4558 154C130.053 154 167.018 152.016 167.018 149.569C167.018 147.123 130.053 145.139 84.4558 145.139C38.8582 145.139 1.89404 147.123 1.89404 149.569C1.89404 152.016 38.8582 154 84.4558 154Z" fill="#CDCDCD"/>
<path d="M34.5771 76.3551V57.373C34.5771 53.0748 38.065 49.5869 42.3633 49.5869H69.2395C72.025 49.5869 74.6004 51.0757 75.9931 53.495L79.1928 59.0659C80.5795 61.4852 83.1549 62.974 85.9464 62.974H139.861C144.159 62.974 147.647 66.4618 147.647 70.7601V141.898C147.647 146.196 144.159 149.684 139.861 149.684H42.3633C38.065 149.684 34.5771 146.196 34.5771 141.898V76.3551Z" fill="#E5B606"/>
<path d="M139.859 149.684H26.0569C23.7157 149.684 21.6746 148.099 21.0863 145.829L3.9592 79.2722C3.12476 76.0245 5.57406 72.8608 8.92984 72.8608H122.738C125.079 72.8608 127.12 74.4457 127.709 76.7149L144.836 143.272C145.67 146.52 143.221 149.684 139.865 149.684H139.859Z" fill="#FFCA0A"/>
<path d="M130.454 87.633C130.454 87.633 131.06 87.4589 132.074 87.1167" stroke="#929497" stroke-width="1.06781" stroke-miterlimit="10"/>
<path d="M135.28 85.9525C144.183 82.4767 161.28 73.7901 149.976 61.5796C135.082 45.4911 88.0171 69.3237 89.2057 41.9192C90.3463 15.6973 118.207 40.7426 135.748 24.1738" stroke="#929497" stroke-width="1.06781" stroke-miterlimit="10" stroke-dasharray="2.14 2.14"/>
<path d="M136.948 22.9494C137.326 22.5412 137.693 22.1089 138.059 21.6587" stroke="#929497" stroke-width="1.06781" stroke-miterlimit="10"/>
<path d="M145.761 16.2693C146.682 16.2693 147.43 15.4549 147.43 14.4503C147.43 13.4457 146.682 12.6313 145.761 12.6313C144.839 12.6313 144.092 13.4457 144.092 14.4503C144.092 15.4549 144.839 16.2693 145.761 16.2693Z" fill="#8E8E8E"/>
<path d="M143.383 14.9542C143.383 14.9542 137.986 15.8967 137.032 20.4712C137.032 20.4712 141.504 20.6272 145.412 17.2955C145.412 17.2955 143.095 16.407 143.383 14.9482V14.9542Z" fill="#8E8E8E"/>
<path d="M143.042 14.2939C143.042 14.2939 144.692 10.1997 142.495 10.2237C141.145 10.2357 139.848 14.2399 139.848 14.2399C139.848 14.2399 137.14 11.4004 137.333 13.3634C137.525 15.3264 138.869 16.5271 138.869 16.5271C138.869 16.5271 141.697 14.408 143.042 14.2939Z" fill="#8E8E8E"/>
<path d="M0.441406 137.017C0.441406 137.017 20.2039 129.681 7.51915 125.269C4.05532 124.062 -5.74788 115.358 11.5233 108.7" stroke="#929497" stroke-width="1.06781" stroke-miterlimit="10" stroke-dasharray="2.14 2.14"/>
</svg>
