<svg width="24" height="24" viewBox="0 0 24 24" fill="none" xmlns="http://www.w3.org/2000/svg">
<path d="M15.2696 3.76078H15.7696V3.26078V2.40078C15.7696 2.34692 15.8158 2.30078 15.8696 2.30078C15.9235 2.30078 15.9696 2.34692 15.9696 2.40078V3.31078H16.4411L16.4226 3.80941C17.8757 3.91722 18.9639 4.41737 19.6914 5.22126C20.4203 6.02676 20.8396 7.19553 20.8396 8.74078V17.0208C20.8396 18.6613 20.3709 19.8876 19.5558 20.7037C18.7409 21.5197 17.5148 21.9908 15.8696 21.9908H8.06961C6.42908 21.9908 5.20282 21.522 4.38668 20.707C3.57064 19.8921 3.09961 18.666 3.09961 17.0208V8.74078C3.09961 7.16581 3.51144 5.99362 4.23218 5.19438C4.95063 4.39767 6.03307 3.90829 7.50308 3.80966L7.96961 3.77836V3.31078V2.40078C7.96961 2.34692 8.01575 2.30078 8.06961 2.30078C8.12347 2.30078 8.16961 2.34692 8.16961 2.40078V3.26078V3.76078H8.66961H15.2696ZM7.97961 4.50078V4.00078H7.47961H7.46961H7.44898L7.42843 4.00248C6.12971 4.10981 5.07496 4.54936 4.3509 5.37643C3.63043 6.19942 3.29961 7.3353 3.29961 8.71078V9.21078H3.79961H20.1496H20.6515L20.6496 8.70887C20.6443 7.3301 20.3138 6.1945 19.5946 5.37273C18.8714 4.54647 17.8188 4.10976 16.5208 4.00248L15.9796 3.95775V4.50078V5.32078C15.9796 5.37464 15.9335 5.42078 15.8796 5.42078C15.8258 5.42078 15.7796 5.37464 15.7796 5.32078V4.46078V3.96078H15.2796H8.67961H8.17961V4.46078V5.32078C8.17961 5.37464 8.13347 5.42078 8.07961 5.42078C8.02575 5.42078 7.97961 5.37464 7.97961 5.32078V4.50078ZM3.78961 9.40078H3.28961V9.90078V17.0208C3.28961 18.5196 3.67011 19.7384 4.51106 20.5793C5.35201 21.4203 6.57077 21.8008 8.06961 21.8008H15.8696C17.3685 21.8008 18.5872 21.4203 19.4282 20.5793C20.2691 19.7384 20.6496 18.5196 20.6496 17.0208V9.90078V9.40078H20.1496H3.78961ZM8.75961 13.6008C8.75961 13.7146 8.67347 13.8008 8.55961 13.8008C8.44575 13.8008 8.35961 13.7146 8.35961 13.6008C8.35961 13.4869 8.44575 13.4008 8.55961 13.4008C8.67347 13.4008 8.75961 13.4869 8.75961 13.6008ZM12.1696 13.6008C12.1696 13.7146 12.0835 13.8008 11.9696 13.8008C11.8558 13.8008 11.7696 13.7146 11.7696 13.6008C11.7696 13.4869 11.8558 13.4008 11.9696 13.4008C12.0835 13.4008 12.1696 13.4869 12.1696 13.6008ZM15.5796 13.6008C15.5796 13.7146 15.4935 13.8008 15.3796 13.8008C15.2658 13.8008 15.1796 13.7146 15.1796 13.6008C15.1796 13.4869 15.2658 13.4008 15.3796 13.4008C15.4935 13.4008 15.5796 13.4869 15.5796 13.6008ZM8.75961 17.0108C8.75961 17.1246 8.67347 17.2108 8.55961 17.2108C8.44575 17.2108 8.35961 17.1246 8.35961 17.0108C8.35961 16.8969 8.44575 16.8108 8.55961 16.8108C8.67347 16.8108 8.75961 16.8969 8.75961 17.0108ZM12.1696 17.0108C12.1696 17.1246 12.0835 17.2108 11.9696 17.2108C11.8558 17.2108 11.7696 17.1246 11.7696 17.0108C11.7696 16.8969 11.8558 16.8108 11.9696 16.8108C12.0835 16.8108 12.1696 16.8969 12.1696 17.0108ZM15.5796 17.0108C15.5796 17.1246 15.4935 17.2108 15.3796 17.2108C15.2658 17.2108 15.1796 17.1246 15.1796 17.0108C15.1796 16.8969 15.2658 16.8108 15.3796 16.8108C15.4935 16.8108 15.5796 16.8969 15.5796 17.0108Z" fill="#666868" stroke="black"/>
</svg>
