<svg width="40" height="40" viewBox="0 0 40 40" fill="none" xmlns="http://www.w3.org/2000/svg">
<g clip-path="url(#clip0_8816_2320)">
<g clip-path="url(#clip1_8816_2320)">
<path d="M20.8697 11.8598L18.9597 12.5798C18.5197 12.7398 18.1597 13.2598 18.1597 13.7298V16.5698C18.1597 17.0198 18.4597 17.6198 18.8197 17.8898L20.4597 19.1198C20.9997 19.5198 21.8897 19.5198 22.4297 19.1198L24.0697 17.8898C24.4297 17.6198 24.7297 17.0298 24.7297 16.5698V13.7298C24.7297 13.2598 24.3697 12.7398 23.9297 12.5798L22.0197 11.8598C21.6997 11.7398 21.1797 11.7398 20.8697 11.8598Z" fill="#FFCB09"/>
<path d="M11.8798 34.7199C11.7498 34.7199 11.6198 34.6699 11.5298 34.5699L5.48984 28.5299C5.39984 28.4399 5.33984 28.3099 5.33984 28.1799C5.33984 28.0499 5.38984 27.9199 5.48984 27.8299L11.5198 21.7999C11.5198 21.7999 11.5398 21.7799 11.5498 21.7699C12.4298 21.0199 13.7098 20.5999 15.0598 20.5999C16.3098 20.5999 17.4898 20.9599 18.3798 21.6199C18.9798 22.0599 19.6398 22.2999 20.2998 22.2999H23.2298C24.2998 22.2999 25.1798 23.1699 25.1798 24.2499V24.3899C25.1798 25.4699 24.3098 26.3399 23.2298 26.3399H19.6698C19.2898 26.3399 18.9898 26.6399 18.9898 27.0199C18.9898 27.3999 19.2898 27.6999 19.6698 27.6999H25.3598L31.5598 23.0599C32.0298 22.7099 32.5998 22.5699 33.1798 22.6699C33.7598 22.7699 34.2498 23.0899 34.5698 23.5799C34.6998 23.7799 34.6698 24.0499 34.4998 24.2199L26.8898 31.3999C26.1198 32.1199 25.1198 32.5199 24.0598 32.5199H15.2298C14.6198 32.5199 14.0498 32.7599 13.6198 33.1899L12.2198 34.5899C12.1198 34.6899 11.9898 34.7399 11.8698 34.7399L11.8798 34.7199ZM6.54984 28.1799L11.8798 33.5099L12.9298 32.4599C13.5498 31.8399 14.3698 31.4999 15.2498 31.4999H24.0798C24.8798 31.4999 25.6398 31.1999 26.2198 30.6499L33.4698 23.8099C33.3398 23.7199 33.1898 23.6599 33.0298 23.6299C32.7298 23.5799 32.4298 23.6499 32.1798 23.8399L25.8498 28.5799C25.7598 28.6399 25.6598 28.6799 25.5498 28.6799H19.6898C18.7598 28.6799 18.0098 27.9299 18.0098 26.9999C18.0098 26.0699 18.7598 25.3199 19.6898 25.3199H23.2498C23.7698 25.3199 24.1998 24.8899 24.1998 24.3699V24.2299C24.1998 23.7099 23.7698 23.2799 23.2498 23.2799H20.3198C19.4498 23.2799 18.5798 22.9799 17.8098 22.4099C17.0998 21.8899 16.1098 21.5899 15.0798 21.5899C13.9698 21.5899 12.9298 21.9299 12.2298 22.5099L6.55984 28.1699L6.54984 28.1799Z" fill="#121212"/>
<path d="M19.9996 20.0899C19.2796 20.0899 18.5696 19.8799 18.0096 19.4599L15.1896 17.3499C14.4396 16.7899 13.8496 15.6199 13.8496 14.6899V9.80988C13.8496 8.78988 14.5996 7.71988 15.5496 7.35988L18.8296 6.12988C19.4796 5.87988 20.5096 5.87988 21.1596 6.12988L24.4396 7.35988C25.3896 7.71988 26.1396 8.79988 26.1396 9.80988V14.6899C26.1396 15.6199 25.5496 16.7999 24.7996 17.3499L21.9696 19.4599C21.4096 19.8799 20.6996 20.0899 19.9796 20.0899H19.9996ZM19.1796 7.05988L15.8996 8.28988C15.3396 8.49988 14.8496 9.20988 14.8496 9.80988V14.6899C14.8496 15.3099 15.2896 16.1799 15.7796 16.5499L18.6096 18.6599C19.3596 19.2199 20.6396 19.2199 21.3896 18.6599L24.2196 16.5499C24.7196 16.1799 25.1496 15.3099 25.1496 14.6899V9.80988C25.1496 9.20988 24.6596 8.49988 24.0996 8.28988L20.8196 7.05988C20.3896 6.89988 19.6196 6.89988 19.1896 7.05988H19.1796Z" fill="#121212"/>
<path d="M21.4398 12.1498C21.1598 12.1498 20.9398 11.9298 20.9398 11.6498V10.4398C20.9398 10.2298 20.7698 10.0598 20.5498 10.0598H19.4298C19.2198 10.0598 19.0498 10.2298 19.0498 10.4398V11.6498C19.0498 11.9298 18.8298 12.1498 18.5498 12.1498C18.2698 12.1498 18.0498 11.9298 18.0498 11.6498V10.4398C18.0498 9.67981 18.6698 9.05981 19.4298 9.05981H20.5498C21.3098 9.05981 21.9398 9.67981 21.9398 10.4398V11.6498C21.9398 11.9298 21.7198 12.1498 21.4398 12.1498Z" fill="#121212"/>
<path d="M20.5601 17.1498H19.4401C18.6801 17.1498 18.0601 16.5298 18.0601 15.7698V14.5598C18.0601 14.2798 18.2801 14.0598 18.5601 14.0598C18.8401 14.0598 19.0601 14.2798 19.0601 14.5598V15.7698C19.0601 15.9798 19.2401 16.1498 19.4401 16.1498H20.5601C20.7701 16.1498 20.9501 15.9798 20.9501 15.7698V14.5598C20.9501 14.2798 21.1701 14.0598 21.4501 14.0598C21.7301 14.0598 21.9501 14.2798 21.9501 14.5598V15.7698C21.9501 16.5298 21.3301 17.1498 20.5601 17.1498Z" fill="#121212"/>
<path d="M18.55 15.0499H17.34C16.58 15.0499 15.96 14.4299 15.96 13.6699V12.5499C15.96 11.7899 16.58 11.1699 17.34 11.1699H18.55C18.83 11.1699 19.05 11.3899 19.05 11.6699C19.05 11.9499 18.83 12.1699 18.55 12.1699H17.34C17.13 12.1699 16.96 12.3399 16.96 12.5499V13.6699C16.96 13.8799 17.13 14.0499 17.34 14.0499H18.55C18.83 14.0499 19.05 14.2699 19.05 14.5499C19.05 14.8299 18.83 15.0499 18.55 15.0499Z" fill="#121212"/>
<path d="M22.6499 15.0499H21.4399C21.1599 15.0499 20.9399 14.8299 20.9399 14.5499C20.9399 14.2699 21.1599 14.0499 21.4399 14.0499H22.6499C22.8599 14.0499 23.0399 13.8799 23.0399 13.6699V12.5499C23.0399 12.3399 22.8699 12.1699 22.6499 12.1699H21.4399C21.1599 12.1699 20.9399 11.9499 20.9399 11.6699C20.9399 11.3899 21.1599 11.1699 21.4399 11.1699H22.6499C23.4099 11.1699 24.0399 11.7899 24.0399 12.5499V13.6699C24.0399 14.4299 23.4199 15.0499 22.6499 15.0499Z" fill="#121212"/>
</g>
</g>
<defs>
<clipPath id="clip0_8816_2320">
<rect width="40" height="40" fill="white"/>
</clipPath>
<clipPath id="clip1_8816_2320">
<rect width="40" height="40" fill="white"/>
</clipPath>
</defs>
</svg>
