<svg width="40" height="40" viewBox="0 0 40 40" fill="none" xmlns="http://www.w3.org/2000/svg">
<g clip-path="url(#clip0_8816_2298)">
<g clip-path="url(#clip1_8816_2298)">
<path d="M30.06 18.9601C30.79 17.2201 31.43 14.4101 28.69 11.1001C29.15 17.3101 25.67 24.0101 22.73 24.3401C25.94 24.3401 29.14 21.0301 30.06 18.9601Z" fill="#FFCB09"/>
<path d="M30.5499 26.1001C28.2399 31.4401 14.8799 30.9401 8.43994 29.8501C9.10994 30.6801 11.3199 32.3501 18.5299 32.7701C25.0699 33.1901 29.2999 31.3501 30.5499 30.2701V26.1001Z" fill="#FFCB09"/>
<path d="M21.2197 25.24C20.9397 25.24 20.7197 25.02 20.7197 24.74C20.7197 24.46 20.9397 24.24 21.2197 24.24C26.2397 24.24 30.3197 20.52 30.3197 15.95C30.3197 11.38 26.2397 7.66003 21.2197 7.66003C20.9397 7.66003 20.7197 7.44003 20.7197 7.16003C20.7197 6.88003 20.9397 6.66003 21.2197 6.66003C26.7897 6.66003 31.3197 10.83 31.3197 15.95C31.3197 21.07 26.7897 25.24 21.2197 25.24Z" fill="#121212"/>
<path d="M18.6598 25.5901C13.3498 25.5901 9.02979 21.2701 9.02979 15.9601C9.02979 10.6501 13.3498 6.33008 18.6598 6.33008C23.9698 6.33008 28.2898 10.6501 28.2898 15.9601C28.2898 21.2701 23.9698 25.5901 18.6598 25.5901ZM18.6598 7.34008C13.8998 7.34008 10.0298 11.2101 10.0298 15.9701C10.0298 20.7301 13.8998 24.6001 18.6598 24.6001C23.4198 24.6001 27.2898 20.7301 27.2898 15.9701C27.2898 11.2101 23.4198 7.34008 18.6598 7.34008Z" fill="#121212"/>
<path d="M30.5401 16.5101H27.8501C27.5701 16.5101 27.3501 16.2901 27.3501 16.0101C27.3501 15.7301 27.5701 15.5101 27.8501 15.5101H30.5401C30.8201 15.5101 31.0401 15.7301 31.0401 16.0101C31.0401 16.2901 30.8201 16.5101 30.5401 16.5101Z" fill="#121212"/>
<path d="M29.2401 12.0601H26.8701C26.5901 12.0601 26.3701 11.8401 26.3701 11.5601C26.3701 11.2801 26.5901 11.0601 26.8701 11.0601H29.2401C29.5201 11.0601 29.7401 11.2801 29.7401 11.5601C29.7401 11.8401 29.5201 12.0601 29.2401 12.0601Z" fill="#121212"/>
<path d="M28.96 21.4601H26.46C26.18 21.4601 25.96 21.2401 25.96 20.9601C25.96 20.6801 26.18 20.4601 26.46 20.4601H28.96C29.24 20.4601 29.46 20.6801 29.46 20.9601C29.46 21.2401 29.24 21.4601 28.96 21.4601Z" fill="#121212"/>
<path d="M19.8697 27.9401C14.2097 27.9401 8.46973 26.7601 8.46973 24.4901C8.46973 23.4301 9.64973 22.5701 11.9897 21.9301C12.2597 21.8601 12.5297 22.0101 12.5997 22.2801C12.6697 22.5501 12.5197 22.8201 12.2497 22.8901C10.3297 23.4201 9.46973 24.0701 9.46973 24.4801C9.46973 25.4801 13.5197 26.9301 19.8697 26.9301C26.2197 26.9301 30.2697 25.4801 30.2697 24.4801C30.2697 24.1501 29.6897 23.5801 28.0497 23.0601C27.7897 22.9801 27.6397 22.6901 27.7297 22.4301C27.8097 22.1701 28.0897 22.0201 28.3597 22.1101C30.2897 22.7301 31.2697 23.5301 31.2697 24.4901C31.2697 26.7501 25.5397 27.9401 19.8697 27.9401Z" fill="#121212"/>
<path d="M19.8797 33.6701C14.0197 33.6701 8.46973 31.5901 8.46973 29.3901C8.46973 29.1101 8.68973 28.8901 8.96973 28.8901C9.24973 28.8901 9.46973 29.1101 9.46973 29.3901C9.46973 30.5101 13.8697 32.6701 19.8797 32.6701C25.8897 32.6701 30.2897 30.5101 30.2897 29.3901C30.2897 29.1101 30.5097 28.8901 30.7897 28.8901C31.0697 28.8901 31.2897 29.1101 31.2897 29.3901C31.2897 31.5901 25.7497 33.6701 19.8797 33.6701Z" fill="#121212"/>
<path d="M8.96973 29.9401C8.68973 29.9401 8.46973 29.7201 8.46973 29.4401V24.4401C8.46973 24.1601 8.68973 23.9401 8.96973 23.9401C9.24973 23.9401 9.46973 24.1601 9.46973 24.4401V29.4401C9.46973 29.7201 9.24973 29.9401 8.96973 29.9401Z" fill="#121212"/>
<path d="M30.7798 30.1101C30.4998 30.1101 30.2798 29.8901 30.2798 29.6101V24.6101C30.2798 24.3301 30.4998 24.1101 30.7798 24.1101C31.0598 24.1101 31.2798 24.3301 31.2798 24.6101V29.6101C31.2798 29.8901 31.0598 30.1101 30.7798 30.1101Z" fill="#121212"/>
<path d="M12.73 32.3101C12.45 32.3101 12.23 32.0901 12.23 31.8101V26.8601C12.23 26.5801 12.45 26.3601 12.73 26.3601C13.01 26.3601 13.23 26.5801 13.23 26.8601V31.8101C13.23 32.0901 13.01 32.3101 12.73 32.3101Z" fill="#121212"/>
<path d="M20.1201 33.4101C19.8401 33.4101 19.6201 33.1901 19.6201 32.9101V27.9601C19.6201 27.6801 19.8401 27.4601 20.1201 27.4601C20.4001 27.4601 20.6201 27.6801 20.6201 27.9601V32.9101C20.6201 33.1901 20.4001 33.4101 20.1201 33.4101Z" fill="#121212"/>
<path d="M27.0098 32.6401C26.7298 32.6401 26.5098 32.4201 26.5098 32.1401V27.1901C26.5098 26.9101 26.7298 26.6901 27.0098 26.6901C27.2898 26.6901 27.5098 26.9101 27.5098 27.1901V32.1401C27.5098 32.4201 27.2898 32.6401 27.0098 32.6401Z" fill="#121212"/>
<path d="M20.2999 20.02C19.9399 20.02 19.5799 19.92 19.2699 19.77C18.8299 19.48 18.5399 19.1 18.3399 18.75C18.2499 18.89 18.1499 19.02 18.0399 19.15C17.6299 19.77 16.6499 20.12 15.8499 19.89C15.1399 19.65 14.6499 18.98 14.6499 18.24V18.06C14.5099 17.99 14.3499 17.9 14.2099 17.76C13.9299 17.59 13.6899 17.2 13.6299 16.75C13.5699 16.33 13.6699 15.89 13.8999 15.55C14.1999 15.04 14.7399 14.69 15.3999 14.58C15.5399 14.56 15.6799 14.54 15.8199 14.54C15.7699 14.45 15.7299 14.35 15.6899 14.26C15.3699 13.31 15.6499 12.7 15.9299 12.34C16.3999 11.59 17.3499 11.37 18.2399 11.84C18.2699 11.84 18.2899 11.85 18.3099 11.86C18.4499 11.78 18.5899 11.72 18.7399 11.67C19.2699 11.49 19.8199 11.54 20.2499 11.79C20.6699 12.03 20.9499 12.45 21.0599 12.96C21.2199 13.43 21.1499 14 20.8299 14.59C21.0999 14.6 21.3599 14.66 21.6399 14.75C22.4999 15 23.0999 15.84 22.9899 16.63C22.8899 17.22 22.6099 17.66 22.1399 17.99C22.0999 18.04 22.0499 18.09 21.9999 18.13C21.9899 18.66 21.8499 19.06 21.5699 19.45C21.2299 19.85 20.7699 20.02 20.3099 20.02H20.2999ZM18.8199 16.99C18.8499 17.11 18.8799 17.24 18.8999 17.36C18.9199 17.46 18.9299 17.56 18.9599 17.66C19.1199 18.22 19.4099 18.67 19.7599 18.9C19.9999 19.01 20.5199 19.12 20.7699 18.83C20.9199 18.63 20.9899 18.41 20.9899 18.07C20.9899 17.71 21.0499 17.51 21.3599 17.33C21.3899 17.29 21.4399 17.25 21.4799 17.23C21.7899 17.04 21.9399 16.83 21.9999 16.49C22.0399 16.2 21.7299 15.83 21.3499 15.72C21.3499 15.72 21.3399 15.72 21.3299 15.72C20.9499 15.59 20.6299 15.58 20.1499 15.66C20.0399 15.66 19.9699 15.69 19.9299 15.7C19.6899 15.77 19.3099 15.73 19.1899 15.44C19.1099 15.25 19.1599 15.04 19.2999 14.9L19.4699 14.73C19.5399 14.66 19.6099 14.57 19.6799 14.48C19.7599 14.38 19.8399 14.28 19.9199 14.19C20.1299 13.83 20.1899 13.5 20.0999 13.23C20.0399 12.94 19.9199 12.76 19.7599 12.67C19.5699 12.56 19.3199 12.55 19.0699 12.63C18.8699 12.7 18.7799 12.75 18.6799 12.84C18.4899 13.03 18.1699 13.04 17.9699 12.84C17.9699 12.84 17.9399 12.82 17.9199 12.8C17.8899 12.79 17.8499 12.77 17.8199 12.76C17.6999 12.69 17.0799 12.38 16.7399 12.93C16.5899 13.13 16.4499 13.39 16.6199 13.92C16.7299 14.19 16.9899 14.54 17.3299 14.89L17.4099 14.97C17.5499 15.11 17.5899 15.33 17.5199 15.51C17.4399 15.7 17.2599 15.82 17.0599 15.82C16.8599 15.82 16.7399 15.77 16.6199 15.67C16.2699 15.54 15.8899 15.51 15.5499 15.56C15.2899 15.6 14.9399 15.73 14.7299 16.07C14.6199 16.23 14.5799 16.42 14.6099 16.6C14.6199 16.7 14.6699 16.88 14.8299 16.98C14.9699 17.1 15.0999 17.16 15.2099 17.21L15.3599 17.28C15.5299 17.36 15.6399 17.54 15.6399 17.73V18.23C15.6399 18.53 15.8499 18.83 16.1299 18.92C16.4999 19.03 17.0199 18.85 17.2199 18.53C17.6499 18.02 17.7999 17.58 17.7999 16.89V16.31C17.7999 16.03 18.0199 15.81 18.2999 15.81C18.5799 15.81 18.7999 16.03 18.7999 16.31V16.99H18.8199Z" fill="#121212"/>
</g>
</g>
<defs>
<clipPath id="clip0_8816_2298">
<rect width="40" height="40" fill="white"/>
</clipPath>
<clipPath id="clip1_8816_2298">
<rect width="40" height="40" fill="white"/>
</clipPath>
</defs>
</svg>
