<svg width="41" height="41" viewBox="0 0 41 41" fill="none" xmlns="http://www.w3.org/2000/svg">
<g clip-path="url(#clip0_8411_1057)">
<path d="M28.9835 22.02L30.0935 23.67L27.0435 26.27L26.5435 23.2" fill="#FFCB09"/>
<path d="M31.9735 19.62L33.3035 20.92L30.3835 24.03L30.0435 21.1" fill="#FFCB09"/>
<path d="M30.2236 17.53L31.2336 19.05L28.4136 21.44L27.9536 18.61" fill="#FFCB09"/>
<path d="M15.4034 25.79C15.4034 25.79 15.3034 25.79 15.2534 25.77L7.8734 23.44C7.7234 23.39 7.6034 23.28 7.5534 23.13C7.5034 22.98 7.5234 22.82 7.6134 22.69L16.0034 10.21C16.1234 10.04 16.3334 9.96001 16.5334 10L23.5134 11.68C23.6734 11.72 23.7934 11.83 23.8534 11.97C23.9134 12.11 23.9034 12.29 23.8134 12.42L15.8234 25.55C15.7334 25.7 15.5634 25.79 15.3934 25.79H15.4034ZM8.8134 22.68L15.1834 24.69L22.6134 12.48L16.6434 11.05L8.8134 22.69V22.68Z" fill="black"/>
<path d="M15.9335 30.05C15.8835 30.05 15.8235 30.05 15.7735 30.02L7.46348 27.24C7.24348 27.16 7.10348 26.95 7.12348 26.71L7.53348 22.89C7.55348 22.74 7.63348 22.61 7.75348 22.52C7.87348 22.44 8.03348 22.42 8.17348 22.46L15.5535 24.79C15.7435 24.85 15.8735 25.01 15.9035 25.21L16.4235 29.47C16.4435 29.64 16.3735 29.81 16.2435 29.92C16.1535 29.99 16.0435 30.03 15.9235 30.03L15.9335 30.05ZM8.16348 26.43L15.3435 28.83L14.9535 25.67L8.46348 23.62L8.16348 26.43Z" fill="black"/>
<path d="M24.9135 23.53C24.9135 23.53 24.8335 23.53 24.7935 23.52L21.0535 22.62C20.7835 22.56 20.6235 22.29 20.6835 22.02C20.7435 21.75 21.0135 21.58 21.2835 21.65L24.8135 22.5L26.5935 21.35L22.6735 19.67C22.4235 19.56 22.3035 19.27 22.4135 19.01C22.5235 18.76 22.8135 18.64 23.0735 18.75L27.8535 20.8C28.0235 20.87 28.1435 21.03 28.1535 21.22C28.1735 21.4 28.0835 21.58 27.9235 21.68L25.1835 23.46C25.1035 23.51 25.0035 23.54 24.9135 23.54V23.53Z" fill="black"/>
<path d="M28.2635 21.82C28.2035 21.82 28.1435 21.81 28.0835 21.79L22.6835 19.67C22.4235 19.57 22.3035 19.28 22.4035 19.02C22.5035 18.76 22.7935 18.64 23.0535 18.74L27.6135 20.53L27.0535 17.5L24.3235 16.99C24.0535 16.94 23.8735 16.68 23.9235 16.41C23.9735 16.14 24.2435 15.96 24.5035 16.01L27.5735 16.58C27.7735 16.62 27.9335 16.78 27.9735 16.98L28.7635 21.23C28.7935 21.41 28.7335 21.59 28.5935 21.71C28.5035 21.79 28.3935 21.82 28.2735 21.82H28.2635Z" fill="black"/>
<path d="M27.4734 17.56C27.4734 17.56 27.4134 17.56 27.3834 17.56L24.3134 16.99C24.0434 16.94 23.8634 16.68 23.9134 16.41C23.9634 16.14 24.2334 15.96 24.4934 16.01L27.4034 16.55L29.7934 15.44L25.9434 14.25C25.6834 14.17 25.5334 13.89 25.6134 13.63C25.6934 13.37 25.9734 13.22 26.2334 13.3L31.3334 14.87C31.5334 14.93 31.6734 15.11 31.6834 15.31C31.6934 15.52 31.5834 15.71 31.3934 15.8L27.6734 17.52C27.6034 17.55 27.5334 17.57 27.4634 17.57L27.4734 17.56Z" fill="black"/>
<path d="M25.4434 27.85C25.2834 27.85 25.1234 27.77 25.0234 27.63C24.8734 27.4 24.9334 27.09 25.1634 26.94L29.8934 23.77L28.1234 21.73L25.1634 23.45C24.9234 23.59 24.6234 23.51 24.4834 23.27C24.3434 23.03 24.4234 22.73 24.6634 22.59L27.9834 20.66C28.1934 20.54 28.4534 20.58 28.6134 20.76L31.0234 23.54C31.1134 23.65 31.1634 23.79 31.1434 23.93C31.1234 24.07 31.0434 24.2 30.9234 24.28L25.7234 27.76C25.6334 27.82 25.5434 27.84 25.4434 27.84V27.85Z" fill="black"/>
<path d="M12.9336 23.42L19.6336 11.69L23.4036 12.68L16.0236 24.95L12.9436 23.41L12.9336 23.42Z" fill="#FFCB09"/>
<path d="M30.6335 24.37C30.5735 24.37 30.5135 24.37 30.4635 24.34C30.3035 24.28 30.1835 24.14 30.1435 23.97L29.4235 20.44C29.3735 20.17 29.5435 19.91 29.8135 19.85C30.0735 19.8 30.3435 19.97 30.4035 20.24L30.9635 22.98L33.8535 20.71L32.5735 17.91C32.4635 17.66 32.5735 17.36 32.8235 17.25C33.0735 17.14 33.3735 17.25 33.4835 17.5L34.9335 20.66C35.0335 20.87 34.9735 21.12 34.7935 21.26L30.9535 24.28C30.8635 24.35 30.7535 24.39 30.6435 24.39L30.6335 24.37Z" fill="black"/>
<path d="M15.9336 30.05C15.9336 30.05 15.8636 30.05 15.8236 30.04C15.6136 29.99 15.4636 29.82 15.4436 29.61L14.9236 25.35C14.9136 25.24 14.9336 25.13 14.9936 25.03L22.9836 11.9C23.1236 11.67 23.4336 11.59 23.6636 11.73L26.3636 13.35C26.4836 13.42 26.5636 13.53 26.5936 13.67C26.6236 13.8 26.5936 13.94 26.5236 14.05L16.3536 29.83C16.2636 29.98 16.1036 30.06 15.9336 30.06V30.05ZM15.9336 25.4L16.2636 28.12L25.4036 13.94L23.5736 12.84L15.9336 25.4Z" fill="black"/>
<path d="M25.1836 27.85C25.1836 27.85 25.0936 27.85 25.0436 27.83L18.8236 26.01C18.5636 25.93 18.4036 25.66 18.4836 25.39C18.5636 25.13 18.8336 24.97 19.1036 25.05L24.6436 26.67L24.4336 23.42L21.0536 22.61C20.7836 22.55 20.6236 22.28 20.6836 22.01C20.7436 21.74 21.0136 21.57 21.2836 21.64L25.0236 22.54C25.2336 22.59 25.3936 22.78 25.4036 22.99L25.6836 27.32C25.6936 27.48 25.6236 27.64 25.4936 27.74C25.4036 27.81 25.2936 27.85 25.1836 27.85Z" fill="black"/>
<path d="M28.2635 21.82C28.2035 21.82 28.1435 21.81 28.0835 21.79C27.9235 21.73 27.8035 21.58 27.7735 21.41L26.9835 17.16C26.9435 16.94 27.0535 16.71 27.2635 16.62L30.9835 14.9C31.1935 14.8 31.4435 14.86 31.5835 15.05L33.4135 17.4C33.4935 17.51 33.5335 17.64 33.5135 17.77C33.4935 17.9 33.4235 18.02 33.3235 18.1L28.5635 21.72C28.4735 21.79 28.3635 21.82 28.2635 21.82ZM28.0335 17.36L28.6035 20.43L32.3135 17.6L31.0335 15.96L28.0235 17.35L28.0335 17.36Z" fill="black"/>
</g>
<defs>
<clipPath id="clip0_8411_1057">
<rect width="40" height="40" fill="white" transform="translate(0.333496 0.5)"/>
</clipPath>
</defs>
</svg>
