<svg width="32" height="32" viewBox="0 0 32 32" fill="none" xmlns="http://www.w3.org/2000/svg">
<g clip-path="url(#clip0_9485_6784)">
<g clip-path="url(#clip1_9485_6784)">
<path d="M16.0019 29.8299C8.37187 29.8299 2.17188 23.6199 2.17188 15.9999C2.17188 8.37992 8.37187 2.16992 16.0019 2.16992C23.6319 2.16992 29.8319 8.37992 29.8319 15.9999C29.8319 23.6199 23.6219 29.8299 16.0019 29.8299Z" fill="black"/>
<path d="M20.7283 10.8303C20.6583 10.8303 20.5783 10.8403 20.5083 10.8703L9.04829 14.7303C8.61829 14.8703 8.58829 15.2603 8.58829 15.3703C8.58829 15.4803 8.61829 15.8703 9.03829 16.0203L14.9583 16.8603C15.1783 16.8903 15.3483 17.0603 15.3783 17.2803L16.2483 23.3003C16.3683 23.6203 16.7483 23.6603 16.8683 23.6603C17.0983 23.6603 17.3983 23.5303 17.5083 23.1903L21.3683 11.7303C21.4483 11.4803 21.3883 11.2203 21.1983 11.0303C21.0683 10.9003 20.8983 10.8303 20.7183 10.8303H20.7283Z" fill="#FFCB09"/>
</g>
</g>
<defs>
<clipPath id="clip0_9485_6784">
<rect width="32" height="32" fill="white"/>
</clipPath>
<clipPath id="clip1_9485_6784">
<rect width="32" height="32" fill="white"/>
</clipPath>
</defs>
</svg>
