<svg width="33" height="32" viewBox="0 0 33 32" fill="none" xmlns="http://www.w3.org/2000/svg">
<g clip-path="url(#clip0_3130_17948)">
<g clip-path="url(#clip1_3130_17948)">
<path d="M14.1042 10.912C12.6642 9.14401 10.0802 9.41601 9.54417 11.4C8.87217 13.872 9.48817 16.808 11.4082 19.16C13.3282 21.512 16.0882 22.704 18.6402 22.536C20.6962 22.408 21.4722 19.928 20.0322 18.168L14.1042 10.904V10.912Z" fill="#FFCB09"/>
<path d="M18.6561 22.88C18.3041 22.88 17.9521 22.864 17.5921 22.824C14.8401 22.544 12.3601 21.216 10.6161 19.072C8.86409 16.928 8.05609 14.232 8.33609 11.48C8.61609 8.72798 9.94409 6.24799 12.0881 4.50398C12.2561 4.36798 12.5121 4.39198 12.6481 4.55998L25.2321 19.984C25.2961 20.064 25.3281 20.168 25.3201 20.28C25.3121 20.384 25.2561 20.48 25.1761 20.552C23.3121 22.072 21.0241 22.888 18.6481 22.888L18.6561 22.88ZM12.2881 5.38398C10.4881 6.97598 9.36809 9.15998 9.12809 11.56C8.87209 14.096 9.61609 16.584 11.2321 18.56C12.8481 20.536 15.1361 21.768 17.6721 22.024C20.0801 22.264 22.4401 21.608 24.3601 20.168L12.2881 5.38398Z" fill="#121212"/>
<path d="M20.0242 27.6079H9.91221C9.68821 27.6079 9.51221 27.4319 9.51221 27.2079V17.3199C9.51221 17.0959 9.68821 16.9119 9.91221 16.9119C10.1362 16.9119 10.3122 17.0879 10.3122 17.3039V26.7999H19.0482L13.7842 21.6399C13.6242 21.4879 13.6242 21.2319 13.7842 21.0719C13.9362 20.9119 14.1922 20.9119 14.3522 21.0719L20.3202 26.9199C20.4402 27.0319 20.4722 27.2079 20.4082 27.3599C20.3442 27.5119 20.2002 27.6079 20.0402 27.6079H20.0242Z" fill="#121212"/>
<path d="M18.7362 13.048C18.6242 13.048 18.5122 13 18.4322 12.912C18.2882 12.744 18.3042 12.496 18.4722 12.344L21.8082 9.43998C21.9762 9.29598 22.2242 9.31198 22.3762 9.47998C22.5202 9.64798 22.5042 9.89598 22.3362 10.048L19.0002 12.952C18.9282 13.016 18.8322 13.048 18.7362 13.048Z" fill="#121212"/>
<path d="M21.4882 16.4079C21.4882 16.4079 21.4642 16.4079 21.4482 16.4079C21.2322 16.3839 21.0642 16.1919 21.0882 15.9759L21.6722 9.70393C21.6962 9.47993 21.8802 9.31993 22.1042 9.34393C22.3202 9.36793 22.4882 9.55993 22.4642 9.77593L21.8802 16.0479C21.8642 16.2559 21.6882 16.4079 21.4802 16.4079H21.4882Z" fill="#121212"/>
<path d="M22.0722 10.144C22.0722 10.144 22.0562 10.144 22.0482 10.144L16.0802 9.82397C15.8562 9.80797 15.6882 9.62397 15.7042 9.39997C15.7122 9.17597 15.9042 9.01597 16.1282 9.02397L22.0962 9.34397C22.3202 9.35997 22.4882 9.54397 22.4722 9.76797C22.4642 9.98397 22.2882 10.144 22.0722 10.144Z" fill="#121212"/>
</g>
</g>
<defs>
<clipPath id="clip0_3130_17948">
<rect width="32" height="32" fill="white" transform="translate(0.800049)"/>
</clipPath>
<clipPath id="clip1_3130_17948">
<rect width="32" height="32" fill="white" transform="translate(0.800049)"/>
</clipPath>
</defs>
</svg>
