<svg width="32" height="32" viewBox="0 0 32 32" fill="none" xmlns="http://www.w3.org/2000/svg">
<g clip-path="url(#clip0_8899_28584)">
<path d="M18.9279 26.4319H12.8399C7.51194 26.4319 5.33594 24.2559 5.33594 18.9279V12.8399C5.33594 7.51194 7.51194 5.33594 12.8399 5.33594H17.9119C18.1359 5.33594 18.3119 5.51194 18.3119 5.73594C18.3119 5.95994 18.1359 6.13594 17.9119 6.13594H12.8399C8.01594 6.13594 6.13594 8.01594 6.13594 12.8399V18.9279C6.13594 23.7519 8.01594 25.6319 12.8399 25.6319H18.9279C23.7519 25.6319 25.6319 23.7519 25.6319 18.9279V13.8559C25.6319 13.6319 25.8079 13.4559 26.0319 13.4559C26.2559 13.4559 26.4319 13.6319 26.4319 13.8559V18.9279C26.4319 24.1839 24.1919 26.4319 18.9279 26.4319Z" fill="#121212"/>
<path d="M26.0315 14.2543H21.9755C18.7275 14.2543 17.5195 13.0463 17.5195 9.79829V5.74229C17.5195 5.58229 17.6155 5.43829 17.7675 5.37429C17.9195 5.31029 18.0875 5.35029 18.1995 5.46229L26.3115 13.5743C26.4235 13.6863 26.4635 13.8623 26.3995 14.0063C26.3355 14.1503 26.1915 14.2543 26.0315 14.2543ZM18.3195 6.70229V9.79029C18.3195 12.6303 19.1435 13.4463 21.9755 13.4463H25.0635L18.3115 6.69429L18.3195 6.70229Z" fill="#121212"/>
<path d="M20.5698 17.3039H10.8258C10.6018 17.3039 10.4258 17.1279 10.4258 16.9039C10.4258 16.6799 10.6018 16.5039 10.8258 16.5039H20.5698C20.7938 16.5039 20.9698 16.6799 20.9698 16.9039C20.9698 17.1279 20.7938 17.3039 20.5698 17.3039Z" fill="#121212"/>
<path d="M17.2061 21.3586H10.8141C10.5901 21.3586 10.4141 21.1826 10.4141 20.9586C10.4141 20.7346 10.5901 20.5586 10.8141 20.5586H17.2061C17.4301 20.5586 17.6061 20.7346 17.6061 20.9586C17.6061 21.1826 17.4301 21.3586 17.2061 21.3586Z" fill="#121212"/>
</g>
<defs>
<clipPath id="clip0_8899_28584">
<rect width="32" height="32" fill="white"/>
</clipPath>
</defs>
</svg>
