<svg width="24" height="24" viewBox="0 0 24 24" fill="none" xmlns="http://www.w3.org/2000/svg">
<g clip-path="url(#clip0_8701_2019)">
<path d="M18.342 9.74404V14.256C18.342 15.846 17.52 16.908 15.606 16.908H11.226C9.31199 16.908 8.48999 15.846 8.48999 14.256V9.74404C8.48999 8.15404 9.31199 7.09204 11.226 7.09204H15.606C17.52 7.09204 18.342 8.15404 18.342 9.74404Z" fill="#FFCB09"/>
<path d="M14.196 19.824H9.62995C5.63395 19.824 4.00195 18.192 4.00195 14.196V9.62995C4.00195 5.63395 5.63395 4.00195 9.62995 4.00195H13.434C13.602 4.00195 13.734 4.13395 13.734 4.30195C13.734 4.46995 13.602 4.60195 13.434 4.60195H9.62995C6.01195 4.60195 4.60195 6.01195 4.60195 9.62995V14.196C4.60195 17.814 6.01195 19.224 9.62995 19.224H14.196C17.814 19.224 19.224 17.814 19.224 14.196V10.392C19.224 10.224 19.356 10.092 19.524 10.092C19.692 10.092 19.824 10.224 19.824 10.392V14.196C19.824 18.138 18.144 19.824 14.196 19.824Z" fill="#121212"/>
<path d="M19.5239 10.6919H16.4819C14.0459 10.6919 13.1399 9.78594 13.1399 7.34994V4.30794C13.1399 4.18794 13.2119 4.07994 13.3259 4.03194C13.4399 3.98394 13.5659 4.01394 13.6499 4.09794L19.7339 10.1819C19.8179 10.2659 19.8479 10.3979 19.7999 10.5059C19.7519 10.6139 19.6439 10.6919 19.5239 10.6919ZM13.7399 5.02794V7.34394C13.7399 9.47394 14.3579 10.0859 16.4819 10.0859H18.7979L13.7339 5.02194L13.7399 5.02794Z" fill="#121212"/>
<path d="M15.4259 12.9779H8.11787C7.94987 12.9779 7.81787 12.8459 7.81787 12.6779C7.81787 12.5099 7.94987 12.3779 8.11787 12.3779H15.4259C15.5939 12.3779 15.7259 12.5099 15.7259 12.6779C15.7259 12.8459 15.5939 12.9779 15.4259 12.9779Z" fill="#121212"/>
<path d="M12.906 16.0199H8.11201C7.94401 16.0199 7.81201 15.8879 7.81201 15.7199C7.81201 15.5519 7.94401 15.4199 8.11201 15.4199H12.906C13.074 15.4199 13.206 15.5519 13.206 15.7199C13.206 15.8879 13.074 16.0199 12.906 16.0199Z" fill="#121212"/>
</g>
<defs>
<clipPath id="clip0_8701_2019">
<rect width="24" height="24" fill="white"/>
</clipPath>
</defs>
</svg>
