<svg width="24" height="24" viewBox="0 0 24 24" fill="none" xmlns="http://www.w3.org/2000/svg">
<g clip-path="url(#clip0_7609_29541)">
<path d="M2.50156 13.6109C2.83156 13.6109 3.10156 13.8809 3.10156 14.2109V17.4309C3.10156 18.6209 4.08156 19.5909 5.29156 19.5909H18.7116C19.9216 19.5909 20.9016 18.6209 20.9016 17.4309V14.2109C20.9016 13.8809 21.1716 13.6109 21.5016 13.6109C21.8316 13.6109 22.1016 13.8809 22.1016 14.2109V17.4309C22.1016 19.2809 20.5816 20.7909 18.7116 20.7909H5.29156C3.42156 20.7909 1.90156 19.2809 1.90156 17.4309V14.2109C1.90156 13.8809 2.17156 13.6109 2.50156 13.6109ZM12.4216 15.9109C12.3016 16.0309 12.1516 16.0909 12.0016 16.0909C11.8516 16.0909 11.6916 16.0309 11.5816 15.9109L9.02156 13.3509C8.79156 13.1209 8.79156 12.7409 9.02156 12.5009C9.25156 12.2709 9.63156 12.2709 9.87156 12.5009L11.4116 14.0409V3.81094C11.4116 3.48094 11.6816 3.21094 12.0116 3.21094C12.3416 3.21094 12.6116 3.48094 12.6116 3.81094V14.0409L14.1516 12.5009C14.3816 12.2709 14.7616 12.2709 15.0016 12.5009C15.2316 12.7309 15.2316 13.1109 15.0016 13.3509L12.4416 15.9109H12.4216Z" fill="#121212"/>
</g>
<defs>
<clipPath id="clip0_7609_29541">
<rect width="24" height="24" fill="white" transform="matrix(-1 0 0 1 24 0)"/>
</clipPath>
</defs>
</svg>
