<svg width="32" height="32" viewBox="0 0 32 32" fill="none" xmlns="http://www.w3.org/2000/svg">
<g clip-path="url(#clip0_10331_23425)">
<path d="M24.4563 12.9921V19.0081C24.4563 21.1281 23.3603 22.5441 20.8083 22.5441H14.9683C12.4163 22.5441 11.3203 21.1281 11.3203 19.0081V12.9921C11.3203 10.8721 12.4163 9.45605 14.9683 9.45605H20.8083C23.3603 9.45605 24.4563 10.8721 24.4563 12.9921Z" fill="#FFCB09"/>
<path d="M18.9279 26.4319H12.8399C7.51194 26.4319 5.33594 24.2559 5.33594 18.9279V12.8399C5.33594 7.51194 7.51194 5.33594 12.8399 5.33594H17.9119C18.1359 5.33594 18.3119 5.51194 18.3119 5.73594C18.3119 5.95994 18.1359 6.13594 17.9119 6.13594H12.8399C8.01594 6.13594 6.13594 8.01594 6.13594 12.8399V18.9279C6.13594 23.7519 8.01594 25.6319 12.8399 25.6319H18.9279C23.7519 25.6319 25.6319 23.7519 25.6319 18.9279V13.8559C25.6319 13.6319 25.8079 13.4559 26.0319 13.4559C26.2559 13.4559 26.4319 13.6319 26.4319 13.8559V18.9279C26.4319 24.1839 24.1919 26.4319 18.9279 26.4319Z" fill="#121212"/>
<path d="M26.0315 14.2558H21.9755C18.7275 14.2558 17.5195 13.0478 17.5195 9.79976V5.74376C17.5195 5.58376 17.6155 5.43976 17.7675 5.37576C17.9195 5.31176 18.0875 5.35176 18.1995 5.46376L26.3115 13.5758C26.4235 13.6878 26.4635 13.8638 26.3995 14.0078C26.3355 14.1518 26.1915 14.2558 26.0315 14.2558ZM18.3195 6.70376V9.79176C18.3195 12.6318 19.1435 13.4478 21.9755 13.4478H25.0635L18.3115 6.69576L18.3195 6.70376Z" fill="#121212"/>
<path d="M20.5678 17.3039H10.8238C10.5998 17.3039 10.4238 17.1279 10.4238 16.9039C10.4238 16.6799 10.5998 16.5039 10.8238 16.5039H20.5678C20.7918 16.5039 20.9678 16.6799 20.9678 16.9039C20.9678 17.1279 20.7918 17.3039 20.5678 17.3039Z" fill="#121212"/>
<path d="M17.208 21.3601H10.816C10.592 21.3601 10.416 21.1841 10.416 20.9601C10.416 20.7361 10.592 20.5601 10.816 20.5601H17.208C17.432 20.5601 17.608 20.7361 17.608 20.9601C17.608 21.1841 17.432 21.3601 17.208 21.3601Z" fill="#121212"/>
</g>
<defs>
<clipPath id="clip0_10331_23425">
<rect width="32" height="32" fill="white"/>
</clipPath>
</defs>
</svg>
