<svg width="32" height="32" viewBox="0 0 32 32" fill="none" xmlns="http://www.w3.org/2000/svg">
<g clip-path="url(#clip0_7983_19190)">
<path d="M15.5336 12.6669C15.2394 12.2702 14.8408 11.9631 14.3822 11.7796C13.9236 11.5962 13.4231 11.5437 12.9364 11.628C12.4498 11.7124 11.9961 11.9302 11.626 12.2572C11.2559 12.5843 10.9839 13.0077 10.8403 13.4803C10.4025 14.7526 10.2967 16.1156 10.5329 17.4402C10.769 18.7649 11.3393 20.0073 12.1897 21.05C13.0402 22.0927 14.1426 22.9011 15.3927 23.3987C16.6428 23.8963 17.9993 24.0666 19.3336 23.8936C19.8153 23.8281 20.2709 23.6353 20.6532 23.3352C21.0356 23.035 21.331 22.6382 21.509 22.1858C21.687 21.7334 21.7411 21.2418 21.6657 20.7615C21.5903 20.2812 21.3883 19.8298 21.0803 19.4536L15.5336 12.6669Z" fill="#FFCB09"/>
<path d="M10.6667 2.66663C8.2302 4.65752 6.68442 7.53475 6.36936 10.6654C6.05429 13.796 6.99577 16.9235 8.98666 19.36C10.9775 21.7964 13.8548 23.3422 16.9854 23.6573C20.116 23.9723 23.2435 23.0308 25.68 21.04L10.6667 2.66663Z" stroke="#121212" stroke-linecap="round" stroke-linejoin="round"/>
<path d="M12.7333 22.3867L19.84 29.3467H7.79999V17.5734V17.5601" stroke="#121212" stroke-linecap="round" stroke-linejoin="round"/>
<path d="M22.2667 9.57335C22.8337 9.57335 23.2933 9.1137 23.2933 8.54669C23.2933 7.97967 22.8337 7.52002 22.2667 7.52002C21.6996 7.52002 21.24 7.97967 21.24 8.54669C21.24 9.1137 21.6996 9.57335 22.2667 9.57335Z" stroke="#121212" stroke-linecap="round" stroke-linejoin="round"/>
<path d="M18.3066 12L22.2666 8.54663" stroke="#121212" stroke-linecap="round" stroke-linejoin="round"/>
<path d="M21.5734 16.0133L22.2667 8.54663" stroke="#121212" stroke-linecap="round" stroke-linejoin="round"/>
<path d="M15.1729 8.16003L22.2662 8.5467" stroke="#121212" stroke-linecap="round" stroke-linejoin="round"/>
</g>
<defs>
<clipPath id="clip0_7983_19190">
<rect width="32" height="32" fill="white"/>
</clipPath>
</defs>
</svg>
