<svg width="24" height="24" viewBox="0 0 24 24" fill="none" xmlns="http://www.w3.org/2000/svg">
<g clip-path="url(#clip0_7983_16405)">
<path d="M13.9356 19.8419H16.6179C18.8584 19.8419 19.7484 18.9083 19.7484 16.5683V13.7615C19.7484 11.4214 18.8522 10.4879 16.6179 10.4879H13.9356C11.6951 10.4879 10.8052 11.4214 10.8052 13.7615V16.5683C10.8052 18.9083 11.7014 19.8419 13.9356 19.8419Z" fill="#FFCB09"/>
<path d="M14.2969 20.4019H9.50475C5.3101 20.4019 3.59863 18.6905 3.59863 14.4958V9.70372C3.59863 5.50907 5.3101 3.79761 9.50475 3.79761H11.1042C11.2784 3.79761 11.4154 3.93452 11.4154 4.10878C11.4154 4.28304 11.2784 4.41996 11.1042 4.41996H9.50475C5.70218 4.41996 4.22098 5.90116 4.22098 9.70372V14.4958C4.22098 18.2984 5.70218 19.7796 9.50475 19.7796H14.2969C18.0994 19.7796 19.5806 18.2984 19.5806 14.4958V12.8964C19.5806 12.7221 19.7175 12.5852 19.8918 12.5852C20.0661 12.5852 20.203 12.7221 20.203 12.8964V14.4958C20.203 18.6905 18.4915 20.4019 14.2969 20.4019Z" fill="black"/>
<path d="M9.09398 16.3628C8.68323 16.3628 8.31604 16.2197 8.04843 15.9521C7.71858 15.6223 7.58167 15.1555 7.65635 14.6389L7.99864 12.2304C8.05465 11.8321 8.32849 11.2907 8.61477 11.0044L14.913 4.70621C16.3879 3.23123 17.8193 3.23123 19.3005 4.70621C20.7755 6.18118 20.7755 7.61259 19.3005 9.09378L13.0023 15.392C12.7161 15.6783 12.1746 15.9521 11.7763 16.0081L9.36781 16.3504C9.27446 16.3628 9.18733 16.3691 9.1002 16.3691L9.09398 16.3628ZM17.1036 4.22077C16.5373 4.22077 15.9647 4.52572 15.3486 5.14185L9.05664 11.44C8.86371 11.633 8.65833 12.0437 8.62099 12.3176L8.2787 14.7261C8.23513 15.0497 8.30982 15.3297 8.49652 15.5102C8.68323 15.6969 8.96329 15.7716 9.28068 15.7281L11.6892 15.3858C11.963 15.3484 12.3675 15.143 12.5667 14.9501L18.8649 8.65191C20.0909 7.42588 20.0909 6.37411 18.8649 5.14807C18.2488 4.53195 17.6824 4.22699 17.1099 4.22699L17.1036 4.22077Z" fill="black"/>
<path d="M18.1743 10.0832C18.1743 10.0832 18.1183 10.0832 18.0872 10.0708C16.0832 9.50445 14.49 7.91124 13.9299 5.91349C13.8863 5.74545 13.9796 5.57742 14.1477 5.52763C14.3157 5.48406 14.4837 5.57742 14.5335 5.74545C15.0376 7.53782 16.469 8.96923 18.2614 9.47334C18.4295 9.52313 18.5228 9.69116 18.4792 9.8592C18.4419 9.99611 18.3174 10.0832 18.1805 10.0832H18.1743Z" fill="black"/>
</g>
<defs>
<clipPath id="clip0_7983_16405">
<rect width="24" height="24" fill="white"/>
</clipPath>
</defs>
</svg>
