<svg width="32" height="32" viewBox="0 0 32 32" fill="none" xmlns="http://www.w3.org/2000/svg">
<g clip-path="url(#clip0_7983_19202)">
<path d="M24.3733 18.04C24.3733 19.4165 23.9651 20.7622 23.2004 21.9067C22.4356 23.0513 21.3486 23.9434 20.0768 24.4702C18.805 24.9969 17.4056 25.1348 16.0555 24.8662C14.7054 24.5977 13.4653 23.9348 12.4919 22.9614C11.5185 21.988 10.8556 20.7479 10.5871 19.3978C10.3185 18.0477 10.4564 16.6483 10.9831 15.3765C11.5099 14.1047 12.402 13.0177 13.5466 12.2529C14.6911 11.4882 16.0368 11.08 17.4133 11.08C19.2592 11.08 21.0296 11.8132 22.3348 13.1185C23.6401 14.4237 24.3733 16.194 24.3733 18.04Z" fill="#FFCB09"/>
<path d="M16 10.52L14.5733 13C14.2533 13.5467 14.5733 14 15.1467 14H16.8533C17.48 14 17.7467 14.4534 17.4267 15L16 17.48" stroke="#121212" stroke-linecap="round" stroke-linejoin="round"/>
<path d="M11.0671 24.0003V22.5069C9.43444 21.5371 8.06885 20.1762 7.09353 18.5467C6.11822 16.9173 5.56386 15.0708 5.48047 13.1736C5.4859 11.5899 5.8479 10.0278 6.53962 8.60319C7.23134 7.17856 8.23501 5.928 9.47614 4.94432C10.7173 3.96063 12.164 3.26909 13.7089 2.921C15.2539 2.57291 16.8574 2.57722 18.4005 2.93361C19.9021 3.25735 21.3123 3.91264 22.5281 4.85156C23.7438 5.79048 24.7343 6.98928 25.4271 8.36027C28.2138 13.9603 25.2805 19.9069 20.9738 22.5069V24.0003C20.9738 24.3869 21.1205 25.3336 19.6405 25.3336H12.3471C10.8805 25.3336 11.0671 24.7603 11.0671 24.0003Z" stroke="#121212" stroke-linecap="round" stroke-linejoin="round"/>
<path d="M11.333 29.3334C14.3838 28.4668 17.6156 28.4668 20.6663 29.3334" stroke="#121212" stroke-linecap="round" stroke-linejoin="round"/>
</g>
<defs>
<clipPath id="clip0_7983_19202">
<rect width="32" height="32" fill="white"/>
</clipPath>
</defs>
</svg>
