<svg width="40" height="40" viewBox="0 0 40 40" fill="none" xmlns="http://www.w3.org/2000/svg">
<g clip-path="url(#clip0_9623_27974)">
<g clip-path="url(#clip1_9623_27974)">
<path d="M27.7371 13.6126C27.7371 16.4626 25.4246 18.7751 22.5746 18.7751C19.7246 18.7751 17.4121 16.4626 17.4121 13.6126C17.4121 10.7626 19.7246 8.45007 22.5746 8.45007C25.4246 8.45007 27.7371 10.7626 27.7371 13.6126Z" fill="#FFCB09"/>
<path d="M10.4121 37.3375C10.2496 37.3375 10.0871 37.275 9.97461 37.15L2.84961 30.025C2.59961 29.775 2.59961 29.3875 2.84961 29.1375L9.96211 22.025C9.96211 22.025 9.98711 22 9.99961 21.9875C11.0496 21.1 12.5621 20.6 14.1746 20.6C15.6621 20.6 17.0621 21.025 18.1121 21.8125C18.8121 22.325 19.5871 22.6 20.3496 22.6H23.7996C25.0871 22.6 26.1371 23.65 26.1371 24.9375V25.1C26.1371 26.3875 25.0871 27.4375 23.7996 27.4375H19.5996C19.1746 27.4375 18.8371 27.775 18.8371 28.2C18.8371 28.625 19.1746 28.9625 19.5996 28.9625H26.2996L33.6121 23.4875C34.1746 23.0625 34.8621 22.9 35.5496 23.025C36.2371 23.1375 36.8246 23.525 37.2121 24.1125C37.3746 24.3625 37.3371 24.7 37.1246 24.9125L28.1496 33.3875C27.2371 34.25 26.0496 34.725 24.7871 34.725H14.3871C13.6746 34.725 13.0121 35 12.5121 35.5L10.8621 37.15C10.7371 37.275 10.5746 37.3375 10.4246 37.3375H10.4121ZM4.17461 29.5875L10.4121 35.825L11.6246 34.6125C12.3621 33.875 13.3371 33.475 14.3871 33.475H24.7996C25.7371 33.475 26.6246 33.125 27.2996 32.475L35.8121 24.4375C35.6746 24.35 35.5121 24.2875 35.3371 24.2625C34.9871 24.2 34.6496 24.2875 34.3621 24.5L26.8871 30.1C26.7746 30.175 26.6496 30.225 26.5121 30.225H19.5996C18.4871 30.225 17.5871 29.325 17.5871 28.2125C17.5871 27.1 18.4871 26.2 19.5996 26.2H23.7996C24.3996 26.2 24.8871 25.7125 24.8871 25.1125V24.95C24.8871 24.35 24.3996 23.8625 23.7996 23.8625H20.3496C19.3121 23.8625 18.2871 23.5 17.3621 22.825C16.5371 22.2125 15.3621 21.8625 14.1621 21.8625C12.8621 21.8625 11.6371 22.25 10.8246 22.9375L4.16211 29.6L4.17461 29.5875Z" fill="black"/>
<path d="M22.7234 8.86255H18.0859C17.7359 8.86255 17.4609 8.58755 17.4609 8.23755C17.4609 7.88755 17.7359 7.61255 18.0859 7.61255H22.7234C23.0734 7.61255 23.3484 7.88755 23.3484 8.23755C23.3484 8.58755 23.0734 8.86255 22.7234 8.86255Z" fill="black"/>
<path d="M22.7242 11.3876H17.2617C16.9117 11.3876 16.6367 11.1126 16.6367 10.7626C16.6367 10.4126 16.9117 10.1376 17.2617 10.1376H22.7242C23.0742 10.1376 23.3492 10.4126 23.3492 10.7626C23.3492 11.1126 23.0742 11.3876 22.7242 11.3876Z" fill="black"/>
<path d="M20.9362 17.1375C20.7862 17.1375 20.6362 17.0875 20.5237 16.9875L16.8737 13.775C16.6112 13.55 16.5862 13.15 16.8237 12.8875C17.0487 12.625 17.4487 12.6 17.7112 12.8375L21.3612 16.05C21.6237 16.275 21.6487 16.675 21.4112 16.9375C21.2862 17.075 21.1112 17.15 20.9362 17.15V17.1375Z" fill="black"/>
<path d="M18.0996 13.9125H17.2871C16.9371 13.9125 16.6621 13.6375 16.6621 13.2875C16.6621 12.9375 16.9371 12.6625 17.2871 12.6625H18.0996C18.9496 12.6625 19.6496 11.8125 19.6496 10.7625C19.6496 9.71255 18.9496 8.86255 18.0996 8.86255H17.2871C16.9371 8.86255 16.6621 8.58755 16.6621 8.23755C16.6621 7.88755 16.9371 7.61255 17.2871 7.61255H18.0996C19.6496 7.61255 20.8996 9.02505 20.8996 10.7625C20.8996 12.5 19.6371 13.9125 18.0996 13.9125Z" fill="black"/>
<path d="M21.7239 4.50002C21.5364 4.50002 21.3614 4.42502 21.2364 4.26252L19.5114 2.11252C19.2989 1.83752 19.3364 1.45002 19.6114 1.23752C19.8864 1.02502 20.2739 1.06252 20.4864 1.33752L22.2114 3.48752C22.4239 3.76252 22.3864 4.15002 22.1114 4.36252C21.9989 4.45002 21.8614 4.50002 21.7239 4.50002Z" fill="black"/>
<path d="M19.9988 19.8125C15.3738 19.8125 11.6113 16.05 11.6113 11.425C11.6113 6.79998 15.3738 3.03748 19.9988 3.03748C20.5988 3.03748 21.2113 3.11248 21.8738 3.26248C22.2113 3.33748 22.4238 3.67498 22.3363 4.01248C22.2613 4.34998 21.9238 4.56248 21.5863 4.47498C21.0238 4.34998 20.5113 4.28748 19.9988 4.28748C16.0613 4.28748 12.8613 7.48748 12.8613 11.425C12.8613 15.3625 16.0613 18.5625 19.9988 18.5625C23.9363 18.5625 27.1363 15.3625 27.1363 11.425C27.1363 9.89998 26.6363 8.42498 25.6863 7.16248C25.4738 6.88748 25.5363 6.49998 25.8113 6.28748C26.0863 6.08748 26.4863 6.13748 26.6863 6.41248C27.7988 7.88748 28.3863 9.62498 28.3863 11.425C28.3863 16.05 24.6238 19.8125 19.9988 19.8125Z" fill="black"/>
<path d="M19.5878 6.23757C19.4003 6.23757 19.2253 6.16257 19.1003 6.00007C18.8878 5.73757 18.9253 5.33757 19.1878 5.12507L21.3378 3.38757C21.6003 3.17507 22.0003 3.21257 22.2128 3.47507C22.4253 3.73757 22.3878 4.13757 22.1253 4.35007L19.9753 6.08757C19.8628 6.18757 19.7253 6.22507 19.5878 6.22507V6.23757Z" fill="black"/>
</g>
</g>
<defs>
<clipPath id="clip0_9623_27974">
<rect width="40" height="40" fill="white"/>
</clipPath>
<clipPath id="clip1_9623_27974">
<rect width="40" height="40" fill="white"/>
</clipPath>
</defs>
</svg>
