<svg width="24" height="24" viewBox="0 0 24 24" fill="none" xmlns="http://www.w3.org/2000/svg">
<g clip-path="url(#clip0_7983_16424)">
<g clip-path="url(#clip1_7983_16424)">
<path d="M19.8987 13.8361V17.6581C19.8987 19.0081 19.2507 19.9081 17.7387 19.9081H14.2887C12.7767 19.9081 12.1287 19.0081 12.1287 17.6581V13.8361C12.1287 12.4861 12.7767 11.5861 14.2887 11.5861H17.7387C19.2507 11.5861 19.8987 12.4861 19.8987 13.8361Z" fill="#FFCB09"/>
<path d="M8.15669 6.71406C7.98869 6.71406 7.85669 6.58206 7.85669 6.41406V4.78206C7.85669 4.61406 7.98869 4.48206 8.15669 4.48206C8.32469 4.48206 8.45669 4.61406 8.45669 4.78206V6.41406C8.45669 6.58206 8.32469 6.71406 8.15669 6.71406Z" fill="#121212"/>
<path d="M15.3566 6.71406C15.1886 6.71406 15.0566 6.58206 15.0566 6.41406V4.78206C15.0566 4.61406 15.1886 4.48206 15.3566 4.48206C15.5246 4.48206 15.6566 4.61406 15.6566 4.78206V6.41406C15.6566 6.58206 15.5246 6.71406 15.3566 6.71406Z" fill="#121212"/>
<path d="M19.4066 10.032H4.10664C3.93864 10.032 3.80664 9.90001 3.80664 9.73201C3.80664 9.56401 3.93864 9.43201 4.10664 9.43201H19.4066C19.5746 9.43201 19.7066 9.56401 19.7066 9.73201C19.7066 9.90001 19.5746 10.032 19.4066 10.032Z" fill="#121212"/>
<path d="M15.3567 20.2201H8.15669C5.06069 20.2201 3.35669 18.7141 3.35669 15.9781V9.27606C3.35669 6.54006 5.06069 5.03406 8.15669 5.03406H15.3567C18.4527 5.03406 20.1567 6.54006 20.1567 9.27606V15.9781C20.1567 18.7141 18.4527 20.2201 15.3567 20.2201ZM8.15669 5.62806C5.40869 5.62806 3.95669 6.88806 3.95669 9.27006V15.9721C3.95669 18.3541 5.40869 19.6141 8.15669 19.6141H15.3567C18.1047 19.6141 19.5567 18.3541 19.5567 15.9721V9.27006C19.5567 6.88806 18.1047 5.62806 15.3567 5.62806H8.15669Z" fill="#121212"/>
<path d="M9.63852 16.248H7.86252C7.65252 16.248 7.47852 16.074 7.47852 15.864V12.306C7.47852 12.096 7.65252 11.922 7.86252 11.922H9.56652C9.77652 11.922 9.95052 12.096 9.95052 12.306C9.95052 12.516 9.77652 12.69 9.56652 12.69H8.25252V15.474H9.64452C9.85452 15.474 10.0285 15.648 10.0285 15.858C10.0285 16.068 9.85452 16.242 9.64452 16.242L9.63852 16.248Z" fill="#121212"/>
<path d="M9.53062 14.5141H7.86262C7.65262 14.5141 7.48462 14.3461 7.48462 14.1361C7.48462 13.9261 7.65262 13.7581 7.86262 13.7581H9.53062C9.74062 13.7581 9.90862 13.9261 9.90862 14.1361C9.90862 14.3461 9.74062 14.5141 9.53062 14.5141Z" fill="#121212"/>
<path d="M13.6705 16.26C13.4605 16.26 13.2925 16.092 13.2925 15.882V13.41L12.6805 14.226C12.6085 14.322 12.5005 14.376 12.3865 14.376C12.2425 14.388 12.1585 14.328 12.0865 14.238L11.3905 13.386V15.882C11.3905 16.092 11.2225 16.26 11.0125 16.26C10.8025 16.26 10.6345 16.092 10.6345 15.882V12.318C10.6345 12.156 10.7365 12.012 10.8865 11.964C11.0425 11.91 11.2045 11.958 11.3065 12.084L12.3685 13.386L13.3705 12.048C13.4725 11.916 13.6405 11.862 13.7965 11.916C13.9525 11.97 14.0545 12.114 14.0545 12.276V15.888C14.0545 16.098 13.8865 16.266 13.6765 16.266L13.6705 16.26Z" fill="#121212"/>
<path d="M15.1885 16.308C14.9785 16.308 14.8105 16.14 14.8105 15.93V12.324C14.8105 12.114 14.9785 11.946 15.1885 11.946C15.3985 11.946 15.5665 12.114 15.5665 12.324V15.93C15.5665 16.14 15.3985 16.308 15.1885 16.308Z" fill="#121212"/>
</g>
</g>
<defs>
<clipPath id="clip0_7983_16424">
<rect width="24" height="24" fill="white"/>
</clipPath>
<clipPath id="clip1_7983_16424">
<rect width="24" height="24" fill="white" transform="translate(-0.057373)"/>
</clipPath>
</defs>
</svg>
