<svg width="22" height="18" viewBox="0 0 22 18" fill="none" xmlns="http://www.w3.org/2000/svg">
<g id="Group">
<path id="Vector" d="M11.0003 13.1803C8.70031 13.1803 6.82031 11.3003 6.82031 9.00031C6.82031 6.70031 8.70031 4.82031 11.0003 4.82031C13.3003 4.82031 15.1803 6.70031 15.1803 9.00031C15.1803 11.3003 13.3003 13.1803 11.0003 13.1803ZM11.0003 6.02031C9.36031 6.02031 8.02031 7.36031 8.02031 9.00031C8.02031 10.6403 9.36031 11.9803 11.0003 11.9803C12.6403 11.9803 13.9803 10.6403 13.9803 9.00031C13.9803 7.36031 12.6403 6.02031 11.0003 6.02031Z" fill="#121212"/>
<path id="Vector_2" d="M10.9997 17.8701C7.29969 17.8701 3.79969 15.7001 1.38969 11.9201C0.359688 10.3101 0.359688 7.69014 1.38969 6.09014C3.79969 2.31014 7.30969 0.140137 10.9997 0.140137C14.6997 0.140137 18.1997 2.31014 20.6097 6.09014C21.6397 7.70014 21.6397 10.3201 20.6097 11.9201C18.1997 15.7001 14.6897 17.8701 10.9997 17.8701ZM10.9997 1.33014C7.71969 1.33014 4.57969 3.30014 2.38969 6.73014C1.61969 7.94014 1.61969 10.0601 2.38969 11.2701C4.57969 14.7001 7.71969 16.6701 10.9997 16.6701C14.2797 16.6701 17.4197 14.7001 19.6097 11.2701C20.3797 10.0601 20.3797 7.94014 19.6097 6.73014C17.4197 3.30014 14.2797 1.33014 10.9997 1.33014Z" fill="#121212"/>
</g>
</svg>
