<svg width="16" height="17" viewBox="0 0 16 17" fill="none" xmlns="http://www.w3.org/2000/svg">
<g clip-path="url(#clip0_5376_50237)">
<path d="M14.6654 8.50065C14.6654 4.81875 11.6806 1.83398 7.9987 1.83398C4.3168 1.83398 1.33203 4.81875 1.33203 8.50065C1.33203 12.1825 4.3168 15.1673 7.9987 15.1673C11.6806 15.1673 14.6654 12.1825 14.6654 8.50065Z" fill="#EF4444"/>
<path d="M8.00026 15.5669C4.10693 15.5669 0.933594 12.4003 0.933594 8.50026C0.933594 4.60026 4.10693 1.43359 8.00026 1.43359C11.8936 1.43359 15.0669 4.60026 15.0669 8.50026C15.0669 12.4003 11.9003 15.5669 8.00026 15.5669ZM8.00026 2.23359C4.54693 2.23359 1.73359 5.04693 1.73359 8.50026C1.73359 11.9536 4.54693 14.7669 8.00026 14.7669C11.4536 14.7669 14.2669 11.9536 14.2669 8.50026C14.2669 5.04693 11.4536 2.23359 8.00026 2.23359Z" fill="#EF4444"/>
<path d="M8.00156 9.56693C7.78156 9.56693 7.60156 9.38693 7.60156 9.16693V5.83359C7.60156 5.61359 7.78156 5.43359 8.00156 5.43359C8.22156 5.43359 8.40156 5.61359 8.40156 5.83359V9.16693C8.40156 9.38693 8.22156 9.56693 8.00156 9.56693Z" fill="white"/>
<path d="M8.00156 11.6345C7.78156 11.6345 7.60156 11.4545 7.60156 11.2345V11.1012C7.60156 10.8812 7.78156 10.7012 8.00156 10.7012C8.22156 10.7012 8.40156 10.8812 8.40156 11.1012V11.2345C8.40156 11.4545 8.22156 11.6345 8.00156 11.6345Z" fill="white"/>
</g>
<defs>
<clipPath id="clip0_5376_50237">
<rect width="16" height="16" fill="white" transform="translate(0 0.5)"/>
</clipPath>
</defs>
</svg>
