<svg width="10" height="10" viewBox="0 0 10 10" fill="none" xmlns="http://www.w3.org/2000/svg">
<g id="Group">
<path id="Vector" d="M0.759981 9.83875C0.609981 9.83875 0.44998 9.77875 0.33998 9.65875C0.10998 9.42875 0.10998 9.04875 0.33998 8.80875L8.81998 0.32875C9.04998 0.09875 9.42998 0.09875 9.66998 0.32875C9.89998 0.55875 9.89998 0.93875 9.66998 1.17875L1.17998 9.66875C1.05998 9.78875 0.909981 9.84875 0.759981 9.84875V9.83875Z" fill="#121212"/>
<path id="Vector_2" d="M9.23997 9.83875C9.08997 9.83875 8.92997 9.77875 8.81997 9.65875L0.329971 1.17875C0.0999707 0.94875 0.0999707 0.56875 0.329971 0.32875C0.559971 0.09875 0.939971 0.09875 1.17997 0.32875L9.66997 8.81875C9.89997 9.04875 9.89997 9.42875 9.66997 9.66875C9.54997 9.78875 9.39997 9.84875 9.24997 9.84875L9.23997 9.83875Z" fill="#121212"/>
</g>
</svg>
