<svg width="32" height="32" viewBox="0 0 32 32" fill="none" xmlns="http://www.w3.org/2000/svg">
<g clip-path="url(#clip0_5376_28574)">
<path d="M25.9984 11.1004H19.9984C19.6684 11.1004 19.3984 10.8304 19.3984 10.5004C19.3984 10.1704 19.6684 9.90039 19.9984 9.90039H25.9984C26.3284 9.90039 26.5984 10.1704 26.5984 10.5004C26.5984 10.8304 26.3284 11.1004 25.9984 11.1004Z" fill="#010101"/>
<path d="M9.99844 11.1004H5.99844C5.66844 11.1004 5.39844 10.8304 5.39844 10.5004C5.39844 10.1704 5.66844 9.90039 5.99844 9.90039H9.99844C10.3284 9.90039 10.5984 10.1704 10.5984 10.5004C10.5984 10.8304 10.3284 11.1004 9.99844 11.1004Z" fill="#010101"/>
<path d="M13.9984 14.6004C11.7384 14.6004 9.89844 12.7604 9.89844 10.5004C9.89844 8.24039 11.7384 6.40039 13.9984 6.40039C16.2584 6.40039 18.0984 8.24039 18.0984 10.5004C18.0984 12.7604 16.2584 14.6004 13.9984 14.6004ZM13.9984 7.60039C12.3984 7.60039 11.0984 8.90039 11.0984 10.5004C11.0984 12.1004 12.3984 13.4004 13.9984 13.4004C15.5984 13.4004 16.8984 12.1004 16.8984 10.5004C16.8984 8.90039 15.5984 7.60039 13.9984 7.60039Z" fill="#010101"/>
<path d="M25.9984 22.1004H21.9984C21.6684 22.1004 21.3984 21.8304 21.3984 21.5004C21.3984 21.1704 21.6684 20.9004 21.9984 20.9004H25.9984C26.3284 20.9004 26.5984 21.1704 26.5984 21.5004C26.5984 21.8304 26.3284 22.1004 25.9984 22.1004Z" fill="#010101"/>
<path d="M11.9984 22.1004H5.99844C5.66844 22.1004 5.39844 21.8304 5.39844 21.5004C5.39844 21.1704 5.66844 20.9004 5.99844 20.9004H11.9984C12.3284 20.9004 12.5984 21.1704 12.5984 21.5004C12.5984 21.8304 12.3284 22.1004 11.9984 22.1004Z" fill="#010101"/>
<path d="M17.9984 25.6004C15.7384 25.6004 13.8984 23.7604 13.8984 21.5004C13.8984 19.2404 15.7384 17.4004 17.9984 17.4004C20.2584 17.4004 22.0984 19.2404 22.0984 21.5004C22.0984 23.7604 20.2584 25.6004 17.9984 25.6004ZM17.9984 18.6004C16.3984 18.6004 15.0984 19.9004 15.0984 21.5004C15.0984 23.1004 16.3984 24.4004 17.9984 24.4004C19.5984 24.4004 20.8984 23.1004 20.8984 21.5004C20.8984 19.9004 19.5984 18.6004 17.9984 18.6004Z" fill="#010101"/>
</g>
<defs>
<clipPath id="clip0_5376_28574">
<rect width="24" height="24" fill="white" transform="translate(4 4)"/>
</clipPath>
</defs>
</svg>
