<svg width="24" height="24" viewBox="0 0 24 24" fill="none" xmlns="http://www.w3.org/2000/svg">
<g clip-path="url(#clip0_3130_20035)">
<path d="M22 7.0999H16C15.67 7.0999 15.4 6.8299 15.4 6.4999C15.4 6.1699 15.67 5.8999 16 5.8999H22C22.33 5.8999 22.6 6.1699 22.6 6.4999C22.6 6.8299 22.33 7.0999 22 7.0999Z" fill="#404040"/>
<path d="M6.00002 7.0999H2.00002C1.67002 7.0999 1.40002 6.8299 1.40002 6.4999C1.40002 6.1699 1.67002 5.8999 2.00002 5.8999H6.00002C6.33002 5.8999 6.60002 6.1699 6.60002 6.4999C6.60002 6.8299 6.33002 7.0999 6.00002 7.0999Z" fill="#404040"/>
<path d="M10.1001 10.1995C7.84012 10.1995 6.00012 8.35951 6.00012 6.09951C6.00012 3.83951 7.84012 1.99951 10.1001 1.99951C12.3601 1.99951 14.2001 3.83951 14.2001 6.09951C14.2001 8.35951 12.3601 10.1995 10.1001 10.1995ZM10.1001 3.19951C8.50012 3.19951 7.20012 4.49951 7.20012 6.09951C7.20012 7.69951 8.50012 8.99951 10.1001 8.99951C11.7001 8.99951 13.0001 7.69951 13.0001 6.09951C13.0001 4.49951 11.7001 3.19951 10.1001 3.19951Z" fill="#404040"/>
<path d="M22 18.0999H18C17.67 18.0999 17.4 17.8299 17.4 17.4999C17.4 17.1699 17.67 16.8999 18 16.8999H22C22.33 16.8999 22.6 17.1699 22.6 17.4999C22.6 17.8299 22.33 18.0999 22 18.0999Z" fill="#404040"/>
<path d="M8.00002 18.0999H2.00002C1.67002 18.0999 1.40002 17.8299 1.40002 17.4999C1.40002 17.1699 1.67002 16.8999 2.00002 16.8999H8.00002C8.33002 16.8999 8.60002 17.1699 8.60002 17.4999C8.60002 17.8299 8.33002 18.0999 8.00002 18.0999Z" fill="#404040"/>
<path d="M14 21.5999C11.74 21.5999 9.90002 19.7599 9.90002 17.4999C9.90002 15.2399 11.74 13.3999 14 13.3999C16.26 13.3999 18.1 15.2399 18.1 17.4999C18.1 19.7599 16.26 21.5999 14 21.5999ZM14 14.5999C12.4 14.5999 11.1 15.8999 11.1 17.4999C11.1 19.0999 12.4 20.3999 14 20.3999C15.6 20.3999 16.9 19.0999 16.9 17.4999C16.9 15.8999 15.6 14.5999 14 14.5999Z" fill="#404040"/>
</g>
<defs>
<clipPath id="clip0_3130_20035">
<rect width="24" height="24" fill="white"/>
</clipPath>
</defs>
</svg>
