<svg width="40" height="40" viewBox="0 0 40 40" fill="none" xmlns="http://www.w3.org/2000/svg">
<g clip-path="url(#clip0_5222_22460)">
<g clip-path="url(#clip1_5222_22460)">
<path d="M15.2383 18.0749C15.2383 12.5499 19.6883 8.7749 25.2133 8.7749C30.7383 8.7749 35.2258 13.2499 35.2258 18.7874L31.5508 17.9749L27.6008 19.2124L23.9258 17.7624L19.7008 19.2124L15.2383 18.0874V18.0749Z" fill="#FFCB09"/>
<path d="M17.4504 36.8748C15.7004 36.8748 14.2754 35.4498 14.2754 33.6998C14.2754 33.3498 14.5504 33.0748 14.9004 33.0748C15.2504 33.0748 15.5254 33.3498 15.5254 33.6998C15.5254 34.7623 16.3879 35.6248 17.4504 35.6248C18.5129 35.6248 19.3754 34.7623 19.3754 33.6998V21.8623C19.3754 21.5123 19.6504 21.2373 20.0004 21.2373C20.3504 21.2373 20.6254 21.5123 20.6254 21.8623V33.6998C20.6254 35.4498 19.2004 36.8748 17.4504 36.8748Z" fill="black"/>
<path d="M12.0617 22.4874C11.7117 22.4874 11.4367 22.2124 11.4367 21.8624C11.4367 20.0249 9.93672 18.5249 8.09922 18.5249C6.26172 18.5249 4.76172 20.0249 4.76172 21.8624C4.76172 22.2124 4.48672 22.4874 4.13672 22.4874C3.78672 22.4874 3.51172 22.2124 3.51172 21.8624C3.51172 19.3249 5.57422 17.2749 8.09922 17.2749C10.6242 17.2749 12.6867 19.3374 12.6867 21.8624C12.6867 22.2124 12.4117 22.4874 12.0617 22.4874Z" fill="black"/>
<path d="M19.9992 22.4874C19.6492 22.4874 19.3742 22.2124 19.3742 21.8624C19.3742 20.0249 17.8742 18.5249 16.0367 18.5249C14.1992 18.5249 12.6992 20.0249 12.6992 21.8624C12.6992 22.2124 12.4242 22.4874 12.0742 22.4874C11.7242 22.4874 11.4492 22.2124 11.4492 21.8624C11.4492 19.3249 13.5117 17.2749 16.0367 17.2749C18.5617 17.2749 20.6242 19.3374 20.6242 21.8624C20.6242 22.2124 20.3492 22.4874 19.9992 22.4874Z" fill="black"/>
<path d="M27.9367 22.4874C27.5867 22.4874 27.3117 22.2124 27.3117 21.8624C27.3117 20.0249 25.8117 18.5249 23.9742 18.5249C22.1367 18.5249 20.6367 20.0249 20.6367 21.8624C20.6367 22.2124 20.3617 22.4874 20.0117 22.4874C19.6617 22.4874 19.3867 22.2124 19.3867 21.8624C19.3867 19.3249 21.4492 17.2749 23.9742 17.2749C26.4992 17.2749 28.5617 19.3374 28.5617 21.8624C28.5617 22.2124 28.2867 22.4874 27.9367 22.4874Z" fill="black"/>
<path d="M35.8742 22.4874C35.5242 22.4874 35.2492 22.2124 35.2492 21.8624C35.2492 20.0249 33.7492 18.5249 31.9117 18.5249C30.0742 18.5249 28.5742 20.0249 28.5742 21.8624C28.5742 22.2124 28.2992 22.4874 27.9492 22.4874C27.5992 22.4874 27.3242 22.2124 27.3242 21.8624C27.3242 19.3249 29.3867 17.2749 31.9117 17.2749C34.4367 17.2749 36.4992 19.3374 36.4992 21.8624C36.4992 22.2124 36.2242 22.4874 35.8742 22.4874Z" fill="black"/>
<path d="M35.875 22.4375C35.525 22.4375 35.25 22.1625 35.25 21.8125C35.25 13.4125 28.4125 6.5625 20 6.5625C11.5875 6.5625 4.75 13.4125 4.75 21.8125C4.75 22.1625 4.475 22.4375 4.125 22.4375C3.775 22.4375 3.5 22.1625 3.5 21.8125C3.5 12.7125 10.9 5.3125 20 5.3125C29.1 5.3125 36.5 12.7125 36.5 21.8125C36.5 22.1625 36.225 22.4375 35.875 22.4375Z" fill="black"/>
<path d="M20 6.575C19.65 6.575 19.375 6.3 19.375 5.95V3.75C19.375 3.4 19.65 3.125 20 3.125C20.35 3.125 20.625 3.4 20.625 3.75V5.95C20.625 6.3 20.35 6.575 20 6.575Z" fill="black"/>
</g>
</g>
<defs>
<clipPath id="clip0_5222_22460">
<rect width="40" height="40" fill="white"/>
</clipPath>
<clipPath id="clip1_5222_22460">
<rect width="40" height="40" fill="white"/>
</clipPath>
</defs>
</svg>
