<svg width="40" height="41" viewBox="0 0 40 41" fill="none" xmlns="http://www.w3.org/2000/svg">
<g clip-path="url(#clip0_3586_23249)">
<g clip-path="url(#clip1_3586_23249)">
<path d="M32.5125 18.9375H23.925C21.8608 18.9375 20.1875 20.6108 20.1875 22.675V28.5625C20.1875 30.6267 21.8608 32.3 23.925 32.3H32.5125C34.5767 32.3 36.25 30.6267 36.25 28.5625V22.675C36.25 20.6108 34.5767 18.9375 32.5125 18.9375Z" fill="#FFCB09"/>
<path d="M32.5125 32.9252H7.4875C5.0875 32.9252 3.125 30.9627 3.125 28.5627V9.0002C3.125 6.6002 5.0875 4.6377 7.4875 4.6377H32.5125C34.9125 4.6377 36.875 6.6002 36.875 9.0002V28.5627C36.875 30.9627 34.9125 32.9252 32.5125 32.9252ZM7.4875 5.8877C5.775 5.8877 4.375 7.2877 4.375 9.0002V28.5627C4.375 30.2752 5.775 31.6752 7.4875 31.6752H32.5125C34.225 31.6752 35.625 30.2752 35.625 28.5627V9.0002C35.625 7.2877 34.225 5.8877 32.5125 5.8877H7.4875Z" fill="#121212"/>
<path d="M13.7746 36.3623H10.9746C10.0371 36.3623 9.28711 35.5998 9.28711 34.6748V32.2998C9.28711 31.9498 9.56211 31.6748 9.91211 31.6748H14.8496C15.1996 31.6748 15.4746 31.9498 15.4746 32.2998V34.6748C15.4746 35.6123 14.7121 36.3623 13.7871 36.3623H13.7746ZM10.5246 32.9248V34.6748C10.5246 34.9123 10.7246 35.1123 10.9621 35.1123H13.7621C13.9996 35.1123 14.1996 34.9123 14.1996 34.6748V32.9248H10.5121H10.5246Z" fill="#121212"/>
<path d="M29.1008 36.3623H26.3008C25.3633 36.3623 24.6133 35.5998 24.6133 34.6748V32.2998C24.6133 31.9498 24.8883 31.6748 25.2383 31.6748H30.1758C30.5258 31.6748 30.8008 31.9498 30.8008 32.2998V34.6748C30.8008 35.6123 30.0383 36.3623 29.1133 36.3623H29.1008ZM25.8508 32.9248V34.6748C25.8508 34.9123 26.0508 35.1123 26.2883 35.1123H29.0883C29.3258 35.1123 29.5258 34.9123 29.5258 34.6748V32.9248H25.8383H25.8508Z" fill="#121212"/>
<path d="M9.21289 21.1506C8.86289 21.1506 8.58789 20.8756 8.58789 20.5256V17.0381C8.58789 16.6881 8.86289 16.4131 9.21289 16.4131C9.56289 16.4131 9.83789 16.6881 9.83789 17.0381V20.5256C9.83789 20.8756 9.56289 21.1506 9.21289 21.1506Z" fill="#121212"/>
<path d="M29.2504 27.9129H11.1254C9.72539 27.9129 8.58789 26.7629 8.58789 25.3629V24.6629C8.58789 24.3129 8.86289 24.0379 9.21289 24.0379C9.56289 24.0379 9.83789 24.3129 9.83789 24.6629V25.3629C9.83789 26.0754 10.4129 26.6629 11.1254 26.6629H29.2504C29.9754 26.6629 30.5379 26.0879 30.5379 25.3629V12.2004C30.5379 11.4754 29.9754 10.9004 29.2504 10.9004H11.1254C10.4129 10.9004 9.83789 11.4879 9.83789 12.2004V12.8879C9.83789 13.2379 9.56289 13.5129 9.21289 13.5129C8.86289 13.5129 8.58789 13.2379 8.58789 12.8879V12.2004C8.58789 10.7879 9.72539 9.65039 11.1254 9.65039H29.2504C30.6504 9.65039 31.7879 10.8004 31.7879 12.2004V25.3629C31.7879 26.7754 30.6504 27.9129 29.2504 27.9129Z" fill="#121212"/>
<path d="M10.0504 25.2881H8.38789C7.70039 25.2881 7.15039 24.7256 7.15039 24.0506V21.1506C7.15039 20.4631 7.71289 19.9131 8.38789 19.9131H10.0504C10.7379 19.9131 11.2879 20.4756 11.2879 21.1506V24.0506C11.2879 24.7381 10.7254 25.2881 10.0504 25.2881ZM10.0504 21.1381H8.38789V24.0381H10.0504V21.1381Z" fill="#121212"/>
<path d="M10.0504 17.6631H8.38789C7.70039 17.6631 7.15039 17.1006 7.15039 16.4256V13.5256C7.15039 12.8381 7.71289 12.2881 8.38789 12.2881H10.0504C10.7379 12.2881 11.2879 12.8506 11.2879 13.5256V16.4256C11.2879 17.1131 10.7254 17.6631 10.0504 17.6631ZM10.0504 13.5131H8.38789V16.4131H10.0504V13.5131Z" fill="#121212"/>
<path d="M21.8383 23.8875C19.0258 23.8875 16.7383 21.6 16.7383 18.7875C16.7383 15.975 19.0258 13.6875 21.8383 13.6875C24.6508 13.6875 26.9383 15.975 26.9383 18.7875C26.9383 21.6 24.6508 23.8875 21.8383 23.8875ZM21.8383 14.925C19.7133 14.925 17.9883 16.65 17.9883 18.775C17.9883 20.9 19.7133 22.625 21.8383 22.625C23.9633 22.625 25.6883 20.9 25.6883 18.775C25.6883 16.65 23.9633 14.925 21.8383 14.925Z" fill="#121212"/>
<path d="M21.8383 19.5627C21.4133 19.5627 21.0508 19.2127 21.0508 18.7877C21.0508 18.3627 21.4008 18.0127 21.8383 18.0127C22.2758 18.0127 22.6133 18.3627 22.6133 18.7877C22.6133 19.2127 22.2633 19.5627 21.8383 19.5627ZM21.8383 18.3127C21.5758 18.3127 21.3633 18.5252 21.3633 18.7877C21.3633 19.0502 21.5758 19.2627 21.8383 19.2627C22.1008 19.2627 22.3008 19.0502 22.3008 18.7877C22.3008 18.5252 22.0883 18.3127 21.8383 18.3127Z" fill="#121212"/>
<path d="M21.8379 23.8881C21.4879 23.8881 21.2129 23.6131 21.2129 23.2631V18.7881C21.2129 18.4381 21.4879 18.1631 21.8379 18.1631C22.1879 18.1631 22.4629 18.4381 22.4629 18.7881V23.2631C22.4629 23.6131 22.1879 23.8881 21.8379 23.8881Z" fill="#121212"/>
<path d="M21.8379 19.4008C21.4879 19.4008 21.2129 19.1258 21.2129 18.7758V14.3008C21.2129 13.9508 21.4879 13.6758 21.8379 13.6758C22.1879 13.6758 22.4629 13.9508 22.4629 14.3008V18.7758C22.4629 19.1258 22.1879 19.4008 21.8379 19.4008Z" fill="#121212"/>
<path d="M21.8383 19.4004H17.3633C17.0133 19.4004 16.7383 19.1254 16.7383 18.7754C16.7383 18.4254 17.0133 18.1504 17.3633 18.1504H21.8383C22.1883 18.1504 22.4633 18.4254 22.4633 18.7754C22.4633 19.1254 22.1883 19.4004 21.8383 19.4004Z" fill="#121212"/>
<path d="M26.3129 19.4004H21.8379C21.4879 19.4004 21.2129 19.1254 21.2129 18.7754C21.2129 18.4254 21.4879 18.1504 21.8379 18.1504H26.3129C26.6629 18.1504 26.9379 18.4254 26.9379 18.7754C26.9379 19.1254 26.6629 19.4004 26.3129 19.4004Z" fill="#121212"/>
<path d="M21.8383 23.8875C19.0258 23.8875 16.7383 21.6 16.7383 18.7875C16.7383 15.975 19.0258 13.6875 21.8383 13.6875C24.6508 13.6875 26.9383 15.975 26.9383 18.7875C26.9383 21.6 24.6508 23.8875 21.8383 23.8875ZM21.8383 14.925C19.7133 14.925 17.9883 16.65 17.9883 18.775C17.9883 20.9 19.7133 22.625 21.8383 22.625C23.9633 22.625 25.6883 20.9 25.6883 18.775C25.6883 16.65 23.9633 14.925 21.8383 14.925Z" fill="#121212"/>
<path d="M21.8383 19.5627C21.4133 19.5627 21.0508 19.2127 21.0508 18.7877C21.0508 18.3627 21.4008 18.0127 21.8383 18.0127C22.2758 18.0127 22.6133 18.3627 22.6133 18.7877C22.6133 19.2127 22.2633 19.5627 21.8383 19.5627ZM21.8383 18.3127C21.5758 18.3127 21.3633 18.5252 21.3633 18.7877C21.3633 19.0502 21.5758 19.2627 21.8383 19.2627C22.1008 19.2627 22.3008 19.0502 22.3008 18.7877C22.3008 18.5252 22.0883 18.3127 21.8383 18.3127Z" fill="#121212"/>
<path d="M21.8379 23.8881C21.4879 23.8881 21.2129 23.6131 21.2129 23.2631V18.7881C21.2129 18.4381 21.4879 18.1631 21.8379 18.1631C22.1879 18.1631 22.4629 18.4381 22.4629 18.7881V23.2631C22.4629 23.6131 22.1879 23.8881 21.8379 23.8881Z" fill="#121212"/>
<path d="M21.8379 19.4008C21.4879 19.4008 21.2129 19.1258 21.2129 18.7758V14.3008C21.2129 13.9508 21.4879 13.6758 21.8379 13.6758C22.1879 13.6758 22.4629 13.9508 22.4629 14.3008V18.7758C22.4629 19.1258 22.1879 19.4008 21.8379 19.4008Z" fill="#121212"/>
<path d="M21.8383 19.4004H17.3633C17.0133 19.4004 16.7383 19.1254 16.7383 18.7754C16.7383 18.4254 17.0133 18.1504 17.3633 18.1504H21.8383C22.1883 18.1504 22.4633 18.4254 22.4633 18.7754C22.4633 19.1254 22.1883 19.4004 21.8383 19.4004Z" fill="#121212"/>
<path d="M26.3129 19.4004H21.8379C21.4879 19.4004 21.2129 19.1254 21.2129 18.7754C21.2129 18.4254 21.4879 18.1504 21.8379 18.1504H26.3129C26.6629 18.1504 26.9379 18.4254 26.9379 18.7754C26.9379 19.1254 26.6629 19.4004 26.3129 19.4004Z" fill="#121212"/>
</g>
</g>
<defs>
<clipPath id="clip0_3586_23249">
<rect width="40" height="40" fill="white" transform="translate(0 0.5)"/>
</clipPath>
<clipPath id="clip1_3586_23249">
<rect width="40" height="40" fill="white" transform="translate(0 0.5)"/>
</clipPath>
</defs>
</svg>
