<svg width="41" height="40" viewBox="0 0 41 40" fill="none" xmlns="http://www.w3.org/2000/svg">
<g clip-path="url(#clip0_8396_208)">
<path d="M26.6933 16.02H20.4033C18.8956 16.02 17.6733 17.2423 17.6733 18.75V23.06C17.6733 24.5677 18.8956 25.79 20.4033 25.79H26.6933C28.2011 25.79 29.4233 24.5677 29.4233 23.06V18.75C29.4233 17.2423 28.2011 16.02 26.6933 16.02Z" fill="#FFCB09"/>
<path d="M30.4034 28.85H10.3234C8.4134 28.85 6.8634 27.3 6.8634 25.39V10.05C6.8634 8.14 8.4134 6.59 10.3234 6.59H30.3934C32.3034 6.59 33.8534 8.14 33.8534 10.05V25.39C33.8534 27.3 32.3034 28.85 30.3934 28.85H30.4034ZM10.3234 7.58C8.9634 7.58 7.8634 8.69 7.8634 10.04V25.38C7.8634 26.74 8.9734 27.84 10.3234 27.84H30.3934C31.7534 27.84 32.8534 26.73 32.8534 25.38V10.04C32.8534 8.68 31.7434 7.58 30.3934 7.58H10.3234Z" fill="#121212"/>
<path d="M14.8435 32.06H12.3435C11.5535 32.06 10.9135 31.42 10.9135 30.63V28.58C10.9135 28.3 11.1335 28.08 11.4135 28.08H15.7735C16.0535 28.08 16.2735 28.3 16.2735 28.58V30.63C16.2735 31.42 15.6335 32.06 14.8435 32.06ZM11.9135 29.07V30.62C11.9135 30.86 12.1035 31.05 12.3435 31.05H14.8435C15.0835 31.05 15.2735 30.86 15.2735 30.62V29.07H11.9135Z" fill="#121212"/>
<path d="M29.3134 32.06H26.8134C26.0234 32.06 25.3834 31.42 25.3834 30.63V28.58C25.3834 28.3 25.6034 28.08 25.8834 28.08H30.2434C30.5234 28.08 30.7434 28.3 30.7434 28.58V30.63C30.7434 31.42 30.1034 32.06 29.3134 32.06ZM26.3834 29.07V30.62C26.3834 30.86 26.5734 31.05 26.8134 31.05H29.3134C29.5534 31.05 29.7434 30.86 29.7434 30.62V29.07H26.3834Z" fill="#121212"/>
<path d="M11.7234 19.84C11.4434 19.84 11.2234 19.62 11.2234 19.34V16.3C11.2234 16.02 11.4434 15.8 11.7234 15.8C12.0034 15.8 12.2234 16.02 12.2234 16.3V19.34C12.2234 19.62 12.0034 19.84 11.7234 19.84Z" fill="#121212"/>
<path d="M27.6634 25.72H13.2434C12.1334 25.72 11.2234 24.74 11.2234 23.55V22.94C11.2234 22.66 11.4434 22.44 11.7234 22.44C12.0034 22.44 12.2234 22.66 12.2234 22.94V23.55C12.2234 24.2 12.6834 24.72 13.2434 24.72H27.6634C28.2234 24.72 28.6834 24.19 28.6834 23.55V12.12C28.6834 11.47 28.2234 10.95 27.6634 10.95H13.2434C12.6834 10.95 12.2234 11.48 12.2234 12.12V12.72C12.2234 13 12.0034 13.22 11.7234 13.22C11.4434 13.22 11.2234 13 11.2234 12.72V12.12C11.2234 10.92 12.1334 9.94998 13.2434 9.94998H27.6634C28.7734 9.94998 29.6834 10.93 29.6834 12.12V23.55C29.6834 24.75 28.7734 25.72 27.6634 25.72Z" fill="#121212"/>
<path d="M12.4734 23.44H10.9934C10.4234 23.44 9.95337 22.97 9.95337 22.4V19.89C9.95337 19.32 10.4234 18.85 10.9934 18.85H12.4734C13.0434 18.85 13.5134 19.32 13.5134 19.89V22.4C13.5134 22.97 13.0434 23.44 12.4734 23.44ZM10.9934 19.85L10.9534 22.4L12.4734 22.44C12.4734 22.44 12.5134 22.42 12.5134 22.4V19.89L10.9934 19.85Z" fill="#121212"/>
<path d="M12.4734 16.81H10.9934C10.4234 16.81 9.95337 16.34 9.95337 15.77V13.26C9.95337 12.69 10.4234 12.22 10.9934 12.22H12.4734C13.0434 12.22 13.5134 12.69 13.5134 13.26V15.77C13.5134 16.34 13.0434 16.81 12.4734 16.81ZM10.9934 13.22L10.9534 15.77L12.4734 15.81C12.4734 15.81 12.5134 15.79 12.5134 15.77V13.26L10.9934 13.22Z" fill="#121212"/>
<path d="M20.1033 22.22C17.6433 22.22 15.6433 20.25 15.6433 17.83C15.6433 15.41 17.6433 13.44 20.1033 13.44C22.5633 13.44 24.5633 15.41 24.5633 17.83C24.5633 20.25 22.5633 22.22 20.1033 22.22ZM20.1033 14.44C18.1933 14.44 16.6433 15.96 16.6433 17.83C16.6433 19.7 18.1933 21.22 20.1033 21.22C22.0133 21.22 23.5633 19.7 23.5633 17.83C23.5633 15.96 22.0133 14.44 20.1033 14.44Z" fill="#121212"/>
<path d="M20.1033 18.32H16.1433C15.8633 18.32 15.6433 18.1 15.6433 17.82C15.6433 17.54 15.8633 17.32 16.1433 17.32H20.1033C20.3833 17.32 20.6033 17.54 20.6033 17.82C20.6033 18.1 20.3833 18.32 20.1033 18.32Z" fill="#121212"/>
<path d="M23.6134 18.32H20.1034C19.8234 18.32 19.6034 18.1 19.6034 17.82C19.6034 17.54 19.8234 17.32 20.1034 17.32H23.6134C23.8934 17.32 24.1134 17.54 24.1134 17.82C24.1134 18.1 23.8934 18.32 23.6134 18.32Z" fill="#121212"/>
<path d="M20.1034 22.22C19.8234 22.22 19.6034 22 19.6034 21.72V17.83C19.6034 17.55 19.8234 17.33 20.1034 17.33C20.3834 17.33 20.6034 17.55 20.6034 17.83V21.72C20.6034 22 20.3834 22.22 20.1034 22.22Z" fill="#121212"/>
<path d="M20.1034 18.32C19.8234 18.32 19.6034 18.1 19.6034 17.82V13.93C19.6034 13.65 19.8234 13.43 20.1034 13.43C20.3834 13.43 20.6034 13.65 20.6034 13.93V17.82C20.6034 18.1 20.3834 18.32 20.1034 18.32Z" fill="#121212"/>
</g>
<defs>
<clipPath id="clip0_8396_208">
<rect width="40" height="40" fill="white" transform="translate(0.333374)"/>
</clipPath>
</defs>
</svg>
