<svg width="10" height="10" viewBox="0 0 10 10" fill="none" xmlns="http://www.w3.org/2000/svg">
<g id="Group">
<path id="Vector" d="M0.759492 9.8407C0.609492 9.8407 0.449492 9.7807 0.339492 9.6607C0.109492 9.4307 0.109492 9.0507 0.339492 8.8107L8.81949 0.330703C9.04949 0.100703 9.42949 0.100703 9.66949 0.330703C9.89949 0.560703 9.89949 0.940704 9.66949 1.1807L1.17949 9.6707C1.05949 9.7907 0.909492 9.8507 0.759492 9.8507V9.8407Z" fill="#121212"/>
<path id="Vector_2" d="M9.23973 9.8407C9.08973 9.8407 8.92973 9.7807 8.81973 9.6607L0.329727 1.1807C0.0997266 0.950704 0.0997266 0.570703 0.329727 0.330703C0.559727 0.100703 0.939727 0.100703 1.17973 0.330703L9.66973 8.8207C9.89973 9.0507 9.89973 9.4307 9.66973 9.6707C9.54973 9.7907 9.39973 9.8507 9.24973 9.8507L9.23973 9.8407Z" fill="#121212"/>
</g>
</svg>
