<svg width="24" height="24" viewBox="0 0 24 24" fill="none" xmlns="http://www.w3.org/2000/svg">
<g clip-path="url(#clip0_5452_6075)">
<path d="M22 14C22 16.2083 19.9844 18 17.5 18C15.0156 18 13 16.2083 13 14C13 11.7917 15.0156 10 17.5 10C19.9844 10 22 11.7917 22 14Z" fill="#FFCB09"/>
<path d="M22.3901 18.5897C22.3901 18.5897 22.3201 18.5897 22.2901 18.5897C21.9601 18.5397 21.7401 18.2297 21.7901 17.8997C21.8601 17.4797 21.8901 17.0197 21.8901 16.4997C21.8901 11.0497 17.4501 6.60967 11.9901 6.60967C6.53014 6.60967 2.10014 11.0397 2.10014 16.4897C2.10014 17.0097 2.13014 17.4697 2.20014 17.8897C2.25014 18.2197 2.03014 18.5297 1.70014 18.5797C1.37014 18.6397 1.06014 18.4097 1.01014 18.0797C0.930137 17.5997 0.890137 17.0697 0.890137 16.4797C0.900137 10.3797 5.88014 5.40967 12.0001 5.40967C18.1201 5.40967 23.1001 10.3797 23.1001 16.4997C23.1001 17.0897 23.0601 17.6097 22.9801 18.0997C22.9301 18.3897 22.6801 18.5997 22.3901 18.5997V18.5897Z" fill="black"/>
<path d="M22.3903 18.5896H1.61025C1.28025 18.5896 1.01025 18.3196 1.01025 17.9896C1.01025 17.6596 1.28025 17.3896 1.61025 17.3896H22.3903C22.7203 17.3896 22.9903 17.6596 22.9903 17.9896C22.9903 18.3196 22.7203 18.5896 22.3903 18.5896Z" fill="black"/>
<path d="M18.67 18.5899C18.67 18.5899 18.57 18.5899 18.52 18.5699C18.2 18.4899 18 18.1599 18.08 17.8399C18.2 17.3599 18.26 16.8499 18.26 16.3399C18.26 12.8899 15.45 10.0799 11.99 10.0799C8.53002 10.0799 5.72002 12.8899 5.72002 16.3399C5.72002 16.8599 5.78002 17.3699 5.90002 17.8399C5.98002 18.1599 5.79002 18.4899 5.47002 18.5699C5.15002 18.6499 4.82002 18.4599 4.74002 18.1399C4.59002 17.5699 4.52002 16.9599 4.52002 16.3399C4.52002 12.2199 7.87002 8.87988 11.99 8.87988C16.11 8.87988 19.46 12.2299 19.46 16.3399C19.46 16.9599 19.39 17.5599 19.24 18.1399C19.17 18.4099 18.93 18.5899 18.66 18.5899H18.67Z" fill="black"/>
<path d="M13.8503 18.5896C13.8503 18.5896 13.7503 18.5896 13.7003 18.5696C13.3803 18.4896 13.1803 18.1596 13.2703 17.8396C13.3003 17.7396 13.3103 17.6396 13.3103 17.5296C13.3103 16.8096 12.7203 16.2296 12.0003 16.2296C11.2803 16.2296 10.7003 16.8096 10.7003 17.5296C10.7003 17.6396 10.7103 17.7396 10.7403 17.8396C10.8203 18.1596 10.6303 18.4896 10.3103 18.5696C9.99025 18.6496 9.66025 18.4596 9.58025 18.1396C9.53025 17.9496 9.51025 17.7396 9.51025 17.5396C9.51025 16.1596 10.6303 15.0396 12.0103 15.0396C13.3903 15.0396 14.5103 16.1596 14.5103 17.5396C14.5103 17.7496 14.4903 17.9496 14.4403 18.1396C14.3703 18.4096 14.1303 18.5896 13.8603 18.5896H13.8503Z" fill="black"/>
<path d="M13.0002 16.5197C12.8502 16.5197 12.7102 16.4697 12.5902 16.3597C12.3502 16.1297 12.3302 15.7597 12.5602 15.5097L15.0402 12.8197C15.2702 12.5797 15.6402 12.5597 15.8902 12.7897C16.1302 13.0197 16.1502 13.3897 15.9202 13.6397L13.4402 16.3297C13.3202 16.4597 13.1602 16.5197 13.0002 16.5197Z" fill="black"/>
<path d="M11.9999 10.0799C11.6699 10.0799 11.3999 9.8099 11.3999 9.4799V5.9999C11.3999 5.6699 11.6699 5.3999 11.9999 5.3999C12.3299 5.3999 12.5999 5.6699 12.5999 5.9999V9.4799C12.5999 9.8099 12.3299 10.0799 11.9999 10.0799Z" fill="black"/>
<path d="M18.6702 15.36C18.4502 15.36 18.2402 15.24 18.1302 15.03C17.9802 14.73 18.1102 14.37 18.4002 14.23L21.6802 12.61C21.9702 12.47 22.3402 12.58 22.4802 12.88C22.6302 13.18 22.5002 13.54 22.2102 13.68L18.9302 15.3C18.8502 15.34 18.7502 15.36 18.6602 15.36H18.6702Z" fill="black"/>
<path d="M5.26 15.36C5.16 15.36 5.05 15.33 4.96 15.28L1.82 13.43C1.53 13.26 1.44 12.89 1.61 12.61C1.78 12.32 2.14 12.23 2.43 12.4L5.57 14.25C5.86 14.42 5.95 14.79 5.78 15.07C5.67 15.26 5.47 15.36 5.26 15.36Z" fill="black"/>
</g>
<defs>
<clipPath id="clip0_5452_6075">
<rect width="24" height="24" fill="white"/>
</clipPath>
</defs>
</svg>
