<svg width="56" height="56" viewBox="0 0 56 56" fill="none" xmlns="http://www.w3.org/2000/svg">
<path d="M19.72 20.22H34.04C35.32 20.22 36.36 21.26 36.36 22.54V51.33H17.4V22.55C17.4 21.27 18.44 20.23 19.72 20.23V20.22Z" fill="#FFCB09"/>
<path d="M36.36 52.21H7.91999C7.43999 52.21 7.03999 51.82 7.03999 51.33V10.77C7.03999 6.91999 10.17 3.79999 14.01 3.79999H30.26C34.11 3.79999 37.23 6.92999 37.23 10.77V51.33C37.23 51.81 36.84 52.21 36.35 52.21H36.36ZM8.78999 50.46H35.48V10.77C35.48 7.88999 33.14 5.54999 30.26 5.54999H14.01C11.13 5.54999 8.78999 7.88999 8.78999 10.77V50.46Z" fill="black"/>
<path d="M27.53 23.21H16.74C15.05 23.21 13.68 21.84 13.68 20.15V15.43C13.68 13.74 15.05 12.37 16.74 12.37H27.53C29.22 12.37 30.59 13.74 30.59 15.43V20.15C30.59 21.84 29.22 23.21 27.53 23.21ZM16.74 14.11C16.02 14.11 15.43 14.7 15.43 15.42V20.14C15.43 20.86 16.02 21.45 16.74 21.45H27.53C28.25 21.45 28.84 20.86 28.84 20.14V15.42C28.84 14.7 28.25 14.11 27.53 14.11H16.74Z" fill="black"/>
<path d="M45.67 42.38C43.85 42.38 42.38 40.9 42.38 39.09V36.24H37.76C37.28 36.24 36.88 35.85 36.88 35.36C36.88 34.87 37.27 34.48 37.76 34.48H43.26C43.74 34.48 44.14 34.87 44.14 35.36V39.09C44.14 39.94 44.83 40.63 45.68 40.63C46.53 40.63 47.22 39.94 47.22 39.09V15.34L45.08 12.15C44.81 11.75 44.92 11.2 45.32 10.93C45.72 10.66 46.26 10.77 46.53 11.17L48.82 14.58C48.92 14.73 48.97 14.89 48.97 15.07V39.08C48.97 40.9 47.49 42.37 45.68 42.37L45.67 42.38Z" fill="black"/>
<path d="M48.08 26.54H46.62C44.37 26.54 42.54 24.71 42.54 22.46V20.93C42.54 20.7 42.63 20.48 42.8 20.31L47.47 15.64C47.81 15.3 48.37 15.3 48.71 15.64C49.05 15.98 49.05 16.54 48.71 16.88L44.3 21.29V22.46C44.3 23.74 45.34 24.79 46.63 24.79H48.09C48.57 24.79 48.97 25.18 48.97 25.67C48.97 26.16 48.58 26.55 48.09 26.55L48.08 26.54Z" fill="black"/>
</svg>
