<svg width="33" height="32" viewBox="0 0 33 32" fill="none" xmlns="http://www.w3.org/2000/svg">
<g clip-path="url(#clip0_3130_17935)">
<g clip-path="url(#clip1_3130_17935)">
<path d="M20.1121 10.032H14.0801L15.4321 6.552H18.7601L20.1121 10.032Z" fill="#FFCB09"/>
<path d="M23.28 16.2881H17.248L18.6 12.8081H21.928L23.28 16.2881Z" fill="#FFCB09"/>
<path d="M16.1602 16.2881H10.1282L11.4802 12.8081H14.8082L16.1602 16.2881Z" fill="#FFCB09"/>
<path d="M12.1441 21.6001H6.11206L7.46406 18.1201H10.7921L12.1441 21.6001Z" fill="#FFCB09"/>
<path d="M19.6001 21.6001H13.5681L14.9201 18.1201H18.2481L19.6001 21.6001Z" fill="#FFCB09"/>
<path d="M27.336 21.6001H21.304L22.656 18.1201H25.984L27.336 21.6001Z" fill="#FFCB09"/>
<path d="M12.3761 22.44H4.91207C4.78407 22.44 4.66407 22.384 4.59207 22.28C4.52007 22.176 4.49607 22.048 4.52807 21.928L6.20007 16.152C6.24807 15.984 6.40807 15.864 6.58407 15.864H10.7041C10.8801 15.864 11.0401 15.984 11.0881 16.152L12.7601 21.928C12.7921 22.048 12.7681 22.176 12.6961 22.28C12.6241 22.384 12.5041 22.44 12.3761 22.44ZM5.44007 21.64H11.8401L10.4001 16.664H6.88007L5.44007 21.64Z" fill="#121212"/>
<path d="M19.848 22.44H12.384C12.256 22.44 12.136 22.384 12.064 22.28C11.992 22.176 11.968 22.048 12 21.928L13.672 16.152C13.72 15.984 13.88 15.864 14.056 15.864H18.176C18.352 15.864 18.512 15.984 18.56 16.152L20.232 21.928C20.264 22.048 20.24 22.176 20.168 22.28C20.096 22.384 19.976 22.44 19.848 22.44ZM12.912 21.64H19.312L17.872 16.664H14.352L12.912 21.64Z" fill="#121212"/>
<path d="M27.3121 22.44H19.8481C19.7201 22.44 19.6001 22.384 19.5281 22.28C19.4561 22.176 19.4321 22.048 19.4641 21.928L21.1361 16.152C21.1841 15.984 21.3441 15.864 21.5201 15.864H25.6401C25.8161 15.864 25.9761 15.984 26.0241 16.152L27.6961 21.928C27.7281 22.048 27.7041 22.176 27.6321 22.28C27.5601 22.384 27.4401 22.44 27.3121 22.44ZM20.3761 21.64H26.7761L25.3361 16.664H21.8161L20.3761 21.64Z" fill="#121212"/>
<path d="M16.1122 16.6722H8.64815C8.52015 16.6722 8.40015 16.6162 8.32815 16.5122C8.25615 16.4082 8.23215 16.2802 8.26415 16.1602L9.93615 10.3842C9.98415 10.2162 10.1442 10.0962 10.3202 10.0962H14.4402C14.6161 10.0962 14.7762 10.2162 14.8242 10.3842L16.4962 16.1602C16.5282 16.2802 16.5042 16.4082 16.4322 16.5122C16.3602 16.6162 16.2401 16.6722 16.1122 16.6722ZM9.17615 15.8722H15.5761L14.1362 10.8962H10.6162L9.17615 15.8722Z" fill="#121212"/>
<path d="M23.576 16.6722H16.112C15.984 16.6722 15.864 16.6162 15.792 16.5122C15.72 16.4082 15.696 16.2802 15.728 16.1602L17.4 10.3842C17.448 10.2162 17.608 10.0962 17.784 10.0962H21.904C22.08 10.0962 22.24 10.2162 22.288 10.3842L23.96 16.1602C23.992 16.2802 23.968 16.4082 23.896 16.5122C23.824 16.6162 23.704 16.6722 23.576 16.6722ZM16.64 15.8722H23.04L21.6 10.8962H18.08L16.64 15.8722Z" fill="#121212"/>
<path d="M19.848 10.8961H12.384C12.256 10.8961 12.136 10.8321 12.064 10.7281C11.992 10.6241 11.968 10.4881 12.008 10.3681L13.68 5.19211C13.736 5.02411 13.888 4.91211 14.064 4.91211H18.184C18.36 4.91211 18.512 5.02411 18.568 5.19211L20.24 10.3681C20.28 10.4881 20.256 10.6241 20.184 10.7281C20.112 10.8321 19.992 10.8961 19.864 10.8961H19.848ZM12.928 10.0961H19.296L17.88 5.72011H14.344L12.928 10.0961Z" fill="#121212"/>
</g>
</g>
<defs>
<clipPath id="clip0_3130_17935">
<rect width="32" height="32" fill="white" transform="translate(0.199951)"/>
</clipPath>
<clipPath id="clip1_3130_17935">
<rect width="32" height="32" fill="white" transform="translate(0.199951)"/>
</clipPath>
</defs>
</svg>
