<svg xmlns="http://www.w3.org/2000/svg" width="23" height="17" viewBox="0 0 23 17" fill="none">
<path d="M7.05533 13.2319C7.05533 13.2319 6.97533 13.2319 6.93533 13.2159L1.03133 11.3519C0.911335 11.3119 0.815335 11.2239 0.775335 11.1039C0.735335 10.9839 0.751335 10.8559 0.823335 10.7519L7.53533 0.767912C7.63133 0.631912 7.79934 0.567912 7.95933 0.599912L13.5433 1.94391C13.6713 1.97591 13.7673 2.06391 13.8153 2.17591C13.8633 2.28791 13.8553 2.43191 13.7833 2.53591L7.39133 13.0399C7.31933 13.1599 7.18333 13.2319 7.04733 13.2319H7.05533ZM1.78333 10.7439L6.87933 12.3519L12.8233 2.58391L8.04733 1.43991L1.78333 10.7519V10.7439Z" fill="black"/>
<path d="M7.4792 16.6398C7.4392 16.6398 7.3912 16.6398 7.3512 16.6158L0.703204 14.3918C0.527204 14.3278 0.415204 14.1598 0.431204 13.9678L0.759203 10.9118C0.775203 10.7918 0.839204 10.6878 0.935204 10.6158C1.0312 10.5518 1.1592 10.5358 1.2712 10.5678L7.1752 12.4318C7.3272 12.4798 7.4312 12.6078 7.4552 12.7678L7.8712 16.1758C7.8872 16.3118 7.8312 16.4478 7.7272 16.5358C7.6552 16.5918 7.5672 16.6238 7.4712 16.6238L7.4792 16.6398ZM1.2632 13.7438L7.0072 15.6638L6.6952 13.1358L1.5032 11.4958L1.2632 13.7438Z" fill="black"/>
<path d="M14.6636 11.4241C14.6636 11.4241 14.5996 11.4241 14.5676 11.4161L11.5756 10.6961C11.3596 10.6481 11.2316 10.4321 11.2796 10.2161C11.3276 10.0001 11.5436 9.86414 11.7596 9.92014L14.5836 10.6001L16.0076 9.68014L12.8716 8.33614C12.6716 8.24814 12.5756 8.01614 12.6636 7.80814C12.7516 7.60814 12.9836 7.51214 13.1916 7.60014L17.0156 9.24014C17.1516 9.29614 17.2476 9.42414 17.2556 9.57614C17.2716 9.72014 17.1996 9.86414 17.0716 9.94414L14.8796 11.3681C14.8156 11.4081 14.7356 11.4321 14.6636 11.4321V11.4241Z" fill="black"/>
<path d="M17.343 10.056C17.295 10.056 17.247 10.048 17.199 10.032L12.879 8.33604C12.671 8.25604 12.575 8.02404 12.655 7.81604C12.735 7.60804 12.967 7.51204 13.175 7.59204L16.823 9.02404L16.375 6.60004L14.191 6.19204C13.975 6.15204 13.831 5.94404 13.871 5.72804C13.911 5.51204 14.127 5.36804 14.335 5.40804L16.791 5.86404C16.951 5.89604 17.079 6.02404 17.111 6.18404L17.743 9.58404C17.767 9.72804 17.719 9.87204 17.607 9.96804C17.535 10.032 17.447 10.056 17.351 10.056H17.343Z" fill="black"/>
<path d="M16.7121 6.64789C16.7121 6.64789 16.6641 6.64789 16.6401 6.64789L14.1841 6.19189C13.9681 6.15189 13.8241 5.94389 13.8641 5.72789C13.9041 5.51189 14.1201 5.36789 14.3281 5.40789L16.6561 5.83989L18.5681 4.95189L15.4881 3.99989C15.2801 3.93589 15.1601 3.71189 15.2241 3.50389C15.2881 3.29589 15.5121 3.17589 15.7201 3.23989L19.8001 4.49589C19.9601 4.54389 20.0721 4.68789 20.0801 4.8479C20.0881 5.0159 20.0001 5.16789 19.8481 5.23989L16.8721 6.6159C16.8161 6.6399 16.7601 6.65589 16.7041 6.65589L16.7121 6.64789Z" fill="black"/>
<path d="M15.0868 14.8801C14.9588 14.8801 14.8308 14.8161 14.7508 14.7041C14.6308 14.5201 14.6788 14.2721 14.8628 14.1521L18.6468 11.6161L17.2308 9.98412L14.8628 11.3601C14.6708 11.4721 14.4308 11.4081 14.3188 11.2161C14.2068 11.0241 14.2708 10.7841 14.4628 10.6721L17.1188 9.12812C17.2868 9.03212 17.4948 9.06412 17.6228 9.20812L19.5508 11.4321C19.6228 11.5201 19.6628 11.6321 19.6468 11.7441C19.6308 11.8561 19.5668 11.9601 19.4708 12.0241L15.3108 14.8081C15.2388 14.8561 15.1668 14.8721 15.0868 14.8721V14.8801Z" fill="black"/>
<path d="M5.08008 11.3361L10.4401 1.95215L13.4561 2.74415L7.55208 12.5601L5.08808 11.3281L5.08008 11.3361Z" fill="#FFCB09"/>
<path d="M19.2386 12.0958C19.1906 12.0958 19.1426 12.0958 19.1026 12.0718C18.9746 12.0238 18.8786 11.9118 18.8466 11.7758L18.2706 8.9518C18.2306 8.7358 18.3666 8.5278 18.5826 8.4798C18.7906 8.4398 19.0066 8.5758 19.0546 8.7918L19.5026 10.9838L21.8146 9.1678L20.7906 6.9278C20.7026 6.7278 20.7906 6.4878 20.9906 6.3998C21.1906 6.3118 21.4306 6.3998 21.5186 6.5998L22.6786 9.1278C22.7586 9.2958 22.7106 9.4958 22.5666 9.6078L19.4946 12.0238C19.4226 12.0798 19.3346 12.1118 19.2466 12.1118L19.2386 12.0958Z" fill="black"/>
<path d="M7.47989 16.6401C7.47989 16.6401 7.42389 16.6401 7.39189 16.6321C7.22389 16.5921 7.10389 16.4561 7.08789 16.2881L6.67189 12.8801C6.66389 12.7921 6.67989 12.7041 6.72789 12.6241L13.1199 2.12012C13.2319 1.93612 13.4799 1.87212 13.6639 1.98412L15.8239 3.28012C15.9199 3.33612 15.9839 3.42412 16.0079 3.53612C16.0319 3.64012 16.0079 3.75212 15.9519 3.84012L7.81589 16.4641C7.74389 16.5841 7.61589 16.6481 7.47989 16.6481V16.6401ZM7.47989 12.9201L7.74389 15.0961L15.0559 3.75212L13.5919 2.87212L7.47989 12.9201Z" fill="black"/>
<path d="M14.8785 14.88C14.8785 14.88 14.8065 14.88 14.7665 14.864L9.79051 13.408C9.58251 13.344 9.45451 13.128 9.51851 12.912C9.58251 12.704 9.79851 12.576 10.0145 12.64L14.4465 13.936L14.2785 11.336L11.5745 10.688C11.3585 10.64 11.2305 10.424 11.2785 10.208C11.3265 9.99204 11.5425 9.85604 11.7585 9.91204L14.7505 10.632C14.9185 10.672 15.0465 10.824 15.0545 10.992L15.2785 14.456C15.2865 14.584 15.2305 14.712 15.1265 14.792C15.0545 14.848 14.9665 14.88 14.8785 14.88Z" fill="black"/>
<path d="M17.343 10.0557C17.295 10.0557 17.247 10.0477 17.199 10.0317C17.071 9.98371 16.975 9.86371 16.951 9.72771L16.319 6.32771C16.287 6.15171 16.375 5.96771 16.543 5.89571L19.519 4.51971C19.687 4.43971 19.887 4.48771 19.999 4.63971L21.463 6.51971C21.527 6.60771 21.559 6.71171 21.543 6.81571C21.527 6.91971 21.471 7.01571 21.391 7.07971L17.583 9.97571C17.511 10.0317 17.423 10.0557 17.343 10.0557ZM17.159 6.48771L17.615 8.94371L20.583 6.67971L19.559 5.36771L17.151 6.47971L17.159 6.48771Z" fill="black"/>
</svg>