<svg width="40" height="40" viewBox="0 0 40 40" fill="none" xmlns="http://www.w3.org/2000/svg">
<g clip-path="url(#clip0_9121_6964)">
<path d="M22.9102 17.4299L27.4602 15.9299L35.6502 23.2299L37.3102 27.1799L33.3102 28.1899L33.5302 22.9299L30.1702 23.6199L22.9102 17.4299Z" fill="#FFCB09"/>
<path d="M16.7798 28.57L16.3398 24.99L21.9098 23.29L24.7598 26.1L16.7798 28.57Z" fill="#FFCB09"/>
<path d="M10.7999 30.26C10.7299 30.26 10.6599 30.25 10.5999 30.22L2.33992 26.57C2.09992 26.46 1.97992 26.19 2.06992 25.94L4.03992 20.46C4.08992 20.33 4.17992 20.23 4.30992 20.17C4.42992 20.12 4.56992 20.11 4.69992 20.17L10.3999 22.44C10.5799 22.51 10.6999 22.67 10.7099 22.86L11.2899 29.73C11.3099 29.91 11.2299 30.08 11.0799 30.18C10.9899 30.24 10.8899 30.27 10.7899 30.27L10.7999 30.26ZM3.16992 25.84L10.2299 28.96L9.73992 23.24L4.80992 21.28L3.16992 25.84Z" fill="#121212"/>
<path d="M10.7998 30.2599C10.6998 30.2599 10.5998 30.2299 10.5198 30.1699C10.3998 30.0899 10.3198 29.9499 10.2998 29.7999L9.73977 23.2399L4.32977 21.0899C4.12977 21.0099 4.00977 20.8199 4.00977 20.5999C4.00977 20.3899 4.15977 20.1999 4.36977 20.1399L15.1598 16.8699C15.3198 16.8199 15.4998 16.8599 15.6298 16.9699L25.0798 25.2699C25.2198 25.3899 25.2798 25.5799 25.2398 25.7499C25.1998 25.9299 25.0698 26.0699 24.8898 26.1199L10.9298 30.2199C10.9298 30.2199 10.8398 30.2399 10.7898 30.2399L10.7998 30.2599ZM6.02977 20.6899L10.3998 22.4299C10.5798 22.4999 10.6998 22.6599 10.7098 22.8499L11.2398 29.1099L23.7398 25.4299L15.1798 17.9199L6.02977 20.6899Z" fill="#121212"/>
<path d="M10.2203 23.3899C10.0103 23.3899 9.8103 23.2499 9.7403 23.0399C9.6603 22.7799 9.8103 22.4999 10.0703 22.4099L18.4503 19.8099C18.7203 19.7299 18.9903 19.8799 19.0803 20.1399C19.1603 20.3999 19.0103 20.6799 18.7503 20.7699L10.3703 23.3699C10.3703 23.3699 10.2703 23.3899 10.2203 23.3899Z" fill="#121212"/>
<path d="M29.3699 30.1799C29.2499 30.1799 29.1299 30.1399 29.0399 30.0599L14.5099 17.3299C14.3599 17.1999 14.2999 16.9999 14.3599 16.8099L15.8799 11.6299C15.9299 11.4599 16.0599 11.3399 16.2199 11.2899L21.6999 9.7499C21.8599 9.6999 22.0399 9.7499 22.1699 9.8599L35.5199 21.8699C35.5799 21.9199 35.6199 21.9799 35.6499 22.0499L37.7899 27.2199C37.8399 27.3499 37.8399 27.4999 37.7799 27.6299C37.7199 27.7599 37.5999 27.8499 37.4699 27.8899L29.4999 30.1599C29.4999 30.1599 29.4099 30.1799 29.3599 30.1799H29.3699ZM15.4099 16.7899L29.4899 29.1299L36.6499 27.0899L34.7699 22.5499L21.7099 10.7999L16.7599 12.1899L15.4099 16.7999V16.7899Z" fill="#121212"/>
<path d="M29.37 30.18C29.37 30.18 29.33 30.18 29.3 30.18C29.03 30.14 28.83 29.89 28.87 29.62L29.64 23.82L16.02 12.21C15.81 12.03 15.78 11.71 15.96 11.5C16.14 11.29 16.46 11.26 16.67 11.44L30.5 23.22C30.63 23.33 30.69 23.5 30.67 23.67L29.87 29.74C29.84 29.99 29.62 30.17 29.37 30.17V30.18Z" fill="#121212"/>
<path d="M30.17 24.1198C29.95 24.1198 29.75 23.9698 29.69 23.7498C29.62 23.4798 29.77 23.2098 30.04 23.1398L35.06 21.7698C35.33 21.6998 35.6 21.8498 35.67 22.1198C35.74 22.3898 35.59 22.6598 35.32 22.7298L30.3 24.0998C30.3 24.0998 30.21 24.1198 30.17 24.1198Z" fill="#121212"/>
</g>
<defs>
<clipPath id="clip0_9121_6964">
<rect width="40" height="40" fill="white"/>
</clipPath>
</defs>
</svg>
