<svg width="230" height="115" viewBox="0 0 230 115" fill="none" xmlns="http://www.w3.org/2000/svg">
<path d="M115 114.953C178.237 114.953 229.5 112.491 229.5 109.453C229.5 106.416 178.237 103.953 115 103.953C51.7634 103.953 0.5 106.416 0.5 109.453C0.5 112.491 51.7634 114.953 115 114.953Z" fill="#F2F2F2"/>
<path d="M116.936 39.0117H95.1943C94.8141 39.0117 94.5059 38.7345 94.5059 38.3926C94.5059 38.0507 94.8141 37.7734 95.1943 37.7734H116.936C117.316 37.7734 117.625 38.0507 117.625 38.3926C117.625 38.7345 117.316 39.0117 116.936 39.0117Z" fill="#C2DCE5"/>
<path d="M111.285 39.0117H95.1943C94.8141 39.0117 94.5059 38.7345 94.5059 38.3926C94.5059 38.0507 94.8141 37.7734 95.1943 37.7734H111.285C111.665 37.7734 111.973 38.0507 111.973 38.3926C111.973 38.7345 111.665 39.0117 111.285 39.0117Z" fill="#00EBFF"/>
<path d="M116.936 42.668H95.1943C94.8141 42.668 94.5059 42.3908 94.5059 42.0488C94.5059 41.7069 94.8141 41.4297 95.1943 41.4297H116.936C117.316 41.4297 117.625 41.7069 117.625 42.0488C117.625 42.3908 117.316 42.668 116.936 42.668Z" fill="#C2DCE5"/>
<path d="M101.637 42.668H95.1943C94.8141 42.668 94.5059 42.3908 94.5059 42.0488C94.5059 41.7069 94.8141 41.4297 95.1943 41.4297H101.637C102.017 41.4297 102.325 41.7069 102.325 42.0488C102.325 42.3908 102.017 42.668 101.637 42.668Z" fill="#86F7C1"/>
<path style="mix-blend-mode:overlay" opacity="0.57" d="M102.029 16.8516C97.3749 16.8516 93.5938 20.243 93.5938 24.4385C93.5938 28.6339 97.3647 32.0254 102.029 32.0254C106.694 32.0254 110.465 28.6339 110.465 24.4385C110.465 20.243 106.694 16.8516 102.029 16.8516ZM102.029 28.3844C99.6046 28.3844 97.6318 26.6194 97.6318 24.4292C97.6318 22.2391 99.5943 20.4741 102.029 20.4741C104.465 20.4741 106.427 22.2391 106.427 24.4292C106.427 26.6194 104.465 28.3844 102.029 28.3844Z" fill="url(#paint0_linear_3094_25096)"/>
<path opacity="0.42" d="M96.2842 23.6885C97.0651 23.6885 97.7535 23.2727 98.1131 22.6443C98.8427 21.3598 100.322 20.4911 102.028 20.4911C103.734 20.4911 105.213 21.369 105.943 22.6443C106.302 23.2727 106.98 23.6885 107.772 23.6885C109.251 23.6885 110.258 22.3024 109.611 21.1103C108.244 18.5875 105.367 16.8594 102.038 16.8594C98.7091 16.8594 95.8321 18.5967 94.4655 21.1103C93.8182 22.3024 94.8252 23.6885 96.3047 23.6885H96.2842Z" fill="url(#paint1_linear_3094_25096)"/>
<path d="M144.842 0H88.3297C85.5264 0 83.2539 2.04385 83.2539 4.56508V99.7017C83.2539 102.223 85.5264 104.267 88.3297 104.267H144.842C147.645 104.267 149.918 102.223 149.918 99.7017V4.56508C149.918 2.04385 147.645 0 144.842 0Z" fill="#666868"/>
<path d="M119.024 100.419C119.024 101.205 118.315 101.842 117.442 101.842C116.568 101.842 115.859 101.205 115.859 100.419C115.859 99.6337 116.568 98.9961 117.442 98.9961C118.315 98.9961 119.024 99.6337 119.024 100.419Z" fill="#C4C4C4"/>
<path d="M144.397 4.35156H131.389C130.495 4.35156 129.724 4.92451 129.549 5.71C129.334 6.67107 128.399 7.35491 127.309 7.35491H105.866C104.776 7.35491 103.841 6.66183 103.626 5.71C103.451 4.91527 102.68 4.35156 101.786 4.35156H88.7783C87.72 4.35156 86.8672 5.11857 86.8672 6.0704V95.2835C86.8672 96.2354 87.72 97.0024 88.7783 97.0024H144.386C145.445 97.0024 146.298 96.2354 146.298 95.2835V6.0704C146.298 5.11857 145.445 4.35156 144.386 4.35156H144.397Z" fill="#FFF2C2"/>
<path opacity="0.31" d="M144.291 55.75C118.357 55.75 97.1704 74.0011 95.7422 97.0021H144.384C145.442 97.0021 146.295 96.2351 146.295 95.2832V55.7962C145.627 55.7685 144.959 55.75 144.291 55.75Z" fill="#EAEEEE"/>
<path d="M123.792 5.2506H109.376C109.037 5.2506 108.77 5.00109 108.77 4.70538C108.77 4.40042 109.047 4.16016 109.376 4.16016H123.792C124.131 4.16016 124.398 4.40966 124.398 4.70538C124.398 5.01033 124.12 5.2506 123.792 5.2506Z" fill="#282A57"/>
<g style="mix-blend-mode:multiply" opacity="0.13">
<path d="M121.446 19.7188H73.8109C71.8702 19.7188 70.2969 21.1337 70.2969 22.8792V29.7823C70.2969 31.5277 71.8702 32.9427 73.8109 32.9427H121.446C123.386 32.9427 124.96 31.5277 124.96 29.7823V22.8792C124.96 21.1337 123.386 19.7188 121.446 19.7188Z" fill="#212338"/>
</g>
<path d="M124.644 17.4219H74.4606C73.2236 17.4219 72.2207 18.3238 72.2207 19.4364V28.6313C72.2207 29.7439 73.2236 30.6458 74.4606 30.6458H124.644C125.881 30.6458 126.883 29.7439 126.883 28.6313V19.4364C126.883 18.3238 125.881 17.4219 124.644 17.4219Z" fill="#FFFBEC"/>
<path d="M92.2552 23.0133H78.5895C78.0244 23.0133 77.5723 22.6067 77.5723 22.0985C77.5723 21.5902 78.0244 21.1836 78.5895 21.1836H92.2552C92.8203 21.1836 93.2724 21.5902 93.2724 22.0985C93.2724 22.6067 92.8203 23.0133 92.2552 23.0133Z" fill="#FFCB09"/>
<path d="M120.902 26.7868H78.5895C78.0244 26.7868 77.5723 26.3802 77.5723 25.8719C77.5723 25.3636 78.0244 24.957 78.5895 24.957H120.902C121.467 24.957 121.919 25.3636 121.919 25.8719C121.919 26.3802 121.467 26.7868 120.902 26.7868Z" fill="#FFF2C2"/>
<path d="M179.272 58.7344C179.272 58.7344 184.924 60.8136 187.749 67.2823C190.575 73.7511 194.942 92.4642 192.887 96.1606C190.832 99.8571 173.621 99.626 173.621 99.626C173.621 99.626 177.731 66.3582 179.272 58.7344Z" fill="#FFD50D"/>
<path d="M105.168 34.9729C105.168 34.9729 104.172 31.3781 103.74 29.7055C103.309 28.0328 100.884 24.8262 100.596 24.3087C100.308 23.7912 96.1675 21.3516 96.1675 21.3516C95.1708 22.1186 95.4585 22.7654 96.8765 23.9206C98.3047 25.0757 99.3014 26.3602 99.3014 26.3602C99.3014 26.3602 98.017 27.386 97.7293 28.0328C97.4416 28.6705 97.7293 29.0586 97.5855 29.5761C97.4416 30.0936 96.8765 31.3781 96.8765 32.2745C96.8765 33.1709 97.4519 34.7141 98.3047 34.8435C99.1575 34.9729 99.0137 33.8177 99.0137 33.8177C99.0137 33.8177 99.3014 35.2316 100.442 35.9986C101.582 36.7656 102.723 36.895 102.723 36.895L103.432 37.5419L105.436 36.128L105.148 34.9729H105.168Z" fill="url(#paint2_linear_3094_25096)"/>
<path d="M149.882 37.9766C149.882 37.9766 146.645 41.2294 146.553 42.3476C146.46 43.4565 150.077 43.6321 150.077 43.6321L149.882 37.9766Z" fill="#EEA982"/>
<path d="M155.777 51.7297L155.027 56.84C155.027 56.84 162.055 58.8546 169.525 55.4909L170.275 46.0742L155.777 51.7205V51.7297Z" fill="#EEA982"/>
<path d="M150.11 32.3115C150.11 32.3115 147.706 48.6774 149.638 51.0062C151.569 53.3257 164.742 53.9818 169.047 49.7309C173.352 45.4708 181.295 36.2205 175.284 25.9352C170.763 18.1912 152.484 17.8123 150.11 32.3208V32.3115Z" fill="#F5B48F"/>
<path d="M178.282 29.7828C178.282 29.7828 178.488 24.1273 174.511 21.2995C170.524 18.4717 154.064 19.2387 149.451 23.7576C144.837 28.2857 156.057 35.4383 157.732 35.8172C159.407 36.1961 155.42 41.6668 156.263 42.4153C157.105 43.1731 158.564 42.4153 159.201 41.0938C159.828 39.7724 160.671 38.072 162.767 39.2087C164.863 40.3361 162.767 45.2431 160.876 45.8068C158.986 46.3705 160.034 47.886 161.082 49.3923C162.13 50.8986 171.984 49.956 175.128 47.3131C178.272 44.6701 185.403 32.6013 178.272 29.7735L178.282 29.7828Z" fill="url(#paint3_linear_3094_25096)"/>
<path d="M178.257 29.8414C178.257 29.8414 178.462 24.1859 174.486 21.3581C170.499 18.5303 154.039 19.2973 149.425 23.8162C144.812 28.3443 156.032 35.4969 157.707 35.8758C159.382 36.2547 155.395 41.7254 156.237 42.4739C157.08 43.2317 158.549 42.4739 159.176 41.1524C159.803 39.831 160.645 38.1306 162.742 39.2673C164.838 40.3947 162.742 45.3017 160.851 45.8654C158.96 46.4291 160.008 47.9446 161.056 49.4509C162.104 50.9572 171.958 50.0146 175.102 47.3717C178.246 44.7287 185.377 32.6599 178.246 29.8321L178.257 29.8414Z" fill="#404040"/>
<path d="M151.871 56.1153C151.871 56.1153 154.871 54.5721 158.436 54.4427C162.002 54.3133 171.722 52.5206 172.431 53.9252C173.14 55.3391 172.718 57.1318 172.718 57.1318C172.718 57.1318 156.72 58.287 153.72 58.1576C150.72 58.0282 150.288 57.3906 151.86 56.1061L151.871 56.1153Z" fill="#EAEEEE"/>
<path d="M171.863 56.034C171.863 56.034 159.101 56.8681 152.443 57.0295C145.775 57.1999 122.163 61.182 119.121 61.182C116.08 61.182 105.795 33.5942 105.795 33.5942C105.795 33.5942 102.558 32.2668 98.9414 36.0875C98.9414 36.0875 103.699 57.8636 112.083 71.4871C115.135 73.6486 141.603 71.6575 141.603 71.6575C141.603 71.6575 141.603 76.1419 142.178 82.133C142.754 88.1241 141.326 94.3484 142.466 102.824C143.607 111.299 143.042 111.802 144.47 112.295C145.898 112.797 165.441 114.069 183.586 112.295C186.155 112.044 186.165 108.062 186.165 108.062C186.165 108.062 183.597 62.9309 182.734 60.6887C181.881 58.4466 176.733 55.8725 171.883 56.034H171.863Z" fill="#FFC60A"/>
<g style="mix-blend-mode:overlay" opacity="0.3">
<path d="M151.303 65.98C143.874 62.2357 131.02 68.7276 120.169 69.7242C109.319 70.7209 111.312 64.4805 104.747 49.7548C101.171 41.7365 101.068 36.8339 101.716 34.0234C100.853 34.4365 99.9175 35.083 98.9414 36.1066C98.9414 36.1066 103.699 57.9078 112.083 71.547C115.135 73.7109 141.603 71.7176 141.603 71.7176C141.603 71.7176 141.603 76.2071 142.178 82.2052C142.754 88.2032 141.326 94.4347 142.466 102.92C143.607 111.405 143.042 111.908 144.47 112.402C145.158 112.644 150.46 113.291 157.652 113.479C161.434 101.968 150.645 102.049 148.189 88.697C145.621 74.7166 158.762 69.7242 151.333 65.98H151.303Z" fill="#EAEEEE"/>
</g>
<defs>
<linearGradient id="paint0_linear_3094_25096" x1="103.787" y1="8.87653" x2="101.546" y2="33.45" gradientUnits="userSpaceOnUse">
<stop stop-color="#282A57" stop-opacity="0"/>
<stop offset="0.38" stop-color="#787995" stop-opacity="0.37"/>
<stop offset="1" stop-color="white"/>
</linearGradient>
<linearGradient id="paint1_linear_3094_25096" x1="101.155" y1="7.98796" x2="102.352" y2="31.53" gradientUnits="userSpaceOnUse">
<stop stop-color="#1AE5FF"/>
<stop offset="0.26" stop-color="#63E8F8"/>
<stop offset="0.7" stop-color="#EAEEEE"/>
</linearGradient>
<linearGradient id="paint2_linear_3094_25096" x1="100.545" y1="31.8124" x2="102.282" y2="36.9065" gradientUnits="userSpaceOnUse">
<stop stop-color="#FFB197"/>
<stop offset="1" stop-color="#FF707D"/>
</linearGradient>
<linearGradient id="paint3_linear_3094_25096" x1="155.122" y1="15.0525" x2="169.331" y2="42.889" gradientUnits="userSpaceOnUse">
<stop stop-color="#A43F41"/>
<stop offset="1" stop-color="#642F41"/>
</linearGradient>
</defs>
</svg>
