<svg xmlns="http://www.w3.org/2000/svg" width="26" height="25" viewBox="0 0 26 25" fill="none">
<path d="M12.5614 0C5.65295 0 0.052597 5.59643 0.052597 12.5C0.052597 19.4036 5.65295 25 12.5614 25C19.4698 25 25.0701 19.4036 25.0701 12.5C25.0701 5.59643 19.4698 0 12.5614 0ZM9.47854 18.0702H6.8887V9.71492H9.47854V18.0702ZM8.17048 8.61797C7.32254 8.61797 6.63893 7.92827 6.63893 7.07436C6.63893 6.22044 7.32254 5.53074 8.17048 5.53074C9.01842 5.53074 9.70202 6.22044 9.70202 7.07436C9.70202 7.92827 9.01842 8.61797 8.17048 8.61797ZM19.1806 18.0702H16.6039V13.6823C16.6039 12.4803 16.1437 11.8103 15.1972 11.8103C14.1586 11.8103 13.6196 12.5131 13.6196 13.6823V18.0702H11.135V9.71492H13.6196V10.8382C13.6196 10.8382 14.369 9.45875 16.1372 9.45875C17.9054 9.45875 19.1806 10.5426 19.1806 12.7824V18.0767V18.0702Z" fill="#0072b1 "/>
</svg>