<svg width="16" height="17" viewBox="0 0 16 17" fill="none" xmlns="http://www.w3.org/2000/svg">
<g clip-path="url(#clip0_10544_81779)">
<path d="M8.00026 15.5669C4.10693 15.5669 0.933594 12.4003 0.933594 8.50026C0.933594 4.60026 4.10693 1.43359 8.00026 1.43359C11.8936 1.43359 15.0669 4.60026 15.0669 8.50026C15.0669 12.4003 11.9003 15.5669 8.00026 15.5669ZM8.00026 2.23359C4.54693 2.23359 1.73359 5.04693 1.73359 8.50026C1.73359 11.9536 4.54693 14.7669 8.00026 14.7669C11.4536 14.7669 14.2669 11.9536 14.2669 8.50026C14.2669 5.04693 11.4536 2.23359 8.00026 2.23359Z" fill="black"/>
<path d="M8.00156 11.5669C7.78156 11.5669 7.60156 11.3869 7.60156 11.1669V7.83359C7.60156 7.61359 7.78156 7.43359 8.00156 7.43359C8.22156 7.43359 8.40156 7.61359 8.40156 7.83359V11.1669C8.40156 11.3869 8.22156 11.5669 8.00156 11.5669Z" fill="black"/>
<path d="M8 6.40091C7.72667 6.40091 7.5 6.17424 7.5 5.90091V5.76758C7.5 5.49424 7.72667 5.26758 8 5.26758C8.27333 5.26758 8.5 5.49424 8.5 5.76758V5.90091C8.5 6.17424 8.27333 6.40091 8 6.40091Z" fill="black"/>
</g>
<defs>
<clipPath id="clip0_10544_81779">
<rect width="16" height="16" fill="white" transform="translate(0 0.5)"/>
</clipPath>
</defs>
</svg>
