<svg width="25" height="25" viewBox="0 0 25 25" fill="none" xmlns="http://www.w3.org/2000/svg">
<g id="Instagram">
<path id="Vector" d="M18.0444 8.6218C17.9246 8.31281 17.7796 8.09841 17.5526 7.8651C17.3255 7.63178 17.1048 7.49305 16.7959 7.37324C16.5625 7.28496 16.2157 7.17776 15.5725 7.14623C14.8789 7.1147 14.6708 7.1084 12.9115 7.1084C11.1521 7.1084 10.944 7.1147 10.2504 7.14623C9.60721 7.17776 9.26038 7.28496 9.02707 7.37324C8.71808 7.49305 8.50369 7.63809 8.27037 7.8651C8.04336 8.09841 7.89833 8.31281 7.77852 8.6218C7.69023 8.85511 7.58303 9.20194 7.55151 9.84513C7.51998 10.5388 7.51367 10.7469 7.51367 12.5062C7.51367 14.2655 7.51998 14.4736 7.55151 15.1673C7.58303 15.8104 7.69023 16.1573 7.77852 16.3906C7.89833 16.6996 8.04336 16.914 8.27037 17.1473C8.50369 17.3743 8.71808 17.5193 9.02707 17.6391C9.26038 17.7274 9.60721 17.8346 10.2504 17.8661C10.944 17.8977 11.1521 17.904 12.9115 17.904C14.6708 17.904 14.8789 17.8977 15.5725 17.8661C16.2157 17.8346 16.5625 17.7274 16.7959 17.6391C17.1048 17.5193 17.3192 17.3743 17.5526 17.1473C17.7859 16.914 17.9246 16.6996 18.0444 16.3906C18.1327 16.1573 18.2399 15.8104 18.2714 15.1673C18.303 14.4736 18.3093 14.2655 18.3093 12.5062C18.3093 10.7469 18.303 10.5388 18.2714 9.84513C18.2399 9.20194 18.1327 8.85511 18.0444 8.6218ZM12.9178 15.8798C11.0512 15.8798 9.53784 14.3664 9.53784 12.4999C9.53784 10.6334 11.0512 9.11996 12.9178 9.11996C14.7843 9.11996 16.2977 10.6334 16.2977 12.4999C16.2977 14.3664 14.7843 15.8798 12.9178 15.8798ZM16.4301 9.77577C15.995 9.77577 15.6419 9.42264 15.6419 8.98754C15.6419 8.55243 15.995 8.19931 16.4301 8.19931C16.8652 8.19931 17.2183 8.55243 17.2183 8.98754C17.2183 9.42264 16.8652 9.77577 16.4301 9.77577Z" fill="#F7F7F7"/>
<path id="Vector_2" d="M12.9117 10.3047C11.701 10.3047 10.7173 11.2884 10.7173 12.4991C10.7173 13.7098 11.701 14.6935 12.9117 14.6935C14.1224 14.6935 15.1061 13.7098 15.1061 12.4991C15.1061 11.2884 14.1224 10.3047 12.9117 10.3047Z" fill="#F7F7F7"/>
<path id="Vector_3" d="M12.9116 0.5C6.28419 0.5 0.911621 5.87257 0.911621 12.5C0.911621 19.1274 6.28419 24.5 12.9116 24.5C19.5391 24.5 24.9116 19.1274 24.9116 12.5C24.9116 5.87257 19.5391 0.5 12.9116 0.5ZM19.4508 15.2115C19.4192 15.9115 19.3057 16.3907 19.1418 16.8069C18.9715 17.242 18.7508 17.6077 18.3851 17.9735C18.0193 18.3392 17.6536 18.5662 17.2185 18.7302C16.8023 18.8941 16.3231 19.0013 15.6231 19.0328C14.9232 19.0644 14.6962 19.0707 12.9116 19.0707C11.1271 19.0707 10.9001 19.0644 10.2001 19.0328C9.50016 19.0013 9.02092 18.8878 8.60474 18.7302C8.16963 18.5599 7.8039 18.3392 7.43816 17.9735C7.07242 17.6077 6.84541 17.242 6.68146 16.8069C6.51751 16.3907 6.41031 15.9115 6.37878 15.2115C6.34725 14.5116 6.34094 14.2846 6.34094 12.5C6.34094 10.7154 6.34725 10.4884 6.37878 9.78849C6.41031 9.08854 6.52381 8.6093 6.68146 8.19312C6.85172 7.75801 7.07242 7.39228 7.43816 7.02654C7.8039 6.6608 8.16963 6.43379 8.60474 6.26984C9.02092 6.10589 9.50016 5.99869 10.2001 5.96085C10.9001 5.92932 11.1271 5.92302 12.9116 5.92302C14.6962 5.92302 14.9232 5.92932 15.6231 5.96085C16.3231 5.99238 16.8023 6.10589 17.2185 6.26984C17.6536 6.44009 18.0193 6.6608 18.3851 7.02654C18.7508 7.39228 18.9778 7.75801 19.1418 8.19312C19.3057 8.6093 19.4129 9.08854 19.4508 9.78849C19.4823 10.4884 19.4886 10.7154 19.4886 12.5C19.4886 14.2846 19.4823 14.5116 19.4508 15.2115Z" fill="#F7F7F7"/>
</g>
</svg>
