<svg width="24" height="24" viewBox="0 0 24 24" fill="none" xmlns="http://www.w3.org/2000/svg">
<g clip-path="url(#clip0_8701_2053)">
<path d="M15.432 8.95199C15.432 10.386 14.268 11.544 12.84 11.544C11.412 11.544 10.248 10.38 10.248 8.95199C10.248 7.52399 11.412 6.35999 12.84 6.35999C14.268 6.35999 15.432 7.52399 15.432 8.95199Z" fill="#FFCB09"/>
<path d="M7.03803 20.808C6.96003 20.808 6.88204 20.778 6.82804 20.718L3.27604 17.172C3.22204 17.118 3.18604 17.04 3.18604 16.962C3.18604 16.884 3.21604 16.806 3.27604 16.752L6.82203 13.206C6.82203 13.206 6.83403 13.194 6.84003 13.188C7.35603 12.75 8.11204 12.498 8.91004 12.498C9.64804 12.498 10.344 12.708 10.866 13.098C11.22 13.356 11.61 13.494 11.988 13.494H13.71C14.346 13.494 14.862 14.01 14.862 14.646V14.724C14.862 15.36 14.346 15.876 13.71 15.876H11.616C11.4 15.876 11.22 16.05 11.22 16.272C11.22 16.494 11.394 16.662 11.616 16.662H14.964L18.606 13.932C18.882 13.728 19.218 13.644 19.56 13.704C19.896 13.764 20.196 13.956 20.382 14.238C20.466 14.358 20.442 14.52 20.34 14.622L15.864 18.846C15.414 19.272 14.82 19.506 14.196 19.506H9.00604C8.65204 19.506 8.31603 19.644 8.06403 19.896L7.24203 20.718C7.18203 20.778 7.10404 20.808 7.03204 20.808H7.03803ZM3.91204 16.962L7.03803 20.088L7.65003 19.476C8.01604 19.11 8.50203 18.912 9.01803 18.912H14.208C14.676 18.912 15.12 18.738 15.462 18.414L19.716 14.4C19.644 14.352 19.554 14.316 19.464 14.298C19.29 14.268 19.116 14.31 18.972 14.418L15.246 17.208C15.192 17.244 15.132 17.268 15.066 17.268H11.622C11.076 17.268 10.626 16.824 10.626 16.278C10.626 15.732 11.07 15.282 11.622 15.282H13.716C14.022 15.282 14.268 15.036 14.268 14.73V14.652C14.268 14.346 14.022 14.1 13.716 14.1H11.994C11.484 14.1 10.968 13.92 10.512 13.584C10.098 13.278 9.51004 13.104 8.91004 13.104C8.25604 13.104 7.65004 13.302 7.23604 13.644L3.91204 16.968V16.962Z" fill="#121212"/>
<path d="M11.8201 11.868C9.52811 11.868 7.66211 10.002 7.66211 7.71C7.66211 5.418 9.52811 3.552 11.8201 3.552C14.1121 3.552 15.9781 5.418 15.9781 7.71C15.9781 10.002 14.1121 11.868 11.8201 11.868ZM11.8201 4.152C9.85811 4.152 8.26211 5.748 8.26211 7.71C8.26211 9.672 9.85811 11.268 11.8201 11.268C13.7821 11.268 15.3781 9.672 15.3781 7.71C15.3781 5.748 13.7821 4.152 11.8201 4.152Z" fill="#121212"/>
<path d="M13.1762 6.29995H10.8662C10.6982 6.29995 10.5662 6.16795 10.5662 5.99995C10.5662 5.83195 10.6982 5.69995 10.8662 5.69995H13.1762C13.3442 5.69995 13.4762 5.83195 13.4762 5.99995C13.4762 6.16795 13.3442 6.29995 13.1762 6.29995Z" fill="#121212"/>
<path d="M13.1762 7.55398H10.4582C10.2902 7.55398 10.1582 7.42198 10.1582 7.25398C10.1582 7.08598 10.2902 6.95398 10.4582 6.95398H13.1762C13.3442 6.95398 13.4762 7.08598 13.4762 7.25398C13.4762 7.42198 13.3442 7.55398 13.1762 7.55398Z" fill="#121212"/>
<path d="M12.2823 10.416C12.2103 10.416 12.1383 10.392 12.0843 10.344L10.2663 8.74201C10.1403 8.63401 10.1283 8.44201 10.2423 8.31601C10.3503 8.19001 10.5423 8.17801 10.6683 8.29201L12.4863 9.89401C12.6123 10.002 12.6243 10.194 12.5103 10.32C12.4503 10.386 12.3663 10.422 12.2823 10.422V10.416Z" fill="#121212"/>
<path d="M10.8662 8.81397H10.4582C10.2902 8.81397 10.1582 8.68197 10.1582 8.51397C10.1582 8.34597 10.2902 8.21397 10.4582 8.21397H10.8662C11.2982 8.21397 11.6522 7.78197 11.6522 7.25397C11.6522 6.72597 11.2982 6.29397 10.8662 6.29397H10.4582C10.2902 6.29397 10.1582 6.16197 10.1582 5.99397C10.1582 5.82597 10.2902 5.69397 10.4582 5.69397H10.8662C11.6282 5.69397 12.2522 6.39597 12.2522 7.25397C12.2522 8.11197 11.6282 8.81397 10.8662 8.81397Z" fill="#121212"/>
</g>
<defs>
<clipPath id="clip0_8701_2053">
<rect width="24" height="24" fill="white"/>
</clipPath>
</defs>
</svg>
