<svg width="26" height="25" viewBox="0 0 26 25" fill="none" xmlns="http://www.w3.org/2000/svg">
	<path d="M17.8942 8.46025C17.7693 8.13839 17.6181 7.91506 17.3815 7.67202C17.1449 7.42898 16.9148 7.28447 16.5927 7.15967C16.3495 7.06771 15.988 6.95604 15.3175 6.9232C14.5945 6.89036 14.3776 6.88379 12.5436 6.88379C10.7097 6.88379 10.4928 6.89036 9.76975 6.9232C9.09929 6.95604 8.73776 7.06771 8.49455 7.15967C8.17247 7.28447 7.94898 7.43555 7.70577 7.67202C7.46914 7.91506 7.31796 8.13839 7.19306 8.46025C7.10104 8.70329 6.9893 9.06456 6.95643 9.73455C6.92356 10.4571 6.91699 10.6739 6.91699 12.5065C6.91699 14.3391 6.92356 14.5559 6.95643 15.2784C6.9893 15.9484 7.10104 16.3097 7.19306 16.5527C7.31796 16.8746 7.46914 17.0979 7.70577 17.341C7.94898 17.5774 8.17247 17.7285 8.49455 17.8533C8.73776 17.9453 9.09929 18.0569 9.76975 18.0898C10.4928 18.1226 10.7097 18.1292 12.5436 18.1292C14.3776 18.1292 14.5945 18.1226 15.3175 18.0898C15.988 18.0569 16.3495 17.9453 16.5927 17.8533C16.9148 17.7285 17.1383 17.5774 17.3815 17.341C17.6247 17.0979 17.7693 16.8746 17.8942 16.5527C17.9862 16.3097 18.098 15.9484 18.1308 15.2784C18.1637 14.5559 18.1703 14.3391 18.1703 12.5065C18.1703 10.6739 18.1637 10.4571 18.1308 9.73455C18.098 9.06456 17.9862 8.70329 17.8942 8.46025ZM12.5502 16.0207C10.6045 16.0207 9.02698 14.4442 9.02698 12.4999C9.02698 10.5556 10.6045 8.97917 12.5502 8.97917C14.4959 8.97917 16.0734 10.5556 16.0734 12.4999C16.0734 14.4442 14.4959 16.0207 12.5502 16.0207ZM16.2115 9.6623C15.7579 9.6623 15.3898 9.29446 15.3898 8.84123C15.3898 8.38799 15.7579 8.02015 16.2115 8.02015C16.665 8.02015 17.0331 8.38799 17.0331 8.84123C17.0331 9.29446 16.665 9.6623 16.2115 9.6623Z" fill="#f56040">
	</path>
	<path d="M12.5443 10.2139C11.2823 10.2139 10.2568 11.2386 10.2568 12.4997C10.2568 13.7609 11.2823 14.7856 12.5443 14.7856C13.8064 14.7856 14.8318 13.7609 14.8318 12.4997C14.8318 11.2386 13.8064 10.2139 12.5443 10.2139Z" fill="#f56040">
	</path>
	<path d="M12.5439 0C5.63551 0 0.0351562 5.59643 0.0351562 12.5C0.0351562 19.4036 5.63551 25 12.5439 25C19.4523 25 25.0527 19.4036 25.0527 12.5C25.0527 5.59643 19.4523 0 12.5439 0ZM19.3603 15.3245C19.3274 16.0536 19.2091 16.5528 19.0382 16.9863C18.8607 17.4396 18.6307 17.8205 18.2494 18.2015C17.8682 18.5825 17.487 18.819 17.0334 18.9898C16.5996 19.1605 16.1 19.2722 15.3704 19.305C14.6408 19.3379 14.4041 19.3445 12.5439 19.3445C10.6837 19.3445 10.4471 19.3379 9.71745 19.305C8.98783 19.2722 8.48827 19.154 8.05444 18.9898C7.60089 18.8124 7.21964 18.5825 6.8384 18.2015C6.45715 17.8205 6.22052 17.4396 6.04962 16.9863C5.87872 16.5528 5.76697 16.0536 5.7341 15.3245C5.70124 14.5954 5.69467 14.3589 5.69467 12.5C5.69467 10.6411 5.70124 10.4046 5.7341 9.67551C5.76697 8.9464 5.88529 8.44719 6.04962 8.01366C6.22709 7.56043 6.45715 7.17945 6.8384 6.79848C7.21964 6.4175 7.60089 6.18103 8.05444 6.01025C8.48827 5.83946 8.98783 5.7278 9.71745 5.68839C10.4471 5.65554 10.6837 5.64898 12.5439 5.64898C14.4041 5.64898 14.6408 5.65554 15.3704 5.68839C16.1 5.72123 16.5996 5.83946 17.0334 6.01025C17.487 6.1876 17.8682 6.4175 18.2494 6.79848C18.6307 7.17945 18.8673 7.56043 19.0382 8.01366C19.2091 8.44719 19.3209 8.9464 19.3603 9.67551C19.3932 10.4046 19.3997 10.6411 19.3997 12.5C19.3997 14.3589 19.3932 14.5954 19.3603 15.3245Z" fill="#f56040">
	</path>
</svg>
