<svg xmlns="http://www.w3.org/2000/svg" viewbox="0 0 24 24" version="1.1" class="ow-svg" style="height: 24px; width: 24px; fill: #848482;"><g><path fill="none" stroke="#848482" stroke-width=".72" d="M12.3824146,13.7892398 L12.3824146,17.9157782 L15.1966205,17.9157782 L15.1966205,19.7122532 C14.2196595,19.6892861 13.3593756,19.7352203 12.4053034,19.7122532 C12.4053034,20.5054583 12.3824146,21.2527291 12.4053034,22 C11.7303629,21.9770329 11.1961048,22 10.5909472,22 C10.5909472,21.9770329 10.5909472,14.7177501 10.613836,11.2166684 C10.613836,10.9836364 10.5909472,10.9136148 10.3347043,10.8435932 C7.21847781,10.0263007 5.98639042,6.33812117 7.94031243,3.79437526 C9.68488566,1.50662845 13.0115774,1.39067263 14.9186053,3.53725583 C16.2913751,5.10069886 16.361158,7.55145604 15.1050653,9.20900815 C14.4541302,10.0722348 13.5927297,10.6324079 12.5699911,10.9124944 C12.4521975,10.9124944 12.3824146,10.9825161 12.3824146,11.0766252 C12.4053034,12.5241124 12.3824146,12.836401 12.3824146,14.2838882 M9.5910974,4.58758033 C8.52146466,5.66087193 8.49745934,7.36547858 9.54420327,8.43877018 C10.5920637,9.48909468 12.336637,9.48909468 13.3833809,8.43877018 C14.4301248,7.38844567 14.4530136,5.63790483 13.4062697,4.58758033 C12.3824146,3.53725583 10.6378413,3.53725583 9.5910974,4.58758033 Z" transform="rotate(-135 11.5 12)" stroke-linecap="round" stroke-linejoin="round"/></g></svg>