<svg width="32" height="32" viewBox="0 0 32 32" fill="none" xmlns="http://www.w3.org/2000/svg">
<g clip-path="url(#clip0_7983_19226)">
<path d="M23.83 20.91C22.05 20.91 20.46 21.68 19.36 22.9C16 24.93 4.89001 12.08 4.89001 12.08C7.69001 21.42 15.25 25.59 17.8 26.76C17.8 26.82 17.8 26.89 17.8 26.95C19.75 28.56 19.24 28 22.58 28C25.92 28 27.64 25.89 27.7 24.9C27.92 21.57 27.19 20.9 23.85 20.9L23.83 20.91Z" fill="#FFCB09"/>
<path d="M22.56 28.5C21.26 28.5 19.88 28.19 18.45 27.58C17.03 26.98 15.61 26.16 14.22 25.15C12.83 24.13 11.48 22.98 10.23 21.74C8.98002 20.47 7.83002 19.14 6.83002 17.75C5.81002 16.33 5.00002 14.93 4.42002 13.56C3.82002 12.14 3.52002 10.75 3.52002 9.44C3.52002 8.56 3.68002 7.71 3.99002 6.94C4.31002 6.13 4.81002 5.4 5.49002 4.76C6.34002 3.92 7.30002 3.5 8.33002 3.5C8.75002 3.5 9.16002 3.59 9.52002 3.76C9.93002 3.95 10.27 4.23 10.52 4.6L13.3 8.52C13.53 8.84 13.71 9.15 13.84 9.46C13.97 9.77 14.05 10.09 14.05 10.38C14.05 10.76 13.94 11.14 13.73 11.49C13.56 11.79 13.31 12.11 12.98 12.44L12.08 13.38C12.08 13.38 12.03 13.44 12.03 13.51C12.03 13.56 12.03 13.6 12.05 13.67L12.07 13.71C12.09 13.77 12.11 13.82 12.13 13.87C12.3 14.16 12.66 14.66 13.15 15.24C13.74 15.93 14.3 16.54 14.87 17.11C15.61 17.84 16.19 18.38 16.74 18.84C17.31 19.32 17.8 19.67 18.2 19.88L18.38 19.96C18.38 19.96 18.53 20 18.62 19.91L19.53 19.01C19.88 18.66 20.2 18.41 20.51 18.25C21.1 17.89 21.79 17.84 22.51 18.13C22.8 18.25 23.1 18.42 23.44 18.65L27.42 21.47C27.81 21.74 28.08 22.06 28.25 22.45C28.41 22.85 28.48 23.21 28.48 23.59C28.48 24.11 28.36 24.62 28.13 25.11C27.89 25.61 27.6 26.05 27.23 26.46C26.59 27.17 25.88 27.67 25.08 28C24.29 28.33 23.44 28.49 22.55 28.49L22.56 28.5ZM8.33002 4.5C7.57002 4.5 6.85002 4.83 6.18002 5.48C5.60002 6.02 5.18002 6.64 4.91002 7.31C4.65002 7.97 4.51002 8.69 4.51002 9.44C4.51002 10.61 4.79002 11.87 5.33002 13.17C5.88002 14.47 6.65002 15.81 7.63002 17.16C8.60002 18.5 9.71002 19.8 10.93 21.02C12.15 22.23 13.45 23.34 14.81 24.33C16.14 25.29 17.49 26.08 18.84 26.65C20.99 27.57 23.02 27.77 24.7 27.07C25.36 26.8 25.95 26.38 26.49 25.78C26.79 25.45 27.03 25.09 27.22 24.68C27.39 24.33 27.47 23.96 27.47 23.59C27.47 23.34 27.42 23.11 27.31 22.84C27.22 22.64 27.06 22.46 26.83 22.3L22.85 19.48C22.58 19.3 22.33 19.16 22.11 19.07C21.68 18.9 21.34 18.91 20.98 19.13C20.73 19.26 20.48 19.46 20.21 19.73L19.3 20.63C18.95 20.99 18.39 21.05 17.98 20.9L17.84 20.84C17.84 20.84 17.72 20.79 17.71 20.78C17.25 20.53 16.7 20.14 16.07 19.61C15.5 19.13 14.9 18.57 14.14 17.82C13.56 17.23 12.98 16.6 12.37 15.9C11.83 15.26 11.43 14.71 11.19 14.28L11.07 13.98C11.02 13.78 11 13.66 11 13.53C11 13.2 11.11 12.92 11.34 12.7L12.24 11.76C12.51 11.49 12.7 11.24 12.84 11.01C12.97 10.8 13.03 10.6 13.03 10.4C13.03 10.24 12.99 10.06 12.9 9.87C12.8 9.63 12.66 9.39 12.47 9.12L9.68002 5.19C9.52002 4.96 9.33002 4.8 9.07002 4.68C8.84002 4.57 8.57002 4.51 8.31002 4.51L8.33002 4.5Z" fill="#121212"/>
</g>
<defs>
<clipPath id="clip0_7983_19226">
<rect width="32" height="32" fill="white"/>
</clipPath>
</defs>
</svg>
