<svg width="36" height="32" viewBox="0 0 36 32" fill="none" xmlns="http://www.w3.org/2000/svg">
<path d="M33.501 21.5C33.501 21.5 26.9373 17.7041 24.5035 24.4685C23.3728 27.6112 24.5035 30.9972 24.5035 30.9972C24.5035 30.9972 29.3807 31.1132 31.6729 29.8561C33.965 28.599 34.001 27.5 34.001 25.5C34.001 24 34.0654 23.1641 34.001 21.5L33.501 21.5Z" fill="#FFCB09"/>
<path d="M28.7607 26.5467L24.894 18.8134L21.0273 26.5467" stroke="black" stroke-width="1.33" stroke-linecap="round" stroke-linejoin="round"/>
<path d="M22.2676 24.0533H27.5076" stroke="black" stroke-width="1.33" stroke-linecap="round" stroke-linejoin="round"/>
<path d="M10.3612 8.98668C11.1712 8.98668 11.8279 8.33003 11.8279 7.52001C11.8279 6.70999 11.1712 6.05334 10.3612 6.05334C9.55118 6.05334 8.89453 6.70999 8.89453 7.52001C8.89453 8.33003 9.55118 8.98668 10.3612 8.98668Z" stroke="black" stroke-width="1.33" stroke-linecap="round" stroke-linejoin="round"/>
<path d="M10.3611 6.05341C10.3611 6.05341 13.6945 5.78675 13.9611 9.12008C14.0945 10.9867 13.5611 14.5867 9.0278 14.7201C6.6278 14.7201 5.16113 13.7867 5.16113 12.5867C5.16113 11.3201 6.3478 11.1201 7.8278 11.1201H16.7611" stroke="black" stroke-width="1.33" stroke-linecap="round" stroke-linejoin="round"/>
<path d="M16.7607 6.32019V14.5869" stroke="black" stroke-width="1.33" stroke-linecap="round" stroke-linejoin="round"/>
<path d="M17.1073 19.2534H6.04064C3.88064 19.2534 1.9873 17.4134 1.9873 15.0267V5.42674C1.9873 3.17341 3.7473 1.20007 6.04064 1.20007H16.974C19.134 1.20007 21.0273 3.04007 21.0273 5.42674V15.1601C21.0273 17.4134 19.2673 19.2534 17.1073 19.2534V19.2534Z" stroke="black" stroke-width="1.33" stroke-linecap="round" stroke-linejoin="round"/>
<path d="M21.0274 13.2001H30.0674C32.2274 13.2001 34.1207 14.9734 34.1207 17.2801V26.6801C34.1207 28.8534 32.3607 30.7601 30.0674 30.7601H19.1207C16.9607 30.7601 15.0674 28.9867 15.0674 26.6801V19.2534" stroke="black" stroke-width="1.33" stroke-linecap="round" stroke-linejoin="round"/>
</svg>
