<svg width="16" height="17" viewBox="0 0 16 17" fill="none" xmlns="http://www.w3.org/2000/svg">
<g clip-path="url(#clip0_8623_2885)">
<path d="M14.6666 8.5001C14.6666 4.8182 11.6818 1.83344 7.99992 1.83344C4.31802 1.83344 1.33325 4.8182 1.33325 8.5001C1.33325 12.182 4.31802 15.1668 7.99992 15.1668C11.6818 15.1668 14.6666 12.182 14.6666 8.5001Z" fill="#56B947"/>
<path d="M8.00002 15.5667C4.10668 15.5667 0.93335 12.4001 0.93335 8.50008C0.93335 4.60008 4.10668 1.43341 8.00002 1.43341C11.8934 1.43341 15.0667 4.60008 15.0667 8.50008C15.0667 12.4001 11.8934 15.5667 8.00002 15.5667ZM8.00002 2.23341C4.54668 2.23341 1.73335 5.04674 1.73335 8.50008C1.73335 11.9534 4.54668 14.7667 8.00002 14.7667C11.4534 14.7667 14.2667 11.9534 14.2667 8.50008C14.2667 5.04674 11.4534 2.23341 8.00002 2.23341Z" fill="#56B947"/>
<path d="M7.0534 10.7867C6.94673 10.7867 6.84673 10.7467 6.77339 10.6667L4.88673 8.78006C4.7334 8.62673 4.7334 8.3734 4.88673 8.2134C5.04673 8.06006 5.30006 8.06006 5.4534 8.2134L7.06006 9.82006L10.5534 6.32673C10.7067 6.1734 10.9601 6.1734 11.1201 6.32673C11.2734 6.48006 11.2734 6.7334 11.1201 6.8934L7.34006 10.6734C7.26673 10.7467 7.16006 10.7934 7.06006 10.7934L7.0534 10.7867Z" fill="white"/>
</g>
<defs>
<clipPath id="clip0_8623_2885">
<rect width="16" height="16" fill="white" transform="translate(0 0.500061)"/>
</clipPath>
</defs>
</svg>
