<svg width="24" height="25" viewBox="0 0 24 25" fill="none" xmlns="http://www.w3.org/2000/svg">
<mask id="mask0_1517_31757" style="mask-type:alpha" maskUnits="userSpaceOnUse" x="0" y="0" width="24" height="25">
<rect y="0.0947266" width="24" height="24" fill="#D9D9D9"/>
</mask>
<g mask="url(#mask0_1517_31757)">
<path d="M18.6463 12.8353H3.24045C3.02795 12.8353 2.84984 12.7634 2.7061 12.6195C2.56235 12.4757 2.49048 12.2975 2.49048 12.0849C2.49048 11.8723 2.56235 11.6943 2.7061 11.5507C2.84984 11.4071 3.02795 11.3353 3.24045 11.3353H18.6463L14.3097 6.98335C14.1733 6.8465 14.1021 6.67543 14.0959 6.47015C14.0897 6.26486 14.161 6.0873 14.3097 5.93747C14.446 5.80012 14.6195 5.73145 14.8302 5.73145C15.0408 5.73145 15.2154 5.80068 15.3539 5.93915L20.8673 11.4526C20.9609 11.5462 21.0269 11.6453 21.0654 11.75C21.1039 11.8547 21.1231 11.9669 21.1231 12.0866C21.1231 12.2062 21.1037 12.3199 21.065 12.4276C21.0262 12.5353 20.9603 12.6353 20.8673 12.7276L15.3539 18.241C15.217 18.3795 15.046 18.4487 14.8407 18.4487C14.6354 18.4487 14.4584 18.3795 14.3097 18.241C14.1545 18.0923 14.0786 17.9141 14.0818 17.7064C14.085 17.4987 14.161 17.3205 14.3097 17.1718L18.6463 12.8353Z" fill="#121212"/>
</g>
</svg>
