<svg width="25" height="25" viewBox="0 0 25 25" fill="none" xmlns="http://www.w3.org/2000/svg">
<path id="Linked" d="M12.9116 0.5C6.28419 0.5 0.911621 5.87257 0.911621 12.5C0.911621 19.1274 6.28419 24.5 12.9116 24.5C19.5391 24.5 24.9116 19.1274 24.9116 12.5C24.9116 5.87257 19.5391 0.5 12.9116 0.5ZM9.95418 17.8473H7.46968V9.82633H9.95418V17.8473ZM8.69933 8.77325C7.88588 8.77325 7.23007 8.11114 7.23007 7.29138C7.23007 6.47162 7.88588 5.80951 8.69933 5.80951C9.51278 5.80951 10.1686 6.47162 10.1686 7.29138C10.1686 8.11114 9.51278 8.77325 8.69933 8.77325ZM19.2616 17.8473H16.7897V13.635C16.7897 12.4811 16.3483 11.8379 15.4403 11.8379C14.4439 11.8379 13.9269 12.5126 13.9269 13.635V17.8473H11.5433V9.82633H13.9269V10.9046C13.9269 10.9046 14.6457 9.5804 16.342 9.5804C18.0383 9.5804 19.2616 10.6209 19.2616 12.7712V17.8537V17.8473Z" fill="#F7F7F7"/>
</svg>
