<svg width="32" height="32" viewBox="0 0 32 32" fill="none" xmlns="http://www.w3.org/2000/svg">
<g clip-path="url(#clip0_9485_6770)">
<path d="M5.64116 10.04C8.06782 -0.68 23.9345 -0.68 26.3612 10.04C28.2145 18.2267 21.0145 24.7867 17.6412 27.3467C16.6678 28.0933 15.3212 28.0933 14.3478 27.3467C10.9878 24.7867 3.77449 18.2267 5.62782 10.0533L5.64116 10.04Z" fill="#121212"/>
<path d="M16 16.6797C18.2091 16.6797 20 14.8888 20 12.6797C20 10.4705 18.2091 8.67969 16 8.67969C13.7909 8.67969 12 10.4705 12 12.6797C12 14.8888 13.7909 16.6797 16 16.6797Z" fill="#FFCB09"/>
<path d="M16 16.6797C18.2091 16.6797 20 14.8888 20 12.6797C20 10.4705 18.2091 8.67969 16 8.67969C13.7909 8.67969 12 10.4705 12 12.6797C12 14.8888 13.7909 16.6797 16 16.6797Z" fill="#FFCB09"/>
<path d="M15.9989 30.8007C14.6122 30.8007 2.49219 30.7073 2.49219 27.3073C2.49219 25.7873 4.50552 24.774 8.62552 24.2273C9.05219 24.1607 9.46552 24.4807 9.51885 24.9207C9.57219 25.3607 9.26552 25.7607 8.82552 25.814C5.17219 26.3073 4.14552 27.0807 4.07885 27.3207C4.42552 27.9473 8.71885 29.2007 15.9855 29.2007C23.2522 29.2007 27.5322 27.9473 27.9055 27.2407C27.9055 27.2407 27.5589 26.294 23.1589 25.7607C22.7189 25.7073 22.4122 25.3073 22.4655 24.8673C22.5189 24.4273 22.9322 24.1207 23.3589 24.174C27.4922 24.6807 29.5055 25.7073 29.5055 27.3073C29.5055 30.7073 17.3722 30.8007 15.9989 30.8007Z" fill="#121212"/>
</g>
<defs>
<clipPath id="clip0_9485_6770">
<rect width="32" height="32" fill="white"/>
</clipPath>
</defs>
</svg>
