<svg width="32" height="32" viewBox="0 0 32 32" fill="none" xmlns="http://www.w3.org/2000/svg">
<g id="icons" clip-path="url(#clip0_1793_26025)">
<g id="Group 101878">
<path id="Vector" d="M9.63672 15.0605C9.9583 15.1959 10.263 14.5104 12.0909 15.9998C13.9188 17.4893 17.8286 16.0506 17.7524 18.344C17.6762 20.6374 15.4421 20.1804 15.4421 23.1169C15.4421 26.0535 9.63672 15.0605 9.63672 15.0605Z" fill="#FDC113"/>
<path id="Vector_2" d="M16.0003 15.0524C14.147 15.0524 12.6406 13.546 12.6406 11.6927C12.6406 9.83936 14.147 8.33301 16.0003 8.33301C17.8536 8.33301 19.36 9.83936 19.36 11.6927C19.36 13.546 17.8536 15.0524 16.0003 15.0524ZM16.0003 9.17081C14.6124 9.17081 13.4869 10.2963 13.4869 11.6842C13.4869 13.0721 14.6124 14.1976 16.0003 14.1976C17.3882 14.1976 18.5137 13.0721 18.5137 11.6842C18.5137 10.2963 17.3882 9.17081 16.0003 9.17081Z" fill="#231F20"/>
<path id="Vector_3" d="M12.6662 20.9761C12.5308 20.9761 12.3954 20.9084 12.3193 20.7899C10.5506 18.2088 8.44336 14.5191 8.44336 11.5572C8.44336 7.39353 11.8369 4 16.0005 4C20.1641 4 23.5577 7.39353 23.5577 11.5572C23.5577 13.7998 22.229 16.9056 19.6056 20.7815C19.4787 20.9761 19.2163 21.0269 19.0217 20.8915C18.827 20.7645 18.7763 20.4937 18.9117 20.3076C21.3997 16.6263 22.7199 13.6051 22.7199 11.5572C22.7199 7.85897 19.7072 4.84627 16.009 4.84627C12.3108 4.84627 9.29809 7.85897 9.29809 11.5572C9.29809 14.2991 11.3291 17.8365 13.0301 20.3076C13.1655 20.5022 13.1147 20.7645 12.9201 20.8999C12.8439 20.9507 12.7678 20.9761 12.6832 20.9761H12.6662Z" fill="#231F20"/>
<path id="Vector_4" d="M16.0009 28.0005C10.0516 28.0005 5.56641 26.2656 5.56641 23.9553C5.56641 22.1697 8.3337 20.6718 12.6158 20.1302L12.8697 20.0964L13.0135 20.3079C14.3168 22.2036 15.5693 23.7014 15.9924 24.1923C16.4579 23.6253 17.6511 22.1443 18.9036 20.2995L19.0474 20.0879L19.3013 20.1217C23.6342 20.6549 26.4269 22.1528 26.4269 23.9553C26.4269 26.2572 21.9417 28.0005 15.9924 28.0005H16.0009ZM12.4719 21.0103C8.49449 21.5519 6.41267 22.8975 6.41267 23.9638C6.41267 25.4786 10.3478 27.1627 16.0009 27.1627C21.6539 27.1627 25.5891 25.4786 25.5891 23.9638C25.5891 22.889 23.4819 21.535 19.4621 21.0019C17.9219 23.2445 16.5086 24.9116 16.4917 24.9285C16.3732 25.1739 15.7385 25.2586 15.5016 24.9116C15.3154 24.7 13.9444 23.1175 12.4719 21.0103ZM15.8485 24.3869C15.8485 24.3869 15.8147 24.4208 15.8062 24.4462C15.8062 24.4462 15.8232 24.4208 15.8485 24.3869Z" fill="#231F20"/>
</g>
</g>
<defs>
<clipPath id="clip0_1793_26025">
<rect width="32" height="32" fill="white"/>
</clipPath>
</defs>
</svg>
