<svg width="25" height="25" viewBox="0 0 25 25" fill="none" xmlns="http://www.w3.org/2000/svg">
<g id="Frame" clip-path="url(#clip0_6490_1985)">
<g id="Group">
<path id="Vector" d="M17.6742 11.15C17.4642 11.15 17.2992 10.985 17.2992 10.775V9.05C17.2992 6.56 16.7142 4.25 12.4992 4.25C8.28422 4.25 7.69922 6.56 7.69922 9.05V10.775C7.69922 10.985 7.53422 11.15 7.32422 11.15C7.11422 11.15 6.94922 10.985 6.94922 10.775V9.05C6.94922 6.4625 7.57922 3.5 12.4992 3.5C17.4192 3.5 18.0492 6.47 18.0492 9.05V10.775C18.0492 10.985 17.8842 11.15 17.6742 11.15Z" fill="black"/>
<path id="Vector_2" d="M12.4998 18.4762C11.1048 18.4762 9.96484 17.3438 9.96484 15.9413C9.96484 14.5388 11.0973 13.4062 12.4998 13.4062C13.9023 13.4062 15.0348 14.5388 15.0348 15.9413C15.0348 17.3438 13.9023 18.4762 12.4998 18.4762ZM12.4998 14.1638C11.5173 14.1638 10.7148 14.9663 10.7148 15.9488C10.7148 16.9313 11.5173 17.7337 12.4998 17.7337C13.4823 17.7337 14.2848 16.9313 14.2848 15.9488C14.2848 14.9663 13.4823 14.1638 12.4998 14.1638Z" fill="black"/>
<path id="Vector_3" d="M16.8125 21.4984H8.1875C4.55 21.4984 3.5 20.4484 3.5 16.8109V15.0859C3.5 11.4484 4.55 10.3984 8.1875 10.3984H16.8125C20.45 10.3984 21.5 11.4484 21.5 15.0859V16.8109C21.5 20.4484 20.45 21.4984 16.8125 21.4984ZM8.1875 11.1484C4.9475 11.1484 4.25 11.8459 4.25 15.0859V16.8109C4.25 20.0509 4.9475 20.7484 8.1875 20.7484H16.8125C20.0525 20.7484 20.75 20.0509 20.75 16.8109V15.0859C20.75 11.8459 20.0525 11.1484 16.8125 11.1484H8.1875Z" fill="black"/>
</g>
</g>
<defs>
<clipPath id="clip0_6490_1985">
<rect width="24" height="24" fill="white" transform="translate(0.5 0.5)"/>
</clipPath>
</defs>
</svg>
