<svg width="32" height="32" viewBox="0 0 32 32" fill="none" xmlns="http://www.w3.org/2000/svg">
<g clip-path="url(#clip0_7983_19178)">
<path d="M24.3863 15.9733L24.4396 24.8667C24.4663 28.4267 23.7729 29.32 20.9729 29.3333L16.7729 29.36C13.9729 29.3733 13.2663 28.4933 13.2396 24.9333L13.1863 16.04C13.1596 12.48 13.8529 11.5867 16.6529 11.5733L20.8529 11.5467C23.6529 11.5333 24.3596 12.4133 24.3863 15.9733Z" fill="#FFCB09"/>
<path d="M13.3466 16.5734H14.7333V19.8C14.7333 20.56 15.1466 20.7067 15.64 20.1467L19.04 16.2934C19.4533 15.8267 19.28 15.44 18.6533 15.44H17.2666V12.2134C17.2666 11.4534 16.8533 11.3067 16.36 11.8667L12.96 15.72C12.5466 16.1867 12.72 16.5734 13.3466 16.5734Z" stroke="#121212" stroke-linecap="round" stroke-linejoin="round"/>
<path d="M24.36 9.28001L24.4534 22.6133C24.4934 27.9467 23.4534 29.2933 19.2534 29.32L12.96 29.36C8.76003 29.3867 7.7067 28.0667 7.6667 22.7333L7.57336 9.40001C7.53336 4.06668 8.57336 2.72001 12.7734 2.69335L19.0667 2.65335C23.2667 2.62668 24.32 3.94668 24.36 9.28001V9.28001Z" stroke="#121212" stroke-linecap="round" stroke-linejoin="round"/>
<path d="M24.2929 7.59973L7.59961 7.63973" stroke="#121212" stroke-linecap="round" stroke-linejoin="round"/>
<path d="M24.3728 24.2667L7.74609 24.3067" stroke="#121212" stroke-linecap="round" stroke-linejoin="round"/>
<path d="M18.1999 26.8133L13.9199 26.7733" stroke="#121212" stroke-linecap="round" stroke-linejoin="round"/>
</g>
<defs>
<clipPath id="clip0_7983_19178">
<rect width="32" height="32" fill="white"/>
</clipPath>
</defs>
</svg>
