<svg width="40" height="40" viewBox="0 0 40 40" fill="none" xmlns="http://www.w3.org/2000/svg">
<g id="Layer_1" clip-path="url(#clip0_981_9992)">
<path id="Vector" d="M28.1797 19.4917L28.2397 28.1417C28.2597 31.6017 27.5897 32.4717 24.8597 32.4917L20.7697 32.5217C18.0497 32.5417 17.3597 31.6817 17.3397 28.2217L17.2797 19.5717C17.2597 16.1117 17.9297 15.2417 20.6597 15.2217L24.7497 15.1917C27.4697 15.1717 28.1597 16.0317 28.1797 19.4917Z" fill="#FFCB09"/>
<g id="Group">
<path id="Vector_2" d="M16.9002 33.5002C12.6002 33.5002 11.4002 31.9802 11.3702 26.5502L11.2802 13.5702C11.2602 10.6802 11.5802 9.09017 12.3702 8.06017C13.2002 7.00017 14.4902 6.56017 16.8402 6.54017L22.9702 6.50017C25.3402 6.49017 26.6202 6.91017 27.4602 7.96017C28.2702 8.97017 28.6102 10.5602 28.6302 13.4502L28.7202 26.4302C28.7402 29.3202 28.4202 30.9102 27.6302 31.9402C26.8002 33.0002 25.5102 33.4402 23.1602 33.4602L17.0302 33.5002C17.0302 33.5002 16.9502 33.5002 16.9102 33.5002H16.9002ZM23.1002 7.50017C23.1002 7.50017 23.0202 7.50017 22.9802 7.50017L16.8502 7.54017C14.8502 7.55017 13.7802 7.88017 13.1602 8.67017C12.5202 9.49017 12.2602 10.9502 12.2802 13.5602L12.3702 26.5402C12.4002 31.7402 13.4202 32.5302 17.0202 32.5002L23.1502 32.4602C25.1502 32.4502 26.2202 32.1202 26.8402 31.3302C27.4802 30.5102 27.7402 29.0502 27.7202 26.4402L27.6302 13.4602C27.6102 10.8502 27.3302 9.39017 26.6802 8.58017C26.0702 7.81017 25.0302 7.50017 23.1002 7.50017Z" fill="#121212"/>
<path id="Vector_3" d="M11.8203 12.362C11.5403 12.362 11.3203 12.142 11.3203 11.862C11.3203 11.582 11.5403 11.362 11.8203 11.362L28.0703 11.332C28.3503 11.332 28.5703 11.552 28.5703 11.832C28.5703 12.112 28.3503 12.332 28.0703 12.332L11.8203 12.362Z" fill="#121212"/>
<path id="Vector_4" d="M11.9609 28.5886C11.6809 28.5886 11.4609 28.3686 11.4609 28.0886C11.4609 27.8086 11.6809 27.5886 11.9609 27.5886L28.1509 27.5586C28.4309 27.5586 28.6509 27.7786 28.6509 28.0586C28.6509 28.3386 28.4309 28.5586 28.1509 28.5586L11.9609 28.5886Z" fill="#121212"/>
<path id="Vector_5" d="M22.1408 31.0305L17.9708 30.9805C17.6908 30.9805 17.4708 30.7505 17.4808 30.4705C17.4808 30.1905 17.7008 30.0105 17.9908 29.9805L22.1608 30.0305C22.4408 30.0305 22.6608 30.2605 22.6508 30.5405C22.6508 30.8105 22.4208 31.0305 22.1508 31.0305H22.1408Z" fill="#121212"/>
</g>
</g>
<defs>
<clipPath id="clip0_981_9992">
<rect width="40" height="40" fill="white"/>
</clipPath>
</defs>
</svg>
