<svg width="19" height="18" viewBox="0 0 19 18" fill="none" xmlns="http://www.w3.org/2000/svg">
<g clip-path="url(#clip0_8766_10157)">
<path d="M15.3189 9.43484C15.3189 11.7973 13.3989 13.7173 11.0364 13.7173C8.67391 13.7173 6.75391 11.7973 6.75391 9.43484C6.75391 7.07234 8.67391 5.15234 11.0364 5.15234C13.3989 5.15234 15.3189 7.07234 15.3189 9.43484Z" fill="#FFCB09"/>
<path d="M6.5 16.5523C6.32 16.5523 6.1325 16.5073 5.9675 16.4173C5.6 16.2223 5.375 15.8398 5.375 15.4273V14.1898C3.1175 14.0323 1.625 12.4198 1.625 10.0798V5.57227C1.625 3.10477 3.2825 1.44727 5.75 1.44727H13.25C15.7175 1.44727 17.375 3.10477 17.375 5.57227V10.0723C17.375 12.5398 15.7175 14.1973 13.25 14.1973H10.3625L7.1225 16.3573C6.935 16.4848 6.7175 16.5448 6.5 16.5448V16.5523ZM5.75 2.19727C3.7025 2.19727 2.375 3.52477 2.375 5.57227V10.0723C2.375 12.1198 3.7025 13.4473 5.75 13.4473C5.96 13.4473 6.125 13.6123 6.125 13.8223V15.4198C6.125 15.6223 6.26 15.7198 6.32 15.7498C6.38 15.7798 6.5375 15.8398 6.7025 15.7273L10.04 13.5073C10.1 13.4698 10.175 13.4473 10.25 13.4473H13.25C15.2975 13.4473 16.625 12.1198 16.625 10.0723V5.57227C16.625 3.52477 15.2975 2.19727 13.25 2.19727H5.75Z" fill="#121212"/>
<path d="M9.49891 8.89453C9.28891 8.89453 9.12391 8.72953 9.12391 8.51953V8.36203C9.12391 7.67203 9.55141 7.30453 9.91891 7.05703C10.2039 6.86203 10.3689 6.69703 10.3689 6.38953C10.3689 5.90953 9.97891 5.51953 9.49891 5.51953C9.01891 5.51953 8.62891 5.90953 8.62891 6.38953C8.62891 6.59953 8.46391 6.76453 8.25391 6.76453C8.04391 6.76453 7.87891 6.59953 7.87891 6.38953C7.87891 5.49703 8.60641 4.76953 9.49891 4.76953C10.3914 4.76953 11.1189 5.49703 11.1189 6.38953C11.1189 7.06453 10.6989 7.43203 10.3389 7.67953C10.0464 7.87453 9.87391 8.05453 9.87391 8.36203V8.51953C9.87391 8.72953 9.70891 8.89453 9.49891 8.89453Z" fill="#121212"/>
<path d="M9.5 10.7617C9.29 10.7617 9.125 10.5967 9.125 10.3867C9.125 10.1767 9.29 10.0117 9.5 10.0117C9.71 10.0117 9.875 10.1767 9.875 10.3867C9.875 10.5967 9.71 10.7617 9.5 10.7617Z" fill="#121212"/>
</g>
<defs>
<clipPath id="clip0_8766_10157">
<rect width="18" height="18" fill="white" transform="translate(0.5)"/>
</clipPath>
</defs>
</svg>
