<svg width="16" height="16" viewBox="0 0 16 16" fill="none" xmlns="http://www.w3.org/2000/svg">
<g id="Frame" clip-path="url(#clip0_1245_14568)">
<g id="Group">
<path id="Vector (Stroke)" fill-rule="evenodd" clip-rule="evenodd" d="M2.82647 2.82672C2.20569 3.4475 1.88569 4.45545 1.88569 6.04467V9.94943C1.88569 11.5382 2.20709 12.5463 2.8287 13.1672C3.4504 13.7883 4.45861 14.1082 6.04442 14.1082H9.94919C11.5384 14.1082 12.5464 13.7882 13.1671 13.1674C13.7879 12.5466 14.1079 11.5386 14.1079 9.94943V6.69864C14.1079 6.47772 14.287 6.29864 14.5079 6.29864C14.7288 6.29864 14.9079 6.47772 14.9079 6.69864V9.94943C14.9079 11.6174 14.5771 12.8888 13.7328 13.7331C12.8885 14.5774 11.6171 14.9082 9.94919 14.9082H6.04442C4.37945 14.9082 3.10829 14.5773 2.26332 13.7332C1.41827 12.8891 1.08569 11.6178 1.08569 9.94943V6.04467C1.08569 4.37674 1.41649 3.10533 2.26079 2.26103C3.10508 1.41673 4.3765 1.08594 6.04442 1.08594H9.29522C9.51613 1.08594 9.69522 1.26502 9.69522 1.48594C9.69522 1.70685 9.51613 1.88594 9.29522 1.88594H6.04442C4.45521 1.88594 3.44726 2.20593 2.82647 2.82672Z" fill="#121212"/>
<path id="Vector (Stroke)_2" fill-rule="evenodd" clip-rule="evenodd" d="M9.14854 1.12421C9.29801 1.0623 9.47005 1.09652 9.58445 1.21092L14.7908 6.41727L14.508 6.70011V7.10011H11.9048C10.9082 7.10011 10.1155 6.93974 9.58968 6.41498C9.06371 5.89003 8.90161 5.09707 8.90161 4.09694V1.49376C8.90161 1.33198 8.99907 1.18612 9.14854 1.12421ZM13.5423 6.30011L9.70161 2.45945V4.09694C9.70161 5.05236 9.8665 5.56099 10.1548 5.84874C10.4433 6.13667 10.9521 6.30011 11.9048 6.30011H13.5423Z" fill="#121212"/>
<path id="Vector (Stroke)_3" fill-rule="evenodd" clip-rule="evenodd" d="M4.34924 8.65391C4.34924 8.43299 4.52833 8.25391 4.74924 8.25391H11.0032C11.2241 8.25391 11.4032 8.43299 11.4032 8.65391C11.4032 8.87482 11.2241 9.05391 11.0032 9.05391H4.74924C4.52833 9.05391 4.34924 8.87482 4.34924 8.65391Z" fill="#121212"/>
<path id="Vector (Stroke)_4" fill-rule="evenodd" clip-rule="evenodd" d="M4.34924 11.2555C4.34924 11.0346 4.52833 10.8555 4.74924 10.8555H8.85083C9.07174 10.8555 9.25083 11.0346 9.25083 11.2555C9.25083 11.4764 9.07174 11.6555 8.85083 11.6555H4.74924C4.52833 11.6555 4.34924 11.4764 4.34924 11.2555Z" fill="#121212"/>
</g>
</g>
<defs>
<clipPath id="clip0_1245_14568">
<rect width="16" height="16" fill="white"/>
</clipPath>
</defs>
</svg>
