<svg width="24" height="31" viewBox="0 0 24 31" fill="none" xmlns="http://www.w3.org/2000/svg">
<path d="M19.77 15.43C19.77 15.43 14.46 10.56 12.08 17.67C9.86999 24.27 11.44 26.34 11.44 26.34C11.44 26.34 19.06 25.76 21.31 24.44C23.56 23.12 22.16 20.91 21.31 19.79C20.46 18.67 19.83 17.18 19.77 15.43Z" fill="#FFCB09"/>
<path d="M11.57 26.62C6.79004 26.46 3.35004 25.8 1.31004 24.63C0.640039 24.25 0.210039 23.53 0.0800387 22.59C-0.0899613 21.34 0.350039 19.98 1.20004 19.13C2.35004 17.98 2.69004 16.89 2.69004 11.89C2.69004 9.54997 3.41004 7.67997 4.84004 6.32997C7.44004 3.86997 11.41 4.05997 11.58 4.07997C11.69 4.07997 15.66 3.87997 18.26 6.32997C19.68 7.67997 20.41 9.54997 20.41 11.89C20.41 16.88 20.74 17.97 21.9 19.13C22.75 19.98 23.19 21.34 23.02 22.59C22.9 23.52 22.46 24.25 21.79 24.63C19.76 25.79 16.32 26.46 11.57 26.62ZM11.34 5.07997C10.48 5.07997 7.48004 5.21997 5.52004 7.06997C4.31004 8.21997 3.69004 9.84997 3.69004 11.9C3.69004 16.97 3.37004 18.38 1.91004 19.84C1.27004 20.48 0.950038 21.5 1.07004 22.46C1.15004 23.07 1.42004 23.54 1.80004 23.76C3.10004 24.5 5.85004 25.43 11.56 25.62C17.24 25.43 19.99 24.51 21.29 23.76C21.67 23.54 21.94 23.07 22.02 22.46C22.15 21.5 21.82 20.48 21.18 19.84C19.72 18.38 19.4 16.97 19.4 11.9C19.4 9.84997 18.78 8.21997 17.57 7.06997C15.29 4.90997 11.61 5.07997 11.57 5.07997C11.56 5.07997 11.47 5.07997 11.33 5.07997H11.34Z" fill="#121212"/>
<path d="M11.56 30.28C8.91003 30.28 6.66003 28.39 6.21003 25.78C6.16003 25.51 6.35003 25.25 6.62003 25.2C6.89003 25.15 7.15003 25.33 7.20003 25.61C7.57003 27.73 9.41003 29.28 11.57 29.28C13.73 29.28 15.55 27.75 15.93 25.64C15.98 25.37 16.24 25.19 16.51 25.24C16.78 25.29 16.96 25.55 16.91 25.82C16.45 28.41 14.2 30.29 11.56 30.29V30.28Z" fill="#121212"/>
<path d="M7.91002 5.31999C7.85002 5.31999 7.80002 5.31999 7.74002 5.28999C7.48002 5.19999 7.34002 4.90999 7.44002 4.64999L7.51002 4.43999C7.90002 3.29999 8.72002 0.929993 11.55 0.929993C14.38 0.929993 15.14 3.12999 15.55 4.31999L15.67 4.64999C15.77 4.90999 15.63 5.19999 15.38 5.28999C15.12 5.38999 14.83 5.25999 14.74 4.99999L14.62 4.64999C14.22 3.49999 13.68 1.93999 11.56 1.93999C9.44002 1.93999 8.85002 3.64999 8.46002 4.76999L8.38002 4.98999C8.31002 5.19999 8.11002 5.31999 7.91002 5.31999Z" fill="#121212"/>
</svg>
