<svg width="32" height="32" viewBox="0 0 32 32" fill="none" xmlns="http://www.w3.org/2000/svg">
<g clip-path="url(#clip0_3130_17909)">
<g clip-path="url(#clip1_3130_17909)">
<path d="M22.424 15.6959L22.472 22.6159C22.488 25.3839 21.952 26.0799 19.768 26.0959L16.496 26.1199C14.32 26.1359 13.768 25.4479 13.752 22.6799L13.704 15.7599C13.688 12.9919 14.224 12.2959 16.408 12.2799L19.68 12.2559C21.856 12.2399 22.408 12.9279 22.424 15.6959Z" fill="#FFCB09"/>
<path d="M13.5841 26.8C10.1441 26.8 9.18411 25.584 9.16011 21.24L9.08811 10.856C9.07211 8.54399 9.32811 7.272 9.96011 6.448C10.6241 5.6 11.6561 5.24799 13.5361 5.23199L18.4401 5.19999C20.3441 5.18399 21.3601 5.52799 22.0321 6.36799C22.6801 7.17599 22.9521 8.44799 22.9681 10.76L23.0401 21.144C23.0561 23.456 22.8001 24.728 22.1681 25.552C21.5041 26.4 20.4721 26.752 18.5921 26.768L13.6881 26.8C13.6881 26.8 13.6241 26.8 13.5921 26.8H13.5841ZM18.5521 5.99999C18.5521 5.99999 18.4881 5.99999 18.4561 5.99999L13.5521 6.03199C11.9521 6.03999 11.0961 6.30399 10.6001 6.93599C10.0881 7.592 9.88011 8.76 9.89611 10.848L9.96811 21.232C9.99211 25.392 10.7921 26.016 13.6881 26L18.5921 25.968C20.2001 25.96 21.0481 25.696 21.5441 25.064C22.0561 24.408 22.2641 23.24 22.2481 21.152L22.1761 10.768C22.1601 8.68 21.9361 7.51199 21.4161 6.86399C20.9281 6.24799 20.0961 5.99999 18.5521 5.99999Z" fill="black"/>
<path d="M9.52817 9.88796C9.30417 9.88796 9.12817 9.71196 9.12817 9.48796C9.12817 9.26396 9.30417 9.08796 9.52817 9.08796L22.5282 9.06396C22.7122 9.06396 22.9282 9.23996 22.9282 9.46396C22.9282 9.68796 22.7522 9.86396 22.5282 9.86396L9.52817 9.88796Z" fill="black"/>
<path d="M9.63218 22.8721C9.40818 22.8721 9.23218 22.6961 9.23218 22.4721C9.23218 22.2481 9.40818 22.0721 9.63218 22.0721L22.5842 22.0481C22.8082 22.0481 22.9842 22.2241 22.9842 22.4481C22.9842 22.6721 22.8082 22.8481 22.5842 22.8481L9.63218 22.8721Z" fill="black"/>
<path d="M17.7761 24.8239L14.4401 24.7839C14.2161 24.7839 14.0401 24.5999 14.0481 24.3759C14.0481 24.1519 14.2561 23.9679 14.4561 23.9839L17.7921 24.0239C18.0161 24.0239 18.1921 24.2079 18.1841 24.4319C18.1841 24.6479 18.0001 24.8239 17.7841 24.8239H17.7761Z" fill="black"/>
<path d="M16.064 19.1121C16 19.1121 15.928 19.0961 15.864 19.0561C15.672 18.9441 15.608 18.7041 15.72 18.5121L16.832 16.5841C16.88 16.4961 16.888 16.4401 16.88 16.4321C16.88 16.4321 16.832 16.4081 16.728 16.4081H15.408C15.024 16.4081 14.72 16.2481 14.56 15.9761C14.4 15.7041 14.424 15.3601 14.616 15.0241L15.728 13.0961C15.84 12.9041 16.08 12.8401 16.272 12.9521C16.464 13.0641 16.528 13.3041 16.416 13.4961L15.304 15.4241C15.256 15.5121 15.248 15.5681 15.256 15.5761C15.256 15.5761 15.304 15.6001 15.408 15.6001H16.728C17.112 15.6001 17.424 15.7601 17.576 16.0321C17.736 16.3041 17.712 16.6481 17.52 16.9841L16.408 18.9121C16.336 19.0401 16.2 19.1121 16.064 19.1121Z" fill="black"/>
</g>
</g>
<defs>
<clipPath id="clip0_3130_17909">
<rect width="32" height="32" fill="white"/>
</clipPath>
<clipPath id="clip1_3130_17909">
<rect width="32" height="32" fill="white"/>
</clipPath>
</defs>
</svg>
