<svg width="10" height="12" viewBox="0 0 10 12" fill="none" xmlns="http://www.w3.org/2000/svg">
<path d="M4.68745 10.6797L4.5055 10.214L4.68745 10.6797ZM1.98319 11.199L1.73319 11.6321H1.73319L1.98319 11.199ZM1.08078 8.59743L0.586477 8.67271L1.08078 8.59743ZM1.40764 6.86258L1.84065 7.11258L1.40764 6.86258ZM1.01821 7.68742L0.526854 7.59485L0.526854 7.59485L1.01821 7.68742ZM6.02644 9.52925L6.45946 9.77925L6.02644 9.52925ZM5.50683 10.2789L5.83268 10.6582L5.50683 10.2789ZM3.93993 2.47652L3.50692 2.22652L3.93993 2.47652ZM8.12572 4.89319L5.59343 9.27925L6.45946 9.77925L8.99175 5.39319L8.12572 4.89319ZM1.84065 7.11258L4.37295 2.72652L3.50692 2.22652L0.974629 6.61258L1.84065 7.11258ZM4.5055 10.214C3.77452 10.4996 3.27668 10.6928 2.89236 10.7826C2.52111 10.8693 2.35265 10.835 2.23319 10.766L1.73319 11.6321C2.1687 11.8835 2.63595 11.8694 3.11987 11.7564C3.59073 11.6464 4.16753 11.4197 4.86941 11.1455L4.5055 10.214ZM0.586477 8.67271C0.699936 9.41766 0.792032 10.0305 0.93219 10.4933C1.07624 10.9689 1.29767 11.3806 1.73319 11.6321L2.23319 10.766C2.11373 10.6971 1.99977 10.5683 1.88926 10.2034C1.77486 9.82572 1.69324 9.29799 1.57508 8.52214L0.586477 8.67271ZM0.974629 6.61258C0.760081 6.98419 0.588305 7.26869 0.526854 7.59485L1.50956 7.78C1.5322 7.65986 1.59202 7.54324 1.84065 7.11258L0.974629 6.61258ZM1.57508 8.52214C1.5002 8.03054 1.48693 7.90014 1.50956 7.78L0.526854 7.59485C0.465403 7.921 0.521869 8.24851 0.586477 8.67271L1.57508 8.52214ZM5.59343 9.27925C5.34479 9.7099 5.2737 9.82002 5.18097 9.89969L5.83268 10.6582C6.08441 10.4419 6.24491 10.1509 6.45946 9.77925L5.59343 9.27925ZM4.86941 11.1455C5.26908 10.9893 5.58095 10.8745 5.83268 10.6582L5.18097 9.89969C5.08825 9.97936 4.96869 10.0331 4.5055 10.214L4.86941 11.1455ZM7.33267 1.93347C7.88924 2.2548 8.26258 2.47158 8.51981 2.67008C8.76556 2.85972 8.84384 2.98746 8.87564 3.10614L9.84157 2.84732C9.73042 2.43253 9.46507 2.1364 9.13075 1.87841C8.80792 1.62928 8.36476 1.37464 7.83267 1.06744L7.33267 1.93347ZM8.99175 5.39319C9.29895 4.8611 9.55542 4.419 9.71044 4.04183C9.87097 3.65124 9.95271 3.26211 9.84157 2.84732L8.87564 3.10614C8.90744 3.22482 8.90351 3.37458 8.78551 3.66169C8.66199 3.96222 8.44706 4.33662 8.12572 4.89319L8.99175 5.39319ZM7.83267 1.06744C7.30058 0.76024 6.85848 0.503769 6.48131 0.348753C6.09072 0.188219 5.70159 0.106482 5.2868 0.217625L5.54562 1.18355C5.66429 1.15175 5.81406 1.15568 6.10117 1.27368C6.4017 1.3972 6.77609 1.61213 7.33267 1.93347L7.83267 1.06744ZM4.37295 2.72652C4.69428 2.16995 4.91106 1.79661 5.10956 1.53938C5.2992 1.29363 5.42694 1.21535 5.54562 1.18355L5.2868 0.217625C4.87201 0.328767 4.57588 0.594119 4.31788 0.928442C4.06875 1.25127 3.81412 1.69443 3.50692 2.22652L4.37295 2.72652ZM8.80873 4.71018L4.18993 2.04351L3.68993 2.90954L8.30873 5.5762L8.80873 4.71018Z" fill="#2F7EF4"/>
</svg>
