<svg width="16" height="17" viewBox="0 0 16 17" fill="none" xmlns="http://www.w3.org/2000/svg">
<g clip-path="url(#clip0_8818_9805)">
<path fill-rule="evenodd" clip-rule="evenodd" d="M0.933334 8.50002C0.933334 12.4 4.10667 15.5667 8 15.5667C11.8933 15.5667 15.0667 12.4 15.0667 8.50002C15.0667 4.60002 11.8933 1.43335 8 1.43335C4.10667 1.43335 0.933334 4.60002 0.933334 8.50002ZM10.4706 11.02C10.4715 11.02 10.4724 11.02 10.4733 11.02H10.4667C10.468 11.02 10.4693 11.02 10.4706 11.02ZM10.2667 10.9667C10.3324 10.9996 10.4046 11.0195 10.4706 11.02C10.6091 11.0188 10.7407 10.9522 10.8133 10.8267C10.9267 10.64 10.86 10.3934 10.6733 10.28L8.15332 8.77336V5.50669C8.15332 5.28669 7.97332 5.10669 7.75332 5.10669C7.53332 5.10669 7.35332 5.28669 7.35332 5.50669V9.00002C7.35332 9.14669 7.42665 9.27336 7.54665 9.34669L10.2667 10.9667Z" fill="#F59E0B"/>
</g>
<defs>
<clipPath id="clip0_8818_9805">
<rect width="16" height="16" fill="white" transform="translate(0 0.5)"/>
</clipPath>
</defs>
</svg>
