<svg width="40" height="41" viewBox="0 0 40 41" fill="none" xmlns="http://www.w3.org/2000/svg">
<g clip-path="url(#clip0_8258_11247)">
<path d="M22.96 32.92C28.7369 32.92 33.42 28.7025 33.42 23.5C33.42 18.2975 28.7369 14.08 22.96 14.08C17.1831 14.08 12.5 18.2975 12.5 23.5C12.5 28.7025 17.1831 32.92 22.96 32.92Z" fill="#FFCB09"/>
<path d="M19.9301 34.42C12.4501 34.42 6.36011 29.15 6.36011 22.67V17.48C6.36011 17.2 6.58011 16.98 6.86011 16.98C7.14011 16.98 7.36011 17.2 7.36011 17.48V22.67C7.36011 28.6 13.0001 33.42 19.9301 33.42C26.8601 33.42 32.5001 28.6 32.5001 22.67V17.48C32.5001 17.2 32.7201 16.98 33.0001 16.98C33.2801 16.98 33.5001 17.2 33.5001 17.48V22.67C33.5001 29.15 27.4101 34.42 19.9301 34.42Z" fill="black"/>
<path d="M19.9301 29.3C12.4501 29.3 6.36011 24.17 6.36011 17.86C6.36011 11.55 12.4501 6.41998 19.9301 6.41998C27.4101 6.41998 33.5001 11.55 33.5001 17.86C33.5001 24.17 27.4101 29.3 19.9301 29.3ZM19.9301 7.42998C13.0001 7.42998 7.36011 12.11 7.36011 17.87C7.36011 23.63 13.0001 28.31 19.9301 28.31C26.8601 28.31 32.5001 23.63 32.5001 17.87C32.5001 12.11 26.8601 7.42998 19.9301 7.42998Z" fill="black"/>
<path d="M11.2002 31.55C10.9202 31.55 10.7002 31.33 10.7002 31.05V26.55C10.7002 26.27 10.9202 26.05 11.2002 26.05C11.4802 26.05 11.7002 26.27 11.7002 26.55V31.05C11.7002 31.33 11.4802 31.55 11.2002 31.55Z" fill="black"/>
<path d="M16.04 33.92C15.76 33.92 15.54 33.7 15.54 33.42V28.93C15.54 28.65 15.76 28.43 16.04 28.43C16.32 28.43 16.54 28.65 16.54 28.93V33.42C16.54 33.7 16.32 33.92 16.04 33.92Z" fill="black"/>
<path d="M23.3 34.05C23.02 34.05 22.8 33.83 22.8 33.55V29.04C22.8 28.76 23.02 28.54 23.3 28.54C23.58 28.54 23.8 28.76 23.8 29.04V33.55C23.8 33.83 23.58 34.05 23.3 34.05Z" fill="black"/>
<path d="M28.27 31.84C27.99 31.84 27.77 31.62 27.77 31.34V26.85C27.77 26.57 27.99 26.35 28.27 26.35C28.55 26.35 28.77 26.57 28.77 26.85V31.34C28.77 31.62 28.55 31.84 28.27 31.84Z" fill="black"/>
<path d="M32.02 27.42C31.74 27.42 31.52 27.2 31.52 26.92V22.43C31.52 22.15 31.74 21.93 32.02 21.93C32.3 21.93 32.52 22.15 32.52 22.43V26.92C32.52 27.2 32.3 27.42 32.02 27.42Z" fill="black"/>
<path d="M7.92017 27.63C7.64017 27.63 7.42017 27.41 7.42017 27.13V22.63C7.42017 22.35 7.64017 22.13 7.92017 22.13C8.20017 22.13 8.42017 22.35 8.42017 22.63V27.13C8.42017 27.41 8.20017 27.63 7.92017 27.63Z" fill="black"/>
<path d="M23.9401 12.53H17.8401C17.5601 12.53 17.3401 12.31 17.3401 12.03C17.3401 11.75 17.5601 11.53 17.8401 11.53H23.9401C24.2201 11.53 24.4401 11.75 24.4401 12.03C24.4401 12.31 24.2201 12.53 23.9401 12.53Z" fill="black"/>
<path d="M23.94 15.59H16.75C16.47 15.59 16.25 15.37 16.25 15.09C16.25 14.81 16.47 14.59 16.75 14.59H23.94C24.22 14.59 24.44 14.81 24.44 15.09C24.44 15.37 24.22 15.59 23.94 15.59Z" fill="black"/>
<path d="M21.5799 22.5C21.4599 22.5 21.3399 22.46 21.2499 22.38L16.4399 18.14C16.2299 17.96 16.2099 17.64 16.3999 17.43C16.5799 17.22 16.8999 17.2 17.1099 17.39L21.9199 21.63C22.1299 21.81 22.1499 22.13 21.9599 22.34C21.8599 22.45 21.7199 22.51 21.5799 22.51V22.5Z" fill="black"/>
<path d="M17.84 18.26H16.76C16.48 18.26 16.26 18.04 16.26 17.76C16.26 17.48 16.48 17.26 16.76 17.26H17.84C19.15 17.26 20.21 16.2 20.21 14.89C20.21 13.58 19.15 12.52 17.84 12.52H16.76C16.48 12.52 16.26 12.3 16.26 12.02C16.26 11.74 16.48 11.52 16.76 11.52H17.84C19.7 11.52 21.21 13.03 21.21 14.89C21.21 16.75 19.7 18.26 17.84 18.26Z" fill="black"/>
</g>
<defs>
<clipPath id="clip0_8258_11247">
<rect width="40" height="40" fill="white" transform="translate(0 0.5)"/>
</clipPath>
</defs>
</svg>
