<svg width="14" height="22" viewBox="0 0 14 22" fill="none" xmlns="http://www.w3.org/2000/svg">
<path d="M13.7 6.08999C13.7 5.63999 13.68 5.24999 13.66 4.86999V4.84999C13.56 3.38999 13.29 2.45999 12.78 1.81999C11.94 0.769986 10.52 0.609986 9.24003 0.639986L4.64003 0.669986C3.36003 0.669986 1.94003 0.829986 1.11003 1.89999C0.480034 2.70999 0.230034 3.94999 0.240034 6.16999L0.300034 15.9C0.310034 18.12 0.580034 19.36 1.22003 20.16C2.04003 21.18 3.40003 21.34 4.66003 21.34C4.70003 21.34 4.73003 21.34 4.77003 21.34L9.37003 21.31C10.65 21.31 12.07 21.15 12.9 20.09C13.53 19.28 13.78 18.04 13.77 15.82L13.71 6.08999H13.7ZM1.50003 15.9L1.44003 6.16999C1.44003 5.92999 1.44003 5.69999 1.44003 5.48999L12.49 5.46999C12.49 5.66999 12.5 5.87999 12.5 6.09999L12.56 15.83C12.56 16.04 12.56 16.25 12.56 16.44L1.51003 16.46C1.51003 16.28 1.51003 16.1 1.50003 15.9ZM4.64003 1.87999L9.24003 1.84999H9.33003C10.7 1.84999 11.43 2.05999 11.84 2.57999C12.12 2.92999 12.3 3.46999 12.4 4.26999L1.52003 4.28999C1.61003 3.50999 1.78003 2.98999 2.05003 2.63999C2.46003 2.10999 3.21003 1.88999 4.64003 1.87999ZM9.36003 20.12L4.76003 20.15C3.32003 20.15 2.58003 19.95 2.16003 19.42C1.87003 19.06 1.69003 18.5 1.59003 17.66L12.49 17.64C12.4 18.46 12.22 19 11.95 19.36C11.54 19.89 10.79 20.11 9.36003 20.12Z" fill="#010101"/>
</svg>
