<svg width="32" height="32" viewBox="0 0 32 32" fill="none" xmlns="http://www.w3.org/2000/svg">
<g clip-path="url(#clip0_9485_6780)">
<path d="M16.0019 29.8299C8.37187 29.8299 2.17188 23.6199 2.17188 15.9999C2.17188 8.37992 8.37187 2.16992 16.0019 2.16992C23.6319 2.16992 29.8319 8.37992 29.8319 15.9999C29.8319 23.6199 23.6219 29.8299 16.0019 29.8299Z" fill="#010101"/>
<path d="M11.0031 8.67922C10.5531 8.67922 10.1331 8.86922 9.72313 9.26922C9.36313 9.60922 9.10312 9.98922 8.94312 10.3992C8.78312 10.8092 8.69312 11.2592 8.69312 11.7292C8.69312 12.4692 8.87313 13.2692 9.21313 14.0892C9.56313 14.9192 10.0631 15.7792 10.6931 16.6592C11.3231 17.5192 12.0431 18.3592 12.8231 19.1592C13.6131 19.9392 14.4531 20.6592 15.3231 21.2992C16.1731 21.9192 17.0431 22.4192 17.9131 22.7892C19.2731 23.3692 20.5531 23.4992 21.5931 23.0592C22.0031 22.8892 22.3631 22.6292 22.7031 22.2592C22.8831 22.0592 23.0331 21.8392 23.1531 21.5892C23.2531 21.3792 23.3031 21.1692 23.3031 20.9492C23.3031 20.8092 23.2731 20.6792 23.2131 20.5292C23.1731 20.4292 23.0931 20.3392 22.9631 20.2492L20.3731 18.4092C20.2031 18.2992 20.0631 18.2192 19.9231 18.1592C19.6931 18.0692 19.5331 18.0692 19.3431 18.1892C19.1831 18.2692 19.0331 18.3892 18.8731 18.5592L18.2731 19.1492C17.9931 19.4292 17.5631 19.4892 17.2331 19.3592C17.2231 19.3592 17.1431 19.3192 17.1331 19.3192C17.1331 19.3192 17.0431 19.2792 17.0331 19.2792C16.7231 19.1092 16.3531 18.8492 15.9331 18.4992C15.5131 18.1392 15.0931 17.7492 14.6631 17.3292C14.2431 16.8992 13.8631 16.4792 13.5031 16.0692C13.1431 15.6392 12.8731 15.2792 12.7131 14.9792C12.7131 14.9692 12.6731 14.8792 12.6631 14.8692L12.6231 14.7592C12.5831 14.5992 12.5731 14.5092 12.5731 14.4092C12.5731 14.1492 12.6631 13.9192 12.8431 13.7392L13.4231 13.1292C13.5831 12.9692 13.7131 12.8092 13.7831 12.6792C13.8531 12.5692 13.8831 12.4692 13.8831 12.3692C13.8831 12.2892 13.8631 12.1892 13.8131 12.0892C13.7531 11.9392 13.6731 11.7992 13.5531 11.6392L11.7331 9.07922C11.6531 8.95922 11.5431 8.86922 11.4031 8.80922C11.2731 8.74922 11.1231 8.71922 10.9831 8.71922L11.0031 8.67922Z" fill="#FFCB09"/>
</g>
<defs>
<clipPath id="clip0_9485_6780">
<rect width="32" height="32" fill="white"/>
</clipPath>
</defs>
</svg>
