<svg width="41" height="40" viewBox="0 0 41 40" fill="none" xmlns="http://www.w3.org/2000/svg">
<g id="Layer_1" clip-path="url(#clip0_2201_1451)">
<g id="Group">
<path id="Vector" d="M30.9441 24.3402C30.9441 28.4202 27.6341 31.7302 23.5541 31.7302C19.4741 31.7302 16.1641 28.4202 16.1641 24.3402C16.1641 20.2602 19.4741 16.9502 23.5541 16.9502C27.6341 16.9502 30.9441 20.2602 30.9441 24.3402Z" fill="#FFCB09"/>
<g id="Group_2">
<path id="Vector_2" d="M29.4644 33.7498H24.7944C24.5144 33.7498 24.2944 33.5298 24.2944 33.2498C24.2944 32.4498 23.8144 31.7398 23.0844 31.4398C22.8444 31.3298 22.5944 31.2798 22.3144 31.2798H19.0744C17.9844 31.2798 17.0944 32.1698 17.0944 33.2598C17.0944 33.5398 16.8744 33.7598 16.5944 33.7598H11.9244C11.6444 33.7598 11.4244 33.5398 11.4244 33.2598V28.1098C9.52438 26.2398 8.48438 23.8498 8.48438 21.3698C8.48438 20.6098 8.59438 19.7998 8.80438 18.9698L8.85438 18.8098C9.29438 17.2598 9.53438 16.4098 10.7744 15.2398C10.9744 15.0498 11.2944 15.0598 11.4844 15.2598C11.6744 15.4598 11.6644 15.7798 11.4644 15.9698C10.4344 16.9498 10.2544 17.5698 9.82437 19.0798L9.78437 19.2298C9.59437 19.9698 9.49437 20.6898 9.49437 21.3698C9.49437 23.6698 10.4544 25.7998 12.2744 27.5298C12.3744 27.6198 12.4344 27.7598 12.4344 27.8898V32.7498H16.1444C16.3844 31.3498 17.6044 30.2698 19.0744 30.2698H22.3144C22.7244 30.2698 23.1144 30.3498 23.4744 30.5098C24.4144 30.8898 25.0844 31.7398 25.2444 32.7398H28.9544V27.8798C28.9544 27.7398 29.0144 27.6098 29.1144 27.5198C29.8944 26.7798 30.5144 25.9698 30.9644 25.1098C31.4144 24.2698 32.2744 23.7598 33.2044 23.7598H33.4544V18.9498H33.2144C32.2744 18.9498 31.4144 18.4298 30.9644 17.5998C30.2544 16.2298 29.1744 15.0598 27.7744 14.1098C27.6044 13.9798 27.4544 13.8898 27.3044 13.7998C27.0844 13.6698 26.9244 13.3498 27.0244 13.1198L28.3244 10.2498C27.9744 10.0998 27.6144 10.0198 27.1844 10.0198C26.0344 10.0198 25.0344 10.6698 24.5544 11.7198C24.4844 11.8498 24.4544 11.9198 24.4444 11.9798C24.4144 12.1098 24.3344 12.2298 24.2244 12.2998C24.1144 12.3698 23.9744 12.3898 23.8444 12.3598C23.0944 12.1798 22.5044 12.0398 21.7444 11.9898C21.4644 11.9698 21.2644 11.7298 21.2744 11.4598C21.2944 11.1798 21.5444 10.9898 21.8044 10.9898C22.4944 11.0398 23.0444 11.1398 23.6544 11.2898C23.6544 11.2898 23.6544 11.2898 23.6544 11.2798C24.2644 9.92979 25.6544 9.02979 27.1744 9.02979C27.7844 9.02979 28.3144 9.14979 28.8044 9.37979L29.1744 9.54979C29.2944 9.59979 29.3944 9.70979 29.4344 9.82979C29.4844 9.94979 29.4744 10.0898 29.4244 10.2098L28.0944 13.1298C28.1744 13.1898 28.2544 13.2398 28.3344 13.2998C29.8444 14.3198 31.0244 15.6198 31.8144 17.1298C32.0844 17.6298 32.6144 17.9498 33.1844 17.9498H33.9244C34.2044 17.9498 34.4244 18.1698 34.4244 18.4498V24.2598C34.4244 24.5398 34.2044 24.7598 33.9244 24.7598H33.1744C32.6144 24.7598 32.0844 25.0798 31.8144 25.5798C31.3444 26.4698 30.7144 27.3198 29.9244 28.0998V33.2498C29.9244 33.5298 29.7044 33.7498 29.4244 33.7498H29.4644Z" fill="#121212"/>
<path id="Vector_3" d="M9.30219 19.59C9.23219 19.59 9.16219 19.57 9.09219 19.54C7.82219 18.94 6.99219 17.63 6.99219 16.21C6.99219 15.93 7.21219 15.71 7.49219 15.71C7.77219 15.71 7.99219 15.93 7.99219 16.21C7.99219 17.25 8.59219 18.21 9.51219 18.64C9.76219 18.76 9.87219 19.06 9.75219 19.31C9.67219 19.49 9.48219 19.6 9.30219 19.6V19.59Z" fill="#121212"/>
<path id="Vector_4" d="M27.4894 19.5896C26.8594 19.5896 26.3594 19.0796 26.3594 18.4596C26.3594 17.8396 26.8694 17.3296 27.4894 17.3296C28.1094 17.3296 28.6194 17.8396 28.6194 18.4596C28.6194 19.0796 28.1094 19.5896 27.4894 19.5896ZM27.4894 18.3196C27.4194 18.3196 27.3594 18.3796 27.3594 18.4496C27.3594 18.5996 27.6294 18.5996 27.6294 18.4496C27.6294 18.3796 27.5694 18.3196 27.4994 18.3196H27.4894Z" fill="#121212"/>
</g>
<g id="Group_3">
<path id="Vector_5" d="M15.9728 18.7C12.4728 18.7 9.63281 15.86 9.63281 12.36C9.63281 8.86002 12.4728 6.02002 15.9728 6.02002C19.4728 6.02002 22.3128 8.86002 22.3128 12.36C22.3128 15.86 19.4728 18.7 15.9728 18.7ZM15.9728 7.02002C13.0328 7.02002 10.6328 9.42002 10.6328 12.36C10.6328 15.3 13.0328 17.7 15.9728 17.7C18.9128 17.7 21.3128 15.3 21.3128 12.36C21.3128 9.42002 18.9128 7.02002 15.9728 7.02002Z" fill="#121212"/>
<g id="Group_4">
<path id="Vector_6" d="M18.2206 10.2202H14.3906C14.1106 10.2202 13.8906 10.0002 13.8906 9.72021C13.8906 9.44021 14.1106 9.22021 14.3906 9.22021H18.2206C18.5006 9.22021 18.7206 9.44021 18.7206 9.72021C18.7206 10.0002 18.5006 10.2202 18.2206 10.2202Z" fill="#121212"/>
<path id="Vector_7" d="M18.2209 12.1401H13.7109C13.4309 12.1401 13.2109 11.9201 13.2109 11.6401C13.2109 11.3601 13.4309 11.1401 13.7109 11.1401H18.2209C18.5009 11.1401 18.7209 11.3601 18.7209 11.6401C18.7209 11.9201 18.5009 12.1401 18.2209 12.1401Z" fill="#121212"/>
<path id="Vector_8" d="M16.7374 16.4704C16.6174 16.4704 16.4974 16.4304 16.4074 16.3504L13.3974 13.6904C13.1874 13.5104 13.1674 13.1904 13.3574 12.9804C13.5374 12.7704 13.8574 12.7504 14.0674 12.9404L17.0774 15.6004C17.2874 15.7804 17.3074 16.1004 17.1174 16.3104C17.0174 16.4204 16.8774 16.4804 16.7374 16.4804V16.4704Z" fill="#121212"/>
<path id="Vector_9" d="M14.3888 13.8202H13.7188C13.4387 13.8202 13.2188 13.6002 13.2188 13.3202C13.2188 13.0402 13.4387 12.8202 13.7188 12.8202H14.3888C15.1088 12.8202 15.6887 12.2402 15.6887 11.5202C15.6887 10.8002 15.1088 10.2202 14.3888 10.2202H13.7188C13.4387 10.2202 13.2188 10.0002 13.2188 9.72021C13.2188 9.44021 13.4387 9.22021 13.7188 9.22021H14.3888C15.6588 9.22021 16.6888 10.2502 16.6888 11.5202C16.6888 12.7902 15.6588 13.8202 14.3888 13.8202Z" fill="#121212"/>
</g>
</g>
</g>
</g>
<defs>
<clipPath id="clip0_2201_1451">
<rect width="40" height="40" fill="white" transform="translate(0.5)"/>
</clipPath>
</defs>
</svg>
