<svg width="33" height="32" viewBox="0 0 33 32" fill="none" xmlns="http://www.w3.org/2000/svg">
<g clip-path="url(#clip0_3130_17922)">
<g clip-path="url(#clip1_3130_17922)">
<path d="M16.8161 18.384C16.8161 18.384 19.4161 16.328 18.9041 15.728C18.3921 15.128 17.6561 14.592 17.6561 14.592C17.6561 14.592 16.9041 15.456 14.3121 18.056C10.9521 21.424 8.88809 24.04 8.97609 24.632C9.06409 25.224 9.52009 24.928 10.5921 24.136C12.4481 22.768 16.8081 18.376 16.8081 18.376L16.8161 18.384Z" fill="#FFCB09"/>
<path d="M8.49589 25.072C8.49589 25.072 8.47189 25.072 8.46389 25.072C8.15189 25.064 7.96789 24.928 7.86389 24.816C6.21589 22.968 15.8799 13.088 20.1119 8.93602C20.2639 8.78402 20.5199 8.78402 20.6719 8.93602L23.9039 12.08C23.9839 12.152 24.0239 12.256 24.0239 12.368C24.0239 12.48 23.9839 12.576 23.9039 12.656C22.5999 13.928 11.1519 25.08 8.49589 25.08V25.072ZM20.3999 9.77602C13.1999 16.88 7.75989 23.488 8.47189 24.28C9.51189 24.712 16.7919 18.472 23.0559 12.36L20.3999 9.77602Z" fill="#121212"/>
<path d="M24.6799 24.7121C24.6079 24.7121 24.5279 24.6881 24.4639 24.6481C24.4319 24.6241 20.9359 22.3921 17.0159 18.9041C16.8479 18.7601 16.8399 18.5041 16.9839 18.3361C17.1279 18.1681 17.3839 18.1601 17.5519 18.3041C20.7919 21.1921 23.7279 23.2001 24.6239 23.7921L27.3439 20.9121L11.7199 5.24808C11.1759 5.76808 9.93593 6.96808 8.86393 8.06408C10.1919 10.4241 12.0639 12.8561 14.4319 15.3121C14.5839 15.4721 14.5839 15.7201 14.4239 15.8801C14.2639 16.0321 14.0159 16.0321 13.8559 15.8721C11.3519 13.2721 9.39193 10.6961 8.01593 8.19208C7.92793 8.04008 7.95993 7.84808 8.07993 7.72008C9.53593 6.21608 11.4319 4.41608 11.4479 4.40008C11.6079 4.24808 11.8559 4.25608 12.0079 4.40008L28.1759 20.6161C28.3279 20.7681 28.3359 21.0161 28.1759 21.1761L24.9599 24.5841C24.8799 24.6641 24.7759 24.7121 24.6719 24.7121H24.6799Z" fill="#121212"/>
<path d="M12.32 27.712C12.216 27.712 12.112 27.672 12.04 27.592L5.024 20.56C4.872 20.408 4.864 20.16 5.024 20L6.416 18.52C6.552 18.376 6.76 18.352 6.92 18.456C6.976 18.488 8.248 19.304 9.856 20.704C10.024 20.848 10.04 21.104 9.896 21.272C9.752 21.44 9.496 21.456 9.328 21.312C8.192 20.328 7.216 19.632 6.76 19.32L5.864 20.272L12.328 26.752C12.568 26.52 12.936 26.16 13.28 25.808C12.792 24.976 12.152 24.12 11.36 23.264C11.208 23.104 11.224 22.848 11.384 22.696C11.544 22.544 11.8 22.56 11.952 22.72C12.864 23.72 13.6 24.712 14.128 25.68C14.216 25.832 14.184 26.024 14.064 26.152C13.424 26.816 12.6 27.6 12.6 27.6C12.52 27.672 12.424 27.712 12.328 27.712H12.32Z" fill="#121212"/>
<path d="M26.52 12.448C26.416 12.448 26.32 12.408 26.24 12.336L20.296 6.47999C20.136 6.32799 20.136 6.07199 20.296 5.91199C20.448 5.75199 20.704 5.75199 20.864 5.91199L26.808 11.768C26.968 11.92 26.968 12.176 26.808 12.336C26.728 12.416 26.624 12.456 26.52 12.456V12.448Z" fill="#121212"/>
<path d="M23.3281 11.6082C23.2241 11.6082 23.1201 11.5682 23.0401 11.4882C22.8881 11.3282 22.8881 11.0802 23.0401 10.9202L23.8081 10.1602L22.7361 9.02415L21.7521 10.0002C21.5921 10.1522 21.3441 10.1522 21.1841 10.0002C21.0321 9.84015 21.0321 9.59215 21.1841 9.43215L22.4561 8.16815C22.5361 8.09615 22.6321 8.05615 22.7441 8.05615C22.8481 8.05615 22.9521 8.10415 23.0321 8.18415L24.6561 9.90415C24.8081 10.0642 24.8001 10.3122 24.6481 10.4642L23.6001 11.4962C23.5201 11.5762 23.4241 11.6082 23.3201 11.6082H23.3281Z" fill="#121212"/>
<path d="M23.6241 9.61602C23.5201 9.61602 23.4161 9.57602 23.3441 9.49602C23.1841 9.33602 23.1841 9.08802 23.3441 8.92802L24.0801 8.19202C24.2401 8.03202 24.4881 8.03202 24.6481 8.19202C24.8081 8.35202 24.8081 8.60002 24.6481 8.76002L23.9121 9.49602C23.8321 9.57602 23.7281 9.61602 23.6321 9.61602H23.6241Z" fill="#121212"/>
</g>
</g>
<defs>
<clipPath id="clip0_3130_17922">
<rect width="32" height="32" fill="white" transform="translate(0.600098)"/>
</clipPath>
<clipPath id="clip1_3130_17922">
<rect width="32" height="32" fill="white" transform="translate(0.600098)"/>
</clipPath>
</defs>
</svg>
