<svg width="24" height="24" viewBox="0 0 24 24" fill="none" xmlns="http://www.w3.org/2000/svg">
<g clip-path="url(#clip0_9623_28388)">
<path d="M18.0004 12.6004L6.00039 12.6004C5.67039 12.6004 5.40039 12.3304 5.40039 12.0004C5.40039 11.6704 5.67039 11.4004 6.00039 11.4004L18.0004 11.4004C18.3304 11.4004 18.6004 11.6704 18.6004 12.0004C18.6004 12.3304 18.3304 12.6004 18.0004 12.6004Z" fill="#121212"/>
<path d="M12.0004 18.6004C11.6704 18.6004 11.4004 18.3304 11.4004 18.0004L11.4004 6.00039C11.4004 5.67039 11.6704 5.40039 12.0004 5.40039C12.3304 5.40039 12.6004 5.67039 12.6004 6.00039L12.6004 18.0004C12.6004 18.3304 12.3304 18.6004 12.0004 18.6004Z" fill="#121212"/>
</g>
<defs>
<clipPath id="clip0_9623_28388">
<rect width="24" height="24" fill="white"/>
</clipPath>
</defs>
</svg>
