<svg width="24" height="24" viewBox="0 0 24 24" fill="none" xmlns="http://www.w3.org/2000/svg">
<g clip-path="url(#clip0_3294_14977)">
<path fill-rule="evenodd" clip-rule="evenodd" d="M12.0004 22.6004C6.16039 22.6004 1.40039 17.8504 1.40039 12.0004C1.40039 6.15039 6.16039 1.40039 12.0004 1.40039C17.8404 1.40039 22.6004 6.15039 22.6004 12.0004C22.6004 17.8504 17.8404 22.6004 12.0004 22.6004ZM10.1607 15.2509C10.2707 15.3709 10.4207 15.4309 10.5807 15.4309L10.5907 15.4409C10.7407 15.4409 10.9007 15.3709 11.0107 15.2609L16.6807 9.59086C16.9107 9.35086 16.9107 8.97086 16.6807 8.74086C16.4407 8.51086 16.0607 8.51086 15.8307 8.74086L10.5907 13.9809L8.1807 11.5709C7.9507 11.3409 7.5707 11.3409 7.3307 11.5709C7.1007 11.8109 7.1007 12.1909 7.3307 12.4209L10.1607 15.2509Z" fill="#009D58"/>
</g>
<defs>
<clipPath id="clip0_3294_14977">
<rect width="24" height="24" rx="12" fill="white"/>
</clipPath>
</defs>
</svg>
