<svg width="40" height="41" viewBox="0 0 40 41" fill="none" xmlns="http://www.w3.org/2000/svg">
<g clip-path="url(#clip0_8258_11236)">
<g clip-path="url(#clip1_8258_11236)">
<path d="M24.84 34.38C24.66 34.38 24.49 34.28 24.4 34.13C24.31 33.97 24.31 33.78 24.4 33.63L25.69 31.48C25.83 31.24 26.14 31.17 26.38 31.31C26.62 31.45 26.69 31.76 26.55 32L25.75 33.34C29.78 32.88 32.93 29.45 32.93 25.3C32.93 25.02 33.15 24.8 33.43 24.8C33.71 24.8 33.93 25.02 33.93 25.3C33.93 30.31 29.85 34.39 24.84 34.39V34.38Z" fill="#121212"/>
<path d="M6.42993 15.97C6.14993 15.97 5.92993 15.75 5.92993 15.47C5.92993 10.46 10.0099 6.38 15.0199 6.38C15.1999 6.38 15.3699 6.48 15.4599 6.63C15.5499 6.79 15.5499 6.98 15.4599 7.13L14.1699 9.28C14.0299 9.52 13.7199 9.59 13.4799 9.45C13.2399 9.31 13.1699 9.00001 13.3099 8.76L14.1099 7.42C10.0799 7.88 6.92993 11.31 6.92993 15.46C6.92993 15.74 6.70993 15.96 6.42993 15.96V15.97Z" fill="#121212"/>
<path d="M22.72 26.93C22.72 29.82 20.37 32.17 17.48 32.17C14.59 32.17 12.24 29.82 12.24 26.93C12.24 24.04 14.59 21.69 17.48 21.69C17.62 21.69 17.75 21.69 17.88 21.71C20.45 21.9 22.51 23.96 22.7 26.53C22.7 26.67 22.72 26.8 22.72 26.93Z" fill="#FFCB09"/>
<path d="M15.85 32.58C11.4 32.58 7.77002 28.96 7.77002 24.5C7.77002 20.04 11.39 16.42 15.85 16.42C16.05 16.42 16.23 16.43 16.43 16.44C20.41 16.74 23.61 19.93 23.9 23.88C23.91 24.12 23.92 24.3 23.92 24.5C23.92 28.95 20.3 32.58 15.84 32.58H15.85ZM15.85 17.42C11.95 17.42 8.77002 20.6 8.77002 24.5C8.77002 28.4 11.94 31.58 15.85 31.58C19.76 31.58 22.93 28.4 22.93 24.5C22.93 24.32 22.93 24.15 22.91 23.98C22.65 20.5 19.85 17.71 16.4 17.45C16.2 17.44 16.03 17.43 15.85 17.43V17.42Z" fill="#121212"/>
<path d="M24.0099 24.42H23.3999C23.1399 24.42 22.9199 24.22 22.8999 23.96C22.6399 20.51 19.8399 17.71 16.3899 17.45C16.1299 17.43 15.9299 17.21 15.9299 16.95V16.34C15.9299 11.89 19.5499 8.26001 24.0099 8.26001C28.4699 8.26001 32.0899 11.88 32.0899 16.34C32.0899 20.8 28.4699 24.42 24.0099 24.42ZM23.8499 23.42H24.0099C27.9099 23.42 31.0899 20.24 31.0899 16.34C31.0899 12.44 27.9099 9.26001 24.0099 9.26001C20.1099 9.26001 16.9299 12.44 16.9299 16.34V16.5C20.4999 16.98 23.3699 19.85 23.8499 23.42Z" fill="#121212"/>
<path d="M18.6002 21.4H13.9302C13.6502 21.4 13.4302 21.18 13.4302 20.9C13.4302 20.62 13.6502 20.4 13.9302 20.4H18.6002C18.8802 20.4 19.1002 20.62 19.1002 20.9C19.1002 21.18 18.8802 21.4 18.6002 21.4Z" fill="#121212"/>
<path d="M18.6001 23.95H13.0901C12.8101 23.95 12.5901 23.73 12.5901 23.45C12.5901 23.17 12.8101 22.95 13.0901 22.95H18.6001C18.8801 22.95 19.1001 23.17 19.1001 23.45C19.1001 23.73 18.8801 23.95 18.6001 23.95Z" fill="#121212"/>
<path d="M16.79 29.74C16.67 29.74 16.55 29.7 16.46 29.62L12.78 26.37C12.57 26.19 12.55 25.87 12.74 25.66C12.92 25.45 13.24 25.43 13.45 25.62L17.13 28.87C17.34 29.05 17.36 29.37 17.17 29.58C17.07 29.69 16.93 29.75 16.79 29.75V29.74Z" fill="#121212"/>
<path d="M13.9301 26.5H13.1101C12.8301 26.5 12.6101 26.28 12.6101 26C12.6101 25.72 12.8301 25.5 13.1101 25.5H13.9301C14.8601 25.5 15.6301 24.58 15.6301 23.45C15.6301 22.32 14.8701 21.4 13.9301 21.4H13.1101C12.8301 21.4 12.6101 21.18 12.6101 20.9C12.6101 20.62 12.8301 20.4 13.1101 20.4H13.9301C15.4201 20.4 16.6301 21.77 16.6301 23.45C16.6301 25.13 15.4201 26.5 13.9301 26.5Z" fill="#121212"/>
</g>
</g>
<defs>
<clipPath id="clip0_8258_11236">
<rect width="40" height="40" fill="white" transform="translate(0 0.5)"/>
</clipPath>
<clipPath id="clip1_8258_11236">
<rect width="40" height="40" fill="white" transform="translate(0 0.5)"/>
</clipPath>
</defs>
</svg>
