<svg width="22" height="22" viewBox="0 0 22 22" fill="none" xmlns="http://www.w3.org/2000/svg">
<path d="M11.1199 12.3809C11.1199 12.3809 11.0799 12.3809 11.0599 12.3809C11.0299 12.3809 10.9899 12.3809 10.9399 12.3809C8.76988 12.3109 7.12988 10.6109 7.12988 8.51086C7.12988 6.41086 8.86988 4.63086 11.0099 4.63086C13.1499 4.63086 14.8899 6.37086 14.8899 8.51086C14.8899 10.6109 13.2399 12.3109 11.1499 12.3909H11.1299L11.1199 12.3809ZM10.9999 5.82086C9.51988 5.82086 8.31988 7.02086 8.31988 8.50086C8.31988 9.98086 9.44988 11.1309 10.8999 11.1809C10.9399 11.1809 11.0399 11.1809 11.1399 11.1809C12.5699 11.1109 13.6799 9.94086 13.6899 8.50086C13.6899 7.02086 12.4899 5.82086 11.0099 5.82086H10.9999Z" fill="#1A1A1A"/>
<path d="M11.0001 21.6004C8.3501 21.6004 5.8101 20.6104 3.8501 18.8204C3.7101 18.6904 3.6401 18.5004 3.6601 18.3104C3.7801 17.1704 4.5001 16.1004 5.6901 15.3004C8.6301 13.3504 13.3901 13.3504 16.3001 15.3004C17.4901 16.1004 18.2101 17.1704 18.3301 18.3204C18.3501 18.5104 18.2801 18.7004 18.1401 18.8304C16.1801 20.6204 13.6501 21.6104 10.9901 21.6104L11.0001 21.6004ZM4.9101 18.1504C6.6101 19.6004 8.7601 20.4004 11.0001 20.4004C13.2401 20.4004 15.3901 19.6004 17.0901 18.1504C16.9201 17.4704 16.4101 16.8204 15.6301 16.3004C13.1301 14.6304 8.8801 14.6304 6.3601 16.3004C5.5801 16.8204 5.0801 17.4704 4.9101 18.1504Z" fill="#1A1A1A"/>
<path d="M10.9999 21.6004C5.1599 21.6004 0.399902 16.8404 0.399902 11.0004C0.399902 5.16039 5.1599 0.400391 10.9999 0.400391C16.8399 0.400391 21.5999 5.16039 21.5999 11.0004C21.5999 16.8404 16.8399 21.6004 10.9999 21.6004ZM10.9999 1.60039C5.8199 1.60039 1.5999 5.82039 1.5999 11.0004C1.5999 16.1804 5.8199 20.4004 10.9999 20.4004C16.1799 20.4004 20.3999 16.1804 20.3999 11.0004C20.3999 5.82039 16.1799 1.60039 10.9999 1.60039Z" fill="#1A1A1A"/>
</svg>
