<svg width="32" height="32" viewBox="0 0 32 32" fill="none" xmlns="http://www.w3.org/2000/svg">
<g id="Frame" clip-path="url(#clip0_1863_2626)">
<g id="Group">
<path id="Vector" d="M25.1094 20.2305H27.9294V27.5305C27.9294 28.3405 27.2694 29.0005 26.4594 29.0005H25.5794C24.7694 29.0005 24.1094 28.3405 24.1094 27.5305V21.2305C24.1094 20.6805 24.5594 20.2305 25.1094 20.2305Z" fill="#FFCB09"/>
<path id="Vector_2" fill-rule="evenodd" clip-rule="evenodd" d="M13.0114 18.9004V27.0904C13.0114 28.1404 12.1614 29.0004 11.1014 29.0004C10.0514 29.0004 9.19141 28.1504 9.19141 27.0904V20.8504C9.19141 19.7704 10.0614 18.9004 11.1414 18.9004H13.0014H13.0114Z" fill="#FFCB09"/>
<path id="Vector_3" d="M10.1491 29.4996C8.29906 29.4996 6.78906 27.9896 6.78906 26.1396V13.8496C6.78906 13.5696 7.00906 13.3496 7.28906 13.3496C7.56906 13.3496 7.78906 13.5696 7.78906 13.8496V26.1296C7.78906 27.4296 8.84906 28.4896 10.1491 28.4896C11.4491 28.4896 12.5091 27.4296 12.5091 26.1296V13.8496C12.5091 13.5696 12.7291 13.3496 13.0091 13.3496C13.2891 13.3496 13.5091 13.5696 13.5091 13.8496V26.1296C13.5091 27.9796 11.9991 29.4896 10.1491 29.4896V29.4996Z" fill="black"/>
<path id="Vector_4" d="M25.7309 29.4996H24.4109C22.9209 29.4996 21.7109 28.2896 21.7109 26.7996V15.8496C21.7109 15.5696 21.9309 15.3496 22.2109 15.3496H27.9309C28.2109 15.3496 28.4309 15.5696 28.4309 15.8496V26.7996C28.4309 28.2896 27.2209 29.4996 25.7309 29.4996ZM22.7109 16.3496V26.7996C22.7109 27.7396 23.4709 28.4996 24.4109 28.4996H25.7309C26.6709 28.4996 27.4309 27.7396 27.4309 26.7996V16.3496H22.7109Z" fill="black"/>
<path id="Vector_5" d="M25.0703 16.35C24.7903 16.35 24.5703 16.13 24.5703 15.85V3C24.5703 2.72 24.7903 2.5 25.0703 2.5C25.3503 2.5 25.5703 2.72 25.5703 3V15.85C25.5703 16.13 25.3503 16.35 25.0703 16.35Z" fill="black"/>
<path id="Vector_6" d="M27.4497 5.33008H22.6797C22.3997 5.33008 22.1797 5.11008 22.1797 4.83008C22.1797 4.55008 22.3997 4.33008 22.6797 4.33008H27.4497C27.7297 4.33008 27.9497 4.55008 27.9497 4.83008C27.9497 5.11008 27.7297 5.33008 27.4497 5.33008Z" fill="black"/>
<path id="Vector_7" d="M10.1403 15.0698C6.52031 15.0698 3.57031 12.1198 3.57031 8.48984C3.57031 5.95984 5.05031 3.61984 7.34031 2.54984C7.50031 2.47984 7.68031 2.48984 7.82031 2.57984C7.96031 2.66984 8.05031 2.82984 8.05031 2.99984V8.13984L10.1403 9.54984L12.2303 8.13984V2.99984C12.2303 2.82984 12.3203 2.66984 12.4603 2.57984C12.6103 2.48984 12.7903 2.47984 12.9403 2.54984C15.2403 3.61984 16.7303 5.94984 16.7303 8.48984C16.7303 12.1198 13.7803 15.0698 10.1503 15.0698H10.1403ZM7.05031 3.84984C5.52031 4.86984 4.57031 6.60984 4.57031 8.47984C4.57031 11.5598 7.07031 14.0598 10.1403 14.0598C13.2103 14.0598 15.7203 11.5598 15.7203 8.47984C15.7203 6.59984 14.7603 4.85984 13.2203 3.83984V8.39984C13.2203 8.56984 13.1403 8.71984 13.0003 8.80984L10.4103 10.5498C10.2403 10.6598 10.0203 10.6598 9.85031 10.5498L7.26031 8.80984C7.12031 8.71984 7.04031 8.55984 7.04031 8.39984V3.84984H7.05031Z" fill="black"/>
</g>
</g>
<defs>
<clipPath id="clip0_1863_2626">
<rect width="32" height="32" fill="white"/>
</clipPath>
</defs>
</svg>
