<svg width="16" height="17" viewBox="0 0 16 17" fill="none" xmlns="http://www.w3.org/2000/svg">
<g clip-path="url(#clip0_5376_50268)">
<g clip-path="url(#clip1_5376_50268)">
<path d="M13.4547 10.8488V13.6987C13.4547 14.4137 12.8747 14.9987 12.1547 14.9987H7.47969C6.76469 14.9987 6.17969 14.4187 6.17969 13.6987V13.6587C6.17969 12.1037 7.43969 10.8438 8.99469 10.8438H13.4547V10.8488Z" fill="#FFCB09"/>
<path d="M13.605 9.0243H9.465C9.325 9.0243 9.215 8.9143 9.215 8.7743C9.215 8.6343 9.325 8.5243 9.465 8.5243H13.605C13.96 8.5243 14.25 8.2293 14.25 7.8693V6.4243C14.25 6.0693 13.96 5.7793 13.605 5.7793H2.395C2.04 5.7793 1.75 6.0693 1.75 6.4243V7.8693C1.75 8.2293 2.04 8.5243 2.395 8.5243H6.575C6.715 8.5243 6.825 8.6343 6.825 8.7743C6.825 8.9143 6.715 9.0243 6.575 9.0243H2.395C1.765 9.0243 1.25 8.5043 1.25 7.8693V6.4243C1.25 5.7943 1.765 5.2793 2.395 5.2793H13.605C14.235 5.2793 14.75 5.7943 14.75 6.4243V7.8693C14.75 8.5043 14.235 9.0243 13.605 9.0243Z" fill="#121212"/>
<path d="M11.5069 15.2495H4.49687C3.28687 15.2495 2.29688 14.2645 2.29688 13.0495V8.76953C2.29688 8.62953 2.40687 8.51953 2.54688 8.51953H6.57687C6.71687 8.51953 6.82687 8.62953 6.82687 8.76953C6.82687 8.90953 6.71687 9.01953 6.57687 9.01953H2.79688V13.0495C2.79688 13.9845 3.55687 14.7495 4.49687 14.7495H11.5069C12.4419 14.7495 13.2069 13.9895 13.2069 13.0495V9.01953H9.46688C9.32688 9.01953 9.21688 8.90953 9.21688 8.76953C9.21688 8.62953 9.32688 8.51953 9.46688 8.51953H13.4569C13.5969 8.51953 13.7069 8.62953 13.7069 8.76953V13.0495C13.7069 14.2595 12.7219 15.2495 11.5069 15.2495Z" fill="#121212"/>
<path d="M7.69953 5.77375H6.23453C5.28953 5.77375 4.51953 5.00375 4.51953 4.05875C4.51953 3.11375 5.28953 2.34375 6.23453 2.34375C7.17953 2.34375 7.94953 3.11375 7.94953 4.05875V5.52375C7.94953 5.66375 7.83953 5.77375 7.69953 5.77375ZM6.23453 2.84375C5.56453 2.84375 5.01953 3.38875 5.01953 4.05875C5.01953 4.72875 5.56453 5.27375 6.23453 5.27375H7.44953V4.05875C7.44953 3.38875 6.90453 2.84375 6.23453 2.84375Z" fill="#121212"/>
<path d="M9.46422 5.77414H7.69922C7.55922 5.77414 7.44922 5.66414 7.44922 5.52414V3.75914C7.44922 2.64914 8.35422 1.74414 9.46422 1.74414C10.5742 1.74414 11.4792 2.64914 11.4792 3.75914C11.4792 4.86914 10.5742 5.77414 9.46422 5.77414ZM7.94922 5.27414H9.46422C10.2992 5.27414 10.9792 4.59414 10.9792 3.75914C10.9792 2.92414 10.2992 2.24414 9.46422 2.24414C8.62922 2.24414 7.94922 2.92414 7.94922 3.75914V5.27414Z" fill="#121212"/>
<path d="M9.46422 11.5634C9.42922 11.5634 9.39422 11.5584 9.35922 11.5434L8.01922 10.9384L6.67922 11.5434C6.59922 11.5784 6.51422 11.5734 6.43922 11.5234C6.36922 11.4784 6.32422 11.3984 6.32422 11.3134V5.52344C6.32422 5.38344 6.43422 5.27344 6.57422 5.27344H9.46422C9.60422 5.27344 9.71422 5.38344 9.71422 5.52344V11.3134C9.71422 11.3984 9.66922 11.4784 9.59922 11.5234C9.55922 11.5484 9.50922 11.5634 9.46422 11.5634ZM8.01922 10.4134C8.05422 10.4134 8.08922 10.4184 8.12422 10.4334L9.21422 10.9234V5.77344H6.82422V10.9284L7.91422 10.4384C7.94922 10.4234 7.97922 10.4184 8.01922 10.4184V10.4134Z" fill="#121212"/>
</g>
</g>
<defs>
<clipPath id="clip0_5376_50268">
<rect width="16" height="16" fill="white" transform="translate(0 0.5)"/>
</clipPath>
<clipPath id="clip1_5376_50268">
<rect width="16" height="16" fill="white" transform="translate(0 0.5)"/>
</clipPath>
</defs>
</svg>
