<svg width="41" height="40" viewBox="0 0 41 40" fill="none" xmlns="http://www.w3.org/2000/svg">
<g id="Layer_1" clip-path="url(#clip0_2201_5132)">
<g id="Group">
<path id="Vector" d="M26.7997 18.6199C28.937 18.6199 30.6697 16.8872 30.6697 14.7499C30.6697 12.6125 28.937 10.8799 26.7997 10.8799C24.6623 10.8799 22.9297 12.6125 22.9297 14.7499C22.9297 16.8872 24.6623 18.6199 26.7997 18.6199Z" fill="#FFCB09"/>
<g id="Group_2">
<g id="Group_3">
<g id="Group_4">
<path id="Vector_2" d="M21.1806 16.48H16.1406C15.8606 16.48 15.6406 16.26 15.6406 15.98C15.6406 15.7 15.8606 15.48 16.1406 15.48H21.1806C21.4606 15.48 21.6806 15.7 21.6806 15.98C21.6806 16.26 21.4606 16.48 21.1806 16.48Z" fill="#121212"/>
<path id="Vector_3" d="M21.18 19H15.25C14.97 19 14.75 18.78 14.75 18.5C14.75 18.22 14.97 18 15.25 18H21.18C21.46 18 21.68 18.22 21.68 18.5C21.68 18.78 21.46 19 21.18 19Z" fill="#121212"/>
<path id="Vector_4" d="M19.2287 24.7103C19.1087 24.7103 18.9887 24.6703 18.8987 24.5903L14.9287 21.0903C14.7187 20.9103 14.6987 20.5903 14.8887 20.3803C15.0687 20.1703 15.3887 20.1503 15.5987 20.3403L19.5687 23.8403C19.7787 24.0203 19.7987 24.3403 19.6087 24.5503C19.5087 24.6603 19.3687 24.7203 19.2287 24.7203V24.7103Z" fill="#121212"/>
<path id="Vector_5" d="M16.1478 21.2102H15.2578C14.9778 21.2102 14.7578 20.9902 14.7578 20.7102C14.7578 20.4302 14.9778 20.2102 15.2578 20.2102H16.1478C17.1778 20.2102 18.0178 19.3702 18.0178 18.3402C18.0178 17.3102 17.1778 16.4702 16.1478 16.4702H15.2578C14.9778 16.4702 14.7578 16.2502 14.7578 15.9702C14.7578 15.6902 14.9778 15.4702 15.2578 15.4702H16.1478C17.7278 15.4702 19.0178 16.7602 19.0178 18.3402C19.0178 19.9202 17.7278 21.2102 16.1478 21.2102Z" fill="#121212"/>
</g>
<path id="Vector_6" d="M18.2206 31.6703C11.8306 31.6703 6.64062 26.4703 6.64062 20.0903C6.64062 13.7103 11.8406 8.51025 18.2206 8.51025C20.2406 8.51025 22.2306 9.04025 23.9706 10.0403C24.2106 10.1803 24.2906 10.4803 24.1606 10.7203C24.0206 10.9603 23.7206 11.0403 23.4806 10.9003C21.8906 9.99025 20.0706 9.51025 18.2306 9.51025C12.3906 9.51025 7.65063 14.2603 7.65063 20.0903C7.65063 25.9203 12.4006 30.6703 18.2306 30.6703C24.0606 30.6703 28.8106 25.9203 28.8106 20.0903C28.8106 19.8103 29.0306 19.5903 29.3106 19.5903C29.5906 19.5903 29.8106 19.8103 29.8106 20.0903C29.8106 26.4803 24.6106 31.6703 18.2306 31.6703H18.2206Z" fill="#121212"/>
</g>
<path id="Vector_7" d="M28.3975 20.2501C25.1075 20.2501 22.4375 17.5701 22.4375 14.2901C22.4375 11.0101 25.1175 8.33008 28.3975 8.33008C31.6775 8.33008 34.3575 11.0101 34.3575 14.2901C34.3575 17.5701 31.6775 20.2501 28.3975 20.2501ZM28.3975 9.32008C25.6575 9.32008 23.4375 11.5501 23.4375 14.2801C23.4375 17.0101 25.6675 19.2401 28.3975 19.2401C31.1275 19.2401 33.3575 17.0101 33.3575 14.2801C33.3575 11.5501 31.1275 9.32008 28.3975 9.32008Z" fill="#121212"/>
<g id="Group_5">
<path id="Vector_8" d="M28.4062 17.07C28.1262 17.07 27.9062 16.85 27.9062 16.57V11.48C27.9062 11.2 28.1262 10.98 28.4062 10.98C28.6862 10.98 28.9062 11.2 28.9062 11.48V16.57C28.9062 16.85 28.6862 17.07 28.4062 17.07Z" fill="#121212"/>
<path id="Vector_9" d="M28.4025 17.6C28.2725 17.6 28.1425 17.55 28.0525 17.45L26.4625 15.86C26.2625 15.66 26.2625 15.35 26.4625 15.15C26.6625 14.95 26.9725 14.95 27.1725 15.15L28.4125 16.39L29.6525 15.15C29.8525 14.95 30.1625 14.95 30.3625 15.15C30.5625 15.35 30.5625 15.66 30.3625 15.86L28.7725 17.45C28.6825 17.54 28.5525 17.6 28.4225 17.6H28.4025Z" fill="#121212"/>
</g>
</g>
</g>
</g>
<defs>
<clipPath id="clip0_2201_5132">
<rect width="40" height="40" fill="white" transform="translate(0.5)"/>
</clipPath>
</defs>
</svg>
