<svg width="33" height="32" viewBox="0 0 33 32" fill="none" xmlns="http://www.w3.org/2000/svg">
<g id="Frame" clip-path="url(#clip0_1615_292)">
<g id="Group">
<path id="Vector" d="M22.6916 10.89C22.6916 13.17 20.8416 15.02 18.5616 15.02C16.2816 15.02 14.4316 13.17 14.4316 10.89C14.4316 8.61001 16.2816 6.76001 18.5616 6.76001C20.8416 6.76001 22.6916 8.61001 22.6916 10.89Z" fill="#FFCB09"/>
<path id="Vector_2" d="M8.83086 29.87C8.70086 29.87 8.57086 29.82 8.48086 29.72L2.78086 24.02C2.58086 23.82 2.58086 23.51 2.78086 23.31L8.47086 17.62C8.47086 17.62 8.49086 17.6 8.50086 17.59C9.34086 16.88 10.5509 16.48 11.8409 16.48C13.0309 16.48 14.1509 16.82 14.9909 17.45C15.5509 17.86 16.1709 18.08 16.7809 18.08H19.5409C20.5709 18.08 21.4109 18.92 21.4109 19.95V20.08C21.4109 21.11 20.5709 21.95 19.5409 21.95H16.1809C15.8409 21.95 15.5709 22.22 15.5709 22.56C15.5709 22.9 15.8409 23.17 16.1809 23.17H21.5409L27.3909 18.79C27.8409 18.45 28.3909 18.32 28.9409 18.42C29.4909 18.51 29.9609 18.82 30.2709 19.29C30.4009 19.49 30.3709 19.76 30.2009 19.93L23.0209 26.71C22.2909 27.4 21.3409 27.78 20.3309 27.78H12.0109C11.4409 27.78 10.9109 28 10.5109 28.4L9.19086 29.72C9.09086 29.82 8.96086 29.87 8.84086 29.87H8.83086ZM3.84086 23.67L8.83086 28.66L9.80086 27.69C10.3909 27.1 11.1709 26.78 12.0109 26.78H20.3409C21.0909 26.78 21.8009 26.5 22.3409 25.98L29.1509 19.55C29.0409 19.48 28.9109 19.43 28.7709 19.41C28.4909 19.36 28.2209 19.43 27.9909 19.6L22.0109 24.08C21.9209 24.14 21.8209 24.18 21.7109 24.18H16.1809C15.2909 24.18 14.5709 23.46 14.5709 22.57C14.5709 21.68 15.2909 20.96 16.1809 20.96H19.5409C20.0209 20.96 20.4109 20.57 20.4109 20.09V19.96C20.4109 19.48 20.0209 19.09 19.5409 19.09H16.7809C15.9509 19.09 15.1309 18.8 14.3909 18.26C13.7309 17.77 12.7909 17.49 11.8309 17.49C10.7909 17.49 9.81086 17.8 9.16086 18.35L3.83086 23.68L3.84086 23.67Z" fill="black"/>
<g id="Group_2">
<path id="Vector_3" d="M18.6807 7.09009H14.9707C14.6907 7.09009 14.4707 6.87009 14.4707 6.59009C14.4707 6.31009 14.6907 6.09009 14.9707 6.09009H18.6807C18.9607 6.09009 19.1807 6.31009 19.1807 6.59009C19.1807 6.87009 18.9607 7.09009 18.6807 7.09009Z" fill="black"/>
<path id="Vector_4" d="M18.6805 9.11011H14.3105C14.0305 9.11011 13.8105 8.89011 13.8105 8.61011C13.8105 8.33011 14.0305 8.11011 14.3105 8.11011H18.6805C18.9605 8.11011 19.1805 8.33011 19.1805 8.61011C19.1805 8.89011 18.9605 9.11011 18.6805 9.11011Z" fill="black"/>
<path id="Vector_5" d="M17.2509 13.71C17.1309 13.71 17.0109 13.67 16.9209 13.59L14.0009 11.02C13.7909 10.84 13.7709 10.52 13.9609 10.31C14.1409 10.1 14.4609 10.08 14.6709 10.27L17.5909 12.84C17.8009 13.02 17.8209 13.34 17.6309 13.55C17.5309 13.66 17.3909 13.72 17.2509 13.72V13.71Z" fill="black"/>
<path id="Vector_6" d="M14.9801 11.1301H14.3301C14.0501 11.1301 13.8301 10.9101 13.8301 10.6301C13.8301 10.3501 14.0501 10.1301 14.3301 10.1301H14.9801C15.6601 10.1301 16.2201 9.45009 16.2201 8.61009C16.2201 7.77009 15.6601 7.09009 14.9801 7.09009H14.3301C14.0501 7.09009 13.8301 6.87009 13.8301 6.59009C13.8301 6.31009 14.0501 6.09009 14.3301 6.09009H14.9801C16.2201 6.09009 17.2201 7.22009 17.2201 8.61009C17.2201 10.0001 16.2101 11.1301 14.9801 11.1301Z" fill="black"/>
</g>
<path id="Vector_7" d="M17.8811 3.60001C17.7311 3.60001 17.5911 3.54001 17.4911 3.41001L16.1111 1.69001C15.9411 1.47001 15.9711 1.16001 16.1911 0.990015C16.4111 0.820015 16.7211 0.850015 16.8911 1.07001L18.2711 2.79001C18.4411 3.01001 18.4111 3.32001 18.1911 3.49001C18.1011 3.56001 17.9911 3.60001 17.8811 3.60001Z" fill="black"/>
<path id="Vector_8" d="M16.501 15.8499C12.801 15.8499 9.79102 12.8399 9.79102 9.13993C9.79102 5.43993 12.801 2.42993 16.501 2.42993C16.981 2.42993 17.471 2.48993 18.001 2.60993C18.271 2.66993 18.441 2.93993 18.371 3.20993C18.311 3.47993 18.041 3.64993 17.771 3.57993C17.321 3.47993 16.911 3.42993 16.501 3.42993C13.351 3.42993 10.791 5.98993 10.791 9.13993C10.791 12.2899 13.351 14.8499 16.501 14.8499C19.651 14.8499 22.211 12.2899 22.211 9.13993C22.211 7.91993 21.811 6.73993 21.051 5.72993C20.881 5.50993 20.931 5.19993 21.151 5.02993C21.371 4.86993 21.691 4.90993 21.851 5.12993C22.741 6.30993 23.211 7.69993 23.211 9.13993C23.211 12.8399 20.201 15.8499 16.501 15.8499Z" fill="black"/>
<path id="Vector_9" d="M16.1699 4.99006C16.0199 4.99006 15.8799 4.93006 15.7799 4.80006C15.6099 4.59006 15.6399 4.27006 15.8499 4.10006L17.5699 2.71006C17.7799 2.54006 18.0999 2.57006 18.2699 2.78006C18.4399 2.99006 18.4099 3.31006 18.1999 3.48006L16.4799 4.87006C16.3899 4.95006 16.2799 4.98006 16.1699 4.98006V4.99006Z" fill="black"/>
</g>
</g>
<defs>
<clipPath id="clip0_1615_292">
<rect width="32" height="32" fill="white" transform="translate(0.5)"/>
</clipPath>
</defs>
</svg>
