<svg width="32" height="33" viewBox="0 0 32 33" fill="none" xmlns="http://www.w3.org/2000/svg">
<g clip-path="url(#clip0_7609_29526)">
<g clip-path="url(#clip1_7609_29526)">
<path d="M11.2594 25.7024C12.1254 25.7024 12.8274 25.0004 12.8274 24.1344C12.8274 23.2684 12.1254 22.5664 11.2594 22.5664C10.3934 22.5664 9.69141 23.2684 9.69141 24.1344C9.69141 25.0004 10.3934 25.7024 11.2594 25.7024Z" fill="#FFCB09"/>
<path d="M14.9622 12.5156H9.92219C9.54663 12.5156 9.24219 12.8201 9.24219 13.1956V14.0436C9.24219 14.4192 9.54663 14.7236 9.92219 14.7236H14.9622C15.3377 14.7236 15.6422 14.4192 15.6422 14.0436V13.1956C15.6422 12.8201 15.3377 12.5156 14.9622 12.5156Z" fill="#FFCB09"/>
<path d="M24.8571 25.7024C25.723 25.7024 26.4251 25.0004 26.4251 24.1344C26.4251 23.2684 25.723 22.5664 24.8571 22.5664C23.9911 22.5664 23.2891 23.2684 23.2891 24.1344C23.2891 25.0004 23.9911 25.7024 24.8571 25.7024Z" fill="#FFCB09"/>
<path d="M20.9379 23.0213H4.15391C3.92991 23.0213 3.75391 22.8453 3.75391 22.6213C3.75391 18.0053 7.50591 14.2533 12.1219 14.2533H14.2179C14.4419 14.2533 14.6179 14.4293 14.6179 14.6533V18.9573H16.9539C18.6819 18.9573 20.0819 17.5573 20.0819 15.8293V9.67734C20.0819 9.45334 20.2579 9.27734 20.4819 9.27734C20.7059 9.27734 20.8819 9.45334 20.8819 9.67734V15.8293C20.8819 17.9973 19.1219 19.7573 16.9539 19.7573H14.2179C13.9939 19.7573 13.8179 19.5813 13.8179 19.3573C13.8179 19.3413 13.8179 19.3333 13.8179 19.3173V15.0533H12.1219C8.08191 15.0533 4.76991 18.2373 4.56191 22.2213H20.9379C21.1619 22.2213 21.3379 22.3973 21.3379 22.6213C21.3379 22.8453 21.1619 23.0213 20.9379 23.0213Z" fill="#121212"/>
<path d="M27.4029 23.0299H20.9469C20.7229 23.0299 20.5469 22.8459 20.5469 22.6219C20.5469 22.3979 20.7229 22.2219 20.9469 22.2219H26.9789C26.7949 20.5579 25.4909 19.2219 23.8029 19.0459C23.5869 19.0219 23.4269 18.8299 23.4509 18.6059C23.4749 18.3899 23.6589 18.2219 23.8909 18.2539C26.1229 18.4859 27.8109 20.3659 27.8109 22.6299C27.8109 22.7339 27.7709 22.8379 27.6909 22.9099C27.6109 22.9819 27.5149 23.0299 27.4109 23.0299H27.4029Z" fill="#121212"/>
<path d="M23.8578 10.0772H20.4898C20.2658 10.0772 20.0898 9.90119 20.0898 9.67719V7.89319C20.0898 6.90919 20.8898 6.11719 21.8658 6.11719H23.8578C24.0818 6.11719 24.2578 6.29319 24.2578 6.51719V9.68519C24.2578 9.90919 24.0818 10.0852 23.8578 10.0852V10.0772ZM20.8898 9.27719H23.4578V6.90919H21.8658C21.3218 6.90919 20.8898 7.34919 20.8898 7.88519V9.26919V9.27719Z" fill="#121212"/>
<path d="M14.5843 15.0544H8.64831C7.91231 15.0544 7.32031 14.4544 7.32031 13.7264V12.8944C7.32031 12.1584 7.92031 11.5664 8.64831 11.5664H14.5843C15.3203 11.5664 15.9123 12.1664 15.9123 12.8944V13.7264C15.9123 14.4624 15.3123 15.0544 14.5843 15.0544ZM8.64831 12.3584C8.36031 12.3584 8.12031 12.5984 8.12031 12.8864V13.7184C8.12031 14.0064 8.36031 14.2464 8.64831 14.2464H14.5843C14.8723 14.2464 15.1123 14.0064 15.1123 13.7184V12.8864C15.1123 12.5984 14.8723 12.3584 14.5843 12.3584H8.64831Z" fill="#121212"/>
<path d="M9.82706 26.5095C9.04306 26.5095 8.28306 26.2295 7.68306 25.7175C6.95506 25.0935 6.53906 24.1815 6.53906 23.2215C6.53906 22.9815 6.56306 22.7575 6.61906 22.5255C6.66706 22.3095 6.88306 22.1735 7.09906 22.2295C7.31506 22.2775 7.45106 22.4935 7.39506 22.7095C7.35506 22.8775 7.33906 23.0455 7.33906 23.2215C7.33906 23.9495 7.65906 24.6375 8.20306 25.1095C8.76306 25.5895 9.47506 25.7895 10.2191 25.6775C11.2351 25.5175 12.0751 24.6935 12.2671 23.6615C12.3231 23.3495 12.3231 23.0615 12.2591 22.6855C12.2191 22.4695 12.3631 22.2615 12.5871 22.2215C12.8031 22.1815 13.0111 22.3255 13.0511 22.5495C13.1071 22.8615 13.1551 23.2855 13.0591 23.8055C12.8111 25.1655 11.6991 26.2615 10.3471 26.4695C10.1791 26.4935 10.0031 26.5095 9.83506 26.5095H9.82706Z" fill="#121212"/>
<path d="M20.2819 23.0206C20.1219 23.0206 19.9699 22.9246 19.9059 22.7646C19.8259 22.5566 19.9299 22.3246 20.1379 22.2446C20.1379 22.2446 20.6899 22.0046 21.8819 20.9086C22.9379 19.9326 23.5219 18.8126 23.7779 17.2606C24.2179 13.3646 20.2819 10.0446 20.2419 10.0126C20.0739 9.86856 20.0499 9.62056 20.1859 9.45256C20.3299 9.28456 20.5779 9.26056 20.7459 9.39656C20.9219 9.54056 25.0499 13.0286 24.5619 17.3726C24.2659 19.1326 23.6099 20.3966 22.4099 21.5006C21.0979 22.7086 20.4819 22.9726 20.4179 22.9966C20.3699 23.0126 20.3219 23.0206 20.2739 23.0206H20.2819Z" fill="#121212"/>
<path d="M20.4822 9.44453H18.4742C18.2502 9.44453 18.0742 9.26853 18.0742 9.04453C18.0742 8.82053 18.2502 8.64453 18.4742 8.64453H20.4822C20.7062 8.64453 20.8822 8.82053 20.8822 9.04453C20.8822 9.26853 20.7062 9.44453 20.4822 9.44453Z" fill="#121212"/>
<path d="M23.1708 26.5095C22.3868 26.5095 21.6268 26.2295 21.0268 25.7175C20.2988 25.0935 19.8828 24.1815 19.8828 23.2215C19.8828 22.9815 19.9068 22.7575 19.9628 22.5255C20.0108 22.3095 20.2348 22.1815 20.4428 22.2295C20.6588 22.2775 20.7948 22.4935 20.7388 22.7095C20.6988 22.8775 20.6828 23.0455 20.6828 23.2215C20.6828 23.9495 21.0028 24.6375 21.5468 25.1095C22.1068 25.5895 22.8188 25.7895 23.5628 25.6775C24.5788 25.5175 25.4188 24.6935 25.6108 23.6615C25.6668 23.3495 25.6668 23.0615 25.5948 22.6855C25.5548 22.4695 25.6988 22.2615 25.9228 22.2215C26.1388 22.1815 26.3468 22.3255 26.3868 22.5495C26.4428 22.8615 26.4908 23.2855 26.3948 23.8055C26.1468 25.1655 25.0348 26.2615 23.6828 26.4695C23.5148 26.4935 23.3388 26.5095 23.1708 26.5095Z" fill="#121212"/>
</g>
</g>
<defs>
<clipPath id="clip0_7609_29526">
<rect width="32" height="32" fill="white" transform="translate(0 0.5)"/>
</clipPath>
<clipPath id="clip1_7609_29526">
<rect width="32" height="32" fill="white" transform="translate(0 0.5)"/>
</clipPath>
</defs>
</svg>
