<svg width="24" height="24" viewBox="0 0 24 24" fill="none" xmlns="http://www.w3.org/2000/svg">
<g clip-path="url(#clip0_8701_2031)">
<path d="M15.1739 7.39806V11.7481C15.1739 13.2841 14.6459 14.3101 13.4219 14.3101H10.6199C9.39592 14.3101 8.86792 13.2841 8.86792 11.7481V7.39806C8.86792 5.86206 9.39592 4.83606 10.6199 4.83606H13.4219C14.6459 4.83606 15.1739 5.86206 15.1739 7.39806Z" fill="#FFCB09"/>
<path d="M17.0881 11.472H14.7421C14.5741 11.472 14.4421 11.34 14.4421 11.172V6.38398C14.4421 5.93398 14.6161 5.51398 14.9341 5.19598C15.2521 4.87798 15.6721 4.70398 16.1161 4.70398H16.1221C16.9201 4.70398 17.6821 5.02198 18.2581 5.59198C18.8341 6.17398 19.1521 6.94198 19.1521 7.74598V9.40798C19.1521 10.662 18.3421 11.472 17.0881 11.472ZM15.0421 10.872H17.0881C18.0061 10.872 18.5521 10.326 18.5521 9.40798V7.74598C18.5521 7.09798 18.3001 6.48598 17.8381 6.01798C17.3761 5.56198 16.7641 5.30998 16.1221 5.30398C15.8341 5.30398 15.5701 5.41798 15.3661 5.61598C15.1621 5.81998 15.0481 6.08998 15.0481 6.37798V10.866L15.0421 10.872Z" fill="#121212"/>
<path d="M9.94204 19.41C9.67804 19.41 9.43204 19.308 9.24004 19.116L8.10004 17.97C7.96204 17.832 7.74604 17.82 7.59004 17.934L6.42004 18.81C6.12004 19.038 5.72404 19.074 5.38804 18.906C5.05204 18.738 4.84204 18.402 4.84204 18.018V7.74598C4.84204 5.78398 5.92204 4.70398 7.88404 4.70398H16.11C16.278 4.70398 16.41 4.83598 16.41 5.00398C16.41 5.17198 16.278 5.30398 16.11 5.30398C15.522 5.30398 15.042 5.78398 15.042 6.37198V18.018C15.042 18.396 14.832 18.732 14.496 18.9C14.16 19.068 13.764 19.032 13.464 18.81L12.294 17.934C12.144 17.82 11.928 17.832 11.796 17.97L10.644 19.122C10.458 19.308 10.212 19.41 9.94804 19.41H9.94204ZM7.82404 17.262C8.08204 17.262 8.33404 17.358 8.52604 17.55L9.66604 18.696C9.73804 18.768 9.83404 18.822 9.94204 18.81C10.044 18.81 10.146 18.768 10.218 18.696L11.37 17.544C11.718 17.196 12.27 17.16 12.654 17.454L13.824 18.33C13.944 18.42 14.094 18.432 14.226 18.366C14.358 18.3 14.436 18.168 14.436 18.024V6.37198C14.436 5.96398 14.58 5.59198 14.826 5.30398H7.88404C6.26404 5.30398 5.44204 6.12598 5.44204 7.74598V18.024C5.44204 18.174 5.52004 18.306 5.65804 18.372C5.79004 18.438 5.94004 18.426 6.06004 18.336L7.23604 17.46C7.41004 17.328 7.62004 17.262 7.83004 17.262H7.82404Z" fill="#121212"/>
<path d="M12.0001 10.0979H7.89009C7.72209 10.0979 7.59009 9.96593 7.59009 9.79792C7.59009 9.62992 7.72209 9.49792 7.89009 9.49792H12.0001C12.1681 9.49792 12.3001 9.62992 12.3001 9.79792C12.3001 9.96593 12.1681 10.0979 12.0001 10.0979Z" fill="#121212"/>
<path d="M11.4841 12.84H8.4001C8.2321 12.84 8.1001 12.708 8.1001 12.54C8.1001 12.372 8.2321 12.24 8.4001 12.24H11.4841C11.6521 12.24 11.7841 12.372 11.7841 12.54C11.7841 12.708 11.6521 12.84 11.4841 12.84Z" fill="#121212"/>
</g>
<defs>
<clipPath id="clip0_8701_2031">
<rect width="24" height="24" fill="white"/>
</clipPath>
</defs>
</svg>
