<svg width="24" height="24" viewBox="0 0 24 24" fill="none" xmlns="http://www.w3.org/2000/svg">
<g clip-path="url(#clip0_5376_28693)">
<path d="M10.3384 18.7904C5.67844 18.7904 1.89844 15.0004 1.89844 10.3504C1.89844 5.70039 5.68844 1.90039 10.3384 1.90039C14.9884 1.90039 18.7884 5.69039 18.7884 10.3504C18.7884 15.0104 14.9984 18.7904 10.3384 18.7904ZM10.3384 3.10039C6.34844 3.10039 3.09844 6.35039 3.09844 10.3504C3.09844 14.3504 6.34844 17.5904 10.3384 17.5904C14.3284 17.5904 17.5884 14.3404 17.5884 10.3504C17.5884 6.36039 14.3384 3.10039 10.3384 3.10039Z" fill="#404040"/>
<path d="M21.4994 22.0995C21.3494 22.0995 21.1894 22.0395 21.0794 21.9195L15.4694 16.3095C15.2394 16.0795 15.2394 15.6995 15.4694 15.4595C15.6994 15.2195 16.0794 15.2295 16.3194 15.4595L21.9294 21.0695C22.1594 21.2995 22.1594 21.6795 21.9294 21.9195C21.8094 22.0395 21.6594 22.0995 21.5094 22.0995H21.4994Z" fill="#404040"/>
</g>
<defs>
<clipPath id="clip0_5376_28693">
<rect width="24" height="24" fill="white"/>
</clipPath>
</defs>
</svg>
