<svg width="24" height="24" viewBox="0 0 24 24" fill="none" xmlns="http://www.w3.org/2000/svg">
<g clip-path="url(#clip0_10210_23355)">
<path d="M17.7111 8.32844C15.7311 8.32844 14.1211 6.71844 14.1211 4.73844C14.1211 2.75844 15.7311 1.14844 17.7111 1.14844C19.6911 1.14844 21.3011 2.75844 21.3011 4.73844C21.3011 6.71844 19.6911 8.32844 17.7111 8.32844ZM17.7111 2.34844C16.3911 2.34844 15.3211 3.41844 15.3211 4.73844C15.3211 6.05844 16.3911 7.12844 17.7111 7.12844C19.0311 7.12844 20.1011 6.05844 20.1011 4.73844C20.1011 3.41844 19.0311 2.34844 17.7111 2.34844Z" fill="black"/>
<path d="M17.7111 22.848C15.7311 22.848 14.1211 21.238 14.1211 19.258C14.1211 17.278 15.7311 15.668 17.7111 15.668C19.6911 15.668 21.3011 17.278 21.3011 19.258C21.3011 21.238 19.6911 22.848 17.7111 22.848ZM17.7111 16.868C16.3911 16.868 15.3211 17.938 15.3211 19.258C15.3211 20.578 16.3911 21.648 17.7111 21.648C19.0311 21.648 20.1011 20.578 20.1011 19.258C20.1011 17.938 19.0311 16.868 17.7111 16.868Z" fill="black"/>
<path d="M5.01969 15.68C3.03969 15.68 1.42969 14.07 1.42969 12.09C1.42969 10.11 3.03969 8.5 5.01969 8.5C6.99969 8.5 8.60969 10.11 8.60969 12.09C8.60969 14.07 6.99969 15.68 5.01969 15.68ZM5.01969 9.7C3.69969 9.7 2.62969 10.77 2.62969 12.09C2.62969 13.41 3.69969 14.48 5.01969 14.48C6.33969 14.48 7.40969 13.41 7.40969 12.09C7.40969 10.77 6.33969 9.7 5.01969 9.7Z" fill="black"/>
<path d="M7.59906 11.188C7.38906 11.188 7.18906 11.078 7.07906 10.888C6.90906 10.598 7.00906 10.238 7.29906 10.068L14.8291 5.70797C15.1191 5.53797 15.4791 5.63797 15.6491 5.92797C15.8191 6.21797 15.7191 6.57797 15.4291 6.74797L7.89906 11.108C7.80906 11.158 7.69906 11.188 7.59906 11.188Z" fill="black"/>
<path d="M15.0585 18.4968C14.9585 18.4968 14.8485 18.4668 14.7585 18.4168L7.29852 14.1068C7.00852 13.9368 6.91852 13.5768 7.07852 13.2868C7.24852 12.9968 7.60852 12.9068 7.89852 13.0668L15.3585 17.3768C15.6485 17.5468 15.7385 17.9068 15.5785 18.1968C15.4685 18.3868 15.2685 18.4968 15.0585 18.4968Z" fill="black"/>
</g>
<defs>
<clipPath id="clip0_10210_23355">
<rect width="24" height="24" fill="white"/>
</clipPath>
</defs>
</svg>
