<svg width="49" height="48" viewBox="0 0 49 48" fill="none" xmlns="http://www.w3.org/2000/svg">
<path d="M48.793 25.2082C48.793 37.7846 38.047 47.9813 24.793 47.9813C11.539 47.9813 0.792969 37.7846 0.792969 25.2082V22.7544H48.793V25.2082Z" fill="url(#paint0_linear_3130_17864)"/>
<path d="M0.792969 23.2156C0.792969 35.792 11.539 45.9886 24.793 45.9886C38.047 45.9886 48.793 35.792 48.793 23.2156V22.7544H0.792969V23.2156Z" fill="url(#paint1_linear_3130_17864)"/>
<path d="M24.793 45.5462C38.0478 45.5462 48.793 35.3503 48.793 22.7731C48.793 10.1959 38.0478 0 24.793 0C11.5381 0 0.792969 10.1959 0.792969 22.7731C0.792969 35.3503 11.5381 45.5462 24.793 45.5462Z" fill="url(#paint2_linear_3130_17864)"/>
<path d="M24.779 40.9665C35.3563 40.9665 43.931 32.8302 43.931 22.7935C43.931 12.7569 35.3563 4.62061 24.779 4.62061C14.2016 4.62061 5.62695 12.7569 5.62695 22.7935C5.62695 32.8302 14.2016 40.9665 24.779 40.9665Z" fill="url(#paint3_linear_3130_17864)"/>
<g style="mix-blend-mode:multiply">
<path d="M24.7844 40.1533C34.8912 40.1533 43.0844 32.3789 43.0844 22.7888C43.0844 13.1987 34.8912 5.42432 24.7844 5.42432C14.6776 5.42432 6.48438 13.1987 6.48438 22.7888C6.48438 32.3789 14.6776 40.1533 24.7844 40.1533Z" fill="#E86B05"/>
</g>
<path d="M24.8087 39.0839C34.2926 39.0839 41.9807 31.7888 41.9807 22.7898C41.9807 13.7907 34.2926 6.49561 24.8087 6.49561C15.3249 6.49561 7.63672 13.7907 7.63672 22.7898C7.63672 31.7888 15.3249 39.0839 24.8087 39.0839Z" fill="url(#paint4_linear_3130_17864)"/>
<path d="M34.8162 17.9007L29.3322 16.8816L26.6142 12.2416C25.6302 10.5621 24.0162 10.5621 23.0322 12.2416L20.3142 16.8816L14.8302 17.9007C12.8382 18.2707 12.3402 19.7282 13.7202 21.1402L17.5302 25.0287L16.8582 30.2949C16.6122 32.2079 17.9202 33.1074 19.7622 32.299L24.8322 30.0615L29.9022 32.299C31.7442 33.1074 33.0522 32.2079 32.8062 30.2949L32.5782 28.5073L32.1342 25.0287L35.9442 21.1402C37.3242 19.7282 36.8262 18.2707 34.8342 17.9007H34.8162Z" fill="url(#paint5_linear_3130_17864)"/>
<defs>
<linearGradient id="paint0_linear_3130_17864" x1="15.319" y1="14.6358" x2="39.4851" y2="51.2432" gradientUnits="userSpaceOnUse">
<stop stop-color="#FFA705"/>
<stop offset="0.45" stop-color="#FF9605"/>
<stop offset="1" stop-color="#FF8605"/>
</linearGradient>
<linearGradient id="paint1_linear_3130_17864" x1="24.793" y1="41.1038" x2="24.793" y2="27.3318" gradientUnits="userSpaceOnUse">
<stop stop-color="#FFEA05"/>
<stop offset="0.59" stop-color="#FFCB05"/>
<stop offset="1" stop-color="#FFBB05"/>
</linearGradient>
<linearGradient id="paint2_linear_3130_17864" x1="11.959" y1="5.27197" x2="41.0834" y2="49.3881" gradientUnits="userSpaceOnUse">
<stop stop-color="#FFEA05"/>
<stop offset="0.59" stop-color="#FFCB05"/>
<stop offset="1" stop-color="#FFBB05"/>
</linearGradient>
<linearGradient id="paint3_linear_3130_17864" x1="34.073" y1="35.1536" x2="9.33639" y2="-1.37277" gradientUnits="userSpaceOnUse">
<stop stop-color="#FFEA05"/>
<stop offset="0.59" stop-color="#FFCB05"/>
<stop offset="1" stop-color="#FFBB05"/>
</linearGradient>
<linearGradient id="paint4_linear_3130_17864" x1="15.6287" y1="10.2646" x2="36.4668" y2="41.8346" gradientUnits="userSpaceOnUse">
<stop stop-color="#FFA705"/>
<stop offset="0.45" stop-color="#FF9605"/>
<stop offset="1" stop-color="#FF8605"/>
</linearGradient>
<linearGradient id="paint5_linear_3130_17864" x1="30.9702" y1="30.9098" x2="16.2289" y2="9.14132" gradientUnits="userSpaceOnUse">
<stop stop-color="#FFEA05"/>
<stop offset="0.59" stop-color="#FFCB05"/>
<stop offset="1" stop-color="#FFBB05"/>
</linearGradient>
</defs>
</svg>
