<svg width="16" height="16" viewBox="0 0 16 16" fill="none" xmlns="http://www.w3.org/2000/svg">
<g clip-path="url(#clip0_9121_7003)">
<path d="M14.6673 7.99992C14.6673 4.31802 11.6825 1.33325 8.00065 1.33325C4.31875 1.33325 1.33398 4.31802 1.33398 7.99992C1.33398 11.6818 4.31875 14.6666 8.00065 14.6666C11.6825 14.6666 14.6673 11.6818 14.6673 7.99992Z" fill="#E31B22"/>
<path d="M8.00026 15.0667C4.10693 15.0667 0.933594 11.9 0.933594 8.00002C0.933594 4.10002 4.10693 0.93335 8.00026 0.93335C11.8936 0.93335 15.0669 4.10002 15.0669 8.00002C15.0669 11.9 11.8936 15.0667 8.00026 15.0667ZM8.00026 1.73335C4.54693 1.73335 1.73359 4.54668 1.73359 8.00002C1.73359 11.4534 4.54693 14.2667 8.00026 14.2667C11.4536 14.2667 14.2669 11.4534 14.2669 8.00002C14.2669 4.54668 11.4536 1.73335 8.00026 1.73335Z" fill="#E31B22"/>
<path d="M6.11375 10.2867C6.01375 10.2867 5.90708 10.2467 5.83375 10.1667C5.68042 10.0133 5.68042 9.76 5.83375 9.6L9.60708 5.82667C9.76042 5.67334 10.0138 5.67334 10.1738 5.82667C10.3271 5.98 10.3271 6.23334 10.1738 6.39334L6.40042 10.1667C6.32042 10.2467 6.22042 10.2867 6.12042 10.2867H6.11375Z" fill="white"/>
<path d="M9.88708 10.2867C9.78708 10.2867 9.68042 10.2467 9.60708 10.1667L5.83375 6.39341C5.68042 6.24008 5.68042 5.98674 5.83375 5.82674C5.98708 5.66674 6.24042 5.67341 6.40042 5.82674L10.1738 9.60008C10.3271 9.75341 10.3271 10.0067 10.1738 10.1667C10.0938 10.2467 9.99375 10.2867 9.89375 10.2867H9.88708Z" fill="white"/>
</g>
<defs>
<clipPath id="clip0_9121_7003">
<rect width="16" height="16" fill="white"/>
</clipPath>
</defs>
</svg>
