<svg width="16" height="16" viewBox="0 0 16 16" fill="none" xmlns="http://www.w3.org/2000/svg">
<g clip-path="url(#clip0_9121_10581)">
<path d="M14.6673 7.99992C14.6673 4.31802 11.6825 1.33325 8.00065 1.33325C4.31875 1.33325 1.33398 4.31802 1.33398 7.99992C1.33398 11.6818 4.31875 14.6666 8.00065 14.6666C11.6825 14.6666 14.6673 11.6818 14.6673 7.99992Z" fill="#009D58"/>
<path d="M8.00026 15.0667C4.10693 15.0667 0.933594 11.9 0.933594 8.00002C0.933594 4.10002 4.10693 0.93335 8.00026 0.93335C11.8936 0.93335 15.0669 4.10002 15.0669 8.00002C15.0669 11.9 11.8936 15.0667 8.00026 15.0667ZM8.00026 1.73335C4.54693 1.73335 1.73359 4.54668 1.73359 8.00002C1.73359 11.4534 4.54693 14.2667 8.00026 14.2667C11.4536 14.2667 14.2669 11.4534 14.2669 8.00002C14.2669 4.54668 11.4536 1.73335 8.00026 1.73335Z" fill="#009D58"/>
<path d="M7.05315 10.2867C6.94648 10.2867 6.84648 10.2467 6.77315 10.1667L4.88648 8.28C4.73315 8.12667 4.73315 7.87334 4.88648 7.71334C5.04648 7.56 5.29982 7.56 5.45315 7.71334L7.05982 9.32L10.5532 5.82667C10.7065 5.67334 10.9598 5.67334 11.1198 5.82667C11.2732 5.98 11.2732 6.23334 11.1198 6.39334L7.33982 10.1733C7.26648 10.2467 7.15982 10.2933 7.05982 10.2933L7.05315 10.2867Z" fill="white"/>
</g>
<defs>
<clipPath id="clip0_9121_10581">
<rect width="16" height="16" fill="white"/>
</clipPath>
</defs>
</svg>
