<svg width="16" height="16" viewBox="0 0 16 16" fill="none" xmlns="http://www.w3.org/2000/svg">
<g clip-path="url(#clip0_9121_7225)">
<path fill-rule="evenodd" clip-rule="evenodd" d="M0.933594 8.00002C0.933594 11.9 4.10693 15.0667 8.00026 15.0667C11.8936 15.0667 15.0669 11.9 15.0669 8.00002C15.0669 4.10002 11.8936 0.93335 8.00026 0.93335C4.10693 0.93335 0.933594 4.10002 0.933594 8.00002ZM10.4708 10.52C10.4717 10.52 10.4727 10.52 10.4736 10.52H10.4669C10.4682 10.52 10.4695 10.52 10.4708 10.52ZM10.2669 10.4667C10.3327 10.4996 10.4049 10.5195 10.4708 10.52C10.6094 10.5188 10.7409 10.4522 10.8136 10.3267C10.9269 10.14 10.8602 9.89336 10.6736 9.78002L8.15358 8.27336V5.00669C8.15358 4.78669 7.97358 4.60669 7.75358 4.60669C7.53358 4.60669 7.35358 4.78669 7.35358 5.00669V8.50002C7.35358 8.64669 7.42691 8.77336 7.54691 8.84669L10.2669 10.4667Z" fill="#FCB216"/>
</g>
<defs>
<clipPath id="clip0_9121_7225">
<rect width="16" height="16" fill="white"/>
</clipPath>
</defs>
</svg>
