<svg width="16" height="17" viewBox="0 0 16 17" fill="none" xmlns="http://www.w3.org/2000/svg">
<g clip-path="url(#clip0_5376_50245)">
<path fill-rule="evenodd" clip-rule="evenodd" d="M0.933594 8.50026C0.933594 12.4003 4.10693 15.5669 8.00026 15.5669C11.8936 15.5669 15.0669 12.4003 15.0669 8.50026C15.0669 4.60026 11.8936 1.43359 8.00026 1.43359C4.10693 1.43359 0.933594 4.60026 0.933594 8.50026Z" fill="#009D58"/>
<path d="M7.0551 10.7879C6.94844 10.7879 6.84844 10.7479 6.7751 10.6679L4.88844 8.78122C4.7351 8.62789 4.7351 8.37456 4.88844 8.21456C5.04844 8.06122 5.30177 8.06122 5.4551 8.21456L7.06177 9.82122L10.5551 6.32789C10.7084 6.17456 10.9618 6.17456 11.1218 6.32789C11.2751 6.48122 11.2751 6.73456 11.1218 6.89456L7.34177 10.6746C7.26844 10.7479 7.16177 10.7946 7.06177 10.7946L7.0551 10.7879Z" fill="white"/>
</g>
<defs>
<clipPath id="clip0_5376_50245">
<rect width="16" height="16" fill="white" transform="translate(0 0.5)"/>
</clipPath>
</defs>
</svg>
