<svg width="32" height="32" viewBox="0 0 32 32" fill="none" xmlns="http://www.w3.org/2000/svg">
<g id="Frame" clip-path="url(#clip0_1863_665)">
<g id="Group">
<path id="Vector" d="M9.77828 14.9501C11.7334 14.9501 13.3183 13.3652 13.3183 11.4101C13.3183 9.45503 11.7334 7.87012 9.77828 7.87012C7.82319 7.87012 6.23828 9.45503 6.23828 11.4101C6.23828 13.3652 7.82319 14.9501 9.77828 14.9501Z" fill="#FFCB09"/>
<g id="Group_2">
<path id="Vector_2" d="M13.6094 20.1602H18.3894" stroke="black" stroke-linecap="round" stroke-linejoin="round"/>
<path id="Vector_3" d="M13.6094 16.3301H21.2594" stroke="black" stroke-linecap="round" stroke-linejoin="round"/>
<path id="Vector_4" d="M16.4805 8.67969H22.2205C25.4105 8.84969 27.0005 10.0297 27.0005 14.4097V22.0697" stroke="black" stroke-linecap="round" stroke-linejoin="round"/>
<path id="Vector_5" d="M9.78125 15.3896V22.0596C9.78125 25.8996 10.7413 27.8196 15.5213 27.8196H21.2613" stroke="black" stroke-linecap="round" stroke-linejoin="round"/>
<path id="Vector_6" d="M27.0017 22.0801L21.2617 27.8201V24.9501C21.2617 23.0401 22.2217 22.0801 24.1317 22.0801H27.0017Z" stroke="black" stroke-linecap="round" stroke-linejoin="round"/>
</g>
<g id="Group_3">
<path id="Vector_7" d="M10.61 15.3997C13.7083 15.3997 16.22 12.888 16.22 9.78969C16.22 6.69137 13.7083 4.17969 10.61 4.17969C7.51168 4.17969 5 6.69137 5 9.78969C5 12.888 7.51168 15.3997 10.61 15.3997Z" stroke="black" stroke-linecap="round" stroke-linejoin="round"/>
<g id="Group_4">
<path id="Vector_8" d="M13.1594 7.33992H8.81938C8.56938 7.33992 8.35938 7.13992 8.35938 6.87992C8.35938 6.61992 8.55938 6.41992 8.81938 6.41992H13.1594C13.4094 6.41992 13.6194 6.61992 13.6194 6.87992C13.6194 7.13992 13.4194 7.33992 13.1594 7.33992Z" fill="black"/>
<path id="Vector_9" d="M13.1598 9.52059H8.04984C7.79984 9.52059 7.58984 9.32059 7.58984 9.06059C7.58984 8.80059 7.78984 8.60059 8.04984 8.60059H13.1598C13.4098 8.60059 13.6198 8.80059 13.6198 9.06059C13.6198 9.32059 13.4198 9.52059 13.1598 9.52059Z" fill="black"/>
<path id="Vector_10" d="M11.4814 14.4306C11.3714 14.4306 11.2714 14.3906 11.1814 14.3206L7.76141 11.3106C7.57141 11.1406 7.5514 10.8606 7.7214 10.6706C7.8914 10.4806 8.1814 10.4606 8.3614 10.6306L11.7814 13.6406C11.9714 13.8106 11.9914 14.0906 11.8214 14.2806C11.7314 14.3806 11.6014 14.4306 11.4814 14.4306Z" fill="black"/>
<path id="Vector_11" d="M8.82156 11.4102H8.06156C7.81156 11.4102 7.60156 11.2102 7.60156 10.9502C7.60156 10.6902 7.80156 10.4902 8.06156 10.4902H8.82156C9.69156 10.4902 10.4016 9.78016 10.4016 8.91016C10.4016 8.04016 9.69156 7.33016 8.82156 7.33016H8.06156C7.81156 7.33016 7.60156 7.13016 7.60156 6.87016C7.60156 6.61016 7.80156 6.41016 8.06156 6.41016H8.82156C10.1916 6.41016 11.3116 7.53016 11.3116 8.90016C11.3116 10.2702 10.1916 11.3902 8.82156 11.3902V11.4102Z" fill="black"/>
</g>
</g>
</g>
</g>
<defs>
<clipPath id="clip0_1863_665">
<rect width="32" height="32" fill="white"/>
</clipPath>
</defs>
</svg>
