<svg width="32" height="32" viewBox="0 0 32 32" fill="none" xmlns="http://www.w3.org/2000/svg">
<g id="Frame" clip-path="url(#clip0_1863_642)">
<g id="Group">
<g id="Group_2">
<g id="Group_3">
<path id="Vector" d="M9.78229 18C9.56229 18 9.36229 17.85 9.30229 17.63C9.23229 17.36 9.38229 17.09 9.65229 17.02L18.2223 14.67C18.2223 14.67 18.2623 14.67 18.2823 14.66L27.5323 12.11C28.0323 11.97 28.3223 11.47 28.1823 10.97L27.9123 9.96998C27.8523 9.72998 27.6923 9.52998 27.4823 9.40998C27.2623 9.28998 27.0123 9.24998 26.7823 9.31998L19.2423 11.39C19.2423 11.39 19.2023 11.39 19.1823 11.4L9.92229 13.95C9.66229 14.02 9.38229 13.86 9.31229 13.6C9.24229 13.33 9.40229 13.06 9.66229 12.99L18.9623 10.43C18.9623 10.43 19.0023 10.43 19.0223 10.42L26.5123 8.36998C27.0123 8.22998 27.5323 8.29998 27.9723 8.54998C28.4223 8.80998 28.7423 9.21998 28.8723 9.71998L29.1423 10.72C29.4223 11.75 28.8123 12.81 27.7923 13.09L18.5023 15.65C18.5023 15.65 18.4623 15.65 18.4423 15.66L9.91229 18C9.91229 18 9.82229 18.02 9.78229 18.02V18Z" fill="black"/>
<path id="Vector_2" d="M14.0015 16.8399C13.8915 16.8399 13.7715 16.7999 13.6815 16.7199L10.0415 13.6799C9.83147 13.4999 9.80147 13.1899 9.98147 12.9799C10.1615 12.7699 10.4715 12.7399 10.6815 12.9199L14.3215 15.9599C14.5315 16.1399 14.5615 16.4499 14.3815 16.6599C14.2815 16.7799 14.1415 16.8399 14.0015 16.8399Z" fill="black"/>
<path id="Vector_3" d="M18.3726 15.6398C18.2626 15.6398 18.1426 15.5998 18.0526 15.5198L14.4126 12.4798C14.2026 12.2998 14.1726 11.9898 14.3526 11.7798C14.5326 11.5698 14.8426 11.5398 15.0526 11.7198L18.6926 14.7598C18.9026 14.9398 18.9326 15.2498 18.7526 15.4598C18.6526 15.5798 18.5126 15.6398 18.3726 15.6398Z" fill="black"/>
<path id="Vector_4" d="M22.7319 14.4503C22.6219 14.4503 22.5019 14.4103 22.4119 14.3303L18.7719 11.2903C18.5619 11.1103 18.5319 10.8003 18.7119 10.5903C18.8919 10.3803 19.2019 10.3503 19.4119 10.5303L23.0519 13.5703C23.2619 13.7503 23.2919 14.0603 23.1119 14.2703C23.0119 14.3903 22.8719 14.4503 22.7319 14.4503Z" fill="black"/>
<path id="Vector_5" d="M27.0913 13.2501C26.9813 13.2501 26.8613 13.2101 26.7713 13.1301L23.1313 10.0901C22.9213 9.91011 22.8913 9.60011 23.0713 9.39011C23.2513 9.18011 23.5613 9.15011 23.7713 9.33011L27.4113 12.3701C27.6213 12.5501 27.6513 12.8601 27.4713 13.0701C27.3713 13.1901 27.2313 13.2501 27.0913 13.2501Z" fill="black"/>
</g>
<path id="Vector_6" d="M9.78297 29.48H3.29297C3.01297 29.48 2.79297 29.26 2.79297 28.98V7.46C2.79297 6.38 3.67297 5.5 4.75297 5.5H8.33297C9.41297 5.5 10.293 6.38 10.293 7.46V28.98C10.293 29.26 10.073 29.48 9.79297 29.48H9.78297ZM3.78297 28.48H9.28297V7.46C9.28297 6.93 8.85297 6.5 8.32297 6.5H4.74297C4.21297 6.5 3.78297 6.93 3.78297 7.46V28.48Z" fill="black"/>
<path id="Vector_7" d="M19.3512 29.5H3.27125C3.00125 29.5 2.78125 29.28 2.78125 29C2.78125 28.72 3.00125 28.5 3.27125 28.5H19.3512C19.6213 28.5 19.8412 28.72 19.8412 29C19.8412 29.28 19.6213 29.5 19.3512 29.5Z" fill="black"/>
</g>
</g>
<g id="Group_4">
<path id="Vector_8" d="M27.792 25.48C27.792 27.68 26.012 29.46 23.812 29.46C21.612 29.46 19.832 27.68 19.832 25.48C19.832 23.28 21.612 21.5 23.812 21.5C26.012 21.5 27.792 23.28 27.792 25.48Z" fill="#FFCB09"/>
<path id="Vector_9" d="M22.5619 30.2898C19.1719 30.2898 16.4219 27.5298 16.4219 24.1498C16.4219 20.7698 19.1819 18.0098 22.5619 18.0098C25.9419 18.0098 28.7019 20.7698 28.7019 24.1498C28.7019 27.5298 25.9419 30.2898 22.5619 30.2898ZM22.5619 18.8498C19.6419 18.8498 17.2719 21.2198 17.2719 24.1398C17.2719 27.0598 19.6419 29.4298 22.5619 29.4298C25.4819 29.4298 27.8519 27.0598 27.8519 24.1398C27.8519 21.2198 25.4819 18.8498 22.5619 18.8498Z" fill="black"/>
<g id="Group_5">
<path id="Vector_10" d="M24.9509 21.6696H20.8909C20.6509 21.6696 20.4609 21.4796 20.4609 21.2396C20.4609 20.9996 20.6509 20.8096 20.8909 20.8096H24.9509C25.1909 20.8096 25.3809 20.9996 25.3809 21.2396C25.3809 21.4796 25.1909 21.6696 24.9509 21.6696Z" fill="black"/>
<path id="Vector_11" d="M24.9522 23.7096H20.1722C19.9322 23.7096 19.7422 23.5196 19.7422 23.2796C19.7422 23.0396 19.9322 22.8496 20.1722 22.8496H24.9522C25.1922 22.8496 25.3822 23.0396 25.3822 23.2796C25.3822 23.5196 25.1922 23.7096 24.9522 23.7096Z" fill="black"/>
<path id="Vector_12" d="M23.3823 28.2995C23.2823 28.2995 23.1823 28.2695 23.1023 28.1895L19.9023 25.3695C19.7223 25.2095 19.7123 24.9495 19.8623 24.7695C20.0223 24.5895 20.2923 24.5795 20.4623 24.7295L23.6623 27.5495C23.8423 27.7095 23.8523 27.9695 23.7023 28.1495C23.6223 28.2395 23.5023 28.2895 23.3823 28.2895V28.2995Z" fill="black"/>
<path id="Vector_13" d="M20.9039 25.4798H20.1839C19.9439 25.4798 19.7539 25.2898 19.7539 25.0498C19.7539 24.8098 19.9439 24.6198 20.1839 24.6198H20.9039C21.7239 24.6198 22.3839 23.9598 22.3839 23.1398C22.3839 22.3198 21.7239 21.6598 20.9039 21.6598H20.1839C19.9439 21.6598 19.7539 21.4698 19.7539 21.2298C19.7539 20.9898 19.9439 20.7998 20.1839 20.7998H20.9039C22.1939 20.7998 23.2339 21.8498 23.2339 23.1298C23.2339 24.4098 22.1839 25.4598 20.9039 25.4598V25.4798Z" fill="black"/>
</g>
</g>
</g>
<defs>
<clipPath id="clip0_1863_642">
<rect width="32" height="32" fill="white"/>
</clipPath>
</defs>
</svg>
