<svg width="33" height="32" viewBox="0 0 33 32" fill="none" xmlns="http://www.w3.org/2000/svg">
<g id="Frame" clip-path="url(#clip0_1615_347)">
<g id="Group">
<path id="Vector" d="M13.449 13.7601H4.20898V8.65015H9.54898C10.179 8.65015 10.749 8.99015 11.059 9.53015L13.439 13.7601H13.449Z" fill="#FFCB09"/>
<path id="Vector_2" d="M8.67898 27.2801C10.3193 27.2801 11.649 25.9594 11.649 24.3301C11.649 22.7009 10.3193 21.3801 8.67898 21.3801C7.0387 21.3801 5.70898 22.7009 5.70898 24.3301C5.70898 25.9594 7.0387 27.2801 8.67898 27.2801Z" fill="#FFCB09"/>
<path id="Vector_3" d="M28.6891 27.2802C29.8324 27.2802 30.7591 26.3579 30.7591 25.2202C30.7591 24.0824 29.8324 23.1602 28.6891 23.1602C27.5459 23.1602 26.6191 24.0824 26.6191 25.2202C26.6191 26.3579 27.5459 27.2802 28.6891 27.2802Z" fill="#FFCB09"/>
<path id="Vector_4" d="M24.5501 25H11.3301C11.0501 25 10.8301 24.78 10.8301 24.5C10.8301 24.22 11.0501 24 11.3301 24H24.5601C24.8401 24 25.0601 24.22 25.0601 24.5C25.0601 24.78 24.8401 25 24.5601 25H24.5501Z" fill="black"/>
<path id="Vector_5" d="M29.639 22.31C29.639 22.31 29.589 22.31 29.559 22.31C29.289 22.27 29.099 22.01 29.149 21.73C29.169 21.59 29.189 21.45 29.189 21.3V16.97C29.189 15.48 27.969 14.26 26.469 14.26H4.70898V19.57C4.70898 19.85 4.48898 20.07 4.20898 20.07C3.92898 20.07 3.70898 19.85 3.70898 19.57V13.76C3.70898 13.48 3.92898 13.26 4.20898 13.26H26.459C28.509 13.26 30.179 14.92 30.179 16.97V21.3C30.179 21.51 30.159 21.7 30.129 21.9C30.089 22.15 29.879 22.32 29.639 22.32V22.31Z" fill="black"/>
<path id="Vector_6" d="M18.059 14.2601H4.20898C3.92898 14.2601 3.70898 14.0401 3.70898 13.7601V6.1001C3.70898 5.8201 3.92898 5.6001 4.20898 5.6001H12.229C13.349 5.6001 14.389 6.2001 14.929 7.1801L18.489 13.5201C18.579 13.6801 18.579 13.8601 18.489 14.0201C18.399 14.1801 18.239 14.2701 18.059 14.2701V14.2601ZM4.70898 13.2601H17.199L14.049 7.6601C13.679 7.0001 12.979 6.5901 12.219 6.5901H4.70898V13.2501V13.2601Z" fill="black"/>
<path id="Vector_7" d="M23.2695 14.2601C22.9895 14.2601 22.7695 14.0401 22.7695 13.7601V6.10005C22.7695 5.93005 22.8495 5.78005 22.9895 5.68005L25.0495 4.30005C25.2795 4.15005 25.5895 4.21005 25.7395 4.44005C25.8895 4.67005 25.8295 4.98005 25.5995 5.13005L23.7595 6.36005V13.7601C23.7595 14.0401 23.5395 14.2601 23.2595 14.2601H23.2695Z" fill="black"/>
<path id="Vector_8" d="M7.18977 27.7802C4.46977 27.7802 2.25977 25.5702 2.25977 22.8502C2.25977 20.1302 4.46977 17.9202 7.18977 17.9202C9.90977 17.9202 12.1198 20.1302 12.1198 22.8502C12.1198 25.5702 9.90977 27.7802 7.18977 27.7802ZM7.18977 18.9202C5.01977 18.9202 3.25977 20.6802 3.25977 22.8502C3.25977 25.0202 5.01977 26.7802 7.18977 26.7802C9.35977 26.7802 11.1198 25.0202 11.1198 22.8502C11.1198 20.6802 9.35977 18.9202 7.18977 18.9202Z" fill="black"/>
<path id="Vector_9" d="M27.6505 27.7801C25.6705 27.7801 24.0605 26.1701 24.0605 24.1901C24.0605 22.2101 25.6705 20.6001 27.6505 20.6001C29.6305 20.6001 31.2405 22.2101 31.2405 24.1901C31.2405 26.1701 29.6305 27.7801 27.6505 27.7801ZM27.6505 21.5901C26.2205 21.5901 25.0605 22.7501 25.0605 24.1801C25.0605 25.6101 26.2205 26.7701 27.6505 26.7701C29.0805 26.7701 30.2405 25.6101 30.2405 24.1801C30.2405 22.7501 29.0805 21.5901 27.6505 21.5901Z" fill="black"/>
</g>
</g>
<defs>
<clipPath id="clip0_1615_347">
<rect width="32" height="32" fill="white" transform="translate(0.75)"/>
</clipPath>
</defs>
</svg>
