<svg width="26" height="25" viewBox="0 0 26 25" fill="none"><path d="M12.5 0C5.59643 0 0 5.59643 0 12.5C0 19.4036 5.59643 25 12.5 25C19.4036 25 25 19.4036 25 12.5C25 5.59643 19.4036 0 12.5 0ZM17.7943 9.78061C17.9651 13.6232 15.1012 17.9125 10.0236 17.9125C8.48003 17.9125 7.04151 17.4593 5.8329 16.6842C7.28455 16.855 8.72964 16.4543 9.87914 15.5544C8.68366 15.5347 7.6721 14.7399 7.32396 13.6561C7.75092 13.7349 8.17131 13.7152 8.55885 13.6101C7.24514 13.3473 6.33868 12.165 6.36495 10.8973C6.73279 11.1009 7.15318 11.2257 7.60641 11.2388C6.39122 10.4243 6.04309 8.8216 6.75906 7.5867C8.10562 9.24199 10.1222 10.3258 12.3949 10.444C11.9942 8.73621 13.2948 7.08749 15.0552 7.08749C15.8434 7.08749 16.5528 7.41592 17.052 7.94798C17.676 7.82317 18.2606 7.59984 18.7861 7.28455C18.5825 7.9217 18.149 8.46033 17.5841 8.79532C18.1358 8.72964 18.6613 8.58513 19.154 8.36837C18.7861 8.92013 18.3263 9.39963 17.7877 9.78061H17.7943Z" fill="#A1A1A1"></path></svg>