<svg width="41" height="41" viewBox="0 0 41 41" fill="none" xmlns="http://www.w3.org/2000/svg">
<g clip-path="url(#clip0_8411_2977)">
<path d="M17.7267 20.51C17.1266 21.09 16.7867 21.91 16.8467 22.8C16.9667 24.38 18.4667 25.55 20.1266 25.55H22.5867C22.9967 25.55 23.3567 25.27 23.4267 24.88C23.7667 23.2 25.1767 18.96 30.8667 18.96C32.6167 18.96 32.8766 16.89 31.9067 15.63C31.9067 15.63 30.1867 13.22 27.0867 13.01C26.5867 12.98 26.1667 13.38 26.1767 13.86C26.1867 14.56 26.1767 15.23 26.1567 15.7C26.1567 15.74 26.1567 15.78 26.1467 15.82C26.0167 16.45 24.5567 21.17 9.57665 13.66C9.00665 13.37 8.31665 13.77 8.31665 14.39V15.7C8.31665 15.99 8.46665 16.25 8.72665 16.4L17.1266 21.34" fill="#FFCB09"/>
<path d="M11.0466 29.75C8.70664 29.75 6.80664 27.85 6.80664 25.51C6.80664 23.17 8.70664 21.27 11.0466 21.27C13.3866 21.27 15.2866 23.17 15.2866 25.51C15.2866 27.85 13.3866 29.75 11.0466 29.75ZM11.0466 22.27C9.25664 22.27 7.80664 23.72 7.80664 25.51C7.80664 27.3 9.25664 28.75 11.0466 28.75C12.8366 28.75 14.2866 27.3 14.2866 25.51C14.2866 23.72 12.8366 22.27 11.0466 22.27Z" fill="#121212"/>
<path d="M30.2866 29.75C27.9466 29.75 26.0466 27.85 26.0466 25.51C26.0466 23.17 27.9466 21.27 30.2866 21.27C32.6266 21.27 34.5266 23.17 34.5266 25.51C34.5266 27.85 32.6266 29.75 30.2866 29.75ZM30.2866 22.27C28.4966 22.27 27.0466 23.72 27.0466 25.51C27.0466 27.3 28.4966 28.75 30.2866 28.75C32.0766 28.75 33.5266 27.3 33.5266 25.51C33.5266 23.72 32.0766 22.27 30.2866 22.27Z" fill="#121212"/>
<path d="M30.2867 26C30.1467 26 30.0167 25.94 29.9167 25.84L25.4467 20.9C25.2667 20.69 25.2767 20.38 25.4867 20.19C25.6867 20 26.0067 20.02 26.1967 20.23L30.6667 25.17C30.8467 25.38 30.8367 25.69 30.6267 25.88C30.5267 25.97 30.4167 26.01 30.2967 26.01L30.2867 26Z" fill="#121212"/>
<path d="M25.3167 16.99C25.0667 16.99 24.8567 16.81 24.8167 16.55C24.6667 15.35 24.2167 14.59 23.4567 14.24C21.5067 13.34 17.8267 15.3 16.5767 16.12C16.3467 16.27 16.0367 16.21 15.8867 15.98C15.7367 15.75 15.7967 15.44 16.0267 15.29C16.2267 15.16 21.0267 12.02 23.8767 13.33C24.9667 13.83 25.6167 14.87 25.8067 16.42C25.8367 16.69 25.6467 16.94 25.3767 16.98C25.3567 16.98 25.3367 16.98 25.3167 16.98V16.99Z" fill="#121212"/>
<path d="M19.6566 26.04H11.0466C10.8666 26.04 10.7066 25.95 10.6166 25.79C10.5266 25.64 10.5266 25.45 10.6166 25.29L14.0566 19.03C14.1866 18.79 14.4966 18.7 14.7366 18.83C14.9766 18.96 15.0666 19.27 14.9366 19.51L11.9066 25.03H19.6766C19.9566 25.03 20.1766 25.25 20.1766 25.53C20.1766 25.81 19.9566 26.03 19.6766 26.03L19.6566 26.04Z" fill="#121212"/>
<path d="M23.6367 26.04H20.0667C17.9967 26.04 16.3067 24.35 16.3067 22.28C16.3067 21.87 16.3667 21.48 16.4967 21.1L7.58668 15.62C7.43668 15.53 7.34668 15.37 7.34668 15.19V11.74C7.34668 11.56 7.43668 11.4 7.59668 11.31C7.74668 11.22 7.93668 11.22 8.08668 11.31C19.1667 17.35 23.4067 16.92 24.9467 16.12C25.9967 15.58 26.1067 14.74 26.1067 14.71C26.1167 14.14 26.1367 13.41 26.1267 12.65C26.1267 12.27 26.2767 11.89 26.5567 11.63C26.8367 11.36 27.2167 11.22 27.5867 11.25C31.0667 11.47 32.9867 14.23 33.0667 14.35C33.7867 15.33 33.9567 16.7 33.4667 17.67C33.0967 18.4 32.4267 18.8 31.5667 18.8C24.6667 18.8 24.1567 25.3 24.1367 25.58C24.1167 25.84 23.8967 26.05 23.6367 26.05V26.04ZM17.5567 21.13C17.3967 21.49 17.3067 21.88 17.3067 22.28C17.3067 23.8 18.5467 25.04 20.0667 25.04H23.1967C23.4667 23.37 24.8767 17.8 31.5667 17.8C32.0467 17.8 32.3867 17.6 32.5767 17.22C32.8967 16.6 32.7567 15.61 32.2567 14.93C32.2267 14.89 30.5167 12.44 27.5267 12.25C27.3867 12.24 27.2867 12.31 27.2467 12.35C27.1667 12.42 27.1267 12.52 27.1267 12.63C27.1367 13.41 27.1267 14.15 27.1067 14.67C27.1067 14.68 27.1067 14.79 27.1067 14.8C27.1067 14.86 26.9567 16.17 25.4467 16.97C22.5467 18.51 16.6367 16.99 8.33668 12.57V14.91L16.9267 20.19C17.0567 19.99 17.2067 19.81 17.3767 19.64C17.5667 19.44 17.8867 19.44 18.0867 19.64C18.2867 19.83 18.2867 20.15 18.0867 20.35C17.8767 20.57 17.6967 20.82 17.5667 21.09C17.5667 21.11 17.5567 21.12 17.5467 21.14L17.5567 21.13Z" fill="#121212"/>
<path d="M30.3166 16.52C30.1566 16.52 29.9966 16.44 29.8966 16.29C29.6566 15.91 29.1366 15.9 29.1366 15.9C28.8666 15.9 28.6366 15.67 28.6466 15.4C28.6466 15.13 28.8666 14.9 29.1466 14.9C29.1866 14.9 30.2066 14.9 30.7466 15.75C30.8966 15.98 30.8266 16.29 30.5966 16.44C30.5166 16.49 30.4166 16.52 30.3266 16.52H30.3166Z" fill="#121212"/>
<path d="M30.2866 26.75C29.6066 26.75 29.0466 26.19 29.0466 25.51C29.0466 24.83 29.6066 24.27 30.2866 24.27C30.9666 24.27 31.5266 24.83 31.5266 25.51C31.5266 26.19 30.9666 26.75 30.2866 26.75ZM30.2866 25.27C30.1566 25.27 30.0466 25.38 30.0466 25.51C30.0466 25.77 30.5266 25.77 30.5266 25.51C30.5266 25.38 30.4166 25.27 30.2866 25.27Z" fill="#121212"/>
<path d="M11.0466 26.75C10.3666 26.75 9.80664 26.19 9.80664 25.51C9.80664 24.83 10.3666 24.27 11.0466 24.27C11.7266 24.27 12.2866 24.83 12.2866 25.51C12.2866 26.19 11.7266 26.75 11.0466 26.75ZM11.0466 25.27C10.9166 25.27 10.8066 25.38 10.8066 25.51C10.8066 25.77 11.2866 25.77 11.2866 25.51C11.2866 25.38 11.1766 25.27 11.0466 25.27Z" fill="#121212"/>
</g>
<defs>
<clipPath id="clip0_8411_2977">
<rect width="40" height="40" fill="white" transform="translate(0.666748 0.5)"/>
</clipPath>
</defs>
</svg>
