<svg width="32" height="32" viewBox="0 0 32 32" fill="none" xmlns="http://www.w3.org/2000/svg">
<g clip-path="url(#clip0_8470_657)">
<path d="M14 11.46C14 11.46 19.92 7.36001 20.49 12.05L14 11.46Z" fill="#FFCB09"/>
<path d="M6.75994 25.16C8.17931 25.16 9.32994 24.0094 9.32994 22.59C9.32994 21.1706 8.17931 20.02 6.75994 20.02C5.34057 20.02 4.18994 21.1706 4.18994 22.59C4.18994 24.0094 5.34057 25.16 6.75994 25.16Z" fill="#FFCB09"/>
<path d="M26.92 25.16C28.3393 25.16 29.49 24.0094 29.49 22.59C29.49 21.1706 28.3393 20.02 26.92 20.02C25.5006 20.02 24.35 21.1706 24.35 22.59C24.35 24.0094 25.5006 25.16 26.92 25.16Z" fill="#FFCB09"/>
<path d="M26.08 22.67C25.93 22.67 25.79 22.6 25.69 22.48L21.27 16.9C21.1 16.68 21.14 16.37 21.35 16.2C21.57 16.03 21.88 16.07 22.05 16.28L26.47 21.86C26.64 22.08 26.6 22.39 26.39 22.56C26.3 22.63 26.19 22.67 26.08 22.67Z" fill="black"/>
<path d="M20.87 12.02C20.62 12.02 20.4 11.83 20.37 11.58C20.2 10.06 19.67 9.09003 18.78 8.71003C16.72 7.81003 12.9899 10.06 11.7199 11C11.4999 11.16 11.18 11.12 11.02 10.9C10.85 10.68 10.8999 10.36 11.1199 10.2C11.3299 10.05 16.1599 6.49003 19.1699 7.79003C20.4099 8.33003 21.1399 9.56003 21.36 11.47C21.3899 11.74 21.1899 11.99 20.9199 12.02C20.8999 12.02 20.88 12.02 20.86 12.02H20.87Z" fill="black"/>
<path d="M14.94 22.73H5.92001C5.75001 22.73 5.59001 22.64 5.50001 22.5C5.41001 22.35 5.40001 22.17 5.47001 22.02L8.71001 15.35C8.83001 15.1 9.13001 15 9.38001 15.12C9.63001 15.24 9.73001 15.54 9.61001 15.79L6.72001 21.74H14.94C15.22 21.74 15.44 21.96 15.44 22.24C15.44 22.52 15.22 22.74 14.94 22.74V22.73Z" fill="black"/>
<path d="M19.12 22.73H15.38C13.52 22.66 11.47 20.79 11.47 18.38C11.47 18.18 11.48 17.99 11.51 17.79L2.02004 11.21C1.88004 11.11 1.80004 10.95 1.81004 10.77L2.08004 5.88001C2.08004 5.70001 2.19004 5.55001 2.35004 5.46001C2.51004 5.38001 2.69004 5.38001 2.84004 5.48001C14.15 12.44 18.63 12.09 20.3 11.27C21.6 10.62 21.74 9.47001 21.74 9.42001V9.35001C21.75 8.74001 21.77 7.87001 21.76 6.97001C21.76 6.52001 21.93 6.08001 22.25 5.78001C22.53 5.51001 22.9 5.38001 23.27 5.40001C26.92 5.66001 28.92 8.91001 29 9.05001C30.07 10.58 30.3 12.48 29.58 13.86C29.1 14.78 28.29 15.3 27.35 15.3C24.85 15.3 22.9 15.99 21.57 17.34C19.6 19.34 19.62 22.17 19.62 22.2C19.62 22.33 19.57 22.46 19.48 22.56C19.39 22.65 19.26 22.71 19.12 22.71V22.73ZM12.94 15.18C13.06 15.18 13.17 15.22 13.27 15.3C13.48 15.48 13.5 15.8 13.32 16.01C12.77 16.64 12.47 17.49 12.47 18.38C12.47 20.18 14.07 21.69 15.4 21.73H18.65C18.73 20.73 19.11 18.45 20.85 16.67C22.38 15.11 24.57 14.32 27.35 14.32C27.9 14.32 28.39 13.99 28.69 13.41C29.11 12.61 29.22 11.13 28.16 9.60001C28.13 9.54001 26.32 6.63001 23.19 6.41001C23.08 6.41001 22.98 6.46001 22.93 6.51001C22.82 6.62001 22.75 6.78001 22.76 6.95001C22.77 7.87001 22.76 8.75001 22.74 9.37001V9.48001C22.73 9.58001 22.57 11.24 20.77 12.15C17.58 13.76 11.62 11.95 3.03004 6.77001L2.82004 10.54L11.74 16.73C11.93 16.22 12.2 15.74 12.56 15.33C12.66 15.22 12.8 15.16 12.94 15.16V15.18Z" fill="black"/>
<path d="M26.11 11.46C25.94 11.46 25.77 11.37 25.68 11.21C25.42 10.75 24.9 10.73 24.87 10.73C24.6 10.73 24.38 10.5 24.38 10.22C24.38 9.95004 24.6 9.73004 24.88 9.73004C25.29 9.73004 26.1 9.94004 26.55 10.71C26.69 10.95 26.6 11.25 26.36 11.39C26.28 11.43 26.2 11.46 26.11 11.46Z" fill="black"/>
<path d="M26.08 26.59C23.64 26.59 21.66 24.61 21.66 22.17C21.66 19.73 23.64 17.75 26.08 17.75C28.52 17.75 30.5 19.73 30.5 22.17C30.5 24.61 28.52 26.59 26.08 26.59ZM26.08 18.75C24.19 18.75 22.66 20.28 22.66 22.17C22.66 24.06 24.19 25.59 26.08 25.59C27.97 25.59 29.5 24.06 29.5 22.17C29.5 20.28 27.97 18.75 26.08 18.75Z" fill="black"/>
<path d="M5.92 26.59C3.48 26.59 1.5 24.61 1.5 22.17C1.5 19.73 3.48 17.75 5.92 17.75C8.36 17.75 10.34 19.73 10.34 22.17C10.34 24.61 8.36 26.59 5.92 26.59ZM5.92 18.75C4.03 18.75 2.5 20.28 2.5 22.17C2.5 24.06 4.03 25.59 5.92 25.59C7.81 25.59 9.34 24.06 9.34 22.17C9.34 20.28 7.81 18.75 5.92 18.75Z" fill="black"/>
<path d="M26.0801 23.45C25.3801 23.45 24.8101 22.88 24.8101 22.18C24.8101 21.48 25.3801 20.91 26.0801 20.91C26.7801 20.91 27.3501 21.48 27.3501 22.18C27.3501 22.88 26.7801 23.45 26.0801 23.45ZM26.0801 21.9C25.9301 21.9 25.8101 22.02 25.8101 22.17C25.8101 22.47 26.3601 22.47 26.3601 22.17C26.3601 22.02 26.2401 21.9 26.0901 21.9H26.0801Z" fill="black"/>
<path d="M5.92002 23.45C5.22002 23.45 4.65002 22.88 4.65002 22.18C4.65002 21.48 5.22002 20.91 5.92002 20.91C6.62002 20.91 7.19002 21.48 7.19002 22.18C7.19002 22.88 6.62002 23.45 5.92002 23.45ZM5.92002 21.9C5.77002 21.9 5.65002 22.02 5.65002 22.17C5.65002 22.47 6.20002 22.47 6.20002 22.17C6.20002 22.02 6.08002 21.9 5.93002 21.9H5.92002Z" fill="black"/>
</g>
<defs>
<clipPath id="clip0_8470_657">
<rect width="32" height="32" fill="white"/>
</clipPath>
</defs>
</svg>
