<svg width="56" height="56" viewBox="0 0 56 56" fill="none" xmlns="http://www.w3.org/2000/svg">
<path d="M49.01 33.68C49.01 42.27 42.05 49.24 33.45 49.24C24.85 49.24 17.89 42.28 17.89 33.68C17.89 25.08 24.85 18.12 33.45 18.12C42.05 18.12 49.01 25.08 49.01 33.68Z" fill="#FFCB09"/>
<path d="M28 52.21C14.65 52.21 3.79001 41.35 3.79001 28C3.79001 14.65 14.65 3.78998 28 3.78998C41.35 3.78998 52.21 14.65 52.21 28C52.21 41.35 41.35 52.21 28 52.21ZM28 5.53998C15.62 5.53998 5.54001 15.62 5.54001 28C5.54001 40.38 15.61 50.46 28 50.46C40.39 50.46 50.46 40.39 50.46 28C50.46 15.61 40.38 5.53998 28 5.53998V5.53998Z" fill="black"/>
<path d="M28 8.65997C27.52 8.65997 27.12 8.26997 27.12 7.77997V4.84997C27.12 4.36997 27.51 3.96997 28 3.96997C28.49 3.96997 28.88 4.35997 28.88 4.84997V7.77997C28.88 8.25997 28.49 8.65997 28 8.65997Z" fill="black"/>
<path d="M28 52.21C27.52 52.21 27.12 51.82 27.12 51.33V48.4C27.12 47.92 27.51 47.52 28 47.52C28.49 47.52 28.88 47.91 28.88 48.4V51.33C28.88 51.81 28.49 52.21 28 52.21Z" fill="black"/>
<path d="M51.24 28.97H48.31C47.83 28.97 47.43 28.58 47.43 28.09C47.43 27.6 47.82 27.21 48.31 27.21H51.24C51.72 27.21 52.12 27.6 52.12 28.09C52.12 28.58 51.73 28.97 51.24 28.97Z" fill="black"/>
<path d="M7.69 28.97H4.76C4.28001 28.97 3.88 28.58 3.88 28.09C3.88 27.6 4.27 27.21 4.76 27.21H7.69C8.17 27.21 8.57 27.6 8.57 28.09C8.57 28.58 8.18 28.97 7.69 28.97Z" fill="black"/>
<path d="M13.64 14.61C13.42 14.61 13.19 14.52 13.02 14.35L10.95 12.28C10.61 11.94 10.61 11.38 10.95 11.04C11.29 10.7 11.85 10.7 12.19 11.04L14.26 13.11C14.6 13.45 14.6 14.01 14.26 14.35C14.09 14.52 13.87 14.61 13.64 14.61V14.61Z" fill="black"/>
<path d="M44.43 45.4C44.21 45.4 43.98 45.31 43.81 45.14L41.74 43.07C41.4 42.73 41.4 42.17 41.74 41.83C42.08 41.49 42.64 41.49 42.98 41.83L45.05 43.9C45.39 44.24 45.39 44.8 45.05 45.14C44.88 45.31 44.66 45.4 44.43 45.4V45.4Z" fill="black"/>
<path d="M42.36 14.61C42.14 14.61 41.91 14.52 41.74 14.35C41.4 14.01 41.4 13.45 41.74 13.11L43.81 11.04C44.15 10.7 44.71 10.7 45.05 11.04C45.39 11.38 45.39 11.94 45.05 12.28L42.98 14.35C42.81 14.52 42.59 14.61 42.36 14.61V14.61Z" fill="black"/>
<path d="M11.57 45.4C11.35 45.4 11.12 45.31 10.95 45.14C10.61 44.8 10.61 44.24 10.95 43.9L13.02 41.83C13.36 41.49 13.92 41.49 14.26 41.83C14.6 42.17 14.6 42.73 14.26 43.07L12.19 45.14C12.02 45.31 11.8 45.4 11.57 45.4V45.4Z" fill="black"/>
<path d="M13.64 14.61C13.42 14.61 13.19 14.52 13.02 14.35L10.95 12.28C10.61 11.94 10.61 11.38 10.95 11.04C11.29 10.7 11.85 10.7 12.19 11.04L14.26 13.11C14.6 13.45 14.6 14.01 14.26 14.35C14.09 14.52 13.87 14.61 13.64 14.61V14.61Z" fill="black"/>
<path d="M44.43 45.4C44.21 45.4 43.98 45.31 43.81 45.14L41.74 43.07C41.4 42.73 41.4 42.17 41.74 41.83C42.08 41.49 42.64 41.49 42.98 41.83L45.05 43.9C45.39 44.24 45.39 44.8 45.05 45.14C44.88 45.31 44.66 45.4 44.43 45.4V45.4Z" fill="black"/>
<path d="M42.36 14.61C42.14 14.61 41.91 14.52 41.74 14.35C41.4 14.01 41.4 13.45 41.74 13.11L43.81 11.04C44.15 10.7 44.71 10.7 45.05 11.04C45.39 11.38 45.39 11.94 45.05 12.28L42.98 14.35C42.81 14.52 42.59 14.61 42.36 14.61V14.61Z" fill="black"/>
<path d="M11.57 45.4C11.35 45.4 11.12 45.31 10.95 45.14C10.61 44.8 10.61 44.24 10.95 43.9L13.02 41.83C13.36 41.49 13.92 41.49 14.26 41.83C14.6 42.17 14.6 42.73 14.26 43.07L12.19 45.14C12.02 45.31 11.8 45.4 11.57 45.4V45.4Z" fill="black"/>
<path d="M20.54 10.08C20.19 10.08 19.86 9.87002 19.73 9.53002L18.65 6.80002C18.47 6.35002 18.69 5.84002 19.14 5.67002C19.59 5.49002 20.1 5.71002 20.27 6.16002L21.35 8.89002C21.53 9.34002 21.31 9.85002 20.86 10.02C20.75 10.06 20.65 10.08 20.54 10.08V10.08Z" fill="black"/>
<path d="M36.53 50.58C36.18 50.58 35.85 50.37 35.72 50.03L34.64 47.3C34.46 46.85 34.68 46.34 35.13 46.17C35.58 46 36.09 46.21 36.26 46.66L37.34 49.39C37.52 49.84 37.3 50.35 36.85 50.52C36.74 50.56 36.64 50.58 36.53 50.58V50.58Z" fill="black"/>
<path d="M46.89 21.51C46.54 21.51 46.21 21.3 46.08 20.96C45.9 20.51 46.12 20 46.57 19.83L49.3 18.75C49.75 18.57 50.26 18.79 50.43 19.24C50.61 19.69 50.39 20.2 49.94 20.37L47.21 21.45C47.1 21.49 47 21.51 46.89 21.51V21.51Z" fill="black"/>
<path d="M6.38999 37.5C6.03999 37.5 5.70999 37.29 5.57999 36.95C5.39999 36.5 5.61999 35.99 6.06999 35.82L8.79999 34.74C9.24999 34.56 9.75999 34.78 9.92999 35.23C10.11 35.68 9.88999 36.19 9.43999 36.37L6.70999 37.45C6.59999 37.49 6.49999 37.51 6.38999 37.51V37.5Z" fill="black"/>
<path d="M9.37 20.89C9.25 20.89 9.14 20.87 9.02 20.82L6.33 19.65C5.89 19.46 5.68 18.94 5.88 18.5C6.07 18.06 6.58 17.85 7.03 18.05L9.72 19.22C10.16 19.41 10.37 19.93 10.17 20.37C10.03 20.7 9.71 20.9 9.37 20.9V20.89Z" fill="black"/>
<path d="M49.32 38.22C49.2 38.22 49.09 38.2 48.97 38.15L46.28 36.98C45.84 36.79 45.63 36.27 45.83 35.83C46.02 35.39 46.54 35.18 46.98 35.38L49.67 36.55C50.11 36.74 50.32 37.26 50.12 37.7C49.98 38.03 49.65 38.23 49.32 38.23V38.22Z" fill="black"/>
<path d="M36.08 10.34C35.96 10.34 35.85 10.32 35.73 10.27C35.29 10.08 35.08 9.56 35.28 9.12L36.45 6.43C36.64 5.99 37.15 5.78 37.6 5.97C38.04 6.16 38.25 6.68 38.05 7.12L36.88 9.81C36.74 10.14 36.42 10.34 36.08 10.34V10.34Z" fill="black"/>
<path d="M18.75 50.29C18.63 50.29 18.52 50.27 18.4 50.22C17.96 50.03 17.75 49.51 17.95 49.07L19.12 46.38C19.31 45.94 19.82 45.73 20.27 45.93C20.71 46.12 20.92 46.64 20.72 47.08L19.55 49.77C19.41 50.1 19.09 50.3 18.75 50.3V50.29Z" fill="black"/>
<path d="M28 41.63C20.48 41.63 14.37 35.51 14.37 28C14.37 20.49 20.48 14.37 28 14.37C35.52 14.37 41.63 20.49 41.63 28C41.63 35.51 35.52 41.63 28 41.63ZM28 16.11C21.45 16.11 16.12 21.44 16.12 27.99C16.12 34.54 21.45 39.87 28 39.87C34.55 39.87 39.88 34.54 39.88 27.99C39.88 21.44 34.55 16.11 28 16.11V16.11Z" fill="black"/>
<path d="M28 30.04C26.88 30.04 25.96 29.12 25.96 28C25.96 26.88 26.88 25.96 28 25.96C29.12 25.96 30.04 26.88 30.04 28C30.04 29.12 29.12 30.04 28 30.04ZM28 27.71C27.84 27.71 27.71 27.84 27.71 28C27.71 28.32 28.29 28.32 28.29 28C28.29 27.84 28.16 27.71 28 27.71Z" fill="black"/>
<path d="M21.34 39.68C21.06 39.68 20.79 39.54 20.62 39.31L14.87 31.07C14.68 30.79 14.66 30.43 14.83 30.13C15 29.83 15.32 29.66 15.66 29.7L23.47 30.38C23.73 30.4 23.96 30.54 24.11 30.75C24.26 30.96 24.3 31.23 24.24 31.48L22.18 39.04C22.09 39.37 21.82 39.61 21.48 39.67C21.43 39.67 21.38 39.68 21.33 39.68H21.34ZM17.38 31.6L20.99 36.77L22.28 32.02L17.38 31.6V31.6Z" fill="black"/>
<path d="M40.36 26.21C40.36 26.21 40.31 26.21 40.28 26.21L32.47 25.53C32.21 25.51 31.98 25.37 31.83 25.16C31.68 24.95 31.64 24.68 31.7 24.43L33.76 16.87C33.85 16.54 34.12 16.3 34.46 16.24C34.79 16.18 35.13 16.32 35.33 16.6L41.08 24.84C41.27 25.12 41.29 25.48 41.12 25.78C40.96 26.05 40.67 26.22 40.36 26.22V26.21ZM33.67 23.88L38.57 24.3L34.96 19.13L33.66 23.88H33.67Z" fill="black"/>
<path d="M30.59 41.2C30.44 41.2 30.29 41.16 30.15 41.08C29.86 40.91 29.69 40.59 29.72 40.25L30.4 32.44C30.42 32.18 30.56 31.95 30.77 31.8C30.98 31.65 31.25 31.61 31.5 31.67L39.06 33.73C39.39 33.82 39.63 34.09 39.69 34.42C39.75 34.75 39.61 35.09 39.33 35.29L31.09 41.04C30.94 41.14 30.77 41.2 30.59 41.2V41.2ZM32.05 33.64L31.63 38.54L36.8 34.93L32.05 33.64Z" fill="black"/>
<path d="M24.68 24.25C24.6 24.25 24.53 24.24 24.45 24.22L16.89 22.16C16.56 22.07 16.32 21.8 16.26 21.47C16.2 21.14 16.34 20.8 16.62 20.6L24.86 14.85C25.14 14.66 25.51 14.64 25.8 14.81C26.09 14.98 26.26 15.3 26.23 15.64L25.55 23.45C25.53 23.71 25.39 23.94 25.18 24.09C25.03 24.19 24.86 24.25 24.68 24.25ZM19.15 20.96L23.9 22.25L24.32 17.35L19.15 20.96Z" fill="black"/>
</svg>
