<svg width="25" height="26" viewBox="0 0 25 26" fill="none" xmlns="http://www.w3.org/2000/svg">
<g id="Frame" clip-path="url(#clip0_1245_14473)">
<g id="Group">
<path id="Vector" d="M19.2099 21.7894H5.7899C3.9199 21.7894 2.3999 20.2794 2.3999 18.4294V15.2094C2.3999 14.8794 2.6699 14.6094 2.9999 14.6094C3.3299 14.6094 3.5999 14.8794 3.5999 15.2094V18.4294C3.5999 19.6194 4.5799 20.5894 5.7899 20.5894H19.2099C20.4199 20.5894 21.3999 19.6194 21.3999 18.4294V15.2094C21.3999 14.8794 21.6699 14.6094 21.9999 14.6094C22.3299 14.6094 22.5999 14.8794 22.5999 15.2094V18.4294C22.5999 20.2794 21.0799 21.7894 19.2099 21.7894Z" fill="#121212"/>
<g id="Group_2">
<path id="Vector_2" d="M12.5199 4.21016C12.6699 4.21016 12.8299 4.27016 12.9399 4.39016L15.4999 6.95016C15.7299 7.18016 15.7299 7.56016 15.4999 7.80016C15.2699 8.03016 14.8899 8.03016 14.6499 7.80016L12.5099 5.66016L10.3699 7.80016C10.1399 8.03016 9.75986 8.03016 9.51986 7.80016C9.28986 7.57016 9.28986 7.19016 9.51986 6.95016L12.0799 4.39016C12.1999 4.27016 12.3499 4.21016 12.4999 4.21016L12.5199 4.21016Z" fill="#121212"/>
<path id="Vector_3" d="M12.5199 4.27984C12.8499 4.27984 13.1199 4.54984 13.1199 4.87984L13.1199 16.4898C13.1199 16.8198 12.8499 17.0898 12.5199 17.0898C12.1899 17.0898 11.9199 16.8198 11.9199 16.4898L11.9199 4.87984C11.9199 4.54984 12.1899 4.27984 12.5199 4.27984Z" fill="#121212"/>
</g>
</g>
</g>
<defs>
<clipPath id="clip0_1245_14473">
<rect width="25" height="25" fill="white" transform="translate(0 0.5)"/>
</clipPath>
</defs>
</svg>
