<svg width="24" height="24" viewBox="0 0 24 24" fill="none" xmlns="http://www.w3.org/2000/svg">
<g clip-path="url(#clip0_7983_16483)">
<g clip-path="url(#clip1_7983_16483)">
<path d="M13.32 11.7524C15.1125 11.7524 16.5675 10.2974 16.5675 8.50495C16.5675 6.71245 15.1125 5.25745 13.32 5.25745C11.5275 5.25745 10.0725 6.71245 10.0725 8.50495C10.0725 10.2974 11.5275 11.7524 13.32 11.7524Z" fill="#FFCB09"/>
<path d="M20.3775 21.75C20.3775 19.2375 17.8725 17.1975 14.7975 17.1975C11.7225 17.1975 9.21753 19.23 9.21753 21.75H20.385H20.3775Z" fill="#FFCB09"/>
<path d="M12 12.375C9.105 12.375 6.75 10.02 6.75 7.125C6.75 4.23 9.105 1.875 12 1.875C14.895 1.875 17.25 4.23 17.25 7.125C17.25 10.02 14.895 12.375 12 12.375ZM12 2.625C9.5175 2.625 7.5 4.6425 7.5 7.125C7.5 9.6075 9.5175 11.625 12 11.625C14.4825 11.625 16.5 9.6075 16.5 7.125C16.5 4.6425 14.4825 2.625 12 2.625Z" fill="black"/>
<path d="M20.3776 22.125H3.62256C3.41256 22.125 3.24756 21.96 3.24756 21.75C3.24756 17.7825 7.17006 14.55 12.0001 14.55C16.8301 14.55 20.7526 17.7825 20.7526 21.75C20.7526 21.96 20.5876 22.125 20.3776 22.125ZM4.01256 21.375H19.9876C19.7476 17.9925 16.2526 15.3 12.0001 15.3C7.74756 15.3 4.25256 17.9925 4.01256 21.375Z" fill="black"/>
</g>
</g>
<defs>
<clipPath id="clip0_7983_16483">
<rect width="24" height="24" fill="white"/>
</clipPath>
<clipPath id="clip1_7983_16483">
<rect width="24" height="24" fill="white"/>
</clipPath>
</defs>
</svg>
