<svg width="20" height="20" viewBox="0 0 20 20" fill="none" xmlns="http://www.w3.org/2000/svg">
<g clip-path="url(#clip0_2390_8245)">
<path d="M10.0008 17.8417H4.95084C2.05917 17.8417 0.850839 15.775 2.25084 13.25L4.85084 8.56668L7.30084 4.15835C8.78417 1.48335 11.2175 1.48335 12.7008 4.15835L15.1508 8.56668L17.7508 13.25C19.1508 15.775 17.9342 17.8417 15.0508 17.8417H10.0008Z" fill="#121212"/>
<path d="M15.0504 18.3416H4.9504C3.36707 18.3416 2.16707 17.7749 1.55873 16.7499C0.950401 15.7249 1.04207 14.3916 1.80873 13.0082L6.85873 3.91657C7.66707 2.45824 8.78373 1.6499 10.0004 1.6499C11.2171 1.6499 12.3254 2.4499 13.1421 3.91657L18.1921 13.0082C18.9587 14.3916 19.0504 15.7166 18.4421 16.7499C17.8337 17.7749 16.6337 18.3416 15.0504 18.3416ZM10.0004 2.65824C9.16707 2.65824 8.36707 3.28324 7.73373 4.40824L2.68373 13.4916C2.09207 14.5499 2.0004 15.5249 2.41707 16.2416C2.83373 16.9499 3.73373 17.3416 4.9504 17.3416H15.0504C16.2671 17.3416 17.1587 16.9499 17.5754 16.2416C17.9921 15.5332 17.9004 14.5582 17.3087 13.4916L12.2671 4.40824C11.6421 3.28324 10.8337 2.65824 10.0004 2.65824Z" fill="#121212"/>
<path d="M10 12.1667C9.725 12.1667 9.5 11.9417 9.5 11.6667V7.5C9.5 7.225 9.725 7 10 7C10.275 7 10.5 7.225 10.5 7.5V11.6667C10.5 11.9417 10.275 12.1667 10 12.1667Z" fill="white"/>
<path d="M10 14.7499C9.725 14.7499 9.5 14.5249 9.5 14.2499V14.0833C9.5 13.8083 9.725 13.5833 10 13.5833C10.275 13.5833 10.5 13.8083 10.5 14.0833V14.2499C10.5 14.5249 10.275 14.7499 10 14.7499Z" fill="white"/>
</g>
<defs>
<clipPath id="clip0_2390_8245">
<rect width="20" height="20" fill="white"/>
</clipPath>
</defs>
</svg>
