<svg width="32" height="32" viewBox="0 0 32 32" fill="none" xmlns="http://www.w3.org/2000/svg">
<g clip-path="url(#clip0_7983_19230)">
<path d="M20.92 23.32C20.92 26.68 18.08 29.36 14.6667 29.1067C11.2533 28.8534 8.92 25.5067 9.38667 22.1334C9.66667 20.12 10.5867 18.28 11.6267 16.8C13.3067 14.3734 16.88 14.3867 18.5733 16.8134C19.8133 18.6134 20.92 20.8934 20.92 23.32Z" fill="#FFCB09"/>
<path d="M21.1733 21.2933C21.1733 26.5333 16.5333 30.7067 11.1333 29.9067C6.6 29.24 3.50667 25.16 3.76 20.5733C4.21333 12.32 12.4533 5.76001 12.4533 5.76001C12.4533 5.76001 21.16 12.9067 21.16 21.28L21.1733 21.2933Z" stroke="#121212" stroke-linecap="round" stroke-linejoin="round"/>
<path d="M12.4533 25.7866C9.66666 25.7866 7.39999 23.5199 7.39999 20.7333" stroke="#121212" stroke-linecap="round" stroke-linejoin="round"/>
<path d="M28.2533 8.32C28.2533 10.44 26.4 12.12 24.24 11.84C22.3867 11.6 21.0533 9.82667 21.1733 7.96C21.4 4.62667 24.7067 2 24.7067 2C24.7067 2 28.2533 4.90667 28.2533 8.32V8.32Z" stroke="#121212" stroke-linecap="round" stroke-linejoin="round"/>
</g>
<defs>
<clipPath id="clip0_7983_19230">
<rect width="32" height="32" fill="white"/>
</clipPath>
</defs>
</svg>
