<svg width="24" height="24" viewBox="0 0 24 24" fill="none" xmlns="http://www.w3.org/2000/svg">
<g clip-path="url(#clip0_9738_130)">
<path d="M14.4299 18.67C14.2799 18.67 14.1199 18.61 14.0099 18.49C13.7799 18.26 13.7799 17.88 14.0099 17.64L19.6599 11.99L14.0099 6.33999C13.7799 6.10999 13.7799 5.72999 14.0099 5.48999C14.2399 5.24999 14.6199 5.25999 14.8599 5.48999L20.9299 11.56C21.1599 11.79 21.1599 12.17 20.9299 12.41L14.8599 18.48C14.7399 18.6 14.5899 18.66 14.4399 18.66L14.4299 18.67Z" fill="white"/>
<path d="M20.3299 12.5999H3.4999C3.1699 12.5999 2.8999 12.3299 2.8999 11.9999C2.8999 11.6699 3.1699 11.3999 3.4999 11.3999H20.3299C20.6599 11.3999 20.9299 11.6699 20.9299 11.9999C20.9299 12.3299 20.6599 12.5999 20.3299 12.5999Z" fill="white"/>
</g>
<defs>
<clipPath id="clip0_9738_130">
<rect width="24" height="24" fill="white"/>
</clipPath>
</defs>
</svg>
