<svg width="24" height="25" viewBox="0 0 24 25" fill="none" xmlns="http://www.w3.org/2000/svg">
<g clip-path="url(#clip0_3586_23273)">
<path fill-rule="evenodd" clip-rule="evenodd" d="M1.40039 12.5004C1.40039 18.3504 6.16039 23.1004 12.0004 23.1004C17.8404 23.1004 22.6004 18.3504 22.6004 12.5004C22.6004 6.65039 17.8404 1.90039 12.0004 1.90039C6.16039 1.90039 1.40039 6.65039 1.40039 12.5004ZM15.706 16.2804C15.7075 16.2804 15.7089 16.2804 15.7104 16.2804H15.7004C15.7023 16.2804 15.7041 16.2804 15.706 16.2804ZM15.4004 16.2004C15.4989 16.2497 15.6072 16.2795 15.706 16.2804C15.9139 16.2786 16.1114 16.1787 16.2204 15.9904C16.3904 15.7104 16.2904 15.3404 16.0104 15.1704L12.2304 12.9104V8.0104C12.2304 7.6804 11.9604 7.4104 11.6304 7.4104C11.3004 7.4104 11.0304 7.6804 11.0304 8.0104V13.2504C11.0304 13.4704 11.1404 13.6604 11.3204 13.7704L15.4004 16.2004Z" fill="#F8A709"/>
</g>
<defs>
<clipPath id="clip0_3586_23273">
<rect y="0.5" width="24" height="24" rx="12" fill="white"/>
</clipPath>
</defs>
</svg>
