<svg width="25" height="25" viewBox="0 0 25 25" fill="none" xmlns="http://www.w3.org/2000/svg">
<g id="Youtube" clip-path="url(#clip0_3931_935)">
<path id="Vector" d="M11.5811 10.5381C12.7678 11.1541 13.8601 11.723 15.096 12.3636C13.8696 12.9986 12.7754 13.5655 11.5811 14.1816V10.5381Z" fill="#F7F7F7"/>
<path id="Vector_2" d="M24.8096 10.9277C24.4675 8.30661 23.2789 5.95386 21.5271 4.14913C21.4855 4.10378 21.442 4.05843 21.3967 4.01496C20.6502 3.2685 19.8055 2.62031 18.8852 2.08929C18.8171 2.0515 18.7472 2.01181 18.6792 1.97591C17.3526 1.24646 15.8729 0.760787 14.3006 0.58126C13.8452 0.526457 13.3822 0.5 12.9116 0.5C12.2426 0.5 11.585 0.554803 10.9463 0.66063C5.70217 1.52425 1.60327 5.78756 0.992881 11.1129C0.938078 11.5683 0.911621 12.0313 0.911621 12.5C0.911621 13.1217 0.958865 13.7321 1.04957 14.3274C1.05146 14.3331 1.05146 14.3369 1.05146 14.3406C1.4143 16.6896 2.45556 18.8118 3.97115 20.5013C4.74973 21.3743 5.65682 22.1321 6.66028 22.7444C6.71887 22.7822 6.77934 22.8162 6.83792 22.8502C8.22123 23.6647 9.78406 24.209 11.4508 24.4112C11.9289 24.4698 12.4165 24.5 12.9116 24.5C13.6089 24.5 14.293 24.4395 14.9582 24.3261C20.1211 23.4398 24.1557 19.254 24.8171 14.0194C24.8795 13.5224 24.9116 13.014 24.9116 12.5C24.9116 11.986 24.8776 11.4417 24.8096 10.9277ZM8.3932 17.1016C7.12516 17.0846 6.46186 16.5611 6.37871 15.3101C6.25398 13.4392 6.25209 11.5494 6.37871 9.67858C6.46186 8.42378 7.15162 7.91921 8.39509 7.89276C9.90123 7.85874 11.4093 7.8852 12.9173 7.8852V7.88898C14.4556 7.88898 15.9957 7.85874 17.534 7.89843C18.6338 7.92677 19.3387 8.41622 19.4049 9.50661C19.5258 11.5306 19.505 13.5734 19.3973 15.6011C19.3463 16.5498 18.5923 17.094 17.6266 17.1016C14.5482 17.1261 11.4716 17.1413 8.3932 17.1016Z" fill="#F7F7F7"/>
</g>
<defs>
<clipPath id="clip0_3931_935">
<rect width="24" height="24" fill="white" transform="translate(0.911621 0.5)"/>
</clipPath>
</defs>
</svg>
