<svg width="26" height="25" viewBox="0 0 26 25" fill="none" xmlns="http://www.w3.org/2000/svg"><g  clip-path="url(#clip0_15704_240094)"><path  d="M11.658 10.4565C12.8942 11.0983 14.032 11.6908 15.3194 12.3581C14.0418 13.0195 12.9021 13.6101 11.658 14.2518V10.4565Z" fill="#f70000"></path><path  d="M25.4374 10.8622C25.0811 8.13189 23.8429 5.6811 22.0181 3.80118C21.9748 3.75394 21.9295 3.70669 21.8823 3.66142C21.1047 2.88386 20.2248 2.20866 19.2661 1.65551C19.1953 1.61614 19.1224 1.5748 19.0516 1.5374C17.6697 0.777559 16.1283 0.271654 14.4906 0.0846457C14.0161 0.0275591 13.5339 0 13.0437 0C12.3469 0 11.6618 0.0570866 10.9965 0.167323C5.53386 1.06693 1.26417 5.50787 0.628347 11.0551C0.57126 11.5295 0.543701 12.0118 0.543701 12.5C0.543701 13.1476 0.592914 13.7835 0.687402 14.4035C0.68937 14.4094 0.68937 14.4134 0.68937 14.4173C1.06732 16.8642 2.15197 19.0748 3.73071 20.8346C4.54173 21.7441 5.48661 22.5335 6.53189 23.1713C6.59291 23.2106 6.65591 23.2461 6.71693 23.2815C8.15787 24.1299 9.78583 24.6968 11.522 24.9075C12.0201 24.9685 12.528 25 13.0437 25C13.7701 25 14.4827 24.937 15.1756 24.8189C20.5535 23.8957 24.7563 19.5354 25.4453 14.0827C25.5102 13.565 25.5437 13.0354 25.5437 12.5C25.5437 11.9646 25.5083 11.3976 25.4374 10.8622ZM8.33701 17.2933C7.01614 17.2756 6.3252 16.7303 6.23858 15.4272C6.10866 13.4783 6.10669 11.5098 6.23858 9.56102C6.3252 8.25394 7.0437 7.72835 8.33898 7.70079C9.90787 7.66535 11.4787 7.69291 13.0496 7.69291V7.69685C14.652 7.69685 16.2563 7.66535 17.8587 7.70669C19.0043 7.73622 19.7386 8.24606 19.8075 9.38189C19.9335 11.4902 19.9118 13.6181 19.7996 15.7303C19.7465 16.7185 18.961 17.2854 17.9551 17.2933C14.7484 17.3189 11.5437 17.3346 8.33701 17.2933Z" fill="#f70000"></path></g><defs ><clipPath  id="clip0_15704_240094"><rect  width="25" height="25" fill="white" transform="translate(0.543701)" stroke="white"></rect></clipPath></defs></svg>