<svg width="32" height="32" viewBox="0 0 32 32" fill="none" xmlns="http://www.w3.org/2000/svg">
<g clip-path="url(#clip0_3094_27032)">
<g clip-path="url(#clip1_3094_27032)">
<path d="M19.3899 27.74C23.3774 27.74 26.6099 24.0419 26.6099 19.48C26.6099 14.9181 23.3774 11.22 19.3899 11.22C15.4024 11.22 12.1699 14.9181 12.1699 19.48C12.1699 24.0419 15.4024 27.74 19.3899 27.74Z" fill="#FFCB09"/>
<path d="M16.2003 29C10.1803 29 5.28027 24.1 5.28027 18.08V13.28C5.28027 13 5.50027 12.78 5.78027 12.78C6.06027 12.78 6.28027 13 6.28027 13.28V18.08C6.28027 23.55 10.7303 28 16.2003 28C21.6703 28 26.1203 23.55 26.1203 18.08V13.28C26.1203 13 26.3403 12.78 26.6203 12.78C26.9003 12.78 27.1203 13 27.1203 13.28V18.08C27.1203 24.1 22.2203 29 16.2003 29Z" fill="#121212"/>
<path d="M16.2003 24.83C10.1803 24.83 5.28027 19.93 5.28027 13.91C5.28027 7.89 10.1803 3 16.2003 3C22.2203 3 27.1203 7.9 27.1203 13.92C27.1203 19.94 22.2203 24.84 16.2003 24.84V24.83ZM16.2003 4C10.7303 4 6.28027 8.45 6.28027 13.92C6.28027 19.39 10.7303 23.84 16.2003 23.84C21.6703 23.84 26.1203 19.39 26.1203 13.92C26.1203 8.45 21.6703 4 16.2003 4Z" fill="#121212"/>
<path d="M9.24023 26.34C8.96023 26.34 8.74023 26.12 8.74023 25.84V21.67C8.74023 21.39 8.96023 21.17 9.24023 21.17C9.52023 21.17 9.74023 21.39 9.74023 21.67V25.84C9.74023 26.12 9.52023 26.34 9.24023 26.34Z" fill="#121212"/>
<path d="M13.1006 28.53C12.8206 28.53 12.6006 28.31 12.6006 28.03V23.87C12.6006 23.59 12.8206 23.37 13.1006 23.37C13.3806 23.37 13.6006 23.59 13.6006 23.87V28.03C13.6006 28.31 13.3806 28.53 13.1006 28.53Z" fill="#121212"/>
<path d="M18.8906 28.65C18.6106 28.65 18.3906 28.43 18.3906 28.15V23.98C18.3906 23.7 18.6106 23.48 18.8906 23.48C19.1706 23.48 19.3906 23.7 19.3906 23.98V28.15C19.3906 28.43 19.1706 28.65 18.8906 28.65Z" fill="#121212"/>
<path d="M22.8506 26.6C22.5706 26.6 22.3506 26.38 22.3506 26.1V21.94C22.3506 21.66 22.5706 21.44 22.8506 21.44C23.1306 21.44 23.3506 21.66 23.3506 21.94V26.1C23.3506 26.38 23.1306 26.6 22.8506 26.6Z" fill="#121212"/>
<path d="M25.8398 22.51C25.5598 22.51 25.3398 22.29 25.3398 22.01V17.85C25.3398 17.57 25.5598 17.35 25.8398 17.35C26.1198 17.35 26.3398 17.57 26.3398 17.85V22.01C26.3398 22.29 26.1198 22.51 25.8398 22.51Z" fill="#121212"/>
<path d="M6.62988 22.71C6.34988 22.71 6.12988 22.49 6.12988 22.21V18.04C6.12988 17.76 6.34988 17.54 6.62988 17.54C6.90988 17.54 7.12988 17.76 7.12988 18.04V22.21C7.12988 22.49 6.90988 22.71 6.62988 22.71Z" fill="#121212"/>
<path d="M20.3698 9.28H13.2998C13.0198 9.28 12.7998 9.06 12.7998 8.78C12.7998 8.5 13.0198 8.28 13.2998 8.28H20.3698C20.6498 8.28 20.8698 8.5 20.8698 8.78C20.8698 9.06 20.6498 9.28 20.3698 9.28Z" fill="#121212"/>
<path d="M20.3703 12.83H12.0303C11.7503 12.83 11.5303 12.61 11.5303 12.33C11.5303 12.05 11.7503 11.83 12.0303 11.83H20.3603C20.6403 11.83 20.8603 12.05 20.8603 12.33C20.8603 12.61 20.6403 12.83 20.3603 12.83H20.3703Z" fill="#121212"/>
<path d="M17.6206 20.84C17.5006 20.84 17.3806 20.8 17.2906 20.72L11.7206 15.81C11.5106 15.63 11.4906 15.31 11.6806 15.1C11.8606 14.89 12.1806 14.87 12.3906 15.06L17.9606 19.97C18.1706 20.15 18.1906 20.47 18.0006 20.68C17.9006 20.79 17.7606 20.85 17.6206 20.85V20.84Z" fill="#121212"/>
<path d="M13.29 15.93H12.04C11.76 15.93 11.54 15.71 11.54 15.43C11.54 15.15 11.76 14.93 12.04 14.93H13.29C14.85 14.93 16.11 13.66 16.11 12.11C16.11 10.56 14.84 9.29 13.29 9.29H12.04C11.76 9.29 11.54 9.07 11.54 8.79C11.54 8.51 11.76 8.29 12.04 8.29H13.29C15.4 8.29 17.11 10.01 17.11 12.11C17.11 14.21 15.39 15.93 13.29 15.93Z" fill="#121212"/>
</g>
</g>
<defs>
<clipPath id="clip0_3094_27032">
<rect width="32" height="32" fill="white"/>
</clipPath>
<clipPath id="clip1_3094_27032">
<rect width="32" height="32" fill="white"/>
</clipPath>
</defs>
</svg>
